<svg width="202" height="105" viewBox="0 0 202 105" fill="none" xmlns="http://www.w3.org/2000/svg">
<g filter="url(#filter0_di_510_598)">
<path d="M28 32.8696C28 30.1802 30.1802 28 32.8696 28L128.783 28.0001L137.305 32.8696L140.349 38.9566L140.957 35.9131L139.89 31.1108C139.797 30.6917 139.931 30.2545 140.244 29.9602L142.327 28.0001H104.565H121.652H114.956H144.217H160.457H169.13C171.82 28.0001 174 30.1802 174 32.8696V35.3044L172.425 35.6545C171.654 35.8258 170.861 35.871 170.075 35.7883L165.478 35.3044L164.261 38.9566L163.995 39.4889C163.373 40.7314 162.411 41.771 161.22 42.4857L160 43.2175H164.261L167.913 38.9566L171.261 40.7827L174 42.0001V42.6088V52.2175V72.1305C174 74.8199 171.82 77.0001 169.13 77.0001H114.956H111.57L109.478 75.174L115.565 69.6957L109.478 73L108.565 70.9131L107.5 67.8696L103.391 65.6088L106.739 69.3914L107.043 73.9566L101.413 77.0001H87.8694H121.652L32.8696 77C30.1802 77 28 74.8198 28 72.1304V52.2174V49.913V48.087L35.3043 51.1304H42.6087L34.6957 46.2609L32.8696 43.2174L28 41.3913V32.8696Z" fill="url(#paint0_linear_510_598)" fill-opacity="0.16" shape-rendering="crispEdges"/>
<path d="M32.8696 28.3044L104.562 28.3044C104.563 28.3044 104.564 28.3044 104.565 28.3044L114.954 28.3044C114.955 28.3044 114.956 28.3044 114.956 28.3044H121.652C121.653 28.3044 121.653 28.3044 121.654 28.3044L128.702 28.3044L137.074 33.0882L140.076 39.0927C140.134 39.209 140.26 39.2755 140.389 39.2582C140.518 39.241 140.621 39.1438 140.647 39.0163L141.256 35.9728C141.264 35.9313 141.264 35.8884 141.254 35.8471L140.187 31.0448C140.117 30.7305 140.218 30.4026 140.453 30.1819L142.447 28.3044H144.217H160.457H169.13C171.652 28.3044 173.696 30.3483 173.696 32.8696V35.0603L172.359 35.3574C171.62 35.5215 170.86 35.5648 170.107 35.4856L165.51 35.0017C165.368 34.9868 165.235 35.0726 165.19 35.2082L163.979 38.8398L163.722 39.3528C163.127 40.5435 162.205 41.5398 161.063 42.2247L159.843 42.9565C159.726 43.0269 159.67 43.1669 159.707 43.2987C159.743 43.4305 159.863 43.5218 160 43.5218H164.261C164.35 43.5218 164.434 43.483 164.492 43.4155L167.984 39.3418L171.115 41.0499C171.119 41.052 171.123 41.0541 171.127 41.0561C171.13 41.0577 171.134 41.0593 171.137 41.0608L173.696 42.1978V42.6088V52.2175V72.1305C173.696 74.6518 171.652 76.6957 169.13 76.6957H121.652H114.956H111.685L109.937 75.1705L115.769 69.9219C115.883 69.8187 115.903 69.6461 115.814 69.5201C115.725 69.3941 115.555 69.3546 115.42 69.4282L109.624 72.5744L108.848 70.8016L107.787 67.7691C107.762 67.6983 107.712 67.6391 107.647 67.603L103.538 65.3421C103.408 65.2707 103.246 65.303 103.153 65.4186C103.061 65.5342 103.065 65.6996 103.163 65.8105L106.442 69.5153L106.727 73.7818L101.336 76.6957H87.8694L32.8696 76.6957C30.3483 76.6957 28.3043 74.6517 28.3043 72.1304V52.2174V49.913V48.5435L35.1873 51.4114C35.2244 51.4268 35.2642 51.4348 35.3043 51.4348H42.6087C42.7449 51.4348 42.8645 51.3443 42.9015 51.2133C42.9386 51.0823 42.8842 50.9426 42.7682 50.8712L34.9184 46.0406L33.1305 43.0608C33.0952 43.0018 33.0408 42.9566 32.9764 42.9324L28.3043 41.1804V32.8696C28.3043 30.3483 30.3483 28.3043 32.8696 28.3044Z" stroke="url(#paint1_linear_510_598)" stroke-width="0.608696" stroke-linejoin="round" shape-rendering="crispEdges"/>
</g>
<path d="M72.2239 40C73.6299 40 74.7639 41.137 74.8309 42.475V64L72.1539 61.727L70.6839 60.389L69.0799 58.991L69.7499 61.196H55.7119C54.3099 61.196 53.1719 60.131 53.1719 58.72V42.48C53.1719 41.142 54.3119 40.003 55.7169 40.003H72.2169L72.2239 40ZM66.1059 45.683H66.0759L65.8739 45.883C67.9469 46.483 68.9499 47.42 68.9499 47.42C67.6139 46.752 66.4099 46.418 65.2059 46.283C64.3359 46.148 63.4659 46.219 62.7309 46.283H62.5309C62.0609 46.283 61.0609 46.483 59.7209 47.018C59.2539 47.221 58.9859 47.354 58.9859 47.354C58.9859 47.354 59.9879 46.352 62.1959 45.817L62.0609 45.682C62.0609 45.682 60.3889 45.618 58.5839 46.952C58.5839 46.952 56.7789 50.096 56.7789 53.972C56.7789 53.972 57.7789 55.712 60.5219 55.778C60.5219 55.778 60.9219 55.245 61.3269 54.776C59.7869 54.308 59.1869 53.372 59.1869 53.372C59.1869 53.372 59.3209 53.438 59.5219 53.572H59.5819C59.6119 53.572 59.6259 53.587 59.6419 53.602V53.608C59.6579 53.624 59.6719 53.638 59.7019 53.638C60.0319 53.774 60.3619 53.908 60.6319 54.038C61.0979 54.24 61.6969 54.441 62.4319 54.574C63.3619 54.709 64.4279 54.774 65.6419 54.574C66.2419 54.439 66.8419 54.307 67.4419 54.039C67.8319 53.839 68.3119 53.639 68.8389 53.302C68.8389 53.302 68.2389 54.238 66.6339 54.706C66.9639 55.172 67.4289 55.706 67.4289 55.706C70.1729 55.646 71.2389 53.906 71.2989 53.98C71.2989 50.11 69.4839 46.96 69.4839 46.96C67.8489 45.746 66.3189 45.7 66.0489 45.7L66.1049 45.68L66.1059 45.683ZM66.2739 50.096C66.9769 50.096 67.5439 50.696 67.5439 51.431C67.5439 52.171 66.9739 52.771 66.2739 52.771C65.5739 52.771 65.0039 52.171 65.0039 51.437C65.0059 50.697 65.5769 50.099 66.2739 50.099V50.096ZM61.7309 50.096C62.4309 50.096 62.9969 50.696 62.9969 51.431C62.9969 52.171 62.4269 52.771 61.7269 52.771C61.0269 52.771 60.4569 52.171 60.4569 51.437C60.4569 50.697 61.0269 50.099 61.7269 50.099L61.7309 50.096Z" fill="#FF6F66"/>
<path d="M72.2239 40C73.6299 40 74.7639 41.137 74.8309 42.475V64L72.1539 61.727L70.6839 60.389L69.0799 58.991L69.7499 61.196H55.7119C54.3099 61.196 53.1719 60.131 53.1719 58.72V42.48C53.1719 41.142 54.3119 40.003 55.7169 40.003H72.2169L72.2239 40ZM66.1059 45.683H66.0759L65.8739 45.883C67.9469 46.483 68.9499 47.42 68.9499 47.42C67.6139 46.752 66.4099 46.418 65.2059 46.283C64.3359 46.148 63.4659 46.219 62.7309 46.283H62.5309C62.0609 46.283 61.0609 46.483 59.7209 47.018C59.2539 47.221 58.9859 47.354 58.9859 47.354C58.9859 47.354 59.9879 46.352 62.1959 45.817L62.0609 45.682C62.0609 45.682 60.3889 45.618 58.5839 46.952C58.5839 46.952 56.7789 50.096 56.7789 53.972C56.7789 53.972 57.7789 55.712 60.5219 55.778C60.5219 55.778 60.9219 55.245 61.3269 54.776C59.7869 54.308 59.1869 53.372 59.1869 53.372C59.1869 53.372 59.3209 53.438 59.5219 53.572H59.5819C59.6119 53.572 59.6259 53.587 59.6419 53.602V53.608C59.6579 53.624 59.6719 53.638 59.7019 53.638C60.0319 53.774 60.3619 53.908 60.6319 54.038C61.0979 54.24 61.6969 54.441 62.4319 54.574C63.3619 54.709 64.4279 54.774 65.6419 54.574C66.2419 54.439 66.8419 54.307 67.4419 54.039C67.8319 53.839 68.3119 53.639 68.8389 53.302C68.8389 53.302 68.2389 54.238 66.6339 54.706C66.9639 55.172 67.4289 55.706 67.4289 55.706C70.1729 55.646 71.2389 53.906 71.2989 53.98C71.2989 50.11 69.4839 46.96 69.4839 46.96C67.8489 45.746 66.3189 45.7 66.0489 45.7L66.1049 45.68L66.1059 45.683ZM66.2739 50.096C66.9769 50.096 67.5439 50.696 67.5439 51.431C67.5439 52.171 66.9739 52.771 66.2739 52.771C65.5739 52.771 65.0039 52.171 65.0039 51.437C65.0059 50.697 65.5769 50.099 66.2739 50.099V50.096ZM61.7309 50.096C62.4309 50.096 62.9969 50.696 62.9969 51.431C62.9969 52.171 62.4269 52.771 61.7269 52.771C61.0269 52.771 60.4569 52.171 60.4569 51.437C60.4569 50.697 61.0269 50.099 61.7269 50.099L61.7309 50.096Z" fill="#FF6F66"/>
<g filter="url(#filter1_d_510_598)">
<path d="M89.1539 58H92.1059V48.478H95.4539V46.156H85.7879V48.478H89.1539V58ZM98.2558 58H101.496L103.044 52.15H103.098L104.556 58H107.922L110.406 49.108H107.85L106.284 55.354H106.266L104.61 49.108H101.892L100.182 55.354H100.146L98.6518 49.108H95.7718L98.2558 58ZM111.462 48.172H114.198V45.994H111.462V48.172ZM111.462 58H114.198V49.108H111.462V58ZM120.162 58.144C120.9 58.144 121.656 58 121.89 57.946V55.876C121.584 55.948 121.026 56.002 120.648 56.002C119.568 56.002 119.136 55.714 119.136 54.796V51.232H121.98V49.108H119.136V47.092H116.886L116.76 48.334C116.706 48.874 116.562 49.108 116.148 49.108H115.086V51.232H116.4V54.94C116.4 56.92 117.39 58.144 120.162 58.144ZM127.738 58.144C128.476 58.144 129.232 58 129.466 57.946V55.876C129.16 55.948 128.602 56.002 128.224 56.002C127.144 56.002 126.712 55.714 126.712 54.796V51.232H129.556V49.108H126.712V47.092H124.462L124.336 48.334C124.282 48.874 124.138 49.108 123.724 49.108H122.662V51.232H123.976V54.94C123.976 56.92 124.966 58.144 127.738 58.144ZM139.232 53.302C139.232 50.386 137.486 48.964 135.002 48.964C131.996 48.964 130.16 50.71 130.16 53.644C130.16 56.47 131.996 58.144 134.948 58.144C137.486 58.144 139.178 56.956 139.232 54.922H136.82C136.748 55.786 136.064 56.164 135.002 56.164C133.778 56.164 133.04 55.534 132.914 54.076H139.232V53.302ZM136.82 52.618H132.986C133.202 51.448 133.85 50.944 135.002 50.944C136.136 50.944 136.82 51.466 136.82 52.474V52.618ZM140.429 58H143.165V54.166C143.165 52.186 143.975 51.232 145.145 51.232C146.009 51.232 146.531 51.754 146.531 53.05C146.531 53.32 146.513 53.77 146.477 54.202H148.961C148.997 53.734 149.051 52.942 149.051 52.438C149.051 50.134 147.989 48.964 146.171 48.964C144.425 48.964 143.471 49.954 143.093 51.646H143.057L143.165 49.108H140.429V58Z" fill="white"/>
</g>
<defs>
<filter id="filter0_di_510_598" x="0.448275" y="0.448278" width="201.103" height="104.104" filterUnits="userSpaceOnUse" color-interpolation-filters="sRGB">
<feFlood flood-opacity="0" result="BackgroundImageFix"/>
<feColorMatrix in="SourceAlpha" type="matrix" values="0 0 0 0 0 0 0 0 0 0 0 0 0 0 0 0 0 0 127 0" result="hardAlpha"/>
<feOffset/>
<feGaussianBlur stdDeviation="13.7759"/>
<feComposite in2="hardAlpha" operator="out"/>
<feColorMatrix type="matrix" values="0 0 0 0 1 0 0 0 0 0.436 0 0 0 0 0.4 0 0 0 0.5 0"/>
<feBlend mode="normal" in2="BackgroundImageFix" result="effect1_dropShadow_510_598"/>
<feBlend mode="normal" in="SourceGraphic" in2="effect1_dropShadow_510_598" result="shape"/>
<feColorMatrix in="SourceAlpha" type="matrix" values="0 0 0 0 0 0 0 0 0 0 0 0 0 0 0 0 0 0 127 0" result="hardAlpha"/>
<feOffset/>
<feGaussianBlur stdDeviation="5.47826"/>
<feComposite in2="hardAlpha" operator="arithmetic" k2="-1" k3="1"/>
<feColorMatrix type="matrix" values="0 0 0 0 1 0 0 0 0 0.436 0 0 0 0 0.4 0 0 0 1 0"/>
<feBlend mode="normal" in2="shape" result="effect2_innerShadow_510_598"/>
</filter>
<filter id="filter1_d_510_598" x="51.7878" y="11.994" width="131.263" height="80.15" filterUnits="userSpaceOnUse" color-interpolation-filters="sRGB">
<feFlood flood-opacity="0" result="BackgroundImageFix"/>
<feColorMatrix in="SourceAlpha" type="matrix" values="0 0 0 0 0 0 0 0 0 0 0 0 0 0 0 0 0 0 127 0" result="hardAlpha"/>
<feOffset/>
<feGaussianBlur stdDeviation="17"/>
<feComposite in2="hardAlpha" operator="out"/>
<feColorMatrix type="matrix" values="0 0 0 0 1 0 0 0 0 0.436 0 0 0 0 0.4 0 0 0 1 0"/>
<feBlend mode="normal" in2="BackgroundImageFix" result="effect1_dropShadow_510_598"/>
<feBlend mode="normal" in="SourceGraphic" in2="effect1_dropShadow_510_598" result="shape"/>
</filter>
<linearGradient id="paint0_linear_510_598" x1="217.133" y1="23" x2="735.423" y2="23" gradientUnits="userSpaceOnUse">
<stop stop-color="#FF6157"/>
<stop offset="1" stop-color="#FF6F66" stop-opacity="0"/>
</linearGradient>
<linearGradient id="paint1_linear_510_598" x1="204.991" y1="32.2617" x2="234.518" y2="116.582" gradientUnits="userSpaceOnUse">
<stop stop-color="#FF6F66"/>
<stop offset="1" stop-color="#873934"/>
</linearGradient>
</defs>
</svg>
