<svg width="287" height="123" viewBox="0 0 287 123" fill="none" xmlns="http://www.w3.org/2000/svg">
<path d="M46.2539 122.935C46.2582 122.914 46.2624 122.893 46.2667 122.867V122.846H46.2582C46.2582 122.846 46.2624 122.855 46.2624 122.863C46.2582 122.889 46.2539 122.91 46.2497 122.931L46.2539 122.935Z" fill="white"/>
<path d="M286.795 36.3787C286.786 35.8919 286.111 35.1916 286.098 35.1232C286.175 32.5012 283.313 28.1624 281.604 25.0963C281.142 24.2721 271.867 21.0095 270.017 20.1127C268.837 19.5405 262.822 14.8814 262.638 14.732C261.305 13.6345 261.219 9.96616 260.489 9.61599C257.712 8.27934 253.02 2.93704 252.589 2.46303C251.726 1.51926 248.188 -0.124851 247.774 0.0075322C248.795 1.99755 250.222 9.64588 250.222 12.7377C248.654 15.7825 245.449 16.4017 242.108 17.7469C241.664 18.8017 238.793 21.6244 238.412 21.8166C237.695 22.171 236.947 21.697 236.204 21.9874C235.695 22.1881 231.068 23.0379 230.692 23.3796C230.893 23.8536 233.05 30.4172 233.136 31.2585C233.341 33.2485 234.247 40.2904 234.43 41.8321C234.507 42.4854 233.879 46.1794 233.973 46.6961C234.234 48.1267 234.447 52.7131 234.695 52.8071C234.806 52.7558 241.783 46.568 242.728 46.3203C242.894 46.2947 244.813 45.5345 245.535 45.2826C247.086 45.1673 256.861 46.9822 256.861 46.9822L254.11 47.721C254.148 50.8085 254.247 54.5921 253.161 58.8753C254.311 60.1223 253.952 60.5408 254.076 61.0319C253.999 63.3678 254.529 70.8795 254.396 73.2111C254.294 75.0688 254.11 76.9264 254.071 78.7883C254.037 80.4666 252.773 85.2324 252.666 86.0053C252.508 87.1498 249.833 94.0295 249.551 94.5334C249.431 94.4522 250.102 89.964 249.807 89.3405C248.735 87.0559 244.471 79.0445 243.894 76.1492C243.655 75.3165 243.134 72.1734 243.108 68.6717C243.082 64.4867 243.719 60.3401 244.723 56.2746C244.796 55.9714 238.101 59.2426 237.861 59.4518C237.699 59.5928 232.918 68.2788 232.585 68.4411C231.679 68.8895 224.732 71.3151 224.544 71.4389C224.514 71.093 224.762 59.6867 224.762 52.0256C223.933 45.0306 224.501 32.6549 224.535 28.3845C224.535 28.3845 225.261 25.8222 225.642 24.9212C224.228 25.0578 220.169 23.6144 219.891 23.5974C218.374 23.5205 214.302 20.9241 213.085 20.3988C209.795 18.981 207.458 14.5654 206.15 11.5761C204.843 13.643 203.958 16.5255 203.493 17.7981C203.01 19.1134 201.203 21.1077 200.861 21.6244L194.191 17.9049C194.191 17.9049 189.616 16.3547 187.911 14.0316C188.282 16.9867 189.175 19.0878 189.175 19.0878L193.79 26.5995C193.79 26.5995 194.7 32.7275 194.755 33.7012C194.888 35.909 194.952 38.1211 194.879 40.3331C194.824 42.0712 194.794 43.8093 194.764 45.5473C194.751 46.1196 194.965 48.3317 195.067 50.1466C194.67 52.4014 195.354 58.3672 195.366 59.8703C195.409 64.7984 194.217 75.7862 194.238 76.7001C194.281 78.6474 192.508 87.611 192.529 87.8203C194.696 88.1235 195.644 88.5719 197.772 88.717C197.896 88.9733 200.532 93.1241 200.912 93.5426C201.861 94.5932 204.595 96.66 205.069 97.0657C206.197 98.0266 207.103 100.111 208.808 101.088C208.432 97.9839 208.022 93.0942 206.548 89.4857C206.428 88.0381 205.92 82.1235 205.727 80.6203C205.552 79.2453 205.069 76.2517 205.069 76.1236C205.095 73.3435 205.095 70.5635 205.163 67.7834C205.227 65.1315 205.381 58.555 205.45 55.9031C205.471 55.1174 204.843 50.7957 204.749 49.4121C204.599 47.1744 204.279 37.6342 204.287 36.4385C204.296 35.5118 204.493 33.0563 204.894 32.2236C205.347 31.2884 202.779 28.897 203.078 27.8891C203.091 27.8422 210.722 32.1425 212.081 33.8122C212.363 34.1624 214.384 34.7901 214.217 34.4827C214.384 34.7901 214.392 42.5239 214.371 44.6762C214.059 46.316 214.311 61.3479 214.272 67.8603C215.426 71.3749 214.422 78.2374 214.136 77.9556C214.153 78.2716 215.443 89.127 215.417 89.3405C215.405 89.443 214.49 87.7562 214.033 87.0345C214.012 87.09 214.332 95.5284 214.345 95.8316C215.204 96.2971 223.971 101.998 224.223 102.28C225.044 103.194 225.838 104.138 226.723 104.983C227.722 105.94 230.098 107.784 230.26 107.844C229.901 101.763 226.915 95.3106 227.039 91.89C227.09 90.4423 224.262 79.6723 225.138 74.5948C225.223 74.5435 230.312 78.6431 231.145 79.7235C233.226 82.4139 237.682 90.9676 237.682 90.9676C237.682 90.9676 241.852 103.356 241.971 104.249C242.027 104.676 242.869 113.046 243.048 113.443C243.557 114.57 241.433 122.206 241.314 122.825C246.223 119.349 248.692 112.046 250.196 109.706C251.41 107.814 255.306 101.537 257.075 100.153C258.041 97.9753 260.587 93.3675 261.724 92.8209C265.308 91.0871 266.479 89.6608 267.466 88.9733C266.893 88.243 265.577 85.9028 265.513 85.416C265.364 84.2886 264.543 76.1705 264.509 75.6026C264.437 74.4069 264.821 61.9116 264.821 59.6355C264.821 58.9992 264.223 55.8433 264.279 54.8569C264.334 53.9131 264.138 50.8213 264.419 48.7288C264.27 47.6398 263.676 43.5317 263.77 41.9645C264.103 41.3666 266.099 40.0897 266.423 39.7609C265.325 39.5645 262.176 37.8563 260.946 37.8563C258.716 37.8563 254.016 34.5894 253.033 33.7524C251.465 35.2556 250.094 37.4848 249.132 38.4969C248.59 39.0691 245.633 40.9524 244.945 41.3282C244.783 39.6371 244.445 37.6983 245.347 34.8115C245.377 34.03 245.364 29.5888 245.266 27.8934H241.527C241.574 27.7995 246.244 26.0956 246.723 26.3689C247.274 26.0785 252.696 26.6763 253.315 26.6891C253.956 26.702 261.911 27.0607 262.279 27.334C263.082 27.9318 267.06 28.8799 267.996 29.2471C271.781 30.7247 275.669 30.319 278.758 32.8556C279.608 33.5517 283.21 37.4549 283.838 37.6684C285.547 38.2535 286.842 41.6484 287 41.7168C286.983 40.884 286.803 37.1431 286.791 36.3873L286.795 36.3787Z" fill="white"/>
<path d="M54.4872 76.794C54.4188 75.3122 54.5385 71.3407 54.5727 70.8368C54.6538 69.6752 54.8974 66.3016 54.9059 65.8617C54.9059 65.8617 54.4359 65.3706 54.3248 65.0546C54.1796 63.6838 54.1753 62.3685 54.2266 61.0959C54.2736 59.8447 52.8465 47.5416 53.2781 46.1025C52.7568 45.8761 51.7827 45.4235 51.6459 44.8384C52.5005 43.9929 52.6714 43.9459 53.2182 43.331C53.3592 39.8591 53.6071 34.5552 53.9019 31.0919C54.0429 29.435 54.2778 26.0913 55.2563 24.0799C53.0815 23.4479 43.5195 16.944 43.37 16.833C43.0154 16.5725 41.8276 15.3511 41.7165 15.3298C41.7934 15.6202 42.1139 16.7945 42.0797 16.7647C41.4089 16.1454 40.6868 15.5732 40.0887 14.8899C39.341 14.0359 39.4777 12.1782 39.3068 11.9903C38.5548 11.1832 37.6362 11.2216 37.0979 10.2736C37.1491 9.74835 37.7302 6.55834 37.8712 5.99464C38.3113 4.26512 39.623 0.929921 40.3279 0.041673C39.1615 -0.0650876 37.3542 1.03241 36.1579 1.6986C35.0428 2.31781 34.4745 3.61602 33.6115 4.55978C33.1799 5.0338 28.9672 7.16047 28.2921 7.76687C27.3052 8.65512 26.66 8.86437 25.562 9.60315C24.8912 10.0558 22.9258 13.3398 22.2977 13.8565C21.9346 14.1554 17.5424 18.1782 17.4697 18.2465C15.013 18.5839 14.5217 20.9155 13.21 20.9155C11.8983 20.9155 8.36917 24.2464 7.1814 24.84C6.28416 25.2927 4.41706 28.0941 4.13507 28.4827C3.93853 28.7517 2.9772 31.2841 2.7123 31.7795C2.4175 32.3303 2.23805 34.773 0.708472 37.109C0.524752 37.3865 -0.321215 41.2982 0.131676 42.2463C1.3109 40.2136 2.18678 38.1894 3.2421 38.168C4.13934 38.1509 8.5059 32.4969 10.232 31.8094C12.1077 31.062 14.8635 29.3325 16.0811 29.2343C17.8073 29.0934 24.2973 27.1589 26.9975 27.0393C27.1684 27.0308 29.4543 27.2016 29.6893 27.2528C29.1466 28.9994 21.1954 35.2129 17.7047 35.2129C17.7047 36.8228 18.179 39.0306 18.6319 39.936C19.0677 40.8071 19.5376 41.6655 19.8239 42.605C19.9051 42.8655 20.8109 43.5018 20.9006 43.7409C21.2082 44.5566 21.9388 45.6583 22.3618 46.5167C21.5201 46.363 20.986 45.3039 20.0546 45.1544C20.358 46.7601 21.6568 53.0334 21.6568 54.4682C21.6568 58.3415 21.6312 74.7527 21.5415 77.8146C21.5244 78.4765 21.1612 84.1776 20.7767 85.3904C20.7767 85.3904 19.888 86.5263 19.0121 86.8936C17.8543 87.3804 16.9314 87.8288 16.1324 88.717C16.5939 88.7982 18.4781 89.1099 19.2428 89.712C20.7382 90.8821 24.5665 91.9113 24.5665 91.9113C24.8484 92.2529 26.5788 94.5376 27.5743 95.2422C27.8008 95.4002 28.2024 96.5404 28.6724 97.2152C31.2103 100.836 34.1754 105.359 36.7518 110.125C38.871 114.041 42.5454 119.37 45.5575 122.833C45.3952 122.009 45.2499 120.86 44.9936 120.344C44.404 119.161 44.1903 115.68 44.31 114.583C44.404 113.716 44.1391 113.584 44.1519 113.093C44.169 112.367 43.9852 108.792 43.9553 107.725C43.9425 107.216 44.0237 106.738 44.2331 106.256C44.5663 105.478 44.8654 104.103 44.985 103.254C45.0833 102.553 48.1467 97.9326 48.2322 96.4209C48.2407 96.2458 52.0817 89.6394 52.0817 89.6394C53.3849 88.9861 55.111 88.3626 55.5297 88.149C55.5297 88.149 54.5513 78.3911 54.4787 76.7812L54.4872 76.794ZM43.5238 73.0873C43.3828 73.6253 43.6263 74.2403 43.1777 74.71C43.1008 75.389 41.1824 82.6359 41.0115 83.7591C41.0414 85.7832 39.8323 90.5448 35.9571 93.9355L37.508 90.0622C36.2733 87.4273 33.4064 83.0801 33.4064 79.5057C33.4064 78.4595 32.2699 78.1349 32.2699 77.1356C32.2699 76.6531 32.9236 76.0125 33.4918 76.0125C33.4705 75.8887 32.3639 65.6824 32.334 64.0425C32.2827 61.2155 33.2269 53.6355 32.4963 51.1757C32.2571 50.3772 32.4023 45.7822 32.5732 45.2783C32.6202 45.1416 32.2784 43.3779 32.2784 41.8662C32.2784 39.9488 32.2656 31.6898 32.6501 29.3411C32.7698 28.598 33.1116 26.8813 33.1671 26.7532C34.0003 26.7446 40.4775 27.6713 40.9731 28.1838C42.2762 29.5289 42.336 32.2876 42.4428 33.3211C42.5838 34.6962 41.9857 35.1232 42.3275 36.4727C42.8103 38.373 41.8148 45.0477 41.9259 45.4961C42.2463 46.7815 43.1051 51.4277 43.2717 52.4569C43.8101 55.7451 43.7503 63.5087 43.7973 65.0503C43.8058 65.3023 43.9852 71.3236 43.5195 73.083L43.5238 73.0873Z" fill="white"/>
<path d="M83.6774 39.8463C84.7925 35.7168 86.1768 34.2734 86.7322 31.0407C87.2065 28.2649 89.6803 25.9888 89.9879 23.7596C88.2746 22.2906 85.7837 19.8607 84.9207 19.3525C81.1993 17.1618 78.5802 11.559 78.1871 10.6067C77.9692 11.0295 76.9822 13.6472 75.7987 14.6721C75.2775 15.1248 74.94 16.6066 72.6328 18.8828C71.2826 20.2152 65.378 24.161 65.0191 24.3532C64.1816 24.8101 61.6779 25.314 59.6655 25.8009C61.2037 27.1717 63.1477 31.5318 63.2203 32.7617C63.3314 34.5851 64.3654 38.1296 63.9381 38.8855C63.5878 39.5047 63.8441 44.7957 63.5664 47.7167C63.5237 48.1779 61.319 49.9886 60.1483 51.0006C59.7895 51.3081 58.5675 53.6697 58.6615 54.0113C59.9262 53.7081 60.9559 53.3451 62.5453 53.3024C62.8102 53.2939 65.6984 52.8412 66.0103 53.0932C65.895 53.2597 64.1517 53.6184 63.4724 54.5024C63.8313 57.0305 63.4083 71.5115 63.4211 72.9036C63.4468 76.0211 62.7931 82.4182 62.1735 85.8131C62.6734 87.5128 60.0544 97.9881 59.61 99.6749C59.5758 99.8116 59.328 101.9 59.2896 102.148C60.785 101.272 62.8358 99.0515 63.5194 99.2863C64.7926 98.966 72.2952 92.3725 73.6667 91.3732C74.6494 91.2793 78.546 93.1455 81.1053 93.7903C81.5923 93.9141 84.4934 96.2757 84.4934 96.2757C85.7965 92.2828 86.0828 89.0074 86.0358 87.4573C85.8905 82.3626 89.6718 71.2467 89.6718 71.2467C89.4752 70.8368 89.4709 66.6774 89.1633 64.3457C89.1633 64.3457 86.07 60.9721 85.741 60.2717C85.5402 66.1948 85.1386 69.7734 83.609 71.7976C82.6562 73.0531 78.2042 79.7961 78.0589 80.0737C76.7173 82.6573 72.778 85.0018 72.496 85.2067C72.1713 85.0573 70.9494 85.8986 69.9112 86.2701C70.0607 85.6167 71.1075 84.69 71.9235 84.1733C72.5815 83.1057 74.0897 79.3691 74.4315 78.2032C73.5087 71.4346 73.6966 57.4319 74.188 55.9373C74.0513 54.417 74.1324 53.2213 74.1324 53.2213C74.4999 52.9437 76.3114 53.5885 76.4524 53.7423C77.0164 53.6782 79.4304 53.2426 79.738 53.3494C80.2422 53.5245 81.9085 54.0497 82.2589 54.1394C83.9679 50.6846 86.8647 47.7423 87.4244 47.1017C87.8559 46.6021 88.2191 46.0683 88.3601 45.3338C83.186 47.0719 74.6366 46.4185 74.6366 46.4185C74.6366 45.5217 74.9827 40 75.0041 39.6541C75.0596 38.7403 73.7949 35.2471 74.2991 32.1937C74.4486 31.2884 72.4234 28.4827 72.761 25.8521C74.2863 26.83 75.8073 28.6962 77.4266 29.1275C78.6614 29.4606 80.443 32.6933 80.8874 33.1118C81.2249 33.4321 81.5881 35.2641 81.5582 35.751C81.4214 38.0613 82.3742 38.8769 82.2119 42.5153C82.387 42.2591 83.4552 40.6961 83.6816 39.8548L83.6774 39.8463Z" fill="white"/>
<path d="M240.203 122.842C240.203 122.842 240.203 122.833 240.203 122.829C240.203 122.829 240.203 122.829 240.198 122.829V122.846C240.203 122.898 240.207 122.949 240.211 123C240.211 122.953 240.203 122.906 240.198 122.851C240.198 122.851 240.198 122.846 240.198 122.842H240.203Z" fill="white"/>
<path d="M147.219 27.4065L150.765 22.2351C150.765 22.2351 154.085 17.3497 154.452 14.3946C152.748 16.7177 148.817 17.8109 148.817 17.8109L140.306 20.1767L134.91 19.8692C130.535 17.9091 126.172 13.5191 126.001 13.3654C125.882 13.5704 124.13 16.9227 123.058 18.2508C122.066 19.4806 119.648 23.1447 119.276 23.6827C119.076 23.6144 112.586 18.3447 111.812 17.5419C110.919 16.6109 106.386 11.1021 105.356 9.33411C105.19 9.61169 102.554 17.5803 101.72 18.1739C100.973 18.7034 98.7894 22.6877 97.6102 23.3923C97.2769 23.5931 94.1964 24.2678 92.3592 23.7382C92.1199 24.8187 93.2223 29.025 93.3803 30.0713C93.594 31.4805 94.128 41.3965 94.1537 41.6569C94.5938 41.8875 95.0851 41.9217 95.3543 42.4555C95.3414 42.6477 94.5126 46.632 94.4528 47.4775C94.4528 47.4775 94.8245 56.9194 94.8971 58.2006C94.9783 59.6184 94.9185 69.5428 94.9185 73.083C94.9185 74.6716 92.9146 88.2174 92.7993 88.8323C92.6796 89.4601 92.6839 93.5768 93.1154 95.4515C93.5342 94.6913 94.0597 94.1575 94.6365 93.675C95.0466 93.3291 97.5204 91.3775 98.3066 90.6985C99.1526 89.9682 101.015 87.1967 101.46 86.8295C101.87 86.4921 103.528 84.6131 103.528 84.6131C103.895 84.7071 107.352 86.5775 107.54 86.5903C107.326 84.7327 105.741 72.199 105.741 72.199C105.608 71.456 103.652 52.1494 105.335 40.3929C105.185 38.4712 104.711 30.5453 105.057 29.1104C105.224 29.2001 107.907 30.9638 110.398 31.2755C113.231 31.63 115.358 33.3766 115.358 33.3766L118.435 34.4784L114.718 34.3161C115.525 37.0662 115.303 40.3331 115.82 41.3196C116.132 48.1138 114.679 65.0247 114.474 66.4937C114.914 67.271 115.602 68.1336 114.987 69.4531C114.76 74.6118 113.607 81.8502 113.607 81.8502L115.068 88.512C115.068 88.512 117.123 93.0088 118.952 95.3618C118.952 90.5063 120.379 88.1832 120.379 88.1832C120.896 86.4409 121.571 83.379 121.571 83.379L123.72 80.7057C124.305 80.9021 127.552 79.7278 127.552 79.7278C127.125 78.1477 126.779 72.2204 126.373 70.3243C126.365 70.2944 125.493 59.4902 125.493 59.4902C125.924 54.1906 125.531 44.6035 125.707 42.2335C125.801 41.0036 126.194 31.6001 126.373 29.7681C127.732 29.8108 132.15 31.741 134.559 32.8257L140.114 33.9275L136.448 34.5253C136.362 36.8015 136.097 43.0534 135.82 43.9672C136.17 44.3516 136.576 45.4662 136.743 45.8676C136.743 45.8676 136.405 47.7081 135.764 48.558C136.226 53.4476 136.469 64.303 136.089 67.4802C135.833 69.6111 136.144 76.6104 135.29 83.9341C136.012 83.6352 138.742 82.8068 140.383 81.4829C141.498 80.5819 145.275 79.6595 145.275 79.6595C145.826 79.7577 148.565 81.6153 149.24 81.6794C149.253 80.5306 147.902 72.7542 147.663 71.5499C147.625 71.3663 146.527 68.4752 146.527 68.4752C146.608 68.172 147.287 66.9806 147.24 66.4211C145.847 49.9587 146.377 36.3702 146.531 35.4093C147.253 33.6713 147.129 29.4094 147.21 27.4023L147.219 27.4065Z" fill="white"/>
<path d="M189.786 26.2023C187.71 26.4116 185.663 25.6002 185.561 25.3696C184.177 25.7838 182.515 25.2329 181.75 23.6401C174.961 20.1084 172.747 13.3953 169.906 11.5676C169.094 13.8992 168.74 16.043 166.847 18.2593C164.711 20.7618 161.758 24.4514 161.523 24.3831C160.797 24.1653 156.896 23.0593 154.435 22.7561C155.456 29.4521 155.888 33.5645 155.943 34.7602C156.003 36.0798 156.153 36.2378 155.734 36.9296C156.982 45.3765 156.606 60.4084 156.217 63.6497C156.187 63.9059 156.764 65.0247 156.742 65.4048C156.704 65.9728 155.174 75.6581 154.299 78.9164C156.366 79.2581 161.152 80.3043 163.143 82.1107C167.069 85.6637 170.069 86.0779 172.363 90.6003C175.516 87.4615 174.961 83.3107 177.755 79.9413C178.374 79.7065 183.625 78.2716 183.758 78.1862C184.074 77.9812 185.488 77.426 187.441 77.5328C187.364 77.3065 186.206 69.6368 186.232 67.8005C186.274 64.6062 185.659 48.8227 185.595 46.0769C185.561 44.5011 185.437 42.9167 185.757 41.3538C185.783 41.2299 185.561 35.0506 185.629 33.5389C187.223 31.6001 189.44 28.5553 189.786 26.2023ZM176.392 34.346C176.131 36.1951 175.576 40.1239 175.52 40.6022C175.956 43.1901 176.695 55.1601 175.781 57.9743C176.02 59.375 176.678 65.661 176.909 66.5151C177.597 69.0731 175.952 73.8859 175.572 74.9321C175.418 75.3549 175.631 75.735 175.614 76.1406C170.363 72.9079 168.253 73.4802 165.548 70.572L161.882 68.6589L165.783 69.3977C166.129 67.6724 166.693 64.7045 166.595 63.9059C166.403 62.3087 166.313 52.7088 166.313 52.017C166.313 50.1551 164.993 38.7275 166.283 34.5723C166.048 33.983 165.604 25.8308 165.604 25.8308C165.937 25.7283 173.35 32.1681 174.32 32.6165C175.375 33.1076 175.704 32.8471 176.52 33.3766L179.596 34.4784L176.383 34.3375L176.392 34.346Z" fill="white"/>
</svg>
