<svg width="202" height="80" viewBox="0 0 202 80" fill="none" xmlns="http://www.w3.org/2000/svg">
<path d="M89.8747 12.4965L87.2491 32.2463L90.0166 36.3363L91.5338 12.6025L92.08 4.05924L89.8747 12.4965Z" fill="white"/>
<path d="M108.142 12.5116L111.123 32.2218L108.399 36.3404L106.635 12.6236L106 4.0865L108.142 12.5116Z" fill="white"/>
<path fill-rule="evenodd" clip-rule="evenodd" d="M99.8216 24.1933C109.337 24.1933 117.051 16.8854 117.051 7.87066C117.051 5.01682 116.278 2.33404 114.919 2.10696e-05C116.839 2.87725 117.958 6.3342 117.958 10.0525C117.958 20.0689 109.838 28.1887 99.8216 28.1887C89.8052 28.1887 81.6854 20.0689 81.6854 10.0525C81.6854 6.3345 82.8041 2.87781 84.7234 0.000722387C83.3651 2.33457 82.5921 5.0171 82.5921 7.87066C82.5921 16.8854 90.306 24.1933 99.8216 24.1933Z" fill="white"/>
<path d="M4.28255 59.9445C4.72179 60.3013 5.16102 60.5484 5.62771 60.466C5.92969 60.8504 6.0395 60.3562 6.28657 60.3013V60.9053L6.34147 60.8778V59.4229H6.31402L6.34147 59.3954V59.2856L6.36892 59.3131L6.45128 59.1483H6.53364C6.53364 59.2581 6.50619 59.3405 6.50619 59.4503L6.61599 59.5601L6.58854 59.4778H6.64345L6.6709 59.5876L9.36122 62.223H9.38867L9.19651 61.921L9.33377 61.8387C9.55339 61.8936 9.38867 62.3877 9.6632 62.3603L9.7181 62.5799L10.7064 63.5407C10.7064 63.3485 10.7064 63.1564 10.7887 62.9367L10.4044 63.0191L9.80046 62.3328C9.96517 62.223 10.075 62.3877 10.2122 62.525C10.4044 62.7171 10.4044 62.6897 10.7064 62.7171L10.9535 61.9485H11.7221C11.777 62.3603 11.3378 62.0034 11.3652 62.3877L11.1182 62.223C11.0633 62.3053 11.0084 62.3328 11.0084 62.4152C10.8985 62.8269 10.8711 63.2662 11.0084 63.7054L11.0633 63.8701L20.397 72.9843L20.6716 72.7647V56.9796C20.7265 56.0188 21.8795 55.4423 22.401 55.2227L22.4285 55.0305H17.6793L17.7067 55.1678H17.6793L17.6518 55.0305H16.7459L16.7184 55.1952L17.4322 55.5246C17.6518 55.5795 17.844 55.6894 17.9538 55.7992C18.2008 56.1835 18.6126 56.156 18.9146 56.4031C18.9421 56.5129 18.997 56.6227 19.0244 56.76L19.3813 56.9796V56.9522H19.4087V57.0071L20.5068 57.6934L20.397 57.9404C19.9852 57.5561 19.4087 57.3639 18.9421 56.7874C18.7224 56.6502 18.5577 56.458 18.3381 56.3208C18.4754 56.5404 18.5577 56.76 18.5577 57.0345V67.8782L13.1496 62.3877C13.0947 62.4426 13.0398 62.4701 12.9849 62.4975L12.8751 62.3877C12.8751 62.3053 12.9026 62.2504 12.93 62.1681L12.2163 61.4543C12.1614 61.4818 12.1064 61.5092 12.0515 61.5092V61.2896L7.90625 57.062L7.52192 58.0228C7.38466 58.0502 7.27485 58.1052 7.13759 58.1601L7.02778 58.0228L7.65918 57.0071V56.8149L5.90224 55.0305H1.70204L1.64714 55.2776C2.66287 55.7168 3.18446 55.9913 3.56879 56.3208L3.54134 56.2109H3.59625L3.6237 56.3482L4.22765 56.9247V59.9445C4.2551 59.917 4.28255 59.917 4.28255 59.9445ZM2.69032 72.3254C2.63542 72.3254 2.63542 72.2705 2.49816 72.0784C2.44325 72.1058 2.4158 72.1333 2.38835 72.1333C2.38835 72.1333 2.38835 72.1607 2.4158 72.1607C2.38835 72.1607 2.38835 72.1882 2.36089 72.1882L2.38835 72.3529H4.2551C4.2002 72.2705 4.14529 72.1882 4.11784 72.0784L4.55708 72.3529H8.23568L8.26313 72.1333C7.71409 71.9136 6.34147 71.2548 6.34147 69.8547V60.9602C6.31402 60.9327 6.31402 60.9053 6.28657 60.9053H6.23166C5.71007 60.9053 5.21593 60.6033 4.69434 60.6033C4.55708 60.5759 4.39236 60.3288 4.22765 60.1366V69.8547C4.22765 71.1175 3.0472 71.8038 2.49816 72.0784L2.9923 72.3254C2.88249 72.3254 2.77268 72.3529 2.69032 72.3254ZM18.997 70.4587V70.5959C19.1068 70.5136 19.1891 70.294 19.4087 70.4861C19.2715 70.5685 19.1891 70.7881 18.997 70.5959C18.8872 70.6508 18.8048 70.7332 18.6675 70.8155C18.6126 70.7057 18.5303 70.6234 18.4479 70.5136L18.997 70.4587ZM5.87478 59.5876L5.92969 59.6974C5.98459 59.6425 6.06695 59.6425 6.12185 59.5876C6.12185 59.615 6.14931 59.6425 6.14931 59.6699C6.0944 59.6974 6.01205 59.7248 5.95714 59.7248H5.92969C5.90224 59.8346 5.84733 59.917 5.76497 60.0543L5.4081 59.8895L5.87478 59.5876ZM11.7221 61.9485C11.7221 61.6465 11.8319 61.5092 12.0515 61.5092C12.0515 61.8112 11.9417 61.9485 11.7221 61.9485ZM20.1225 69.9645L20.2049 70.2391C20.0676 70.4038 19.9578 70.4312 19.9029 70.0194L20.1225 69.9645ZM20.3696 70.1841L20.5892 70.4312L20.6166 70.4587H20.5892L20.6441 70.6234H20.5892L20.5617 70.4587L20.0951 70.4312L20.3696 70.1841ZM19.7382 70.4038H19.7931C19.8754 70.3489 19.9578 70.2665 20.0951 70.4312C19.9852 70.4587 19.9029 70.6234 19.7931 70.5959C19.7382 70.5685 19.7107 70.5685 19.6558 70.5136L19.7382 70.4587V70.4038ZM5.07867 60.4111L4.63943 60.1092C4.74924 60.1092 4.8316 60.1092 4.94141 60.1366C4.96886 60.1366 4.99631 60.219 5.07867 60.4111ZM4.69434 59.9445L4.39236 59.8895C4.36491 59.8895 4.33746 59.8072 4.2551 59.615C4.50217 59.7797 4.58453 59.8621 4.69434 59.9445ZM18.2283 69.7449L18.4205 69.992C18.4205 70.0194 18.393 70.0469 18.3656 70.0743C18.2832 69.992 18.2008 69.9371 18.1185 69.8822L18.2283 69.7449ZM18.2283 70.294L18.2832 70.3489L18.0087 70.5959L17.9263 70.5136L18.2283 70.294ZM19.4362 58.2424L19.0519 58.3248L19.0244 58.2424L19.4362 58.1601V58.2424ZM7.02778 58.7091C7.08268 58.6542 7.13759 58.6267 7.21994 58.5993C7.21994 58.6267 7.2474 58.6542 7.2474 58.6816C7.19249 58.7091 7.11014 58.7366 7.02778 58.7366C6.97287 58.764 6.91797 58.8189 6.83561 58.8464C6.83561 58.8189 6.80816 58.7915 6.80816 58.764C6.89052 58.7366 6.94542 58.7091 7.02778 58.7091ZM20.2598 56.7874C20.2323 56.7325 20.2323 56.6776 20.2323 56.6227L20.4245 56.5953L20.4519 56.6776C20.397 56.7325 20.3147 56.76 20.2598 56.7874ZM19.848 56.6776L19.7931 56.5129L20.0127 56.4855L20.0401 56.5678C19.9578 56.5953 19.9029 56.6502 19.848 56.6776ZM11.6398 61.0151C11.6672 61.1249 11.6947 61.2073 11.7496 61.3171C11.6947 61.3171 11.6672 61.3445 11.6398 61.3445L11.5849 61.0425C11.5849 61.0425 11.6123 61.0425 11.6398 61.0151ZM17.2949 55.305L17.2126 55.2776L17.2949 55.0854L17.3498 55.1129L17.2949 55.305ZM18.7773 70.0743L18.8323 70.1292L18.695 70.2391L18.6401 70.1841L18.7773 70.0743ZM4.99631 61.0974L4.96886 61.0151L5.10612 60.9876L5.13357 61.07L4.99631 61.0974ZM5.98459 71.8313L5.76497 71.7764L5.79243 71.7215L5.98459 71.7764V71.8313ZM19.1617 57.4463V57.5287L19.0244 57.5561V57.4737L19.1617 57.4463ZM6.34147 58.5718L6.36892 58.764H6.31402L6.28657 58.5718H6.34147ZM9.7181 62.1955L9.80046 62.3328L9.6632 62.3603L9.7181 62.1955ZM10.075 61.8936L10.1024 62.0857H10.0475L10.0201 61.8936H10.075ZM5.24338 55.5521V55.6344L5.13357 55.6619L5.10612 55.5795L5.24338 55.5521ZM6.45128 57.7757L6.47873 57.9679H6.42383L6.39638 57.7757H6.45128ZM4.09039 72.1607L3.95313 72.0509C3.95313 72.0509 3.98058 72.0234 3.98058 71.996L4.11784 72.1333C4.09039 72.1333 4.09039 72.1607 4.09039 72.1607ZM10.5691 62.3603L10.5142 62.3877L10.4868 62.1955H10.5142L10.5691 62.3603ZM10.4593 61.2347L10.5142 61.4269H10.4593L10.4319 61.2347H10.4593ZM7.05523 59.7797L7.02778 59.5876H7.05523L7.11014 59.7797H7.05523ZM10.8162 60.9602L10.8711 61.1524H10.8162L10.7887 60.9876L10.8162 60.9602ZM19.0519 56.0462L19.0244 55.8815L19.0519 55.8541L19.1068 56.0462H19.0519ZM39.0352 70.9254C39.4744 71.0901 39.447 71.447 39.6391 71.8862L39.5293 71.7764L40.0235 72.298C40.0235 72.3254 40.0509 72.3254 40.0509 72.3529H43.3452L43.4001 72.3254L43.4275 72.3529H44.9649C44.9649 72.3529 45.9257 70.294 46.2826 68.235L46.0904 68.1801C45.8159 68.5919 45.0747 69.388 44.0589 69.9096C43.0981 70.3489 40.1882 70.4861 38.2116 70.5136C38.4038 70.5685 38.5136 70.6234 38.6509 70.6783V71.0901L38.1018 70.5136H37.4979L37.4704 70.541L37.443 70.5136H36.3998V62.9367L38.4312 62.8818C39.8862 62.8818 40.7647 64.1721 41.0666 64.7486L41.149 64.6937L40.2705 59.2856H40.2431C40.2156 59.6425 40.0509 59.8895 39.8587 60.0817C39.6391 60.6857 39.2273 61.2896 38.4312 61.2896H36.3998V56.8973C36.3998 56.8973 36.7841 56.8698 37.5528 56.8698C38.5685 56.8698 40.0784 56.8973 41.2863 57.0345V57.0071C41.6981 57.1169 41.3686 56.2659 41.9177 56.4855C41.7804 56.6227 41.8079 56.8698 41.753 57.0894H41.8902L42.1098 56.8423C42.0275 56.4855 41.8628 56.1286 41.9177 55.5795C41.8628 55.4423 41.8628 55.2501 41.8353 55.0854H31.8976L31.8701 55.2776C32.4192 55.4697 33.682 56.0737 33.682 57.1169V64.0348L33.7643 63.8976C33.7643 63.6505 33.7369 63.5682 33.7369 63.5132L34.6428 62.8818C34.4507 63.3211 34.1212 63.5132 33.8467 63.8701C33.8742 63.8701 33.9016 63.8976 33.9291 63.925L33.7369 64.1721L33.682 64.1172V64.3368C33.984 64.5839 34.0114 65.0506 34.3134 65.2702C34.6703 65.5722 34.9722 65.929 35.2742 66.2585V66.3683C35.1919 66.3683 35.1095 66.3683 34.9722 66.3408C34.7526 65.7094 34.0663 65.3525 33.682 64.7761V69.7998C33.682 70.3214 33.5173 70.7332 33.2702 71.0626L33.38 71.6391L33.2428 71.6666C33.2153 71.5019 33.1879 71.3646 33.1329 71.1999C32.6937 71.7215 32.0898 72.0234 31.7878 72.1607L31.8152 72.3529H39.8587L39.5842 72.0509C39.5293 71.9685 39.5293 71.8587 39.5293 71.7764L38.8979 71.1175L39.0352 70.9254ZM43.6197 55.3874C43.6197 55.4423 43.6472 55.5246 43.6472 55.5521C43.5923 55.5521 43.5374 55.5795 43.4824 55.5795C43.4275 55.8266 43.3177 56.0188 43.0981 56.156C42.8785 56.2659 42.9334 56.6502 42.6589 56.6776C42.3569 56.7325 42.4393 57.0071 42.302 57.1718L42.9883 57.3365C44.1688 57.7483 44.9649 58.2699 45.2943 58.5993L45.459 58.5718L45.2943 58.4071H45.459C44.7178 56.5953 44.004 55.0854 44.004 55.0854H43.9217L43.9766 55.2776C43.8393 55.305 43.7295 55.3325 43.6197 55.3874ZM42 55.607C42.0824 55.8815 42.1373 56.1286 42.2196 56.3482V56.2933L42.2471 56.3208C42.1922 55.9913 42.4393 56.1011 42.5765 56.0188C42.5765 55.9639 42.5491 55.909 42.5491 55.8541C42.6589 55.8266 42.7687 55.7992 42.8785 55.7443C42.906 55.7992 42.9334 55.8541 42.9334 55.8815L42.5765 56.0462C42.604 56.3757 42.3844 56.2933 42.2471 56.3208L42.2745 56.3482C42.2745 56.3757 42.2471 56.4031 42.2196 56.4306L42.302 56.6776C42.6589 56.3482 43.0158 56.0462 43.2903 55.6344C43.2903 55.607 43.2628 55.5521 43.2628 55.4972L43.4275 55.4148L43.5099 55.2776L43.6197 55.1129L43.5099 55.2501C43.4824 55.1678 43.455 55.1129 43.455 55.0854H42.0824C42.1098 55.1678 42.1647 55.2227 42.1647 55.305L42 55.607ZM35.137 61.6465C34.5605 61.619 34.7801 62.525 34.1487 62.5799C34.4507 62.0857 34.6154 61.5641 35.2193 61.2896L35.137 61.6465ZM33.984 61.5092L34.1212 61.3171C34.0938 61.2896 34.0663 61.2622 34.0114 61.2622L34.3957 60.8229L34.5056 61.2622L34.1487 61.3445V61.372L34.0663 61.5641L33.984 61.5092ZM36.0154 59.5052L36.3449 59.7523L35.988 60.0817C35.988 59.8072 36.0154 59.6974 36.0154 59.5052ZM35.8507 60.1366V60.2739L35.7409 60.3013L35.6311 60.4111L35.5762 60.3562L35.6586 60.3013L35.4938 60.3288L35.4664 60.219L35.8507 60.1366ZM35.7409 69.4155L36.0429 69.141C36.0703 69.141 36.0703 69.1684 36.0978 69.1959L35.8507 69.5527L35.7409 69.4155ZM35.8233 67.3017L35.9056 67.686L35.7958 67.7134C35.7684 67.6036 35.7135 67.4664 35.6586 67.3566L35.8233 67.3017ZM35.7135 66.7526L36.0978 67.1644L36.0429 67.2193L35.6586 66.8075L35.7135 66.7526ZM42.0549 71.7215L42.3295 71.9136L42.2196 72.0234L42.0275 71.7764C42.0275 71.7764 42.0549 71.7489 42.0549 71.7215ZM35.384 60.7955L35.5487 60.6033C35.5762 60.6308 35.6036 60.6582 35.6311 60.6582L35.4938 60.9053L35.384 60.7955ZM36.6194 71.145L36.7566 71.2548L36.5645 71.4195L36.4821 71.3646C36.537 71.3097 36.5919 71.2273 36.6194 71.145ZM40.0784 59.2856C40.0784 59.368 40.0509 59.4229 40.0235 59.5327L40.2431 59.2856H40.0784ZM34.9448 60.5759L34.9722 60.6582L34.7801 60.6857V60.6033L34.9448 60.5759ZM35.1919 60.4386H35.2468L35.3017 60.6582H35.2193L35.1919 60.4386ZM35.2742 70.294L35.2468 70.2391L35.4389 70.1841L35.4664 70.2665L35.2742 70.294ZM36.3174 60.2464L36.2625 59.9994H36.3174L36.3723 60.219L36.3174 60.2464ZM38.4038 71.8587L38.4312 72.1058H38.3763L38.3489 71.8862L38.4038 71.8587ZM34.6703 67.1918V67.1095L34.835 67.082L34.8624 67.1369L34.6703 67.1918ZM36.1801 70.7881L36.0703 70.6508L36.0978 70.5959L36.2351 70.7332L36.1801 70.7881ZM43.3177 56.8423L43.2354 56.7051L43.2903 56.6502L43.3726 56.8149L43.3177 56.8423ZM44.7727 57.9953L44.91 58.1326L44.8551 58.1601L44.7178 58.0228L44.7727 57.9953ZM35.2742 66.0389L35.2468 65.984L35.3566 65.8741L35.4115 65.929L35.2742 66.0389ZM34.1487 64.9408L34.0938 64.9133L34.1487 64.7486L34.2036 64.7761L34.1487 64.9408ZM35.5762 61.9759L35.686 61.8661L35.7409 61.8936L35.6311 62.0034L35.5762 61.9759ZM38.8156 71.5019L38.843 71.5568L38.7332 71.6666L38.7058 71.6117L38.8156 71.5019ZM43.5648 56.6776L43.5374 56.6227L43.6472 56.5129L43.6746 56.5678L43.5648 56.6776ZM43.1805 56.3482L43.3177 56.4855L43.2903 56.5129L43.153 56.3757L43.1805 56.3482ZM43.5099 55.2776V55.3874C43.5374 55.3874 43.5648 55.3599 43.5923 55.3599L43.5099 55.2776ZM55.5715 57.5012L55.9833 57.8032L56.0657 58.1601L56.148 58.1875C56.148 58.215 56.1206 58.2424 56.1206 58.2699H56.0931V58.3248C57.2461 57.4188 59.0854 56.4031 61.7483 56.3757V63.5407L61.8032 63.7603C61.7757 63.7878 61.7483 63.7878 61.7483 63.7878V65.929C61.9953 65.8741 62.2424 65.8192 62.4895 65.7094L62.5169 65.9565L62.215 66.0389L61.7757 66.1487H61.7483V66.1761L62.0503 66.5055C62.1326 66.5879 62.1601 66.6977 62.215 66.7801C62.2973 66.7801 62.3797 66.8075 62.4346 66.8075L63.3405 68.1527L63.615 68.0154C63.6699 68.1527 63.7248 68.2625 63.7523 68.3723C63.8072 68.3174 63.8621 68.2899 63.9445 68.2625L63.9719 68.3723C63.8896 68.3723 63.8346 68.3997 63.7523 68.3997V68.4272L64.4661 68.7566V65.5173C64.2464 65.5996 63.9719 65.6271 63.7797 65.7094C63.7248 65.7643 63.6425 65.7369 63.5876 65.7094L63.615 65.8741L63.4229 65.7369L63.4503 65.682C63.368 65.6271 63.2582 65.6271 63.1758 65.7643C62.8464 65.7643 62.5169 65.7094 62.1875 65.4349C63.0111 65.5447 63.7523 65.4624 64.4661 65.2976V64.0348L64.3013 63.9525L64.3288 63.8976L64.4661 63.9799V63.3485L64.3562 63.376L64.3288 63.3211L64.4111 63.2936V63.2387H64.4661V56.3757C66.3877 56.4031 67.8976 56.9247 69.0231 57.5836C69.0506 57.5012 69.0506 57.4188 69.0231 57.3639C69.3251 57.3914 69.2153 57.5561 69.2427 57.6934L69.9016 58.1601L70.1761 58.1052C70.231 58.1875 70.2585 58.2424 70.3408 58.4895L70.2585 58.4346L70.3683 58.5169H70.4232C70.4506 58.5444 70.4506 58.5718 70.4506 58.5993C70.7526 58.8464 70.9722 59.0934 71.1095 59.2581C71.137 59.2581 71.1644 59.2856 71.1644 59.2856V59.3131C71.1644 59.3405 71.1919 59.3405 71.2193 59.368L71.3566 59.3131L70.0114 55.058H68.4466C68.4466 55.0854 68.4192 55.0854 68.4192 55.1129V55.058H56.2304L55.5166 57.1992C55.5715 57.309 55.599 57.3914 55.5715 57.5012ZM63.3405 68.3997C63.368 68.3723 63.368 68.3448 63.368 68.3174C63.2032 68.2076 63.0111 68.0429 62.8738 67.8507C62.8464 67.8233 62.764 67.6585 62.6268 67.4938V67.4664L62.5993 67.5213L62.5718 67.4664L62.2424 67.3566L62.2973 67.0271C62.1326 66.8899 61.9404 66.6703 61.7483 66.4781V66.8075H61.8032V66.9448H61.7483V69.8822C61.7483 71.2822 60.3757 71.9685 59.8541 72.1882L59.8815 72.3529H66.3054L66.3328 72.1882C65.8387 71.9685 64.4661 71.3097 64.4661 69.8822V69.0312C64.1915 68.8115 63.8896 68.6743 63.5876 68.4821L63.3405 68.3997ZM55.846 58.215H55.7911C55.8186 58.1875 55.8186 58.1875 55.8186 58.1601C55.7637 58.0777 55.7088 57.9953 55.6813 57.913C55.6264 57.7757 55.599 57.6385 55.5715 57.5012C55.5441 57.4463 55.4892 57.4188 55.4617 57.3914L54.8303 59.3131L55.0225 59.368C55.2146 59.1483 55.5166 58.8189 55.9284 58.462C55.9559 58.4071 55.9009 58.3248 55.846 58.215ZM68.1447 55.4423C68.1996 55.3325 68.2545 55.1952 68.2819 55.0854L68.4192 55.1403L68.2545 56.4306C68.0348 56.0188 68.1172 55.6894 68.1447 55.4423ZM68.4741 56.4306L68.5839 56.7051C68.831 56.7051 68.7486 56.8698 68.7761 56.9796C69.1604 57.0071 68.9408 57.2541 69.0231 57.3639C68.6388 57.3365 68.8859 57.0894 68.7761 56.9796C68.5015 56.9796 68.6113 56.8149 68.5564 56.7051L68.4192 56.7325L68.3643 56.458C68.3917 56.458 68.4466 56.4306 68.4741 56.4306ZM64.0817 68.8115L64.3562 69.1959C63.917 69.0312 63.917 69.0312 64.0817 68.8115ZM70.3408 57.4737L70.6977 57.6385L70.6428 57.7483L70.2859 57.5836L70.3408 57.4737ZM62.2973 63.5132C62.3248 63.5407 62.3248 63.5682 62.3248 63.5956L62.0228 63.678C62.0228 63.6231 61.9953 63.5682 61.9953 63.5407L62.2699 63.5132L62.215 63.4858L62.2973 63.3211L62.3522 63.3485L62.2699 63.5132H62.2973ZM62.9836 68.1527C62.8738 68.1252 62.764 68.0978 62.6542 68.0978L62.7091 67.9331L63.0111 68.0703C62.9836 68.0978 62.9836 68.1252 62.9836 68.1527ZM63.9719 63.4309V63.4858L63.7797 63.5132V63.4583H63.8896L63.8346 63.2662H64.1092L63.917 63.4583L63.9719 63.4309ZM62.5169 65.38C62.5169 65.3251 62.4895 65.2976 62.4895 65.2427L62.7915 65.2153L62.8189 65.2976L62.5169 65.38ZM63.4229 69.0312L63.3405 68.9762L63.5052 68.7566L63.5876 68.8115L63.4229 69.0312ZM63.6699 63.2936V63.3485L63.2856 63.376V63.3211L63.6699 63.2936ZM62.8464 66.6977C62.7915 66.6703 62.7366 66.6703 62.6817 66.6703H62.5169C62.4895 66.6428 62.4895 66.6154 62.4895 66.6154H62.8189C62.8464 66.6428 62.8464 66.6703 62.8464 66.6977ZM63.0934 63.3211L63.2582 63.4034L63.2307 63.4858L63.066 63.4034L63.0934 63.3211ZM61.9404 65.4624L62.0228 65.4898L61.9404 65.6545L61.8581 65.6271L61.9404 65.4624ZM63.8346 62.772L63.8896 62.7995L63.8346 62.9642L63.7523 62.9367L63.8346 62.772ZM68.2819 57.1169L68.227 57.0894L68.3094 56.8973L68.3643 56.9247L68.2819 57.1169ZM62.7915 62.7171L62.8464 62.7446L62.764 62.9093L62.7091 62.8818L62.7915 62.7171ZM68.0074 56.156L68.0623 56.1835L67.9799 56.3482L67.925 56.3208L68.0074 56.156ZM62.5169 64.2545L62.5718 64.2819L62.4895 64.4466L62.4346 64.4192L62.5169 64.2545ZM69.4624 56.5404L69.2976 56.458L69.3251 56.4031L69.4898 56.4855L69.4624 56.5404ZM69.1878 55.305L69.3526 55.3874V55.4423L69.1604 55.3599L69.1878 55.305ZM63.615 67.686L63.6699 67.7409L63.5876 67.8233L63.5327 67.7958L63.615 67.686ZM62.6542 65.8192L62.7091 65.8467L62.6268 65.9565L62.5718 65.929L62.6542 65.8192ZM94.0684 67.7134C94.1233 67.7409 94.1782 67.7683 94.2331 67.7683L94.0958 68.0429L94.6174 68.2076C93.9586 68.2625 93.6566 68.1527 93.3546 67.8233V69.7998C93.3546 70.8979 92.586 71.5293 91.982 71.8862C92.0369 71.9411 92.0369 72.0509 92.0644 72.1333L91.7898 71.996L91.4604 72.1333L91.4879 72.3529H92.2016C92.1467 72.298 92.0918 72.2431 92.0369 72.2156C92.1193 72.2156 92.2291 72.2156 92.3114 72.2431C92.3389 72.2431 92.3389 72.2705 92.3663 72.3529H97.9117L97.9392 72.1333C97.445 71.9136 96.0999 71.2548 96.0999 69.7998V68.8939C95.6057 68.9213 95.6057 68.9213 95.3312 68.6194L96.0999 68.8664V66.3683C95.8253 66.1761 95.6606 65.8741 95.6606 65.6545C95.7155 65.2427 95.3861 65.0231 95.3312 64.6662C95.3586 64.5564 95.4135 64.4466 95.4684 64.3368L95.2488 63.678C95.2214 63.678 95.1665 63.6505 95.139 63.6505L95.1939 63.4858L94.9469 62.772C95.0567 62.7446 95.1116 62.6897 95.2214 62.6622C95.2488 63.1838 95.5508 63.6505 95.5508 64.3643C95.6881 64.6937 95.6332 65.1329 95.9077 65.4075C96.0175 65.5173 96.0724 65.6271 96.0999 65.7369V64.5015L95.99 64.4466L96.0175 64.3643L96.0999 64.4192V57.1169C96.1273 56.7325 96.3195 56.4031 96.594 56.1286L96.5391 56.1011L96.4567 56.2109L96.2646 56.1011L96.3469 55.9913L96.5665 56.0737C96.5665 56.0188 96.6214 55.909 96.594 55.909L96.1548 55.7717C96.1548 55.6894 96.1548 55.607 96.1822 55.4972L96.2646 55.4148C96.292 55.3874 96.3469 55.3599 96.4018 55.3599C96.4018 55.2776 96.4293 55.2227 96.4567 55.1403H96.3744L96.2371 55.2227V55.1403H95.8528C95.8528 55.4148 95.8253 55.6619 95.8253 55.8266L95.4135 56.0737C95.4959 55.6894 95.4684 55.4148 95.4135 55.1403H94.9469L95.0292 55.1952L94.9743 55.2776L94.8096 55.1403H94.6449L94.5625 55.2227L94.3978 55.1403H93.5742L93.5468 55.1678L93.5193 55.1403H93.1625V55.3325C92.9428 55.4148 92.7781 55.3325 92.6683 55.2227C92.4762 55.4148 92.4487 55.2501 92.3663 55.2227L92.2016 55.2776L92.284 55.1403L91.982 55.2227C91.982 55.305 91.9546 55.3874 91.9271 55.4697H91.8722C92.5036 55.7443 93.3546 56.3482 93.3546 57.1992V60.1366H87.2328C87.2877 60.1641 87.3426 60.1641 87.4249 60.1641L86.8484 60.6308C86.519 60.4935 86.1621 60.3837 85.8053 60.2464L85.2288 60.6857L84.9817 60.4386C85.2562 60.4111 85.4758 60.3013 85.6405 60.1366H84.7346C84.7346 60.1366 84.7346 60.1641 84.7072 60.1641L84.7895 60.2739C84.7621 60.2464 84.7346 60.2464 84.6797 60.2464L84.1307 61.3994H84.1581C84.1307 61.5092 84.1032 61.619 84.1032 61.7288C84.0483 61.7288 84.0209 61.7288 83.966 61.7014C83.8836 61.9485 83.7738 62.1681 83.664 62.3877C83.6365 62.525 83.5267 62.6622 83.4444 62.7995C83.3895 63.0466 83.362 63.3485 83.3345 63.6231C83.1424 63.8701 83.0051 64.1446 82.8953 64.3917L83.06 64.4741C83.0326 64.5015 83.0051 64.5564 83.0051 64.5839L82.8679 64.5015C82.813 64.6388 82.7855 64.7761 82.7581 64.9133L83.0326 65.5173C83.0326 65.5173 83.06 65.5173 83.0875 65.5447L83.8012 64.3917C83.7738 64.6662 83.6914 64.9133 83.5816 65.1329L83.7189 65.3525L83.6365 65.4075L83.5267 65.2702C83.4444 65.4898 83.3345 65.682 83.2796 65.9016C83.3071 65.9016 83.362 65.929 83.3895 65.929L83.3071 66.1487L83.4718 66.231C83.4718 66.2036 83.4993 66.1761 83.4993 66.1212C83.6091 66.1761 83.6914 66.231 83.966 66.3408C83.7738 66.3957 83.6365 66.3957 83.5267 66.4232V66.5055C83.8012 66.6428 84.1032 66.8075 84.4052 66.9997V66.533C84.3777 66.533 84.3777 66.5055 84.3503 66.5055L84.4052 66.4232V66.3408L84.3228 66.4506L84.3503 66.4781L84.2679 66.6154C84.1581 66.5604 84.0758 66.4781 83.9934 66.4232C83.9934 66.3957 84.0209 66.3683 84.0483 66.3134C84.1307 66.3683 84.213 66.3957 84.2679 66.4506L84.3777 66.3134H84.4052V62.0583H93.3546V66.9997L93.3821 66.9722L93.7115 67.1095L93.6841 67.2193L93.3546 67.0546V67.6311L93.3821 67.5762L93.437 67.6036L93.3821 67.686C93.4095 67.7134 93.437 67.7134 93.437 67.7409C93.4095 67.7409 93.3821 67.7683 93.3546 67.7958V67.8233L93.986 68.0154L94.0684 67.7134ZM82.0443 59.8621L81.7698 60.3288C81.7423 60.1915 81.6874 59.9994 81.7423 59.917C81.8521 59.7248 81.9619 59.5327 82.0992 59.3405C82.0717 59.2856 82.0717 59.2581 82.0717 59.2032C82.0168 58.9287 82.1266 58.6542 82.0717 58.4071C82.0168 58.1601 82.5933 58.1326 82.2914 57.8306C82.4286 57.5287 82.6482 57.2816 83.1149 57.1169C82.9228 57.3914 82.7855 57.6659 82.6482 57.9404L82.813 57.8032C82.9228 58.1601 82.8679 58.4071 82.5933 58.5444C82.5933 58.6816 82.6482 58.8738 82.5933 58.9562C82.511 59.1209 82.4012 59.2856 82.2914 59.4503L82.2365 60.5484C81.5227 60.8229 82.1816 61.6739 81.7149 62.1406C81.6874 62.1406 81.6874 62.1132 81.6874 62.1132V62.9917L81.7149 62.9642L81.7423 62.9917L81.6874 63.0466V63.1015C81.7149 63.1289 81.7149 63.1838 81.7423 63.2387L82.0992 63.5132C82.1266 63.8427 82.1266 64.1996 82.1816 64.6113L82.511 64.9682L82.5933 64.7486C82.5933 64.4192 82.7855 64.1446 83.0051 63.8427C83.0326 63.8152 82.9777 63.7878 82.9777 63.7603C82.9228 63.7603 82.8679 63.7878 82.813 63.8152V63.7603L82.9777 63.7054V63.7329L83.1424 63.5132C83.1424 63.2936 83.0326 63.1564 83.2247 62.8269C83.5542 62.2779 83.664 61.6739 84.1307 61.1524V60.9876L84.0758 61.1249L84.0209 61.0974L84.1032 60.9053L84.1581 60.9327C84.1856 60.768 84.2679 60.6033 84.3228 60.466C84.3228 60.3837 84.2954 60.3288 84.2954 60.2739C84.1856 60.2739 84.0758 60.2464 83.966 60.1915C83.966 60.1641 83.966 60.1366 83.9385 60.0543C84.0483 60.0817 84.1307 60.0543 84.2405 60.0268C84.2405 59.9994 84.213 59.9445 84.213 59.917C84.2954 59.9445 84.3503 59.9445 84.4052 59.9445V59.2307L84.3777 59.2856L84.3503 59.2581L84.4052 59.1758V57.1169C84.4326 56.5678 84.817 56.1286 85.2562 55.8266C85.2013 55.7443 85.1739 55.6619 85.1464 55.5521C85.1189 55.3874 85.0366 55.2501 84.9542 55.1403H83.2522L83.1149 55.3599C83.1973 55.4697 83.1698 55.6894 83.1973 55.8266L83.2796 55.7443L83.3071 55.7717L83.2247 55.8815C83.3895 55.8541 83.4444 55.9639 83.4718 56.0737L83.5542 55.9639L83.5816 55.9913L83.4718 56.1286C83.4718 56.1835 83.4718 56.2384 83.4993 56.2933C83.2247 56.3208 83.2796 56.0462 83.2247 55.8815L83.1973 55.9364L83.1698 55.909V55.8815C83.0326 55.8266 82.9777 55.7443 82.9777 55.607C82.7306 56.1286 82.6208 56.6502 82.6482 57.2541L82.3188 57.1443C82.3463 57.0345 82.3737 56.9247 82.3737 56.8149C82.4012 56.6776 82.3737 56.5129 82.4012 56.3757L82.511 56.0737C82.4835 55.9639 82.4286 55.7717 82.3463 55.5795C81.9345 55.4972 81.5502 55.2227 81.0835 55.2776L81.1658 55.3325L81.1109 55.4148C81.056 55.3874 81.0011 55.3599 80.9187 55.3599C80.9462 55.3325 80.9462 55.305 80.9737 55.305H80.8638C80.8638 55.2501 80.8364 55.1952 80.8089 55.1403H79.9305L79.903 55.305C80.2599 55.4423 80.9187 55.7717 81.3305 56.2933C81.358 56.2933 81.358 56.2659 81.358 56.2659L81.66 56.3757L81.5502 56.5129L81.4403 56.4306L81.6051 56.7051L81.8247 56.6776L81.8521 56.7874L81.6325 56.8149C81.66 56.9522 81.6874 57.062 81.6874 57.1992V61.0974C81.7423 60.9327 81.7698 60.768 81.8247 60.6308C81.907 60.3562 81.9894 60.1366 82.0443 59.8621ZM84.213 67.686C84.0483 67.5487 83.911 67.4115 83.7738 67.2468L83.3345 66.9997V67.0546L83.1973 66.835C83.1698 66.8075 83.1424 66.8075 83.1149 66.7526L82.813 66.835L82.511 67.5213C82.4561 67.5762 82.3188 67.6036 82.2365 67.6585C82.3188 67.4389 82.4286 67.2193 82.5384 67.0271L82.511 66.8899H82.5659V66.9448C82.6208 66.8899 82.7306 66.8624 82.813 66.8075L82.9502 66.533C83.0051 66.5055 83.06 66.5055 83.1149 66.5055C82.6757 66.3957 82.2914 66.2036 81.9345 65.984L81.8247 66.1212C81.907 66.1761 81.9619 66.2859 82.0443 66.3134C81.8521 66.4781 81.7698 66.3683 81.6874 66.2859V69.7998C81.6874 70.6508 81.2207 71.1999 80.754 71.5842C80.8089 71.8313 80.8638 72.0784 80.9462 72.298C80.9737 72.298 80.9737 72.3254 80.9462 72.3529H81.9345C81.907 72.1333 81.8521 71.9136 81.7972 71.7215C81.8521 71.694 81.9345 71.6666 81.9894 71.6666C81.9894 71.694 82.0168 71.7489 82.0168 71.7764C82.0443 71.7764 82.0717 71.8038 82.0992 71.8038C82.0992 71.8587 82.0717 71.9136 82.0443 71.9685L82.1266 72.3529H84.7072C84.7621 72.298 84.8444 72.2431 84.8993 72.1607C84.8719 72.1607 84.8444 72.1333 84.7895 72.1333C84.8719 71.996 84.9542 71.8587 85.0366 71.6666L85.2562 71.9685L84.9268 72.1882L85.0091 72.298L84.9268 72.3529H85.9974C85.9151 72.2705 85.9425 72.1882 86.1896 72.0784C85.6131 71.8313 84.4052 71.145 84.4052 69.7998V68.2076L84.0209 67.9331L84.213 67.686ZM97.3352 55.5795C97.5548 55.4697 97.747 55.3599 97.9117 55.305L97.8568 55.1403H96.6214L96.5116 55.3599C96.7313 55.5795 97.0058 55.607 97.3352 55.5795ZM81.9345 65.5447C82.0443 65.5173 82.1266 65.4624 82.2365 65.4075C82.2639 65.3525 82.2914 65.2976 82.3463 65.2427C82.1541 65.0231 81.9619 64.8035 81.7423 64.6113C81.7149 64.5564 81.7423 64.4741 81.7423 64.3917H81.6874V65.4624L81.9345 65.6271V65.5447ZM83.0875 66.2859V66.1761C83.06 66.0938 83.0326 66.0114 82.9777 65.929L82.4561 65.3525L82.1266 65.7643C82.2639 65.8467 82.4012 65.929 82.5384 66.0389L83.0875 66.2859ZM83.2247 64.3368C83.3895 63.6231 83.3895 62.9367 83.9385 62.3053V62.772C83.362 63.0466 83.8287 63.8976 83.2247 64.3368ZM80.5619 72.1333C80.5344 72.0234 80.5344 71.8862 80.5344 71.7489C80.2599 71.9411 79.9854 72.0509 79.8207 72.1333L79.8481 72.3529H80.5893L80.7266 72.1333H80.5619ZM82.3463 55.5795L82.6482 55.6619C82.7581 55.5521 82.813 55.3874 82.8953 55.2501C82.8679 55.2501 82.813 55.2776 82.7581 55.2776C82.7581 55.2227 82.7581 55.1952 82.7306 55.1403H81.6325C81.8247 55.2776 82.1266 55.2501 82.3188 55.3874C82.3463 55.4148 82.3463 55.5246 82.3463 55.5795ZM85.3111 55.1952C85.4209 55.305 85.5033 55.4423 85.5856 55.607C85.8327 55.4697 86.0523 55.3599 86.217 55.305L86.1621 55.1403H85.2288C85.2562 55.1678 85.2837 55.1952 85.3111 55.1952ZM83.362 57.3365L83.1149 57.6385L83.2247 57.6934L83.1973 57.7483L83.06 57.6934L82.8953 57.8855C82.8953 57.5561 82.9228 57.2267 83.362 57.3365ZM83.5267 56.1835C83.664 56.3482 83.7189 56.458 83.7189 56.5678C83.6914 56.7325 83.5542 56.8423 83.4169 56.9522L83.5267 56.1835ZM88.0289 60.4111C88.0014 60.5484 87.974 60.6582 87.9191 60.7955L87.7269 60.4386L87.8093 60.3837L87.672 60.219L88.0289 60.2739L88.0838 60.2464C88.0563 60.2739 88.0563 60.2739 88.0563 60.3013H88.1661L88.0289 60.4111ZM94.837 68.0429L95.4135 68.5919L94.7821 68.3997C94.8096 68.3174 94.8096 68.235 94.837 68.0429ZM87.672 61.8387C87.6171 61.7288 87.5347 61.6465 87.4798 61.5092L87.7818 61.3171C87.8367 61.3171 87.8642 61.3445 87.9191 61.3445L87.672 61.8387ZM81.907 64.1721C81.8521 63.8976 81.8247 63.6231 81.7149 63.3485H81.6874V64.0897L81.907 64.1721ZM82.5384 66.5055C82.2639 66.7252 82.2365 66.3683 82.0443 66.3134C82.3188 66.1212 82.4012 66.4506 82.5384 66.5055ZM84.213 67.686L84.4052 67.8507V67.4938L84.0758 67.384L84.213 67.686ZM81.907 67.9605C81.9894 67.8233 81.9619 67.5487 82.2365 67.6585C82.1541 67.7958 82.1541 68.0429 81.907 67.9605ZM95.9351 55.8266L96.2371 55.9639C96.2371 55.9913 96.2646 56.0188 96.2646 56.0737L95.8528 56.0188L95.9351 55.8266ZM94.3704 61.9759L94.59 62.223L94.4527 62.3328L94.288 62.0308L94.3704 61.9759ZM86.7935 61.2073L86.7112 61.1798C86.7386 61.07 86.7661 60.9602 86.7661 60.8504C86.821 60.8504 86.8759 60.8778 86.9308 60.9053L86.7935 61.2073ZM94.7547 62.4426L94.6174 62.7446L94.5351 62.7171L94.6174 62.3877C94.6723 62.3877 94.7272 62.4152 94.7547 62.4426ZM82.5384 58.2424L82.3737 58.8738L82.5933 58.5444C82.5384 58.4346 82.5384 58.3522 82.5384 58.2424ZM95.4135 67.6036L95.4959 67.6585L95.3312 68.0154L95.2488 67.988L95.4135 67.6036ZM81.907 64.1721L81.7423 64.3917L81.9894 64.4741L81.907 64.1721ZM95.3037 61.8936L95.5234 62.1955L95.4684 62.2504L95.2214 61.9485L95.3037 61.8936ZM82.3463 57.2541L82.5384 57.3365L82.4286 57.4737L82.2914 57.3365L82.3463 57.2541ZM91.6251 55.305V55.2501H91.5428V55.305L91.7898 55.4148L91.8447 55.2501L91.6251 55.305ZM93.1625 55.3874L93.4095 55.5795C93.1625 55.607 93.1625 55.607 93.1625 55.3874ZM81.8247 65.9016C81.7972 65.8467 81.7423 65.8192 81.6874 65.7918V66.0389L81.7972 65.984C81.7972 65.9565 81.8247 65.929 81.8247 65.9016ZM83.1973 58.764L83.0051 58.6267L83.0875 58.5444L83.2522 58.7091L83.1973 58.764ZM87.0132 60.1366H86.8484L86.821 60.1641L86.7935 60.1366H86.4092C86.6014 60.1915 86.7935 60.219 87.0132 60.1366ZM82.8953 56.7325L83.0875 56.8698L83.0326 56.9522L82.8404 56.7874L82.8953 56.7325ZM83.2796 67.2742L83.1973 67.2193L83.1149 67.384L83.06 67.3566L83.1424 67.1918H83.1973L83.2247 67.1644L83.3071 67.2193L83.2796 67.2742ZM86.2719 72.3529L86.2994 72.1333C86.2719 72.1333 86.2445 72.1058 86.217 72.1058V72.3529H86.2719ZM82.5659 66.4781L82.7581 66.4232V66.5055C82.7031 66.533 82.6208 66.533 82.5659 66.533V66.4781ZM94.59 67.5213L94.5351 67.5762L94.3704 67.4938L94.3978 67.4389L94.59 67.5213ZM84.0209 56.9796V57.0345L83.8287 57.0894V57.0071L84.0209 56.9796ZM92.6134 55.7717L92.4487 55.6894L92.4762 55.6344L92.6409 55.7168L92.6134 55.7717ZM81.6051 56.0737L81.4129 56.0188L81.4403 55.9639L81.6051 56.0188V56.0737ZM82.9777 65.1878L82.9228 65.1329L83.0051 65.0231L83.06 65.0506L82.9777 65.1878ZM83.3071 56.5129L83.3345 56.5678L83.2247 56.6502L83.1698 56.5953L83.3071 56.5129ZM95.8253 56.156L95.9351 56.3208L95.9077 56.3482L95.7704 56.1835L95.8253 56.156ZM83.3895 57.309L83.2796 57.1718L83.3071 57.1443L83.4444 57.2816L83.3895 57.309ZM82.2365 57.1169L82.2914 57.1443L82.1816 57.2541L82.1266 57.2267L82.2365 57.1169ZM84.1856 55.5246L84.2405 55.5521L84.1032 55.6894L84.0758 55.6619L84.1856 55.5246ZM84.5424 60.9053L84.515 60.8778L84.6523 60.768L84.6797 60.8229L84.5424 60.9053ZM83.8561 60.7955L83.8836 60.8229L83.7738 60.9876L83.7463 60.9602L83.8561 60.7955ZM83.5267 55.3874L83.5542 55.3325L83.664 55.3874L83.6091 55.4423L83.5267 55.3874ZM82.4561 62.8269L82.4286 62.7995L82.5384 62.6622L82.5659 62.6897L82.4561 62.8269ZM83.966 56.1286L84.0483 56.2109L84.0209 56.2384L83.911 56.1835L83.966 56.1286ZM83.0051 64.7211H82.9777L83.1149 64.5564L83.1424 64.5839L83.0051 64.7211ZM85.8053 60.6582L85.7778 60.6308L85.8876 60.4935H85.9151L85.8053 60.6582ZM82.5659 59.9445L82.4835 59.8621L82.511 59.8346L82.5933 59.8895L82.5659 59.9445ZM92.3663 55.2227C92.3938 55.1952 92.3938 55.1678 92.3938 55.1403H92.284L92.3663 55.2227ZM84.1307 67.1918L84.1581 67.2193C84.2405 67.2468 84.3228 67.2468 84.4052 67.3017V67.2742L84.1307 67.1918ZM83.0051 55.1403H82.8953C82.9228 55.1678 82.9228 55.1952 82.9228 55.2227L83.0051 55.1403ZM92.6958 55.1952V55.1403H92.6683V55.2227C92.6683 55.2227 92.6683 55.1952 92.6958 55.1952ZM83.1698 65.8467H83.1424L83.1973 65.9565C83.1698 65.929 83.1698 65.8741 83.1698 65.8467ZM82.6757 65.078L82.6482 65.1055C82.6482 65.1329 82.6482 65.1329 82.6757 65.1604V65.078ZM114.954 70.9254C115.393 71.0901 115.365 71.447 115.557 71.8862L115.448 71.7764L115.942 72.298C115.942 72.3254 115.969 72.3254 115.969 72.3529H119.264L119.318 72.3254L119.346 72.3529H120.883C120.883 72.3529 121.844 70.294 122.201 68.235L122.009 68.1801C121.734 68.5919 120.993 69.388 119.977 69.9096C119.016 70.3489 116.107 70.4861 114.13 70.5136C114.322 70.5685 114.432 70.6234 114.569 70.6783V71.0901L114.02 70.5136H113.416L113.389 70.541L113.361 70.5136H112.318V62.9367L114.35 62.8818C115.805 62.8818 116.683 64.1721 116.985 64.7486L117.067 64.6937L116.189 59.2856H116.161C116.134 59.6425 115.969 59.8895 115.777 60.0817C115.557 60.6857 115.146 61.2896 114.35 61.2896H112.318V56.8973C112.318 56.8973 112.702 56.8698 113.471 56.8698C114.487 56.8698 115.997 56.8973 117.205 57.0345V57.0071C117.616 57.1169 117.287 56.2659 117.836 56.4855C117.699 56.6227 117.726 56.8698 117.671 57.0894H117.809L118.028 56.8423C117.946 56.4855 117.781 56.1286 117.836 55.5795C117.781 55.4423 117.781 55.2501 117.754 55.0854H107.816L107.789 55.2776C108.338 55.4697 109.6 56.0737 109.6 57.1169V64.0348L109.683 63.8976C109.683 63.6505 109.655 63.5682 109.655 63.5132L110.561 62.8818C110.369 63.3211 110.04 63.5132 109.765 63.8701C109.793 63.8701 109.82 63.8976 109.847 63.925L109.655 64.1721L109.6 64.1172V64.3368C109.902 64.5839 109.93 65.0506 110.232 65.2702C110.589 65.5722 110.891 65.929 111.193 66.2585V66.3683C111.11 66.3683 111.028 66.3683 110.891 66.3408C110.671 65.7094 109.985 65.3525 109.6 64.7761V69.7998C109.6 70.3214 109.436 70.7332 109.189 71.0626L109.298 71.6391L109.161 71.6666C109.134 71.5019 109.106 71.3646 109.051 71.1999C108.612 71.7215 108.008 72.0234 107.706 72.1607L107.734 72.3529H115.777L115.503 72.0509C115.448 71.9685 115.448 71.8587 115.448 71.7764L114.816 71.1175L114.954 70.9254ZM119.538 55.3874C119.538 55.4423 119.566 55.5246 119.566 55.5521C119.511 55.5521 119.456 55.5795 119.401 55.5795C119.346 55.8266 119.236 56.0188 119.016 56.156C118.797 56.2659 118.852 56.6502 118.577 56.6776C118.275 56.7325 118.358 57.0071 118.22 57.1718L118.907 57.3365C120.087 57.7483 120.883 58.2699 121.213 58.5993L121.377 58.5718L121.213 58.4071H121.377C120.636 56.5953 119.922 55.0854 119.922 55.0854H119.84L119.895 55.2776C119.758 55.305 119.648 55.3325 119.538 55.3874ZM117.918 55.607C118.001 55.8815 118.056 56.1286 118.138 56.3482V56.2933L118.165 56.3208C118.111 55.9913 118.358 56.1011 118.495 56.0188C118.495 55.9639 118.467 55.909 118.467 55.8541C118.577 55.8266 118.687 55.7992 118.797 55.7443C118.824 55.7992 118.852 55.8541 118.852 55.8815L118.495 56.0462C118.522 56.3757 118.303 56.2933 118.165 56.3208L118.193 56.3482C118.193 56.3757 118.165 56.4031 118.138 56.4306L118.22 56.6776C118.577 56.3482 118.934 56.0462 119.209 55.6344C119.209 55.607 119.181 55.5521 119.181 55.4972L119.346 55.4148L119.428 55.2776L119.538 55.1129L119.428 55.2501C119.401 55.1678 119.373 55.1129 119.373 55.0854H118.001C118.028 55.1678 118.083 55.2227 118.083 55.305L117.918 55.607ZM111.055 61.6465C110.479 61.619 110.698 62.525 110.067 62.5799C110.369 62.0857 110.534 61.5641 111.138 61.2896L111.055 61.6465ZM109.902 61.5092L110.04 61.3171C110.012 61.2896 109.985 61.2622 109.93 61.2622L110.314 60.8229L110.424 61.2622L110.067 61.3445V61.372L109.985 61.5641L109.902 61.5092ZM111.934 59.5052L112.263 59.7523L111.906 60.0817C111.906 59.8072 111.934 59.6974 111.934 59.5052ZM111.769 60.1366V60.2739L111.659 60.3013L111.549 60.4111L111.495 60.3562L111.577 60.3013L111.412 60.3288L111.385 60.219L111.769 60.1366ZM111.659 69.4155L111.961 69.141C111.989 69.141 111.989 69.1684 112.016 69.1959L111.769 69.5527L111.659 69.4155ZM111.742 67.3017L111.824 67.686L111.714 67.7134C111.687 67.6036 111.632 67.4664 111.577 67.3566L111.742 67.3017ZM111.632 66.7526L112.016 67.1644L111.961 67.2193L111.577 66.8075L111.632 66.7526ZM117.973 71.7215L118.248 71.9136L118.138 72.0234L117.946 71.7764C117.946 71.7764 117.973 71.7489 117.973 71.7215ZM111.302 60.7955L111.467 60.6033C111.495 60.6308 111.522 60.6582 111.549 60.6582L111.412 60.9053L111.302 60.7955ZM112.538 71.145L112.675 71.2548L112.483 71.4195L112.4 71.3646C112.455 71.3097 112.51 71.2273 112.538 71.145ZM115.997 59.2856C115.997 59.368 115.969 59.4229 115.942 59.5327L116.161 59.2856H115.997ZM110.863 60.5759L110.891 60.6582L110.698 60.6857V60.6033L110.863 60.5759ZM111.11 60.4386H111.165L111.22 60.6582H111.138L111.11 60.4386ZM111.193 70.294L111.165 70.2391L111.357 70.1841L111.385 70.2665L111.193 70.294ZM112.236 60.2464L112.181 59.9994H112.236L112.291 60.219L112.236 60.2464ZM114.322 71.8587L114.35 72.1058H114.295L114.267 71.8862L114.322 71.8587ZM110.589 67.1918V67.1095L110.753 67.082L110.781 67.1369L110.589 67.1918ZM112.099 70.7881L111.989 70.6508L112.016 70.5959L112.153 70.7332L112.099 70.7881ZM119.236 56.8423L119.154 56.7051L119.209 56.6502L119.291 56.8149L119.236 56.8423ZM120.691 57.9953L120.828 58.1326L120.773 58.1601L120.636 58.0228L120.691 57.9953ZM111.193 66.0389L111.165 65.984L111.275 65.8741L111.33 65.929L111.193 66.0389ZM110.067 64.9408L110.012 64.9133L110.067 64.7486L110.122 64.7761L110.067 64.9408ZM111.495 61.9759L111.604 61.8661L111.659 61.8936L111.549 62.0034L111.495 61.9759ZM114.734 71.5019L114.761 71.5568L114.652 71.6666L114.624 71.6117L114.734 71.5019ZM119.483 56.6776L119.456 56.6227L119.566 56.5129L119.593 56.5678L119.483 56.6776ZM119.099 56.3482L119.236 56.4855L119.209 56.5129L119.071 56.3757L119.099 56.3482ZM119.428 55.2776V55.3874C119.456 55.3874 119.483 55.3599 119.511 55.3599L119.428 55.2776ZM133.04 60.2739V60.9876L133.232 60.7406L133.287 60.8229L133.122 61.0425C133.342 60.8778 133.397 61.1798 133.562 61.2073C133.287 61.4543 133.232 61.1249 133.068 61.0974C133.068 61.07 133.095 61.07 133.095 61.0425L133.04 60.9876V61.07C133.04 61.07 133.04 61.0974 133.068 61.0974C133.04 61.0974 133.04 61.1249 133.04 61.1249V63.7603C133.04 63.7329 133.095 63.7329 133.122 63.7054C133.452 63.5956 133.26 63.3211 133.342 63.1564C133.37 63.1564 133.424 63.1289 133.424 63.1289L133.534 63.2387L134.083 62.7171L134.166 62.7995C134.193 62.7995 134.221 62.772 134.275 62.7446L134.001 62.5524L134.056 62.4701L134.303 62.6622L134.275 62.7446C134.495 62.6622 134.715 62.6073 134.989 62.4975L134.715 62.2779C134.852 62.2779 134.989 62.2779 135.126 62.3053L135.017 62.1406L135.264 62.3053C135.428 62.3053 135.593 62.3328 135.758 62.3328V58.0228L135.374 58.5444C135.346 58.5444 135.291 58.5169 135.264 58.5169C135.319 58.4071 135.374 58.2973 135.456 58.1875C135.401 58.1875 135.374 58.1601 135.346 58.1601C135.264 58.215 135.154 58.1875 135.044 58.215C135.044 57.9953 135.264 58.0777 135.401 58.0228C135.401 57.9679 135.428 57.9404 135.456 57.913V57.8855C135.511 57.8032 135.566 57.7208 135.593 57.6385L135.703 57.7208L135.648 57.8581H135.758V56.8149H139.382V56.7874L139.436 56.7325C139.464 56.76 139.491 56.8149 139.546 56.8423C139.656 56.8423 139.766 56.8698 139.876 56.8698C139.931 56.8698 140.013 56.8698 140.095 56.8423L140.04 56.9247L140.397 57.0071L140.48 56.9796L140.507 57.0345C141.166 57.2816 141.633 57.6659 141.962 58.1326L142.154 57.9953L142.484 58.1052C142.401 58.2424 142.264 58.2973 142.099 58.3248L142.264 58.6542H142.319V58.7091H142.291C142.401 58.9562 142.456 59.2307 142.511 59.5327C142.539 59.5052 142.566 59.4778 142.621 59.4778L142.566 59.0385L142.895 59.0934L142.676 59.8072L142.978 60.1092C142.895 60.1092 142.813 60.1092 142.731 60.0817L142.593 60.1092V60.0817H142.566V60.1092C142.566 60.7955 142.401 61.372 142.127 61.8387C142.237 62.0583 141.99 62.1132 141.88 62.2504L141.852 62.223C141.742 62.3603 141.633 62.4701 141.495 62.5799C141.44 62.8818 141.303 63.1838 140.919 63.4309C140.946 63.4034 140.974 63.3485 140.974 63.3211L140.837 63.4034C140.837 63.376 140.837 63.3485 140.809 63.3211L141.001 63.2662H141.029C141.111 63.1015 141.166 62.9642 141.193 62.8269C140.452 63.3485 139.464 63.5407 138.613 63.5132L138.448 63.7054C138.448 63.6231 138.476 63.5682 138.503 63.5132C138.146 63.4858 137.789 63.376 137.487 63.2662C137.487 63.3485 137.487 63.4034 137.46 63.5132C137.35 63.4309 137.295 63.4034 137.185 63.3485C137.021 63.678 137.35 63.7054 137.57 63.925L137.762 63.4858C137.789 63.5132 137.872 63.5132 137.899 63.5407C137.954 63.6505 138.091 63.7603 138.091 63.8427C138.091 64.0897 138.146 64.3368 138.174 64.5839C138.174 64.5839 138.201 64.6113 138.229 64.6113L138.283 64.529L138.338 64.5564L138.256 64.6388C138.366 64.7211 138.476 64.8035 138.585 64.8584C139.354 65.4075 140.452 66.2036 141.55 67.4664C143.197 69.388 144.872 71.3646 146.601 73.0392C146.656 72.9019 146.711 72.7647 146.794 72.6548C146.849 72.847 146.821 73.0392 146.739 73.1764C147.48 73.8902 148.221 74.5216 148.99 75.0706H149.072C149.155 75.0157 149.237 74.9059 149.374 74.7687C149.511 74.851 149.621 74.9608 149.759 75.0706L149.786 75.0981C149.868 74.7961 150.088 74.7138 150.362 74.7412C150.692 74.7412 150.994 74.7138 151.323 74.6589C150.692 74.2196 150.088 73.7255 149.511 73.149C148.935 72.6274 148.358 72.0509 147.837 71.447L147.37 72.0509L147.288 71.996L147.59 71.1724C145.448 68.7841 143.499 66.0114 141.276 64.4192V64.3917C143.28 63.7878 145.394 62.4152 145.394 59.8072C145.394 58.9013 145.119 58.0502 144.652 57.309L143.719 57.9679C143.911 58.3248 143.335 58.2973 143.417 58.5993L143.472 58.9013C143.362 58.9287 143.252 59.0111 143.005 59.1209L143.746 57.5012H143.582V57.4463H143.774L144.158 57.3639C144.158 57.1718 144.158 57.0345 144.186 56.7051C144.131 56.6776 144.076 56.6227 144.048 56.5678C143.966 56.5953 143.856 56.5953 143.719 56.5953C143.746 56.5129 143.774 56.4306 143.856 56.3757C143.307 55.909 142.648 55.5246 141.852 55.305C141.797 55.3599 141.688 55.3874 141.633 55.4148C141.742 55.6894 141.495 55.6894 141.386 55.7717C141.386 56.156 141.386 56.4855 141.001 56.6776C141.001 56.3208 141.001 55.9639 141.386 55.7717C141.248 55.5246 141.495 55.5246 141.633 55.4148C141.578 55.3325 141.578 55.2776 141.605 55.2227C141.111 55.1129 140.617 55.058 140.04 55.058H132.326L132.217 55.1678L132.189 55.1403L132.271 55.058H132.079C131.969 55.2227 131.887 55.3874 131.777 55.5246C132.354 55.8541 133.04 56.3757 133.04 57.1169V60.1092C133.068 60.1366 133.122 60.1366 133.177 60.1641L133.04 60.2739ZM132.601 71.1175C132.958 71.2822 133.315 71.4744 133.617 71.7215C133.726 71.8038 133.836 71.8587 133.946 71.9136C133.919 71.7489 133.946 71.7215 134.138 71.7215C134.138 71.7215 134.166 71.694 134.166 71.6666V71.7489H134.193C134.193 71.8862 134.221 71.9685 134.193 71.996L134.468 72.0784L134.44 72.0234L134.468 71.996L134.55 72.1058L135.099 72.1607L135.072 72.0234H135.181C135.181 72.0784 135.209 72.1333 135.236 72.1882C135.428 72.2156 135.566 72.298 135.73 72.3529H136.005V72.3254L136.197 72.298L136.334 72.1882L136.527 72.2705V72.3529H137.625L137.652 72.1058C137.158 71.9136 135.758 71.3097 135.758 69.8273V63.0466C135.621 62.9367 135.511 62.7995 135.401 62.6897C135.017 62.7995 134.632 62.9367 134.248 63.074C133.836 63.2113 133.891 63.5407 133.671 63.7603L133.919 63.9525L133.617 64.227C133.589 64.0623 133.534 63.8976 133.479 63.7329L133.177 63.9799L133.397 64.1721C133.287 64.3368 133.315 64.5839 133.04 64.7211V64.7761H133.095L133.04 64.831V69.1959L133.479 68.6194C133.424 68.9488 133.315 69.1959 133.177 69.388H133.232V69.4429H133.122L133.04 69.5527V69.8273C133.04 70.2665 132.903 70.6234 132.738 70.8979C132.766 70.8979 132.82 70.9254 132.875 70.9254L132.601 71.1175ZM151.131 75.4275L150.966 75.3452L150.994 75.2903C150.445 75.4001 149.923 75.2628 149.402 75.2903C149.374 75.2903 149.347 75.3177 149.319 75.3177C150.39 76.0589 151.461 76.6354 152.586 76.9649C152.586 76.9374 152.586 76.9374 152.559 76.9099C152.641 76.9099 152.696 76.9099 152.751 76.9374C152.806 76.9099 152.861 76.9099 152.916 76.9099C152.916 76.9374 152.943 76.9649 152.943 76.9923C152.888 76.9923 152.833 76.9649 152.751 76.9649H152.614C152.723 77.0198 152.861 77.0472 152.97 77.0747V77.0472L153.135 77.1021L153.163 77.1296C153.19 77.1296 153.19 77.1296 153.19 77.1021L153.272 76.9923L153.327 77.0472C153.355 77.0198 153.382 77.0198 153.437 77.0198C153.19 76.9649 153.08 76.8276 153.108 76.6354C152.806 76.608 152.668 76.4707 152.668 76.2511C152.257 76.2511 152.641 75.8393 152.257 75.8119C152.284 75.8119 152.284 75.7844 152.284 75.757L152.312 75.7021L152.339 75.7295L152.421 75.5648C152.366 75.5099 152.339 75.455 152.257 75.4275C151.872 75.2903 151.433 75.2079 150.994 75.2903L151.159 75.3726L151.131 75.4275ZM153.108 76.6354C153.382 76.6629 153.492 76.7727 153.519 76.9649L153.794 76.855C153.931 76.7727 154.096 76.7727 154.261 76.7452L154.7 76.3335C154.096 76.1138 153.41 75.8668 152.723 75.4824C152.723 75.7844 152.696 76.004 152.668 76.2511C152.97 76.2785 153.108 76.4158 153.108 76.6354ZM154.398 76.9374C154.316 76.9374 154.233 76.9649 154.178 76.9923L154.535 77.157C154.535 77.1296 154.535 77.1021 154.508 77.0747L154.837 77.0472L154.865 77.1021L154.563 77.1845C154.563 77.2394 154.563 77.2668 154.508 77.3217H154.947C155.578 77.3217 156.292 77.2394 157.006 77.0198L156.951 76.8825C156.567 76.8276 155.963 76.7178 155.276 76.5256L154.837 76.6354C154.755 76.7727 154.645 76.8825 154.398 76.9374ZM134.413 72.2705C134.138 72.2156 133.919 71.996 133.644 72.0784L133.671 72.1607H133.589V72.1058C133.562 72.1058 133.562 72.1058 133.534 72.1333C133.479 72.1607 133.287 72.0509 133.205 71.9685L133.095 71.8862L132.93 71.9136V71.8587H133.04C132.711 71.6117 132.573 71.5842 132.052 71.6117C132.024 71.6391 131.997 71.6666 131.969 71.6666V71.694L132.217 71.7489C132.244 71.7489 132.244 71.8313 132.299 72.0234C132.134 71.8587 132.024 71.7764 131.942 71.7215C131.75 71.9136 131.613 72.1333 131.53 72.3529H134.385C134.385 72.298 134.385 72.298 134.413 72.2705ZM134.358 58.7366V59.0111C134.221 59.0111 134.111 59.0385 134.001 59.0385C134.083 58.8738 134.166 58.764 134.248 58.6542C134.275 58.6816 134.303 58.7091 134.33 58.7091C134.413 58.4071 134.824 58.3797 135.044 58.215C135.017 58.6267 134.962 58.6542 134.358 58.7366ZM147.425 72.0784L147.7 72.3254L147.151 72.6548C146.958 72.2156 146.958 72.2156 147.425 72.0784ZM133.562 59.5327L133.726 59.2581L133.809 59.3131L133.726 59.4229C133.754 59.3954 133.809 59.368 133.836 59.368L133.809 59.3405C133.864 59.3131 133.891 59.2581 133.946 59.2032C133.946 59.2307 133.973 59.2307 134.001 59.2581L133.864 59.368H133.836C133.891 59.6699 133.617 59.8346 133.342 59.9719C133.287 59.7797 133.397 59.6425 133.562 59.5327ZM131.887 55.058H131.256L131.201 55.2501L131.64 55.4423L131.805 55.2227L131.887 55.058ZM142.731 57.5836C142.841 57.4737 143.005 57.3639 143.17 57.2816C143.225 57.611 142.95 57.7757 142.648 57.9404C142.648 57.8581 142.648 57.8032 142.676 57.7208L142.648 57.6385L142.731 57.5836ZM133.726 67.9056C133.836 67.8507 134.001 67.8507 134.166 67.8233L134.138 67.7958C134.166 67.7958 134.193 67.7958 134.221 67.7683V67.6585L134.303 67.6311L134.33 67.7409V67.7134C134.358 67.7409 134.358 67.7683 134.358 67.7958L134.33 67.8233V67.9605H134.248L134.221 67.8507H134.166V67.8233L133.864 68.1527L134.001 68.235L133.946 68.2899L133.809 68.1801C133.781 68.2076 133.754 68.235 133.754 68.2625C133.534 68.1527 133.589 67.988 133.726 67.9056ZM143.719 56.9247H143.335L143.609 56.5404L143.719 56.5953V56.9247ZM153.904 77.1021L154.123 77.2668C154.206 77.2943 154.288 77.2943 154.37 77.2943C154.343 77.2119 154.261 77.1296 154.178 76.9923C154.069 77.0198 153.986 77.0747 153.904 77.1021ZM133.973 61.3994C133.836 61.3445 133.699 61.2896 133.562 61.2073L133.644 61.07C133.781 61.1524 133.919 61.2347 134.056 61.2896L133.973 61.3994ZM136.828 62.9642L136.609 62.8269L136.554 62.9367C136.636 63.074 136.746 63.2113 136.883 63.3211C136.828 63.2113 136.828 63.074 136.828 62.9642ZM133.644 68.6194L133.726 68.2625L133.891 68.3174L133.754 68.6743L133.644 68.6194ZM134.577 61.5916L134.248 61.372L134.275 61.2896L134.687 61.4543L134.577 61.5916ZM152.229 75.6197C152.01 75.6197 151.872 75.6471 151.653 75.6746C151.845 75.455 151.845 75.455 152.229 75.6197ZM131.118 72.1058L131.146 72.3529H131.311L131.283 72.0509C131.228 72.0784 131.146 72.0784 131.118 72.1058ZM151.763 75.1256L151.735 74.9883L151.598 75.0706V74.8785C151.461 74.9334 151.296 74.9608 151.159 74.9883C151.351 75.0157 151.543 75.0432 151.763 75.1256ZM141.386 56.7874L141.468 57.0345C141.413 57.0345 141.358 57.0345 141.303 57.062L141.276 56.7874H141.386ZM146.409 72.1058L146.766 72.2705L146.739 72.3529L146.382 72.1882L146.409 72.1058ZM134.166 61.9759L133.919 61.8936L134.001 61.7563L134.221 61.8936L134.166 61.9759ZM134.66 59.0111L134.605 59.2307C134.577 59.2307 134.495 59.2307 134.33 59.2032L134.66 59.0111ZM134.852 58.9013C134.879 58.8738 134.962 58.9013 135.126 58.9013L134.797 59.1209L134.852 58.9013ZM134.852 62.0308C134.824 62.0034 134.824 61.9485 134.824 61.7563L135.072 62.0857L134.852 62.0308ZM134.166 60.9053L134.193 61.1798L134.083 61.2073L134.056 60.9053H134.166ZM143.444 58.9836V59.3131H143.362L143.335 59.0111L143.444 58.9836ZM137.323 63.1838C137.158 63.1289 136.993 63.0466 136.856 62.9642L136.966 63.1564C137.048 63.1838 137.185 63.1838 137.323 63.1838ZM134.193 57.8855L134.221 58.1601L134.138 58.1875L134.111 57.8855H134.193ZM138.585 64.7211L138.558 64.6937L138.64 64.529H138.585V64.3643H138.64V64.529L138.695 64.5564L138.585 64.7211ZM140.919 56.9247C140.919 56.9247 140.946 56.9247 140.974 56.9522L140.919 57.1443C140.891 57.1443 140.864 57.1443 140.837 57.1169L140.919 56.9247ZM147.809 71.447C147.782 71.392 147.727 71.3371 147.672 71.2822L147.59 71.4195C147.672 71.4195 147.727 71.4195 147.809 71.447ZM140.233 56.1835L140.342 56.3757L140.287 56.4031L140.178 56.2384L140.233 56.1835ZM143.637 57.0894L143.664 57.1718L143.499 57.2541L143.472 57.1992L143.637 57.0894ZM134.632 72.2705C134.605 72.298 134.577 72.3254 134.577 72.3529H134.907L134.632 72.2705ZM143.17 57.2541L143.28 57.1169L143.362 57.1718L143.197 57.2816H143.17V57.2541ZM135.758 62.7446V62.5524L135.621 62.6073C135.675 62.6348 135.703 62.6897 135.758 62.7446ZM147.068 71.392L147.096 71.5568H147.013V71.392H147.068ZM152.394 76.4433L152.229 76.3609L152.257 76.306L152.421 76.3884L152.394 76.4433ZM143.939 58.5718L143.994 58.5993L143.911 58.764L143.856 58.7366L143.939 58.5718ZM138.476 64.1172L138.311 64.0348V63.9799L138.503 64.0623L138.476 64.1172ZM143.17 59.8621V59.917H142.978V59.8621H143.17ZM133.836 71.5293V71.4744L134.028 71.447V71.5019L133.836 71.5293ZM144.076 59.2307H143.884V59.1758H144.076V59.2307ZM134.193 62.223V62.1681H134.385V62.223H134.193ZM134.742 61.8661L134.55 61.8936V61.8387L134.742 61.8112V61.8661ZM134.413 59.4778L134.44 59.5327L134.248 59.5601V59.5052L134.413 59.4778ZM133.534 60.7955L133.479 60.768L133.562 60.6308L133.617 60.6857L133.534 60.7955ZM147.947 72.0234L147.974 72.1607L147.892 72.1882V72.0509L147.947 72.0234ZM133.644 69.141L133.617 69.0037H133.699V69.141H133.644ZM137.927 64.1996V64.1446H137.734C137.762 64.1721 137.789 64.1721 137.789 64.1996H137.927ZM153.739 76.5805L153.876 76.7178L153.849 76.7452L153.712 76.6354L153.739 76.5805ZM141.715 62.7446L141.688 62.5799H141.742L141.77 62.7446H141.715ZM134.852 59.3954L134.907 59.368L134.934 59.5327H134.879L134.852 59.3954ZM147.315 72.6274V72.5725H147.507V72.5999L147.315 72.6274ZM133.726 61.7563V61.7288L133.919 61.7014V61.7563H133.726ZM141.221 55.3874L141.386 55.4972L141.358 55.5246L141.193 55.4148L141.221 55.3874ZM155.084 76.4433C155.029 76.4433 155.002 76.4433 154.947 76.4158C154.947 76.4433 154.92 76.4707 154.892 76.5256L155.084 76.4433ZM150.39 75.0432L149.813 75.0981C150.006 75.0981 150.198 75.0706 150.39 75.0432ZM151.598 74.8785L151.735 74.9608V74.9334C151.708 74.9059 151.68 74.8785 151.653 74.8785H151.598ZM135.401 58.0502C135.428 58.0502 135.456 58.0502 135.511 58.0228H135.401V58.0502ZM135.758 57.9679V57.9404C135.73 57.9404 135.73 57.9679 135.73 57.9679H135.758ZM144.296 56.8423C144.296 56.8149 144.268 56.8149 144.241 56.7874C144.268 56.8149 144.296 56.8149 144.296 56.8423ZM144.433 57.0071C144.405 56.9796 144.378 56.9522 144.378 56.9247L144.433 57.0071ZM144.378 56.9247C144.35 56.8973 144.323 56.8973 144.323 56.8698C144.323 56.8973 144.35 56.8973 144.378 56.9247ZM167.731 62.7995C167.32 63.5682 166.551 64.0074 166.002 64.831V64.8859H168.308L169.406 67.2193L169.488 67.2742L169.461 67.3291C170.12 68.7292 170.806 70.2116 170.806 70.2116C171.163 71.0626 170.531 71.7764 169.68 72.1882L169.653 72.3529H175.583C175.583 72.2431 175.555 72.1607 175.583 72.0509C174.347 71.1724 173.99 70.4587 173.194 68.839L169.708 61.9759L168.473 62.1955C168.253 62.4152 167.978 62.6073 167.731 62.7995ZM165.92 64.3917L166.029 64.2545L166.057 64.2819L167.21 63.074H164.025L164.519 61.921C164.217 62.0583 163.916 62.223 163.668 62.4701C163.229 62.9093 162.653 63.1015 162.213 63.4858C162.159 63.5407 162.049 63.5132 161.966 63.5407L161.747 63.9525C161.664 63.9525 161.582 63.9799 161.5 64.0074L159.029 69.1959C158.754 69.7449 158.48 70.1841 158.205 70.5685C158.562 71.1724 158.809 71.8038 159.194 72.3529H162.104V72.1882C161.664 71.9136 161.06 71.1175 161.06 70.3489C161.06 70.1018 161.143 69.7998 161.308 69.4429L163.257 64.8859H165.727C165.81 64.7211 165.865 64.5564 165.947 64.4192L165.92 64.3917ZM164.217 58.2424L164.053 58.5993L163.97 60.0268C163.943 60.1366 164.08 60.1915 164.163 60.3288L164.327 59.9994C164.382 60.0268 164.437 60.0817 164.492 60.0817C164.519 60.3288 164.025 60.4111 164.19 60.6308L163.916 60.8504C163.806 60.3013 163.723 59.7797 163.778 59.1758L162.982 60.8504C163.119 60.8778 163.284 60.9053 163.421 60.9053C163.504 61.2896 163.751 61.3445 164.053 61.372C164.135 61.1524 164.19 60.9327 164.272 60.7406L164.19 60.6308L164.355 60.6033L164.272 60.7406C164.437 60.8229 164.382 61.0151 164.327 61.2073C164.3 61.2896 164.272 61.3445 164.272 61.372C164.437 61.3994 164.574 61.4269 164.712 61.4818L165.618 59.3954L165.7 59.2032L165.865 59.5876L165.974 59.5052L166.002 59.5601L165.892 59.6425C166.304 60.5484 166.688 61.3445 167.073 62.223C167.32 62.223 167.567 62.2504 167.786 62.2504C167.594 62.4426 167.402 62.4975 167.21 62.4701V62.4975L167.374 62.9093L167.457 62.7995C167.457 62.772 167.429 62.6897 167.402 62.5799C167.649 62.4701 167.896 62.3877 167.978 62.3328L168.061 62.2504C167.951 62.2779 167.869 62.3053 167.786 62.3053C167.924 62.223 168.061 62.1406 168.198 62.0857L168.939 61.2622C169.022 61.1249 169.104 61.0151 169.159 60.8778V60.8229L169.022 60.6857L169.049 60.6582L168.582 59.7523C168.445 59.6425 168.335 59.5052 168.226 59.368L168.473 59.5327L166.057 54.7285L165.865 54.7834L164.327 58.0228C164.437 58.1601 164.547 58.2699 164.657 58.4346L164.217 58.2424ZM164.217 61.8936L163.97 61.5916L162.872 61.0974L161.664 63.6231C161.939 63.4309 162.186 63.2113 162.461 63.0466C163.064 62.7171 163.476 62.0583 164.217 61.8936ZM158.398 71.4744C158.425 71.1175 158.123 71.0626 157.986 70.8979C157.547 71.447 157.08 71.8313 156.421 72.1882L156.394 72.3529H158.947L158.892 72.1882C158.809 71.8862 158.398 71.7764 158.398 71.4744ZM169.626 61.8112L169.296 61.1249C169.131 61.4269 168.939 61.6739 168.72 61.921C169.022 61.8661 169.324 61.8387 169.626 61.8112ZM166.414 59.1209L166.359 59.2032L165.645 58.8738L165.672 58.8464C165.48 58.6816 165.508 58.4071 165.563 58.1326C165.645 58.3522 165.755 58.5718 165.837 58.8464L166.414 59.1209ZM170.284 64.5564L170.257 64.3917C170.284 64.3643 170.312 64.3643 170.339 64.3643V64.5564C170.367 64.529 170.394 64.529 170.422 64.529C170.422 64.6662 170.422 64.831 170.394 65.0231L170.12 64.8859L170.312 64.5564H170.284ZM164.712 58.9287L164.684 58.8738L164.849 58.7366C164.767 58.6816 164.684 58.5993 164.602 58.462L165.453 58.8464C165.151 58.8189 165.014 58.8189 164.904 58.764L164.712 58.9287ZM165.37 59.615L165.178 59.4778L165.453 59.2032H165.425L165.48 59.0385H165.535L165.48 59.2032C165.508 59.2856 165.563 59.3405 165.618 59.3954L165.37 59.615ZM165.7 63.5956C165.7 63.5682 165.727 63.5132 165.727 63.4583L166.194 63.376L165.865 63.7329L165.7 63.5956ZM166.029 58.4071L166.551 58.6816L166.441 58.8189L165.974 58.4895L166.029 58.4071ZM167.457 59.1209L167.841 59.2856L167.759 59.4503L167.402 59.2032L167.457 59.1209ZM166.853 59.5327L167.402 59.7797L167.347 59.8621L166.825 59.615L166.853 59.5327ZM164.547 57.7757C164.547 57.7483 164.574 57.7208 164.574 57.6934L164.821 57.7757C164.821 57.8306 164.794 57.8855 164.767 57.9404L164.547 57.7757ZM165.316 58.2699L165.041 58.1052L165.096 58.0228L165.37 58.1875L165.316 58.2699ZM166.523 57.2816L166.578 57.3365L166.386 57.5561L166.276 57.5012L166.523 57.2816ZM165.508 57.611L165.7 57.7208L165.59 57.8581L165.453 57.6934C165.48 57.6659 165.508 57.6385 165.508 57.611ZM167.841 59.917L167.704 59.7523C167.731 59.7248 167.759 59.6974 167.786 59.6974C167.841 59.7248 167.896 59.7797 167.978 59.8072L167.841 59.917ZM167.567 61.921C167.539 61.8936 167.539 61.8661 167.484 61.8387L167.731 61.6465L167.786 61.6739L167.567 61.921ZM169.928 66.1212L169.982 66.1487L169.763 66.4781L169.708 66.4232L169.928 66.1212ZM158.864 71.2822L158.7 71.1999L158.727 71.1175L158.892 71.1999L158.864 71.2822ZM158.507 72.2705L158.453 72.2156L158.617 72.1333L158.672 72.1882L158.507 72.2705ZM166.633 59.5327L166.469 59.4503L166.496 59.3954L166.661 59.4503L166.633 59.5327ZM169.763 62.3053L169.845 62.4152L169.79 62.4701L169.708 62.3603L169.763 62.3053ZM162.515 64.1446L162.433 64.0348L162.488 63.9799L162.57 64.0897L162.515 64.1446ZM164.602 61.4269L164.574 61.3994L164.739 61.2622L164.767 61.3171L164.602 61.4269ZM169.928 65.7369L170.065 65.8192L170.01 65.8741L169.9 65.7918L169.928 65.7369ZM169.433 66.7801L169.571 66.8624L169.516 66.9173L169.406 66.835L169.433 66.7801ZM162.488 62.0034L162.625 62.0857L162.598 62.1406L162.461 62.0583L162.488 62.0034ZM167.155 62.0308L167.127 62.0034L167.21 61.8387L167.265 61.8661L167.155 62.0308ZM159.413 72.1333L159.358 72.1058L159.468 71.9411L159.496 71.9685L159.413 72.1333ZM164.657 60.8778L164.629 60.8504L164.767 60.7131L164.794 60.768L164.657 60.8778ZM162.9 62.4426L162.982 62.525L162.927 62.5799L162.845 62.4701L162.9 62.4426ZM163.284 63.2936L163.202 63.2113L163.257 63.1564L163.339 63.2662L163.284 63.2936ZM170.202 65.4075L170.257 65.4349L170.147 65.5722L170.12 65.5447L170.202 65.4075ZM165.096 59.066L165.233 58.9287L165.261 58.9562L165.123 59.0934L165.096 59.066ZM165.178 56.5404L165.206 56.5678L165.068 56.7051L165.041 56.6776L165.178 56.5404ZM165.892 64.1172L166.029 63.9799L166.057 64.0074L165.92 64.1446L165.892 64.1172ZM165.316 57.0071L165.178 57.1169L165.151 57.0894L165.288 56.9796L165.316 57.0071ZM166.359 59.9445L166.331 59.917L166.469 59.8072L166.496 59.8346L166.359 59.9445ZM168.006 61.2073L167.924 61.1249L167.951 61.07L168.033 61.1798L168.006 61.2073ZM166.084 64.2819L166.029 64.3368C166.029 64.3368 166.057 64.3094 166.057 64.2819H166.084ZM186.863 70.9254L186.891 70.843L187.028 70.9254C187.028 70.8979 187.055 70.8979 187.055 70.8705C187.33 70.5959 187.577 70.3214 187.742 69.992L187.714 69.9645L187.742 69.9096H187.769C187.797 69.8822 187.824 69.8547 187.824 69.7998C187.769 69.7998 187.714 69.7724 187.632 69.7724L187.659 69.6626L187.852 69.7449V69.7724C188.071 69.6626 187.879 69.5253 187.852 69.388C187.797 69.141 187.797 69.141 188.071 68.7566C188.263 68.9488 188.016 69.0861 188.071 69.2508C188.099 69.388 188.153 69.5527 188.208 69.6626V67.8233L187.906 67.7134L187.961 67.6036L188.208 67.6585V64.4741L189.005 63.7603L190.13 64.8859V64.7486H190.075C190.075 64.7211 190.048 64.6662 190.02 64.6388C190.158 64.5015 190.267 64.3643 190.377 64.1996L190.432 63.6231C190.542 63.5682 190.652 63.3211 190.844 63.5132C190.871 63.4583 190.899 63.4034 190.899 63.3211H191.036C191.036 63.376 191.009 63.4309 191.009 63.5132C191.173 63.4034 191.338 63.2936 191.53 63.2113C191.612 63.1838 191.722 63.2662 191.832 63.2662L191.365 63.7603L190.981 63.5956C190.981 63.6231 190.954 63.6231 190.954 63.6505H191.063L190.652 64.2819C190.569 64.5015 190.514 64.7211 190.487 64.9682L190.432 65.2153L191.612 66.3957L191.86 66.2859C191.86 66.3408 191.887 66.3683 191.887 66.4232L191.75 66.533L193.177 67.988C193.26 67.8233 193.342 67.6585 193.397 67.4938C193.424 67.4389 193.424 67.4115 193.424 67.3566L193.342 66.9448C193.397 66.9997 193.424 67.0546 193.479 67.082C193.534 66.8899 193.616 66.6977 193.699 66.5055L193.479 66.2585L193.616 66.1761L193.754 66.4232C193.864 66.2036 193.973 66.0114 194.138 65.8192C194.028 66.0938 193.918 66.3957 193.781 66.6703L193.534 67.1918C193.534 67.2468 193.507 67.3017 193.452 67.4389V67.4115C193.424 67.4389 193.424 67.4664 193.424 67.4938C193.424 67.5762 193.507 67.7134 193.479 67.7958C193.424 67.9056 193.369 68.0154 193.342 68.1252L195.868 70.6783C196.719 71.5568 196.307 71.9685 196.06 72.1058L196.115 72.2705L200.04 72.3254L199.985 71.996H200.452C200.589 71.8862 200.589 71.694 200.727 71.5842C200.013 71.1175 198.997 70.3489 197.817 69.1959C196.993 68.3997 195.099 66.5055 193.479 64.8859C193.479 64.9408 193.452 64.9682 193.452 64.9957C193.452 65.1055 193.479 65.1878 193.507 65.2702C193.479 65.2702 193.452 65.2976 193.424 65.2976L193.315 65.1329C193.26 65.1604 193.205 65.1878 193.095 65.1878L193.26 64.9957L193.067 64.6662L193.122 64.5564C193.177 64.6388 193.26 64.7211 193.369 64.831L193.397 64.8035L192.024 63.4034C191.969 63.376 191.887 63.3485 191.832 63.2662C191.832 63.2662 191.86 63.2662 191.86 63.2387L191.722 63.1015C191.64 63.1289 191.53 63.1289 191.42 63.1289V63.1564L191.256 63.2387C191.256 63.2113 191.256 63.1838 191.228 63.1564L191.42 63.1015V63.1289C191.475 63.074 191.53 63.0191 191.612 62.9917L191.448 62.8269L191.42 62.8544L191.393 62.8269L191.42 62.7995L190.789 62.1406C190.789 62.1406 191.338 61.6465 192.107 60.9602V60.9327L192.162 60.9053L192.326 60.7406L191.942 60.5759C192.244 60.521 192.326 60.521 192.436 60.6582L193.205 59.9445L193.095 59.8621L193.067 59.917L192.958 59.8895C192.985 59.8621 192.985 59.8072 192.985 59.7797L192.711 59.5052C192.463 59.1758 191.969 59.0385 191.53 59.0111L191.31 58.9287L188.208 61.6739V57.5012L187.906 57.3914C187.604 56.9247 187.302 56.3482 186.781 55.9913C186.506 55.7992 186.314 55.4697 186.04 55.1403H184.447C184.228 55.2227 184.036 55.305 183.871 55.4148C184.447 55.6619 185.463 56.2384 185.463 57.1718V64.227L185.546 64.1446L185.573 64.1721L185.463 64.2819V64.4466L185.518 64.529L185.463 64.5564V64.6113C185.6 64.5564 185.765 64.529 185.82 64.3917L185.902 64.1446L186.342 64.0623L186.314 64.0348L186.369 63.8976L186.232 63.6505L186.314 63.6231L186.534 63.9799L186.973 63.5682L186.891 63.2387L187.22 63.376C187.659 62.9917 188.126 62.5524 188.648 62.1681C189.087 61.8387 189.279 61.2073 190.048 60.9876C190.02 61.0151 189.993 61.0425 189.965 61.0425H190.075V61.0974H189.91C189.718 61.2347 189.608 61.372 189.471 61.5092L189.526 61.619L189.471 61.6465L189.416 61.5367C189.197 61.8387 188.977 62.0857 188.703 62.3053C188.236 62.6073 187.824 63.0191 187.412 63.376C187.302 63.4858 187.275 63.6231 187.165 63.7878C187.083 63.7878 187 63.8152 186.891 63.8152L186.863 63.8427H186.836L186.644 64.1996L186.589 64.1446L186.534 64.1721L186.479 64.1172C186.479 64.0897 186.451 64.0897 186.424 64.0897L186.451 64.0623L186.397 63.9525L186.369 64.0623V64.0348L186.342 64.0623L185.463 64.831V65.2153H185.491L185.655 65.5722L185.6 65.5996L185.463 65.38V65.984C185.847 66.2585 186.232 66.533 186.561 66.8899L185.847 66.5604L185.683 66.4232L185.463 66.231V67.8233L185.655 68.1527C186.397 68.4272 187.028 68.8115 187.385 69.5802L187.11 69.3331C187 69.3606 186.836 69.4429 186.616 69.4978L186.451 69.141C186.616 69.1959 186.699 69.1959 186.808 69.2508C186.808 68.7841 186.479 68.8939 186.149 68.7292C186.177 69.0037 186.204 69.141 186.204 69.3057H186.067C186.012 69.2508 185.93 69.2233 185.875 69.1959L185.847 69.2233L185.793 69.1959L185.847 69.1684C185.793 69.1135 185.738 69.0861 185.71 69.0312C185.655 68.8664 185.546 68.7292 185.463 68.5919V69.3331C185.491 69.4155 185.518 69.4704 185.518 69.5527L185.6 69.5802L185.546 69.6626C185.573 69.9096 185.546 70.0194 185.436 70.1567C185.244 71.3371 184.036 71.9411 183.596 72.1333L183.624 72.3529H185.436L185.408 72.3254L185.436 72.298L185.518 72.3529H186.012C186.259 71.8313 186.589 71.392 186.973 70.9803L186.863 70.9254ZM192.052 58.9013C192.354 58.9013 192.491 59.3131 192.848 59.0934C192.903 59.066 193.04 59.2032 193.122 59.2581C193.315 59.5052 193.397 59.5876 193.562 59.6425L193.891 59.368C193.891 59.3405 193.891 59.3131 193.864 59.2856C193.891 59.2856 193.918 59.3131 193.918 59.3131L196.279 57.2267C197.213 56.4306 198.503 55.7717 199.299 55.4423C199.134 55.305 198.97 55.2227 198.778 55.1403H198.393C198.338 55.2227 198.338 55.2776 198.311 55.3325C198.256 55.3599 198.201 55.3599 198.174 55.3599C198.201 55.305 198.228 55.2227 198.228 55.1403H197.789L197.762 55.1952L197.652 55.1403H194.138L194.083 55.305C194.303 55.4423 194.632 55.909 194.166 56.3757C193.973 56.5678 192.82 57.611 191.558 58.7091C191.722 58.8189 191.887 58.9287 192.052 58.9013ZM187.769 70.2391L187.852 70.6234L186.726 71.5842L186.918 72.0784H186.589L186.479 72.3529H189.993C189.993 72.298 190.048 72.2431 190.103 72.2156V72.1333L189.828 71.996L189.746 72.0509L189.718 71.9685H189.746C189.499 71.8313 189.224 71.6666 188.977 71.447L188.95 71.4744L188.785 71.392V71.3371L188.922 71.392C188.62 71.0901 188.346 70.7332 188.236 70.2391V70.5685C188.016 70.4312 187.906 70.3489 187.769 70.2391ZM186.891 55.607C186.946 55.7717 187.083 55.909 187.193 56.0462L187.165 55.9639L187.248 55.8815L187.495 56.2659L187.769 56.4306C187.769 56.5953 187.797 56.7325 187.797 56.8698C187.934 57.0071 188.071 57.1169 188.208 57.1718V57.1169C188.263 56.1011 189.499 55.5246 190.048 55.3325L189.993 55.1403H186.479C186.644 55.2501 186.781 55.4148 186.891 55.607ZM200.617 72.3254L201.742 72.3529L201.77 72.1058C201.605 72.0509 201.385 71.9411 201.111 71.8038C201.084 71.8587 201.029 71.9136 200.974 71.9685C200.864 72.1058 200.754 72.2431 200.617 72.3254ZM186.451 70.3489L186.095 69.7175C186.122 69.6076 186.122 69.6076 186.753 69.7998C186.671 69.9645 186.589 70.1292 186.451 70.3489ZM187.138 67.7409L187.33 67.6311C187.248 67.6311 187.193 67.6036 187.138 67.5762L187.193 67.4389L187.467 67.5487H187.495L187.659 67.6311L187.632 67.7409C187.577 67.7134 187.522 67.686 187.44 67.686L187.193 67.8233L187.138 67.7409ZM192.765 65.5447C192.683 65.4624 192.601 65.4349 192.463 65.3525L193.067 65.1329L192.765 65.5447ZM199.464 55.3874L199.683 55.305V55.1403H199.217C199.327 55.1952 199.381 55.305 199.464 55.3874ZM193.452 59.1209C193.589 59.1209 193.699 59.1209 193.836 59.1483L193.699 59.368L193.452 59.2307V59.1209ZM187.083 66.5604L186.973 66.4781L186.946 66.533L186.863 66.5055C186.863 66.3957 186.891 66.2859 186.918 66.1761C186.973 66.1761 187.028 66.2036 187.083 66.231L186.973 66.4506L187 66.4232L187.11 66.5055L187.083 66.5604ZM187.577 67.0271H187.632L187.797 66.9448L187.824 66.9997L187.742 67.0546C187.797 67.0546 187.852 67.082 187.906 67.082C187.906 67.1369 187.879 67.1918 187.852 67.2468L187.55 67.1095L187.577 67.0271ZM189.636 60.9602C189.746 60.8504 189.828 60.7406 189.91 60.6308C190.075 60.768 190.02 60.8778 189.636 60.9602ZM188.208 72.2705L187.989 72.0234L188.126 71.9136L188.291 72.2156C188.263 72.2156 188.236 72.2431 188.208 72.2705ZM191.612 59.1209L191.832 59.368L191.695 59.4503L191.53 59.1758L191.612 59.1209ZM192.381 64.3643L192.546 64.6388L192.463 64.6937L192.244 64.4466L192.381 64.3643ZM190.734 64.6662C190.679 64.6388 190.652 64.6113 190.597 64.6113L190.734 64.2819L190.816 64.3368L190.734 64.6662ZM187.083 63.2113L186.891 62.8544L186.973 62.7995L187.165 63.1564L187.083 63.2113ZM186.506 66.9722C186.616 66.9722 186.699 66.9722 186.808 66.9997C186.836 66.9997 186.836 67.082 186.891 67.2742C186.699 67.1095 186.616 67.0271 186.506 66.9722ZM186.808 69.69L187.138 69.8273L187.11 69.9371L186.753 69.7724L186.808 69.69ZM188.593 71.1175L188.263 71.3097L188.208 71.2273L188.538 71.0352L188.593 71.1175ZM190.761 60.6857L190.35 61.0151C190.514 60.7131 190.514 60.7131 190.761 60.6857ZM187.961 55.9639C187.989 55.9639 188.016 55.9913 188.044 56.0188L187.824 56.2384L187.769 56.1835L187.961 55.9639ZM187.412 62.525L187.22 62.4426C187.165 62.4426 187.11 62.4152 187.028 62.4152L187.055 62.3328L187.248 62.4152C187.302 62.4152 187.385 62.4426 187.44 62.4426L187.412 62.525ZM186.204 66.3134L186.04 66.1212L186.095 66.0389L186.259 66.2585L186.204 66.3134ZM186.369 69.4155L186.424 69.4429L186.342 69.6351L186.259 69.6076L186.369 69.4155ZM187.906 56.8698L187.797 56.6776L187.852 56.6502L187.961 56.8149L187.906 56.8698ZM188.95 62.1406L189.059 62.3328L189.005 62.3603L188.895 62.1955L188.95 62.1406ZM190.981 61.7838L191.036 61.8387L190.871 61.921L190.816 61.8661L190.981 61.7838ZM197.103 71.1175L197.048 71.0901L197.103 70.9254H197.185L197.103 71.1175ZM185.957 64.7761L186.04 64.5839L186.095 64.6113L186.012 64.8035L185.957 64.7761ZM193.507 66.7252C193.479 66.7801 193.452 66.8624 193.452 66.9173H193.397C193.397 66.835 193.424 66.7801 193.424 66.6977L193.507 66.7252ZM185.902 69.6626L185.847 69.6351L185.93 69.4429L185.985 69.4704L185.902 69.6626ZM186.726 66.3408L186.836 66.5055L186.781 66.533L186.671 66.3683L186.726 66.3408ZM185.82 68.4821L185.655 68.5919L185.683 68.6468L185.847 68.537L185.82 68.4821ZM191.201 65.7094L191.146 65.682L191.256 65.5173L191.31 65.5447L191.201 65.7094ZM186.067 64.3643L186.122 64.3917L186.04 64.5564L185.985 64.529L186.067 64.3643ZM187.769 67.8233L187.714 67.7958L187.797 67.6311L187.852 67.6585L187.769 67.8233ZM187.44 69.9096L187.385 69.8822L187.467 69.7175L187.522 69.7449L187.44 69.9096ZM186.259 65.6271L186.095 65.5447L186.122 65.4898L186.287 65.5722L186.259 65.6271ZM191.448 60.6308L191.475 60.6857L191.31 60.768L191.283 60.7131L191.448 60.6308ZM190.816 63.0191L190.844 63.074L190.679 63.1564L190.652 63.1015L190.816 63.0191ZM191.448 65.4075L191.283 65.3251V65.2702L191.475 65.3525L191.448 65.4075ZM197.899 55.3599L197.954 55.4148L197.844 55.5521L197.817 55.5246L197.899 55.3599ZM187.357 69.0037L187.302 68.9762L187.385 68.839L187.44 68.8939L187.357 69.0037ZM186.342 66.1487L186.314 66.1212L186.397 65.9565L186.451 66.0114L186.342 66.1487ZM187 68.6194L186.946 68.5919L187.055 68.4547H187.11L187 68.6194ZM192.052 63.925L191.914 63.8427L191.942 63.7878L192.079 63.8701L192.052 63.925ZM187.138 63.9525L187.193 63.9799L187.083 64.1446L187.055 64.1172L187.138 63.9525ZM191.695 60.5484L191.667 60.521L191.805 60.3837L191.832 60.4386L191.695 60.5484ZM187.138 55.2776L187.22 55.3874L187.165 55.4148L187.083 55.3325L187.138 55.2776ZM193.15 58.7366L193.177 58.764L193.013 58.9013L192.985 58.8738L193.15 58.7366ZM185.738 71.145L185.683 71.1175L185.765 71.0077L185.82 71.0352L185.738 71.145ZM191.036 60.6308C191.091 60.6308 191.146 60.6033 191.201 60.6033V60.6582H191.009C191.036 60.6582 191.036 60.6308 191.036 60.6308Z" fill="white"/>
</svg>
