<svg width="16" height="872" viewBox="0 0 16 872" fill="none" xmlns="http://www.w3.org/2000/svg">
<path d="M3.74296 13.6401C3.83896 13.0543 3.94563 12.5568 3.97763 12.0705C4.06296 10.523 3.99896 8.9976 3.72163 7.4501C3.43362 5.82523 3.24162 4.15614 3.66829 2.49811C3.68963 2.43178 3.67896 2.31019 3.72163 2.28809C4.1483 2.03385 3.94563 1.53644 4.15897 1.16062C4.42564 1.16062 4.5643 0.950606 4.66031 0.68532C4.74564 0.464249 4.86298 0.254232 4.98031 0C5.19365 0.15475 5.33232 0.265285 5.49232 0.37582C4.91631 2.15544 5.30032 3.99033 5.11898 5.7368C5.21498 5.81417 5.24698 5.85839 5.26832 5.85839C6.00433 5.83628 6.74034 5.81417 7.47635 5.79206C8.4897 5.76996 9.49238 5.7589 10.5057 5.7368C10.6337 5.7368 10.7511 5.74785 10.8791 5.74785C11.4551 5.74785 11.4551 5.74785 11.6257 6.30053C11.1137 6.87531 10.6017 7.42799 10.1217 7.99172C9.90838 8.24596 9.72705 8.5444 9.54571 8.83179C8.9377 9.76029 8.13769 10.5783 7.84969 11.6836C7.65768 12.38 7.25234 13.0432 7.36968 13.828C7.40168 14.0491 7.33768 14.3033 7.27368 14.5354C7.10301 15.1876 7.28434 15.7734 7.62568 16.304C7.83902 16.6467 7.92435 17.0667 8.32969 17.2988C8.47903 17.3872 8.5217 17.6746 8.6497 17.9289C9.04437 17.9952 9.49238 18.0836 9.94038 18.161C9.95105 18.2052 9.96172 18.2494 9.97238 18.2936C9.80171 18.3489 9.62038 18.4926 9.46038 18.4594C9.0657 18.3931 8.69236 18.2384 8.30836 18.1278C7.97769 18.0394 7.79635 17.7962 7.62568 17.4978C7.50835 17.2878 7.30568 17.1441 7.14568 16.9562C7.03901 16.8235 6.88967 16.6909 6.847 16.5251C6.72967 16.094 6.53767 15.6739 6.623 15.1876C6.655 14.9997 6.527 14.7786 6.463 14.5686C6.303 14.0822 6.175 13.629 6.42033 13.0874C6.67634 12.5126 6.74034 11.8605 6.93234 11.2525C7.29501 10.1251 7.73235 9.04181 8.35103 8.03594C8.51103 7.77065 8.57503 7.4501 8.70303 7.11849C7.84969 6.9748 7.06034 6.82005 6.271 6.70951C6.01499 6.67635 5.73766 6.70951 5.49232 6.78689C5.34298 6.8311 5.15098 7.01901 5.14031 7.16271C5.10831 7.51642 5.18298 7.87013 5.18298 8.2349C5.19365 9.14129 5.19365 10.0587 5.17231 10.9651C5.16165 11.2083 5.05498 11.4515 4.99098 11.6836C4.95898 11.8052 4.87364 11.9268 4.87364 12.0373C4.89498 12.59 4.5323 12.9879 4.32963 13.4411C4.16963 13.7175 3.9563 13.8169 3.74296 13.6401Z" fill="url(#paint0_linear_510_594)"/>
<path d="M7.33135 830.557C7.70218 830.59 8.02805 830.655 8.35393 830.633C8.91579 830.611 9.399 830.688 9.76983 831.171C10.062 831.544 10.1182 831.511 10.1294 831.697C9.05065 831.774 7.96063 831.598 6.83691 832.004C7.15155 832.618 7.30888 833.254 7.83702 833.66C8.06177 833.835 8.3427 833.978 8.62363 834.033C8.9158 834.088 9.16302 834.274 9.399 834.34C9.85972 834.46 10.3879 834.482 10.8598 834.208C11.0059 834.121 11.1857 834.088 11.388 834.099C10.8261 834.526 10.3766 835.096 9.61251 835.206C9.34282 835.25 9.02817 835.272 8.88209 835.623C8.83714 835.732 8.53373 835.82 8.38765 835.787C7.98311 835.678 7.60105 835.568 7.26393 835.239C6.74702 834.724 6.3762 834.142 6.11774 833.474C6.05032 833.298 5.81433 833.188 5.63453 833.024C5.28618 833.397 5.47721 833.704 5.64577 834.011C5.58958 834.121 5.46597 834.23 5.47721 834.34C5.48845 834.811 5.55587 835.272 5.12886 835.678C4.99401 835.809 5.12886 836.193 5.14009 836.456C5.14009 836.774 5.25247 837.103 5.02772 837.41C4.98277 837.476 5.08392 837.641 5.10639 837.772C5.15134 837.937 5.18504 838.101 5.25247 838.375C5.02772 838.277 4.85916 838.255 4.81421 838.178C4.57823 837.772 4.25235 837.421 4.30854 836.884C4.35349 836.401 4.30855 835.941 4.05009 835.469C3.84782 835.096 3.8703 834.581 3.8703 834.131C3.8703 833.528 3.93771 832.936 3.96019 832.333C3.97143 832.147 3.92648 831.96 3.904 831.719C3.64555 831.807 3.477 831.862 3.30844 831.927C3.12864 831.851 2.9376 831.774 2.73533 831.686C2.94884 831.072 3.62308 831.072 3.93772 830.809C4.28607 829.087 4.69061 827.486 4.90412 825.852C5.02773 824.822 5.5334 823.966 5.87051 823.034C6.02783 822.595 6.18515 822.573 6.60093 822.749C6.34248 823.1 6.08403 823.451 5.83681 823.802C5.76939 823.9 5.70196 824.021 5.67949 824.142C5.52217 825.085 5.36484 826.028 5.24123 826.982C5.20752 827.267 5.27495 827.563 5.27495 827.848C5.27495 828.298 5.25248 828.747 5.27495 829.197C5.28619 829.526 5.35361 829.855 5.39856 830.184C5.45474 830.195 5.51093 830.206 5.56711 830.217C5.65701 830.096 5.74691 829.975 5.83681 829.855C6.02784 829.581 6.16269 829.263 6.39867 829.043C7.02795 828.451 7.66847 827.848 8.37642 827.355C8.97199 826.938 9.6687 826.697 10.3879 827.245C10.5564 827.377 10.8486 827.344 11.0958 827.366C11.5341 827.409 11.9386 827.519 12.3094 827.738C12.2982 827.782 12.2982 827.826 12.287 827.87C12.1521 827.892 12.0173 827.947 11.8937 827.936C11.3992 827.881 10.9048 827.782 10.4103 827.738C10.253 827.727 10.062 827.76 9.93839 827.837C9.30911 828.254 8.65734 828.638 8.10672 829.131C7.73589 829.482 7.41001 829.921 7.33135 830.557Z" fill="url(#paint1_linear_510_594)"/>
<path d="M1.16142 372.912C0.977477 372.607 0.825996 372.411 0.739436 372.193C0.685337 372.062 0.65288 371.844 0.728619 371.746C1.18305 371.136 1.60503 370.493 2.36242 370.177C2.6221 370.068 2.82768 369.817 3.07654 369.61C2.57882 368.738 2.66538 367.975 3.43359 367.288C3.75819 367.19 4.02869 367.288 4.19099 367.724C4.35329 368.149 4.51558 368.138 4.87264 367.822C5.82479 366.972 6.7553 366.1 7.73991 365.294C8.43239 364.716 9.17896 364.226 9.90389 363.692C10.5964 363.19 11.2888 362.678 12.003 362.198C12.2843 362.013 12.6089 361.904 13.02 361.719C12.9335 361.882 12.9118 361.981 12.8577 362.002C11.7 362.656 10.9101 363.724 9.95799 364.607C9.17896 365.327 8.36747 366.013 7.63171 366.765C7.10154 367.31 6.41989 367.713 6.00873 368.389C5.94381 368.487 5.83561 368.607 5.72741 368.629C5.27298 368.727 5.19724 369.152 5.03494 369.457C4.94838 369.621 4.99166 369.937 5.08904 370.111C5.54347 370.918 6.07365 371.67 6.63628 372.411C7.09072 372.999 7.68581 373.13 8.22681 373.446C8.80026 373.784 9.417 373.926 10.0662 373.98C10.2934 374.002 10.5531 374.002 10.7478 373.904C11.397 373.566 12.0138 373.174 12.6522 372.825C13.0417 372.607 13.1607 372.182 13.4312 371.888C14.1453 371.114 13.7125 370.362 13.4636 369.588C13.4095 369.425 13.1607 369.283 13.5069 369.021C13.6584 369.261 13.7882 369.501 13.9289 369.719C14.5781 370.743 14.4374 371.801 13.8964 372.771C13.6043 373.305 13.0092 373.675 12.5656 374.133C12.1544 374.558 11.6567 374.602 11.0941 374.569C10.7803 374.547 10.4665 374.634 10.1527 374.667C10.0662 374.678 9.97964 374.722 9.89308 374.711C8.76781 374.591 7.63172 374.384 6.66875 373.806C5.90053 373.337 5.31626 372.574 4.56968 372.062C4.09361 371.735 3.76901 371.332 3.49851 370.787C3.03326 371.223 2.6762 371.648 2.49226 372.171C2.20012 373.043 1.94045 373.185 1.16142 372.912Z" fill="url(#paint2_linear_510_594)"/>
<path d="M11.6256 198.417C11.1026 199.102 10.3618 199.091 9.72986 199.445C9.39212 198.826 8.84737 198.771 8.17189 198.704C7.34387 198.627 6.60302 198.926 5.81859 198.97C5.5789 198.981 5.3719 199.379 5.06684 199.689C4.75089 199.512 4.38046 199.279 3.97735 199.091C3.58513 198.903 3.17113 198.76 2.73533 198.594C2.89875 198.185 3.18202 198.074 3.50887 198.019C4.14077 197.908 4.03182 197.853 4.24972 197.267C4.53299 196.504 4.44583 195.619 4.97968 194.945C5.361 194.469 5.74232 193.994 6.13454 193.529C6.18902 193.463 6.26528 193.386 6.34154 193.352C6.84271 193.109 7.34387 192.888 7.88862 192.634C7.89951 192.744 7.9322 192.866 7.91041 192.866C7.19135 193.176 6.88629 193.905 6.37423 194.403C5.99291 194.768 5.81859 195.288 5.85127 195.852C5.87306 196.349 5.85127 196.836 5.85127 197.411C7.0824 197.61 8.29173 197.3 9.53375 197.532C9.53375 197.013 9.54465 196.537 9.53375 196.073C9.52286 195.818 9.50107 195.553 9.45749 195.31C9.40301 195.011 9.32675 194.713 9.23959 194.425C9.18511 194.215 9.11974 194.016 9.04348 193.817C8.77111 193.098 8.48784 192.368 8.21547 191.65C7.75788 190.433 6.87539 189.493 6.14543 188.465C5.65516 187.779 5.00147 187.215 4.41314 186.596C4.26062 186.43 4.0754 186.298 3.84661 186.099C4.19525 185.922 4.40225 186.043 4.59836 186.198C5.64427 187.039 6.71197 187.857 7.72519 188.73C8.1392 189.095 8.44426 189.593 8.782 190.046C9.61001 191.152 10.0785 192.424 10.4053 193.762C10.5252 194.259 10.6123 194.768 10.8085 195.232C11.1026 195.951 10.9174 196.637 10.8194 197.333C10.7431 197.864 10.7431 197.864 11.2334 198.118C11.375 198.196 11.4839 198.306 11.6256 198.417Z" fill="url(#paint3_linear_510_594)"/>
<path d="M11.0023 535.315C10.7903 535.438 10.6451 535.483 10.5447 535.573C9.96427 536.122 9.39501 536.683 8.83691 537.243C8.60251 537.479 8.39043 537.748 8.14487 537.961C6.54871 539.385 5.04185 540.888 3.76939 542.626C3.30059 543.265 2.83179 543.915 2.36299 544.554C2.29602 544.655 2.19556 544.734 2.06162 544.879C2.06162 544.722 2.0393 544.644 2.06162 544.588C2.31834 544.005 2.55275 543.399 2.86528 542.839C3.26711 542.087 3.69126 541.347 4.18239 540.641C4.71816 539.867 5.33207 539.127 5.92365 538.387C6.38129 537.804 6.82776 537.199 7.34121 536.672C7.87698 536.111 8.49089 535.618 9.07131 535.102C9.09363 535.079 9.13829 535.068 9.16061 535.035C9.59593 534.384 10.1763 534.53 10.8795 534.81C10.7902 534.294 10.7121 533.868 10.634 533.397C11.3372 533.308 11.9176 533.442 12.5538 533.924C12.6766 534.608 12.8999 535.405 12.9557 536.223C13.0226 537.21 12.9891 538.208 12.9445 539.206C12.9222 539.879 12.8664 540.562 12.7213 541.213C12.5985 541.762 12.3529 542.278 12.1408 542.805C11.9957 543.141 11.8171 543.467 11.6497 543.803C11.3707 544.364 10.8572 544.678 10.3103 544.823C9.67406 544.98 8.98202 545.036 8.33463 544.969C7.34121 544.879 6.25851 543.859 6.4371 542.749C6.51523 542.94 6.55988 543.063 6.60453 543.198C6.74963 543.624 7.051 543.915 7.49748 543.926C8.18952 543.96 8.88156 544.128 9.59592 543.915C9.91962 543.825 10.154 543.668 10.3773 543.444C11.0916 542.749 11.326 541.841 11.393 540.91C11.5046 539.542 11.5381 538.163 11.5158 536.784C11.5046 536.335 11.1921 535.853 11.0023 535.315Z" fill="url(#paint4_linear_510_594)"/>
<path d="M8.84049 248.712C8.55763 248.348 8.38791 248.016 8.10504 247.802C7.6864 247.491 7.19987 247.267 6.72465 247.01C6.5323 246.903 6.23812 246.881 6.13629 246.731C5.59318 245.993 4.74459 246.068 3.96387 245.918C3.43209 245.821 2.91161 245.682 2.40245 245.511C2.24404 245.457 2.0517 245.243 2.0517 245.104C2.06301 244.836 2.34588 244.815 2.57217 244.826C4.05439 244.836 5.54793 244.847 7.03015 244.869C8.72735 244.901 10.4245 244.943 12.1217 244.976C12.2688 244.976 12.4272 244.997 12.5743 245.008C12.8911 245.051 13.0382 245.211 12.9817 245.479C11.3297 245.597 9.68909 245.714 8.03715 245.832C8.18424 246.164 9.10073 247.117 9.44017 247.181C9.8475 247.267 9.93801 247.577 10.1304 247.823C10.3114 248.069 10.4359 248.359 10.6622 248.573C11.2505 249.151 11.5673 249.847 11.7936 250.607C11.9633 251.174 12.2009 251.72 12.348 252.287C12.4951 252.855 12.6196 253.433 12.6648 254.022C12.6988 254.364 12.563 254.728 12.4951 255.071C12.4386 255.071 12.3933 255.071 12.3367 255.082C12.2915 254.91 12.1783 254.718 12.2236 254.578C12.4499 253.947 12.1557 253.379 11.9407 252.823C11.5673 251.838 11.1034 250.906 10.334 250.125C10.1756 249.975 10.0738 249.772 9.96064 249.622C8.85181 250.007 7.89006 250.307 6.93963 250.671C6.1476 250.971 5.34426 251.292 4.62012 251.709C4.19017 251.956 3.9073 252.416 3.55655 252.78C3.29631 253.048 3.20579 253.454 2.68532 253.604C2.65137 253.454 2.54954 253.294 2.60611 253.208C2.76452 252.93 2.94556 252.662 3.18316 252.437C3.43209 252.191 3.68101 251.998 3.7489 251.613C3.79416 251.388 4.04308 251.163 4.24674 250.992C5.35558 250.061 6.66808 249.429 8.01452 248.862C8.24082 248.776 8.535 248.776 8.84049 248.712Z" fill="url(#paint5_linear_510_594)"/>
<path d="M11.6256 652.796C11.5937 653.467 11.6786 654.038 11.5195 654.53C11.2224 655.425 11.424 656.421 10.9572 657.259C10.7344 657.651 10.4692 658.031 10.1934 658.389C10.1085 658.501 9.90693 658.535 9.70536 658.512C9.8751 658.233 10.0342 657.953 10.204 657.685C10.5541 657.125 10.7344 656.532 10.5541 655.85C10.5222 655.716 10.5647 655.559 10.5647 655.414C10.5965 654.944 10.3101 654.62 10.0767 654.284C10.0236 654.217 9.83266 654.228 9.70536 654.25C9.14309 654.351 8.58083 654.552 8.01856 654.552C7.60481 654.552 7.19105 654.318 6.78792 654.15C6.06651 653.848 5.3345 654.038 4.56005 654.016C4.56005 654.608 4.56005 655.156 4.56005 655.693C4.51762 655.705 4.46458 655.705 4.42214 655.716C4.16753 655.201 4.16752 654.597 3.97656 653.948C3.60525 654.004 3.21273 654.071 2.73533 654.15C2.95812 653.479 3.55222 653.769 3.88109 653.434C3.87048 653.311 3.8917 653.143 3.84926 652.998C3.5416 651.924 3.58404 650.805 3.62648 649.72C3.66891 648.624 3.88109 647.528 4.06144 646.443C4.11448 646.118 4.32667 645.827 4.46458 645.525C4.89955 645.648 5.02685 645.816 4.95259 646.23C4.86772 646.678 4.94198 647.147 4.94198 647.606C4.94198 647.93 4.94198 648.255 4.94198 648.657C5.30268 648.68 5.6846 648.725 6.06652 648.725C6.73488 648.736 7.38202 648.725 8.02916 649.049C8.35804 649.217 8.81422 649.15 9.20674 649.15C9.55684 649.15 9.90693 649.094 10.2464 649.083C10.3419 649.083 10.448 649.105 10.5435 649.116C10.5541 649.161 10.5647 649.194 10.5753 649.239C10.3207 649.329 10.0873 649.463 9.82206 649.508C9.33406 649.597 8.83544 649.664 8.33682 649.698C7.73212 649.742 7.11679 649.72 6.51209 649.754C6.13017 649.776 5.74825 649.821 5.37694 649.933C5.22842 649.977 5.05867 650.168 5.01624 650.324C4.83589 651.107 4.69797 651.913 4.54945 652.707C4.52823 652.807 4.56005 652.93 4.56005 653.087C4.82527 653.087 5.0905 653.121 5.3345 653.076C6.70305 652.863 8.06099 653.054 9.40832 653.232C9.73719 653.277 10.0979 653.121 10.448 653.042C10.8299 652.975 11.18 652.897 11.6256 652.796Z" fill="url(#paint6_linear_510_594)"/>
<path d="M10.1741 67.0188C10.1144 67.2187 10.1024 67.3554 10.0546 67.366C9.3734 67.5343 9.24194 68.0814 8.97902 68.5338C8.85951 68.7442 8.74 68.9651 8.62049 69.186C8.57268 69.2597 8.51293 69.3439 8.48903 69.4175C8.30976 70.154 8.11854 70.8904 7.97513 71.6374C7.68831 73.0998 7.72416 74.5621 7.92733 76.035C8.09464 77.2449 8.68024 78.297 9.07463 79.4227C9.3256 80.1486 9.38535 80.9166 10.1024 81.4532C10.21 81.5374 10.21 81.7478 10.2578 81.8951C10.0546 82.116 9.79169 82.0844 9.55267 82.0003C8.77585 81.7057 7.93928 81.6005 7.11466 81.6005C6.43345 81.6005 5.69248 81.369 5.08298 81.874C4.95152 81.9792 4.65274 81.9266 4.42567 81.874C5.26225 80.8325 6.62466 81.0219 7.81977 80.7273C7.83172 80.6326 7.89147 80.4853 7.84367 80.4011C7.47319 79.7488 7.06685 79.1176 6.69637 78.4969C6.00321 78.8125 5.42956 79.0966 4.83201 79.3491C4.38982 79.5384 4.1986 79.4543 4.10299 79.1071C4.6886 78.6337 5.25029 78.1707 5.84785 77.7394C6.55296 77.2344 6.50515 76.6242 6.31394 75.9298C6.15857 75.3407 6.07492 74.741 5.99126 74.1308C5.96736 73.994 6.07491 73.8362 6.13467 73.6889C6.19443 73.5416 6.29003 73.4049 6.31394 73.2576C6.45735 72.4369 6.67247 71.6374 7.031 70.8799C7.27002 70.3644 7.6644 69.912 7.98708 69.428C8.07074 69.3123 8.16635 69.1966 8.21415 69.0598C8.54878 68.2918 9.22999 67.7342 9.82754 67.145C9.86339 67.124 9.97095 67.1029 10.1741 67.0188Z" fill="url(#paint7_linear_510_594)"/>
<path d="M6.38985 135.272C6.70362 135.272 6.92774 135.272 7.14065 135.272C8.09316 135.294 9.03447 135.305 9.98698 135.348C10.1327 135.359 10.2671 135.532 10.4352 135.651C10.1327 136.138 9.85251 136.571 9.57236 137.004C9.43788 137.209 9.25859 137.393 9.15773 137.61C8.9 138.173 8.9 138.768 9.14653 139.331C9.32583 139.731 9.15773 140.153 8.9112 140.294C8.39573 140.564 8.31728 141.019 8.07075 141.56C7.85784 139.85 8.14919 138.248 8.19402 136.593C7.4208 136.538 6.65879 136.354 5.87437 136.528C5.60543 136.593 5.31407 136.571 5.04513 136.571C4.76498 136.56 4.51845 136.56 4.26071 136.744C3.96935 136.95 3.63317 136.863 3.43147 136.679C3.43147 136.333 3.39785 136.062 3.44267 135.803C3.46508 135.64 3.56594 135.456 3.6892 135.359C4.97789 134.331 6.3002 133.357 7.54407 132.274C8.12678 131.766 8.54141 131.095 9.03447 130.489C9.15774 130.337 9.281 130.175 9.40427 130.023C9.81889 129.471 10.1999 128.898 10.2783 128.194C10.3232 127.859 10.424 127.534 10.5137 127.199C11.0067 127.599 11.0179 127.632 10.8274 128.184C10.7938 128.281 10.7826 128.389 10.7602 128.497C10.6705 129.028 10.5697 129.536 10.2111 129.991C9.99819 130.262 9.97577 130.673 9.77407 130.954C9.16894 131.787 8.46296 132.556 7.91387 133.422C7.54407 134.006 7.12945 134.526 6.60276 134.98C6.53553 135.023 6.50191 135.11 6.38985 135.272Z" fill="url(#paint8_linear_510_594)"/>
<path d="M7.06481 484.647C6.15067 484.382 5.15451 484.372 4.34585 483.673C5.43578 483.578 6.43195 483.483 7.52188 483.388C7.62736 482.901 7.73283 482.415 7.82659 481.939C7.75627 481.907 7.72111 481.865 7.69767 481.875C6.7601 482.118 6.36163 481.706 5.79909 480.86C5.47094 480.362 5.16623 479.876 4.7326 479.442C4.41617 479.125 4.29897 478.638 4.11146 478.215C4.0763 478.141 4.15833 478.025 4.21693 477.855C5.18966 479.4 6.8773 480.098 8.2485 481.262C8.60009 480.479 8.88136 479.781 9.20951 479.104C9.53766 478.437 10.0533 477.887 10.4987 477.295C10.6042 477.358 10.6276 477.369 10.6393 477.379C10.7331 477.929 10.8034 478.49 10.9206 479.04C10.9792 479.294 10.9089 479.474 10.7917 479.675C10.4635 480.257 10.1822 480.849 9.86581 481.431C9.63142 481.865 9.36187 482.298 9.12747 482.743C9.03372 482.922 9.022 483.134 8.97512 483.324C9.5611 483.737 10.3932 483.229 10.8737 483.874C10.3932 484.044 10.0768 484.319 10.2643 484.901C9.57282 484.901 8.9048 484.901 8.15474 484.901C7.32265 486.138 6.66634 487.492 6.20927 488.92C6.1624 488.91 6.1038 488.899 6.05692 488.889C6.37335 487.503 6.7015 486.106 7.06481 484.647Z" fill="url(#paint9_linear_510_594)"/>
<path d="M3.41936 602.271C3.75771 602.152 3.99455 602.012 4.25395 601.968C5.44943 601.763 6.65618 601.579 7.93061 601.384C7.65994 601.157 7.42309 600.898 7.14114 600.703C6.67874 600.389 6.18251 600.108 5.69755 599.805C5.09981 599.438 4.70507 598.886 4.26522 598.378C4.15244 598.248 4.02838 598.129 3.85921 597.956C3.92688 597.794 4.00583 597.556 4.12989 597.34C4.22011 597.167 4.35545 597.015 4.19756 596.799C4.15244 596.745 4.20884 596.604 4.24267 596.507C4.44568 595.934 4.62613 595.35 4.86297 594.777C5.28026 593.76 5.99077 593.079 7.20881 593.014C7.49076 593.003 7.76144 592.906 8.03212 592.884C8.92309 592.798 9.3291 593.046 9.7915 593.782C9.99451 594.106 10.1411 594.409 10.0735 594.787C10.0622 594.852 9.98323 594.917 9.91556 595.004C9.85917 594.928 9.7915 594.885 9.7915 594.852C9.82533 594.398 9.66745 594.084 9.19377 593.89C8.79903 593.728 8.4494 593.501 7.987 593.674C7.68249 593.782 7.34415 593.825 7.01709 593.911C6.91558 593.944 6.78024 593.998 6.73513 594.074C6.39679 594.669 5.96821 595.188 5.79904 595.88C5.61859 596.626 5.88927 597.329 5.84416 598.053C5.83288 598.259 6.09228 598.475 6.22762 598.692C6.94942 599.784 7.98701 600.584 9.08099 601.309C9.25016 601.417 9.49828 601.503 9.70128 601.482C10.175 601.438 10.5359 601.666 10.9419 601.817C10.8742 602.217 10.6148 602.336 10.3103 602.39C10.0171 602.444 9.81405 602.574 9.6336 602.812C9.34037 603.201 9.2276 603.19 8.75392 602.985C7.90806 602.606 7.0058 602.466 6.081 602.477C5.81032 602.477 5.53965 602.552 5.26898 602.585C4.88552 602.65 4.0171 602.509 3.41936 602.271Z" fill="url(#paint10_linear_510_594)"/>
<path d="M5.02038 774.66C5.08293 774.576 5.12462 774.481 5.20802 774.428C6.0003 773.849 6.62579 773.102 7.20958 772.312C7.3868 772.07 7.61615 771.88 7.79337 771.638C7.99144 771.385 8.36672 771.196 8.17908 770.753C8.16865 770.722 8.21035 770.659 8.24162 770.617C8.78371 769.827 8.84627 768.921 8.7316 768.016C8.70032 767.742 8.48139 767.5 8.34587 767.237C8.25205 767.047 8.1478 766.858 8.02271 766.615C7.86634 766.615 7.60572 766.668 7.37638 766.594C7.15746 766.521 6.99065 766.31 6.78216 766.184C6.25049 765.847 6.01073 765.868 5.40609 766.331C5.0725 766.584 4.66594 766.784 4.49914 767.226C4.46787 767.3 4.30107 767.31 4.19682 767.352C4.16555 767.31 4.13427 767.279 4.10299 767.237C4.24894 766.984 4.35318 766.71 4.54083 766.489C4.9474 766.015 5.36439 765.562 5.82308 765.141C6.11498 764.878 6.51112 764.804 6.89684 764.92C7.37638 765.057 7.86634 765.204 8.32503 765.404C8.6065 765.531 8.84626 765.762 9.07561 765.931C9.07561 765.415 9.07561 764.867 9.07561 764.32C9.07561 764.236 9.01307 764.141 9.04434 764.067C9.23199 763.499 9.17986 762.941 9.09646 762.372C9.07561 762.225 9.22156 762.046 9.3258 761.782C9.7011 762.414 10.0138 762.93 10.3162 763.446C10.4934 763.488 10.6914 763.541 10.9416 763.604C10.4308 764.404 10.5351 765.247 10.4413 766.047C10.3579 766.668 10.337 767.3 10.2015 767.9C10.0034 768.816 9.7428 769.711 9.47175 770.606C9.41963 770.774 9.17986 770.89 9.00264 771.017C8.54395 771.712 8.14781 772.449 7.43892 772.965C7.04278 773.259 6.77173 773.723 6.40687 774.081C6.28177 774.207 6.06285 774.249 5.88563 774.333C5.80223 774.376 5.70841 774.418 5.62501 774.47C5.45821 774.576 5.28099 774.681 5.11419 774.776C5.07249 774.734 5.05165 774.702 5.02038 774.66Z" fill="url(#paint11_linear_510_594)"/>
<path d="M5.4723 709.896C6.15331 710.112 6.67471 710.535 7.06842 711.139C7.0897 711.174 7.12161 711.185 7.15353 711.208C7.83454 711.71 8.51556 712.223 9.20721 712.702C9.40938 712.839 9.69668 712.851 10.0585 712.953C10.0372 712.52 10.1223 712.155 9.99463 711.915C9.70732 711.413 9.73924 710.877 9.69668 710.341C9.66476 709.998 9.60091 709.656 9.54771 709.268C9.54771 708.435 9.54771 707.545 9.54771 706.587C10.0053 706.69 10.3883 706.77 10.7608 706.861C10.7608 707.739 10.7608 708.561 10.7608 709.382C10.7608 709.439 10.7714 709.508 10.7501 709.553C10.3458 710.147 10.5479 710.831 10.4628 711.482C10.3883 712.075 10.4309 712.691 10.3777 713.284C10.3564 713.501 10.2181 713.706 10.1436 713.912C9.62219 713.649 9.20721 713.398 8.77094 713.216C8.53684 713.113 8.26017 713.125 8.0048 713.102C7.88775 713.09 7.70686 713.147 7.65366 713.079C7.34508 712.68 6.88752 712.554 6.48317 712.349C5.79152 711.995 5.40845 711.345 4.98282 710.717C4.80192 710.443 4.49335 710.272 4.21669 710.078C4.03579 709.827 4.089 709.588 4.24861 709.325C5.08923 708.013 5.98306 706.77 7.12162 705.72C7.48341 705.389 7.87711 705.127 8.26018 704.853C8.77093 704.488 9.21785 704.031 9.69668 703.609C10.0265 703.312 10.3351 702.959 10.9416 702.97C10.8672 703.176 10.8459 703.37 10.7608 703.415C10.0159 703.86 9.35618 704.419 8.82414 705.138C8.61133 705.423 8.33466 705.663 8.12184 705.937C7.97287 706.119 7.86646 706.336 7.74941 706.553C7.71749 706.61 7.7175 706.712 7.67493 706.758C7.17482 707.386 6.67471 708.013 6.16395 708.641C6.11075 708.709 6.0469 708.778 6.00434 708.857C5.83409 709.177 5.67448 709.496 5.4723 709.896Z" fill="url(#paint12_linear_510_594)"/>
<path d="M7.42665 429.736C7.38304 429.616 7.31762 429.485 7.27401 429.344C7.05596 428.57 6.58715 427.926 6.19466 427.25C6.12924 427.141 6.04202 427.032 5.9439 426.978C5.22433 426.585 4.99538 425.931 4.82094 425.179C4.69011 424.612 4.38484 424.089 4.14498 423.554C4.03596 423.304 3.88333 423.086 3.7743 422.835C3.56715 422.344 3.29459 421.93 2.82578 421.636C2.50961 421.428 2.25885 421.189 2.34607 420.709C2.38968 420.48 2.16072 420.196 2.0517 419.935C2.0844 419.902 2.10622 419.88 2.13892 419.848C2.28066 419.978 2.42238 420.109 2.56412 420.251C2.68405 420.382 2.77127 420.545 2.9021 420.654C3.42542 421.09 3.98145 421.494 4.50477 421.941C4.6574 422.072 4.76643 422.279 4.87545 422.453C5.12621 422.868 5.36607 423.282 5.60593 423.696C5.69315 423.838 5.80217 423.958 5.87849 424.099C6.21647 424.786 6.61986 425.419 7.26311 425.844C7.32853 425.888 7.38304 425.975 7.40484 426.062C7.55748 426.52 7.69921 426.978 7.85184 427.436C7.89545 427.566 8.00448 427.676 8.11351 427.839C8.84398 427.152 9.55264 426.498 10.1959 425.909C10.0869 425.495 9.98874 425.157 9.90152 424.808C9.89062 424.775 9.89062 424.721 9.87972 424.71C9.41091 424.568 9.4 424.067 9.16015 423.751C8.64773 423.086 8.17892 422.388 7.74282 421.603C7.86275 421.625 7.99358 421.636 8.1026 421.679C8.27704 421.755 8.42968 421.897 8.60412 421.963C9.31279 422.246 9.7925 422.791 10.2504 423.358C10.7301 423.958 11.1771 424.601 11.635 425.222C11.9403 425.637 11.8531 426.106 11.417 426.378C11.1117 426.574 10.8173 426.76 10.6647 427.119C10.5993 427.261 10.4139 427.392 10.2504 427.447C9.42181 427.73 8.83307 428.264 8.41878 429.017C8.38607 429.082 8.33155 429.136 8.32065 429.213C8.20072 429.845 7.93907 429.823 7.42665 429.736Z" fill="url(#paint13_linear_510_594)"/>
<path d="M3.14212 425.31C3.56732 425.353 3.36017 424.296 4.11245 424.699C4.11245 424.786 4.11245 424.874 4.11245 424.961C4.11245 425.462 3.95982 426.04 4.15606 426.444C4.71209 427.61 4.42862 428.766 4.3305 429.932C4.24328 430.924 3.9053 431.851 3.4692 432.843C3.4692 432.233 3.41469 431.72 3.4801 431.219C3.56732 430.576 3.31657 429.998 3.22935 429.387C3.20754 429.202 3.15303 429.017 3.09851 428.831C3.0222 428.526 2.90227 428.221 2.85866 427.905C2.80414 427.468 2.74963 427.01 2.79324 426.574C2.82595 426.182 3.00039 425.789 3.14212 425.31Z" fill="url(#paint14_linear_510_594)"/>
<path d="M11.4554 307.143C10.9429 307.045 10.4741 306.958 10.0162 306.86C9.78727 306.806 9.56922 306.718 9.34026 306.664C8.81694 306.522 8.31542 306.348 7.7594 306.544C7.55225 306.62 7.27969 306.511 7.06164 306.566C6.85449 306.62 6.63644 306.751 6.49471 306.915C6.4511 306.969 6.62553 307.263 6.74546 307.394C7.356 307.994 7.55225 308.79 7.7485 309.575C7.7812 309.706 7.72669 309.945 7.62857 310.022C7.3124 310.251 7.27969 310.545 7.22518 310.894C7.15976 311.254 6.95261 311.592 6.78908 311.93C6.61463 312.3 6.41839 312.671 6.22214 313.031C5.97138 313.478 5.70972 313.925 5.42626 314.361C5.28453 314.579 5.26272 314.557 4.78301 314.47C4.94655 314.11 5.02287 313.707 5.26272 313.456C5.6225 313.074 5.76424 312.627 5.74243 312.191C5.72063 311.439 6.0477 310.774 6.10221 310.044C6.11312 309.924 6.12402 309.793 6.09131 309.673C5.92777 309.03 5.76424 308.397 5.56799 307.765C5.42626 307.296 4.65218 306.925 4.17247 307.045C3.74727 307.154 3.56193 307.078 3.4529 306.751C3.34387 306.446 3.50741 306.239 3.84539 306.031C5.07738 305.268 6.40749 305.41 7.7376 305.584C8.25002 305.65 8.78424 305.726 9.26395 305.922C9.96171 306.206 10.6159 306.587 11.2809 306.947C11.3572 306.969 11.4008 307.078 11.4554 307.143Z" fill="url(#paint15_linear_510_594)"/>
<path d="M10.2228 301.845C9.95028 302.248 9.53598 302.303 9.1871 302.466C8.97996 302.564 8.7401 302.63 8.55476 302.772C8.04234 303.153 7.47541 303.186 6.86487 303.12C6.03627 303.033 5.27309 302.739 4.50992 302.444C4.27006 302.357 4.06291 302.248 4.12833 301.954C4.19374 301.67 4.4336 301.638 4.68436 301.638C4.71707 301.638 4.76067 301.638 4.79338 301.649C5.731 301.888 6.65771 301.649 7.59533 301.627C8.00963 301.616 8.42393 301.66 8.82732 301.67C8.99086 301.67 9.1653 301.703 9.30703 301.649C9.65591 301.496 9.91757 301.638 10.2228 301.845Z" fill="url(#paint16_linear_510_594)"/>
<path d="M13.6453 104.361C13.6562 105.269 13.4272 106.189 13.0783 107.087C12.7185 108.039 12.1624 108.828 11.301 109.413C10.5159 109.943 9.76357 110.527 8.80405 110.678C7.38657 110.916 6.00181 110.787 4.7588 110.018C4.26814 109.716 3.8647 109.294 3.43946 108.904C2.19645 107.747 1.35687 106.34 1.36777 104.642C1.37867 102.9 2.0874 101.386 3.51578 100.271C3.8756 99.99 4.23542 99.7196 4.60615 99.46C7.04856 97.7507 10.505 98.3673 12.1951 100.553C12.4022 100.823 12.653 101.061 12.8602 101.331C13.5035 102.229 13.7761 103.214 13.6453 104.361ZM9.71995 99.7737C10.0362 101.299 9.5455 102.705 9.16387 104.112C10.3088 104.728 11.41 105.313 12.5658 105.929C12.6203 105.68 12.7075 105.41 12.7294 105.129C12.773 104.663 12.7839 104.198 12.8057 103.722C12.8166 103.387 12.8384 103.041 12.5331 102.781C12.435 102.705 12.4023 102.532 12.3695 102.392C11.9661 101.05 10.8866 100.379 9.71995 99.7737ZM5.98 104.187C5.84916 103.733 5.71832 103.354 5.60929 102.954C5.55477 102.749 5.50024 102.543 5.48934 102.327C5.46753 101.515 5.46754 100.693 5.45663 99.8494C3.29771 100.672 1.88024 103.344 2.50175 105.367C3.5594 104.75 4.69337 104.35 5.98 104.187ZM8.86947 99.4059C8.31338 99.2652 7.7682 99.2652 7.33206 99.3842C6.78687 99.5357 6.59061 99.7412 6.547 100.282C6.45977 101.548 6.64513 102.792 6.86321 104.058C7.34297 104.058 7.79001 104.058 8.29158 104.058C8.88038 102.565 9.08754 101.029 8.86947 99.4059ZM6.23079 104.988C5.29308 105.204 4.43168 105.507 3.63572 106.005C3.43945 106.135 3.24319 106.275 3.09054 106.448C3.00331 106.557 2.92698 106.762 2.9706 106.881C3.265 107.671 3.65753 108.385 4.47531 108.72C5.53296 108.179 6.39435 107.422 7.09218 106.492C6.80869 105.983 6.53609 105.518 6.23079 104.988ZM12.2387 106.924C11.7698 106.578 11.3337 106.232 10.8757 105.908C10.6359 105.734 10.396 105.583 10.1343 105.453C8.95671 104.837 8.58598 104.999 8.23706 106.286C8.20435 106.416 8.24797 106.611 8.3352 106.708C9.07664 107.509 9.99254 108.082 10.9412 108.59C11.5954 108.201 11.8898 107.574 12.2387 106.924ZM7.60465 107.325C6.95043 108.039 6.31802 108.72 5.67471 109.413C6.71055 110.008 8.91308 109.932 9.74176 109.272C9.04392 108.623 8.33519 107.985 7.60465 107.325ZM7.07036 104.891C7.04856 104.934 7.02675 104.966 7.00495 105.01C7.20121 105.237 7.40839 105.475 7.69188 105.799C7.83363 105.432 7.92085 105.183 8.02989 104.891C7.64826 104.891 7.36476 104.891 7.07036 104.891Z" fill="url(#paint17_linear_510_594)"/>
<path d="M8.63626 458.384C7.02526 457.311 5.34939 456.493 3.51133 455.877C3.29509 457.332 3.79244 458.746 3.34915 460.212C2.9491 460.234 2.50581 460.255 2.0517 460.276C2.0517 458.427 2.0517 456.642 2.0517 454.867C2.0517 453.082 2.0517 451.296 2.0517 449.5C2.54905 449.415 3.0356 449.32 3.43565 449.256C3.77083 449.447 4.04113 449.617 4.33305 449.745C5.60888 450.287 6.8847 450.808 8.16053 451.339C8.90656 451.647 9.6526 451.955 10.4311 452.285C10.5284 452.742 10.3013 453.167 10.1716 453.592C10.1391 453.698 9.9229 453.762 9.78234 453.804C8.56058 454.187 7.33881 454.548 6.12786 454.92C5.96568 454.973 5.80349 455.058 5.53319 455.165C6.74415 455.908 7.94429 456.482 9.16606 457.141C9.51205 456.408 9.8364 455.728 10.1824 454.984C10.5716 455.154 10.9609 455.335 11.4042 455.526C11.0257 456.28 10.6689 456.971 10.3013 457.715C11.0906 458.321 12.0961 458.501 12.9935 459.054C12.7449 459.373 12.507 459.681 12.2691 459.989C11.4258 459.575 10.6041 459.181 9.76072 458.767C9.25256 459.415 8.99306 460.127 8.82007 460.882C8.43084 460.637 8.07404 460.425 7.65237 460.159C7.93348 459.628 8.26865 459.022 8.63626 458.384ZM3.55458 454.049C5.0899 453.815 6.40897 452.975 7.91185 452.689C6.47384 451.998 5.12233 451.19 3.55458 450.733C3.55458 451.86 3.55458 452.933 3.55458 454.049Z" fill="url(#paint18_linear_510_594)"/>
<path d="M3.92672 739C4.08545 739.011 4.23285 739.033 4.38024 739.044C4.67503 739.054 4.78842 739.207 4.86779 739.47C5.25328 740.77 5.96758 741.928 6.65921 743.119C6.67055 743.01 6.69321 742.889 6.69321 742.78C6.70455 741.633 6.70455 740.486 6.73857 739.339C6.74991 738.934 6.64786 738.683 6.25103 738.475C5.50271 738.071 5.18525 737.241 5.38933 736.454C5.52539 735.93 5.86553 735.591 6.36441 735.394C6.90863 735.187 6.90865 735.198 6.7159 734.542C5.10589 734.848 3.5299 735.219 2.24869 736.432C2.02193 736.279 1.79517 736.126 1.57974 735.973C2.12397 735.077 3.77932 734.214 6.02426 733.668C4.1875 733.154 2.57749 732.499 1.63643 730.805C1.8065 730.652 1.98791 730.478 2.16932 730.325C2.56615 730.685 2.92897 731.002 3.28045 731.33C3.92673 731.942 4.7544 732.291 5.57074 732.608C6.05828 732.794 6.64787 732.881 7.18076 732.849C8.35992 732.761 9.48238 732.422 10.4801 731.789C10.6615 731.668 10.8316 731.516 10.979 731.352C11.1604 731.166 11.3078 730.958 11.4779 730.74C11.852 731.013 12.1241 731.199 12.4303 731.417C12.2942 731.537 12.1809 731.658 12.0448 731.756C11.0811 732.466 10.1287 733.165 8.92682 733.46C8.88147 733.471 8.84745 733.526 8.73407 733.624C10.0493 733.657 11.1604 734.094 12.2035 734.684C12.5437 734.87 12.8725 735.088 13.3033 735.361C13.0199 735.569 12.8044 735.733 12.487 735.962C12.1582 735.788 11.7387 735.58 11.3418 735.361C10.2307 734.75 9.02886 734.433 7.69097 734.367C7.65696 734.684 7.62294 734.946 7.58892 735.219C8.31456 735.635 9.1309 735.962 9.1309 736.902C9.1309 737.754 8.70005 738.399 7.82702 738.672C7.82702 739.382 7.82702 740.07 7.82702 740.759C7.82702 741.447 7.82702 742.135 7.82702 742.824C7.87237 742.835 7.91772 742.846 7.95174 742.857C8.05378 742.736 8.16717 742.627 8.24654 742.496C8.89281 741.447 9.53907 740.398 10.1967 739.36C10.2874 739.218 10.4121 739.044 10.5595 738.978C10.8543 738.858 11.047 738.978 11.1944 739.317C11.7273 740.54 12.2602 741.764 12.8044 742.988C12.9858 743.392 13.2013 743.774 13.394 744.168C13.4961 744.375 13.5754 744.594 13.6775 744.812C12.9972 744.965 12.9518 744.965 12.6911 744.452C12.2375 743.534 11.8294 742.594 11.4099 741.655C11.1718 741.141 10.945 740.639 10.6729 740.049C10.5368 740.234 10.4461 740.344 10.3668 740.464C9.62978 741.655 8.8928 742.835 8.16716 744.037C8.00843 744.299 7.89505 744.594 7.759 744.878C7.65695 745.107 7.62294 745.37 7.24878 745.37C6.8973 745.37 6.77258 745.184 6.63652 744.911C5.9449 743.436 5.24194 741.961 4.53898 740.497C4.48229 740.387 4.41427 740.278 4.28955 740.071C3.30313 741.862 2.192 743.479 1.46636 745.348C1.2396 745.348 1.0015 745.348 0.684032 745.348C0.87678 744.911 1.03552 744.517 1.22827 744.135C1.89721 742.889 2.57749 741.655 3.24644 740.409C3.50721 739.961 3.69996 739.502 3.92672 739ZM6.78392 738.049C6.90864 737.317 6.8973 736.651 6.7499 735.984C6.22835 736.061 5.99026 736.29 5.92223 736.771C5.83153 737.295 6.0923 737.721 6.78392 738.049ZM7.5549 735.984C7.65695 736.651 7.43019 737.317 7.64561 737.995C8.16717 737.787 8.46196 737.219 8.35992 736.683C8.28055 736.203 8.06512 735.995 7.5549 735.984Z" fill="url(#paint19_linear_510_594)"/>
<path d="M8.26213 854.788C8.93113 855.723 9.55552 856.692 10.2803 857.583C10.6817 858.084 10.7709 858.552 10.6148 859.131C10.5702 859.298 10.5256 859.476 10.4698 859.732C9.71163 858.763 8.99803 857.85 8.29558 856.937C8.25098 856.948 8.21753 856.959 8.17293 856.97C7.98338 858.785 7.91648 860.6 7.90533 862.471C10.0684 862.716 12.1981 862.627 14.3612 862.594C14.3612 862.928 14.3612 863.228 14.3612 863.54C13.7145 863.54 13.1012 863.573 12.4991 863.529C12.0643 863.507 11.7632 863.64 11.5179 863.997C11.2169 864.42 10.8712 864.809 10.5256 865.188C9.71163 866.057 8.87538 866.892 8.08373 867.771C7.93878 867.927 7.87188 868.206 7.87188 868.428C7.84958 869.241 7.86073 870.054 7.86073 870.922C7.53738 871.011 7.20288 871.089 6.80148 871.201C6.93528 870.321 6.42238 869.865 5.89833 869.364C5.41889 868.907 4.99519 868.395 4.59379 867.871C4.10319 867.248 4.08089 867.059 4.11434 866.09C4.44884 866.012 4.59379 866.279 4.78334 866.457C5.37429 867.025 5.94294 867.593 6.53388 868.161C6.60078 868.228 6.67883 868.272 6.75688 868.339C6.92413 867.883 6.90183 864.887 6.73458 863.618C4.52689 863.618 2.30804 863.618 1.92256e-08 863.618C0.0445999 863.128 0.0780488 862.738 0.122649 862.26C0.702447 862.304 1.25995 862.326 1.79515 862.393C2.17425 862.449 2.44184 862.36 2.75404 862.126C4.17009 861.102 5.27394 859.788 6.42238 858.496C6.82378 858.051 6.94643 857.605 6.91298 857.048C6.87953 856.369 6.90183 855.679 6.90183 854.977C7.34783 854.922 7.81613 854.855 8.26213 854.788ZM6.84608 859.765C6.80148 859.743 6.74573 859.732 6.70113 859.71C5.82029 860.612 4.92829 861.513 4.02514 862.438C4.97289 862.438 5.84259 862.438 6.74573 862.438C6.77918 861.513 6.81263 860.645 6.84608 859.765ZM7.91648 866.346C8.83078 865.388 9.64473 864.531 10.4921 863.64C9.60013 863.64 8.77503 863.64 7.91648 863.64C7.91648 864.509 7.91648 865.355 7.91648 866.346Z" fill="url(#paint20_linear_510_594)"/>
<path d="M6.96091 167.258C7.00574 166.872 7.06176 166.518 7.08417 166.154C7.10659 165.79 7.08417 165.425 7.08417 165.006C6.92729 165.039 6.80403 165.061 6.70317 165.105C5.90756 165.414 5.11195 165.745 4.31633 166.044C3.64398 166.297 2.93801 166.397 2.22083 166.32C1.34678 166.22 0.685634 165.768 0.248606 165.017C-0.255657 164.145 0.0244864 163.052 0.93216 162.444C1.80622 161.859 2.81475 161.76 3.83448 161.837C4.8318 161.914 5.76189 162.246 6.62474 162.764C6.7368 162.831 6.84885 162.897 6.96091 162.963C6.99453 162.974 7.02815 162.963 7.06177 162.963C7.06177 162.334 7.06177 161.716 7.06177 161.097C7.06177 160.843 6.88247 160.755 6.66956 160.722C6.26615 160.656 5.86274 160.589 5.4033 160.501C5.4145 160.247 5.42571 160.004 5.44812 159.739C5.94118 159.695 6.38941 159.651 6.91609 159.607C6.83765 159.044 6.77041 158.558 6.68077 157.973C7.22985 158.072 7.7117 158.15 8.24959 158.249C8.21597 158.724 8.17115 159.176 8.12632 159.695C8.64179 159.695 9.10123 159.695 9.60549 159.695C9.60549 160.049 9.60549 160.325 9.60549 160.623C9.10123 160.766 8.54093 160.545 8.1039 161.009C8.1039 161.572 8.1039 162.19 8.1039 162.919C8.2944 162.798 8.44009 162.72 8.57456 162.621C9.47103 162.025 10.4459 161.638 11.5329 161.517C12.4518 161.418 13.3258 161.506 14.1102 162.025C15.13 162.687 15.4325 164.089 14.424 164.995C13.3482 165.966 12.0484 166.253 10.6252 166.055C9.75116 165.933 8.92193 165.679 8.14873 165.138C8.14873 165.911 8.14873 166.607 8.14873 167.357C8.46249 167.413 8.75385 167.479 9.0452 167.501C9.75117 167.556 9.81841 167.655 9.57188 168.362C9.31415 168.34 9.05641 168.307 8.79867 168.307C8.26079 168.307 8.17115 168.417 8.23838 168.925C8.26079 169.102 8.2832 169.278 8.32802 169.565C7.94702 169.577 7.59964 169.599 7.25226 169.599C6.97212 169.588 6.88247 169.378 6.87126 169.135C6.86005 168.881 6.87126 168.627 6.87126 168.318C6.63594 168.263 6.41183 168.196 6.1765 168.152C5.94118 168.108 5.70586 168.086 5.43692 168.053C5.45933 167.777 5.48174 167.523 5.50415 167.258C5.9748 166.916 6.43424 167.424 6.96091 167.258ZM8.4737 164.034C9.76237 164.984 11.051 165.37 12.519 164.995C12.9672 164.873 13.3482 164.652 13.5948 164.255C13.9534 163.67 13.8637 163.25 13.2474 162.93C12.4854 162.544 11.6562 162.422 10.8718 162.764C10.0649 163.107 9.32535 163.57 8.4737 164.034ZM6.43424 163.913C5.62742 163.372 4.85422 162.985 3.98016 162.82C3.16213 162.676 2.34411 162.742 1.61573 163.217C1.25714 163.449 1.07784 163.769 1.14507 164.2C1.21231 164.652 1.50367 164.928 1.9519 164.995C2.36652 165.05 2.80354 165.083 3.22936 165.05C4.37236 164.962 5.36969 164.476 6.43424 163.913Z" fill="url(#paint21_linear_510_594)"/>
<path d="M2.93329 340.206C2.69589 340.356 2.49241 340.473 2.30024 340.612C1.61066 341.114 1.39588 341.786 1.58806 342.555C1.78023 343.302 2.37937 343.719 3.13677 343.879C4.4707 344.157 4.87766 343.548 5.36376 342.63C5.44289 342.491 5.40897 342.277 5.36376 342.107C4.9681 340.601 4.4707 339.128 3.60026 337.793C3.14808 337.11 2.87677 336.352 2.6959 335.562C2.58285 335.06 2.59415 334.569 2.79763 334.099C3.01242 333.608 3.24982 333.127 3.50982 332.658C4.05244 331.707 4.99071 331.248 6.03072 330.992C6.42638 330.896 6.87856 330.971 7.30813 331.013C7.71509 331.067 8.11075 331.205 8.51771 331.27C9.2412 331.376 9.84034 331.675 10.3038 332.209C10.5299 332.465 10.756 332.732 10.9821 332.999C11.7169 333.864 11.8865 334.846 11.5247 335.871C11.2873 336.555 10.9369 337.217 10.5864 337.857C10.2812 338.423 9.88556 338.957 9.56903 339.512C8.89076 340.708 8.63076 341.946 9.28642 343.238C9.68208 344.018 10.3151 344.349 11.1517 344.21C11.9882 344.071 12.4969 343.516 12.576 342.651C12.5986 342.427 12.5873 342.192 12.5647 341.957C12.5082 341.434 12.2821 341.007 11.7282 340.783C11.6151 340.74 11.5134 340.655 11.3099 340.537C11.5021 340.281 11.6151 339.929 11.8525 339.832C12.1804 339.694 12.463 339.993 12.7117 340.217C13.6387 341.028 13.8421 342.032 13.5595 343.142C13.2769 344.253 12.1125 345.214 11.0047 345.299C10.0551 345.363 9.10555 345 8.52902 344.157C7.82814 343.132 7.749 341.979 7.94118 340.815C8.07683 339.993 8.49511 339.277 8.91337 338.551C9.35425 337.782 9.80643 337.024 10.1908 336.234C10.5977 335.401 10.7447 334.505 10.2812 333.661C9.76121 332.711 8.84554 332.134 7.81683 331.75C7.7264 331.718 7.62466 331.707 7.53422 331.707C6.67508 331.782 5.80463 331.803 5.06984 332.316C4.38027 332.796 4.05244 333.49 3.82635 334.238C3.54373 335.231 3.67938 336.17 4.17678 337.078C4.7194 338.071 5.23941 339.085 5.7255 340.099C5.9742 340.612 6.24551 341.146 6.32464 341.69C6.4716 342.619 6.24551 343.495 5.4655 344.157C5.28463 344.317 5.09245 344.456 4.88897 344.594C4.79853 344.658 4.7081 344.733 4.59505 344.755C3.79243 344.904 2.98981 345.118 2.22111 344.637C1.63327 344.274 1.05674 343.9 0.79674 343.238C0.423692 342.277 1.02283 340.494 1.91588 339.907C2.28893 339.694 2.62807 339.779 2.93329 340.206Z" fill="url(#paint22_linear_510_594)"/>
<path d="M8.32524 392.15C8.32524 392.625 8.32524 393.067 8.32524 393.521C8.67801 393.742 9.05284 393.974 9.44971 394.217C9.16308 394.715 8.68904 394.593 8.18192 394.638C8.14885 395.213 8.1268 395.788 8.09373 396.407C8.60084 396.551 9.07489 396.484 9.53791 396.462C9.6261 396.462 9.71429 396.296 9.78044 396.197C9.92376 395.965 10.045 395.721 10.2214 395.401C10.3978 395.81 10.5411 396.13 10.6844 396.451C11.2577 396.451 11.7979 396.451 12.3711 396.451C12.4042 396.053 12.3711 395.677 12.4814 395.345C12.5916 395.036 12.8562 394.77 13.0767 394.472C13.5728 394.925 13.8374 395.378 13.5728 396.053C13.4625 396.34 13.5287 396.705 13.5397 397.026C13.5507 397.358 13.7051 397.712 13.3854 397.999C13.3192 398.054 13.3192 398.22 13.3413 398.32C13.5066 398.994 13.1539 399.403 12.6468 399.757C12.1066 399.315 12.0404 398.729 12.2168 398.054C11.6766 397.955 11.2026 397.877 10.7285 397.789C10.5962 398.132 10.475 398.441 10.3647 398.74C10.3206 398.751 10.2765 398.751 10.2324 398.762C10.056 398.464 9.87966 398.154 9.64815 397.756C9.22923 397.756 8.71109 397.756 8.14885 397.756C8.14885 398.187 8.14885 398.629 8.14885 399.094C8.5347 399.315 8.92055 399.536 9.31742 399.757C9.31742 399.801 9.31742 399.846 9.31742 399.89C8.95362 400.023 8.58982 400.155 8.14885 400.31C8.00553 400.852 8.18192 401.482 8.25909 402.146C8.96464 402.289 9.61508 402.544 10.2324 402.997C9.89068 403.307 9.53791 403.428 9.11898 403.428C8.27011 403.417 7.43227 403.462 6.5834 403.406C6.23062 403.384 5.8999 403.13 5.492 402.953C5.94399 402.4 6.41804 402.101 7.07949 402.035C7.07949 401.405 7.07949 400.786 7.07949 400.144C6.79286 400.045 6.47316 399.945 6.15345 399.835C6.14243 399.79 6.13141 399.746 6.12038 399.691C6.42906 399.492 6.73774 399.282 7.09052 399.05C7.09052 398.651 7.09052 398.187 7.09052 397.667C6.41804 397.667 5.78965 397.667 5.15025 397.667C4.99591 397.944 4.84157 398.231 4.62108 398.64C4.41162 398.253 4.24626 397.966 4.04782 397.612C3.5848 397.634 3.06666 397.656 2.46032 397.678C2.61466 398.397 2.46032 398.95 1.84296 399.326C1.53428 399.05 1.3579 398.74 1.39097 398.287C1.42404 397.889 1.3579 397.479 1.36892 397.081C1.40199 396.053 1.49019 395.544 2.00833 394.571C2.47135 394.969 2.70286 395.434 2.48237 396.064C3.07768 396.318 3.65094 396.075 4.21318 396.175C4.32343 395.832 4.42264 395.522 4.54391 395.146C4.88566 395.478 5.06205 395.788 5.06205 396.252C5.71248 396.307 6.32984 396.352 7.00232 396.407C7.00232 395.821 7.00232 395.301 7.00232 394.815C6.5834 394.627 6.1755 394.439 5.72351 394.24C6.03219 393.753 6.44009 393.576 7.01335 393.543C6.98028 393.09 6.9472 392.658 6.92515 392.205C6.32984 392.194 5.8117 392.105 5.39278 391.729C6.36292 390.944 8.68904 390.922 9.72532 391.674C9.52688 392.105 9.52688 392.105 8.32524 392.15Z" fill="url(#paint23_linear_510_594)"/>
<path d="M7.74725 228.313C7.1538 228.346 6.68589 228.378 6.17232 228.411C6.13809 227.718 6.10385 227.068 6.06961 226.365C4.56316 226.17 3.10236 226.462 1.64156 226.386C1.53885 225.693 1.36766 225.044 1.36766 224.383C1.36766 223.615 1.51603 222.846 1.60733 222.077C1.65298 221.72 1.89264 221.666 2.2236 221.698C3.34203 221.785 4.46045 221.861 5.57887 221.937C5.7843 221.947 5.97831 221.915 6.21797 221.904C6.30927 220.886 6.13809 219.923 6.11526 218.949C6.09244 218.007 6.27504 217.065 6.36634 216.101C6.80001 216.101 7.22227 216.101 7.67877 216.101C7.62171 216.967 7.56464 217.779 7.49617 218.667C8.12386 218.71 8.69448 218.786 9.2537 218.775C10.4064 218.754 11.5704 218.689 12.7231 218.645C12.86 218.645 12.997 218.635 13.1225 218.656C13.6019 218.754 13.8187 219.089 13.579 219.49C13.328 219.923 13.3051 220.367 13.3051 220.843C13.3165 221.504 13.2595 222.175 13.2024 222.835C13.1682 223.268 12.9399 223.452 12.4834 223.409C12.1867 223.377 11.89 223.257 11.5933 223.236C10.2694 223.106 8.94556 222.998 7.55323 222.879C7.54182 223.214 7.50758 223.452 7.519 223.691C7.55323 224.189 7.67877 224.697 7.63312 225.195C7.50758 226.224 7.41628 227.22 7.74725 228.313ZM7.48476 219.75C7.519 220.508 7.56465 221.233 7.59889 221.991C9.01403 221.98 10.3607 222.067 11.7644 221.98C11.696 221.298 11.6389 220.681 11.5704 220.053C10.2238 219.706 8.89991 219.674 7.48476 219.75ZM6.09243 222.846C4.8713 222.879 3.69581 222.922 2.45185 222.954C2.45185 223.626 2.45185 224.232 2.45185 224.816C3.6844 224.881 4.84847 224.946 6.09243 225.011C6.09243 224.286 6.09243 223.615 6.09243 222.846Z" fill="url(#paint24_linear_510_594)"/>
<path d="M3.37236 676.113C3.41605 675.708 3.45973 675.314 3.50341 674.932C3.92931 674.953 4.32245 674.986 4.69375 675.008C4.72651 675.052 4.7702 675.085 4.75927 675.118C4.71559 675.851 5.13057 676.233 5.74212 676.551C6.26631 676.824 6.62669 677.295 6.8997 677.82C7.39113 678.782 6.94339 679.57 6.14619 680.029C5.72028 680.27 5.28346 680.478 4.79204 680.741C4.79204 681.911 4.79204 683.114 4.79204 684.394C6.1025 683.016 7.10719 681.441 8.29753 679.92C8.52686 680.161 8.72344 680.336 8.88724 680.544C10.0557 682.01 11.2133 683.475 12.3818 684.941C12.5129 685.116 12.6658 685.27 12.7859 685.456C12.8623 685.576 12.8951 685.74 12.9934 685.992C12.4473 685.992 11.9996 686.003 11.5519 685.981C11.4317 685.97 11.2788 685.871 11.1915 685.762C10.8529 685.335 10.5253 684.898 10.1431 684.394C9.82641 684.777 9.46604 685.138 9.20394 685.554C8.87633 686.09 8.49411 686.385 7.83887 686.232C7.6423 686.189 7.42389 686.221 7.08535 686.221C7.53309 685.652 7.91531 685.193 8.26477 684.712C8.61423 684.23 8.93093 683.716 9.31315 683.147C8.99645 682.786 8.65791 682.403 8.22109 681.911C8.13373 682.064 8.0682 682.174 8.00268 682.272C7.13996 683.465 6.26631 684.657 5.42543 685.86C4.96676 686.517 4.65007 686.67 3.77643 686.484C3.49249 684.591 3.6563 682.655 3.52525 680.762C3.05567 680.576 2.62977 680.423 2.21479 680.237C1.62508 679.964 1.3193 679.515 1.3739 678.848C1.39574 678.596 1.39574 678.334 1.41758 678.082C1.47218 677.502 1.6906 677.043 2.25847 676.78C2.65161 676.616 2.99014 676.354 3.37236 676.113ZM4.81388 678.531C4.81388 678.771 4.79203 679.001 4.8248 679.242C4.84664 679.384 4.92308 679.603 5.02136 679.636C5.18517 679.69 5.44727 679.69 5.56739 679.592C5.75304 679.439 5.89501 679.209 5.98238 678.979C6.17895 678.421 5.91685 677.656 5.45819 677.327C5.21793 677.152 4.86848 677.273 4.83572 677.568C4.79204 677.874 4.81388 678.203 4.81388 678.531ZM3.30684 677.382C2.99015 677.349 2.69529 677.415 2.50964 677.699C2.02913 678.41 2.23663 679.012 2.76081 679.559C3.00107 679.811 3.41604 679.712 3.43788 679.395C3.47065 678.76 3.41605 678.115 3.39421 677.47C3.38329 677.448 3.3396 677.415 3.30684 677.382Z" fill="url(#paint25_linear_510_594)"/>
<path d="M3.24695 561.443C3.3246 563.495 3.41333 565.548 3.49098 567.601C4.54479 567.994 5.55423 568.398 6.57475 568.747C6.82989 568.834 7.17376 568.823 7.42889 568.714C8.46051 568.31 9.46994 567.862 10.4794 567.426C10.5459 567.393 10.6014 567.349 10.6347 567.338C10.6347 565.406 10.6347 563.517 10.6347 561.519C10.8343 561.748 10.9786 561.912 11.1228 562.087C11.1449 562.109 11.156 562.152 11.1671 562.185C12.0878 563.397 12.3319 564.773 12.2431 566.247C12.2098 566.771 12.2875 567.295 12.3097 567.797C11.4112 568.135 10.5348 568.463 9.66962 568.812C9.12608 569.031 8.59362 569.304 8.03898 569.511C7.7062 569.642 7.58419 569.85 7.58419 570.177C7.58419 570.668 7.58419 571.16 7.58419 571.629C8.33849 571.848 9.5254 571.673 10.0911 571.28C10.4572 571.029 10.8676 570.887 11.2891 571.105C11.755 571.345 11.9436 571.749 11.8992 572.284C11.8549 572.797 11.6996 573.212 11.1893 573.409C10.6458 573.616 10.2021 573.453 9.78055 573.07C9.5476 572.874 9.20372 572.776 8.90422 572.688C8.4827 572.568 8.05008 572.514 7.5731 572.623C7.65075 573.911 7.91697 575.167 7.83932 576.455C7.43999 576.455 7.07392 576.455 6.64131 576.455C6.76333 575.156 6.63021 573.889 6.48601 572.568C6.10886 572.568 5.77608 572.557 5.4544 572.568C5.05506 572.579 4.74446 572.699 4.46714 573.038C3.85705 573.78 2.72559 573.529 2.43718 572.623C2.28188 572.131 2.44827 571.673 2.74778 571.291C3.04728 570.92 3.50208 570.93 3.9236 570.996C4.05671 571.018 4.20091 571.116 4.26747 571.225C4.48932 571.575 4.81101 571.706 5.19926 571.717C5.57641 571.727 5.96466 571.717 6.40836 571.717C6.34181 571.072 6.28635 570.494 6.23088 569.926C6.2087 569.675 6.05339 569.555 5.82045 569.478C5.18816 569.293 4.54479 569.107 3.91251 568.889C3.3135 568.67 2.7256 568.408 2.1155 568.157C2.40391 567.306 2.22642 566.531 2.1155 565.766C1.94911 564.631 2.1044 563.561 2.62576 562.535C2.81433 562.163 2.99182 561.781 3.1693 561.41C3.20258 561.443 3.22476 561.443 3.24695 561.443ZM11.5332 572.284C11.5332 571.88 11.1671 571.542 10.7456 571.553C10.3241 571.564 10.0357 571.826 10.0357 572.208C10.0357 572.677 10.3574 572.983 10.8344 572.972C11.2115 572.961 11.5332 572.656 11.5332 572.284ZM4.22311 572.284C4.22311 571.88 3.84595 571.531 3.43552 571.531C3.08055 571.531 2.7256 571.848 2.7256 572.164C2.7256 572.525 3.24694 572.983 3.64628 572.961C3.97906 572.95 4.2342 572.645 4.22311 572.284Z" fill="url(#paint26_linear_510_594)"/>
<path d="M12.484 39.92C12.1939 39.1303 12.5063 38.397 12.3501 37.6636C11.837 38.4646 11.1901 39.119 10.4985 39.841C10.822 40.1231 11.1343 40.3713 11.4243 40.642C11.7032 40.8902 12.1493 40.9579 12.2497 41.4205C11.9374 41.6574 11.6474 41.8717 11.3239 42.1199C10.8443 41.7138 10.3535 41.2964 9.80695 40.8338C9.66194 41.0369 9.5281 41.2061 9.4054 41.3753C8.52422 42.6276 7.65419 43.8912 6.76186 45.1322C6.52762 45.448 6.49415 45.7639 6.54993 46.1362C6.65031 46.8583 6.7507 47.5916 6.73954 48.3136C6.72839 49.4643 5.73567 50.412 4.4864 50.5812C3.03635 50.7617 1.53054 49.9382 0.9059 48.6069C0.281265 47.2982 1.03975 45.3916 2.37825 44.8727C2.55672 44.805 2.74633 44.7711 2.90249 44.6922C3.60521 44.3086 4.28562 44.3086 4.95487 44.7486C5.1668 44.884 5.33412 44.8727 5.5349 44.6809C6.90686 43.3722 7.84381 41.7138 9.05962 40.2246C8.4796 39.5703 7.75457 39.198 7.08532 38.7354C7.35302 38.4082 7.58727 38.1036 7.88843 37.7313C8.42383 38.1826 9.00385 38.6677 9.61733 39.1754C10.0077 38.4646 10.7439 38.0472 10.9112 37.1785C10.4204 37.3703 9.95196 37.5508 9.49464 37.7313C9.46118 37.6975 9.42771 37.6636 9.4054 37.6298C9.56156 37.0996 9.5281 36.4791 10.242 36.2309C10.7662 36.0504 11.2458 35.7909 11.8036 35.6893C12.3055 35.5991 12.7628 35.3058 13.2424 35.1027C13.354 35.0576 13.4655 34.9899 13.6775 34.8771C13.6552 35.2155 13.644 35.4637 13.6105 35.7119C13.4767 36.7385 13.4321 37.7652 13.4544 38.7918C13.4544 38.9836 13.3428 39.2205 13.209 39.3672C13.0305 39.5477 12.774 39.6944 12.484 39.92ZM5.93644 47.6593C5.85837 47.2531 5.82491 46.8357 5.70221 46.4521C5.49028 45.7414 4.97717 45.3578 4.241 45.4142C3.80598 45.448 3.35983 45.5721 2.96943 45.7526C2.2221 46.0798 1.93208 46.7342 1.93208 47.5352C1.93208 48.291 2.30017 48.8326 2.99173 49.092C3.38213 49.2387 3.80599 49.3515 4.22985 49.3741C5.20026 49.4192 5.91414 48.6521 5.93644 47.6593Z" fill="url(#paint27_linear_510_594)"/>
<path d="M9.19095 793.706C9.1579 794.25 9.12485 794.606 9.10282 794.995C7.79186 794.995 6.51396 794.995 5.23605 794.995C5.22503 795.05 5.21402 795.106 5.203 795.15C6.53599 795.75 7.86897 796.351 9.25704 796.973C8.84944 797.351 8.39777 797.428 7.97914 797.562C7.90203 797.584 7.75881 797.462 7.65966 797.384C6.72327 796.751 5.67671 796.384 4.57507 795.973C4.40982 797.062 4.46491 798.062 4.60812 799.118C4.88353 799.062 5.12589 799.018 5.36825 798.973C6.30465 798.795 7.18596 798.906 8.03422 799.362C9.11383 799.94 9.80787 800.784 9.90701 802.051C10.4799 802.14 11.0527 802.229 11.6256 802.318C11.0968 802.729 10.557 803.051 9.85193 802.974C9.6316 803.918 9.03672 804.574 8.32065 805.107C7.75881 805.53 7.09783 805.83 6.48091 806.174C6.39278 806.23 6.26058 806.241 6.16143 806.23C5.39028 806.152 4.63015 806.085 3.87002 805.974C3.46241 805.907 3.06582 805.741 2.73533 805.385C3.01074 805.029 3.27513 804.696 3.59461 804.285C3.74884 804.474 3.87002 804.596 3.95815 804.741C4.14543 805.041 4.42084 805.207 4.75133 805.307C6.49193 805.852 8.12235 804.852 8.50793 802.985C7.18596 802.696 5.78688 803.151 4.49796 802.54C5.79789 802.073 7.16393 802.329 8.49691 802.185C8.37573 801.14 7.59357 800.484 6.31567 800.118C5.15894 799.795 4.28864 800.329 3.33021 800.973C3.29716 800.684 3.26412 800.495 3.26412 800.307C3.29717 798.729 3.3192 797.162 3.37428 795.584C3.3853 795.117 3.41835 794.65 3.50648 794.206C3.55054 793.972 3.70477 793.706 3.88103 793.572C4.90556 792.783 5.9411 792.028 6.99868 791.283C7.14189 791.183 7.37324 791.172 7.5495 791.205C7.83593 791.25 8.10032 791.372 8.46387 791.483C7.31816 792.283 6.24956 793.028 5.16996 793.772C6.50294 794.006 7.80288 794.072 9.19095 793.706Z" fill="url(#paint28_linear_510_594)"/>
<path d="M3.98521 271.494C3.98521 271.783 4.00762 271.983 3.98521 272.172C3.92919 272.627 3.85076 273.082 3.78354 273.537C3.73872 273.804 3.83956 273.992 4.04123 274.214C4.99356 275.302 6.36043 275.846 7.41359 276.801C7.54803 276.923 7.68248 277.034 7.90656 277.212C7.35757 277.511 6.89821 277.778 6.41644 278.011C5.63217 278.4 4.8367 278.755 4.05243 279.143C3.62669 279.354 3.3578 279.632 3.40261 280.176C3.48104 280.986 3.46984 281.797 3.51465 282.607C3.52585 282.829 3.58187 283.04 3.61548 283.251C4.28771 283.373 4.91513 283.495 5.64338 283.629C5.78903 282.74 5.92348 281.919 6.06913 281.042C7.36877 281.12 8.71323 281.197 10.1361 281.275C9.99047 282.13 9.38546 282.94 9.91204 283.928C10.2033 284.073 10.6179 283.962 11.0324 283.895C11.4358 283.828 11.8391 283.784 12.2312 283.728C12.2537 283.773 12.2873 283.806 12.3097 283.851C11.996 284.272 11.6823 284.694 11.3685 285.094C11.3237 285.149 11.2005 285.172 11.1221 285.172C10.2482 285.127 9.37426 285.061 8.44434 285.005C8.3323 284.039 8.43314 283.096 8.55638 282.174C8.48916 282.13 8.45555 282.096 8.42194 282.096C7.26794 281.997 7.21192 282.052 7.09988 283.184C7.04386 283.728 6.97664 284.284 6.92062 284.883C5.38569 284.939 3.90678 284.839 2.4951 284.761C1.9349 284.228 2.04695 283.629 2.09176 283.007C2.17019 281.908 2.18139 280.798 2.2038 279.687C2.23741 278.322 2.05815 278.588 3.30178 278.044C3.91799 277.778 4.5566 277.567 5.18402 277.334C5.37449 277.267 5.55375 277.178 5.85625 277.045C4.69105 276.157 3.54826 275.38 2.28223 274.747C2.25982 273.926 2.23741 273.115 2.215 272.305C2.2038 272.016 2.31584 271.805 2.62954 271.739C3.05529 271.672 3.46984 271.594 3.98521 271.494Z" fill="url(#paint29_linear_510_594)"/>
<path d="M9.34784 505.333C9.57013 505.652 9.47009 505.95 9.44786 506.248C9.35894 507.556 9.29226 508.854 9.20335 510.236C9.84798 510.13 10.3481 510.364 10.9261 510.268C11.5818 510.162 12.2709 510.247 12.9489 510.247C12.96 510.279 12.9823 510.311 12.9934 510.353C12.5932 510.651 12.1931 510.96 11.7819 511.247C11.6819 511.311 11.5374 511.321 11.4151 511.332C10.8594 511.364 10.3148 511.396 9.75907 511.417C9.29226 511.438 9.25892 511.47 9.20335 511.96C9.14777 512.459 9.23669 512.672 9.63681 512.747C9.95913 512.8 10.3037 512.789 10.626 512.789C11.4818 512.779 12.082 513.257 12.6933 513.778C11.5152 514.023 10.337 513.683 9.10331 513.821C9.05886 514.129 8.99218 514.448 8.96995 514.778C8.94772 515.31 8.95883 515.842 8.9366 516.374C8.9366 516.555 8.89214 516.735 8.86991 516.916C8.82546 516.927 8.79211 516.937 8.74766 516.959C8.40311 516.597 8.03633 516.257 7.74736 515.863C7.63621 515.725 7.69178 515.459 7.7029 515.257C7.73624 514.821 7.80293 514.385 7.8585 513.863C5.65784 513.948 3.54609 514.023 1.43435 514.108C1.41212 514.076 1.38989 514.044 1.36766 514.012C4.26853 511.321 6.48031 508.077 9.34784 505.333ZM4.45749 512.757C4.64643 512.8 4.75757 512.864 4.87983 512.864C5.64672 512.864 6.42474 512.864 7.19164 512.853C7.48061 512.853 7.66955 512.715 7.75847 512.438C7.80293 512.289 7.86962 512.14 7.91407 511.991C8.02522 511.64 7.89185 511.438 7.51396 511.428C6.92489 511.406 6.33582 511.417 5.74676 511.428C5.59116 511.428 5.3911 511.481 5.29107 511.577C4.95764 511.896 4.64643 512.236 4.45749 512.757ZM8.03633 508.598C7.99187 508.588 7.94742 508.566 7.90296 508.556C7.40281 509.088 6.90266 509.63 6.34694 510.236C6.95823 510.236 7.42503 510.236 7.9363 510.236C7.96964 509.662 8.00299 509.13 8.03633 508.598Z" fill="url(#paint30_linear_510_594)"/>
<path d="M6.73267 628.554C6.89849 625.988 6.61107 623.519 6.44524 620.942C5.67141 621.352 5.07445 621.805 4.56594 622.365C4.04636 622.937 3.73683 623.616 3.58206 624.371C3.53784 624.371 3.49362 624.382 3.46046 624.382C3.21726 623.993 2.96299 623.616 2.75295 623.217C2.69768 623.12 2.78612 622.937 2.83034 622.807C3.15093 621.837 3.78105 621.072 4.56594 620.425C5.84829 619.379 5.85934 619.39 7.72759 619.788C7.86025 622.527 7.73865 625.287 8.04818 628.123C9.09839 627.832 9.828 627.196 10.4581 626.452C11.0993 625.708 11.3867 624.813 11.3646 623.735C11.5415 623.875 11.652 623.918 11.6963 624.004C11.8952 624.349 12.0942 624.694 12.26 625.05C12.3153 625.169 12.3264 625.33 12.2822 625.449C12.0389 626.053 11.7957 626.657 11.5083 627.228C11.0551 628.123 10.2481 628.673 9.31948 629.029C9.06522 629.126 8.73358 629.136 8.45721 629.072C7.87131 628.942 7.31857 628.738 6.73267 628.554Z" fill="url(#paint31_linear_510_594)"/>
<defs>
<linearGradient id="paint0_linear_510_594" x1="3.85068" y1="8.5" x2="3.85068" y2="895.208" gradientUnits="userSpaceOnUse">
<stop stop-color="#FF6F66" stop-opacity="0"/>
<stop offset="0.384002" stop-color="#FF6F66"/>
<stop offset="0.579531" stop-color="#FF6F66"/>
<stop offset="1" stop-color="#FF6F66" stop-opacity="0"/>
</linearGradient>
<linearGradient id="paint1_linear_510_594" x1="3.85068" y1="8.5" x2="3.85068" y2="895.208" gradientUnits="userSpaceOnUse">
<stop stop-color="#FF6F66" stop-opacity="0"/>
<stop offset="0.384002" stop-color="#FF6F66"/>
<stop offset="0.579531" stop-color="#FF6F66"/>
<stop offset="1" stop-color="#FF6F66" stop-opacity="0"/>
</linearGradient>
<linearGradient id="paint2_linear_510_594" x1="3.85068" y1="8.5" x2="3.85068" y2="895.208" gradientUnits="userSpaceOnUse">
<stop stop-color="#FF6F66" stop-opacity="0"/>
<stop offset="0.384002" stop-color="#FF6F66"/>
<stop offset="0.579531" stop-color="#FF6F66"/>
<stop offset="1" stop-color="#FF6F66" stop-opacity="0"/>
</linearGradient>
<linearGradient id="paint3_linear_510_594" x1="3.85068" y1="8.5" x2="3.85068" y2="895.208" gradientUnits="userSpaceOnUse">
<stop stop-color="#FF6F66" stop-opacity="0"/>
<stop offset="0.384002" stop-color="#FF6F66"/>
<stop offset="0.579531" stop-color="#FF6F66"/>
<stop offset="1" stop-color="#FF6F66" stop-opacity="0"/>
</linearGradient>
<linearGradient id="paint4_linear_510_594" x1="3.85068" y1="8.5" x2="3.85068" y2="895.208" gradientUnits="userSpaceOnUse">
<stop stop-color="#FF6F66" stop-opacity="0"/>
<stop offset="0.384002" stop-color="#FF6F66"/>
<stop offset="0.579531" stop-color="#FF6F66"/>
<stop offset="1" stop-color="#FF6F66" stop-opacity="0"/>
</linearGradient>
<linearGradient id="paint5_linear_510_594" x1="3.85068" y1="8.5" x2="3.85068" y2="895.208" gradientUnits="userSpaceOnUse">
<stop stop-color="#FF6F66" stop-opacity="0"/>
<stop offset="0.384002" stop-color="#FF6F66"/>
<stop offset="0.579531" stop-color="#FF6F66"/>
<stop offset="1" stop-color="#FF6F66" stop-opacity="0"/>
</linearGradient>
<linearGradient id="paint6_linear_510_594" x1="3.85068" y1="8.5" x2="3.85068" y2="895.208" gradientUnits="userSpaceOnUse">
<stop stop-color="#FF6F66" stop-opacity="0"/>
<stop offset="0.384002" stop-color="#FF6F66"/>
<stop offset="0.579531" stop-color="#FF6F66"/>
<stop offset="1" stop-color="#FF6F66" stop-opacity="0"/>
</linearGradient>
<linearGradient id="paint7_linear_510_594" x1="3.85068" y1="8.5" x2="3.85068" y2="895.208" gradientUnits="userSpaceOnUse">
<stop stop-color="#FF6F66" stop-opacity="0"/>
<stop offset="0.384002" stop-color="#FF6F66"/>
<stop offset="0.579531" stop-color="#FF6F66"/>
<stop offset="1" stop-color="#FF6F66" stop-opacity="0"/>
</linearGradient>
<linearGradient id="paint8_linear_510_594" x1="3.85068" y1="8.5" x2="3.85068" y2="895.208" gradientUnits="userSpaceOnUse">
<stop stop-color="#FF6F66" stop-opacity="0"/>
<stop offset="0.384002" stop-color="#FF6F66"/>
<stop offset="0.579531" stop-color="#FF6F66"/>
<stop offset="1" stop-color="#FF6F66" stop-opacity="0"/>
</linearGradient>
<linearGradient id="paint9_linear_510_594" x1="3.85068" y1="8.5" x2="3.85068" y2="895.208" gradientUnits="userSpaceOnUse">
<stop stop-color="#FF6F66" stop-opacity="0"/>
<stop offset="0.384002" stop-color="#FF6F66"/>
<stop offset="0.579531" stop-color="#FF6F66"/>
<stop offset="1" stop-color="#FF6F66" stop-opacity="0"/>
</linearGradient>
<linearGradient id="paint10_linear_510_594" x1="3.85068" y1="8.5" x2="3.85068" y2="895.208" gradientUnits="userSpaceOnUse">
<stop stop-color="#FF6F66" stop-opacity="0"/>
<stop offset="0.384002" stop-color="#FF6F66"/>
<stop offset="0.579531" stop-color="#FF6F66"/>
<stop offset="1" stop-color="#FF6F66" stop-opacity="0"/>
</linearGradient>
<linearGradient id="paint11_linear_510_594" x1="3.85068" y1="8.5" x2="3.85068" y2="895.208" gradientUnits="userSpaceOnUse">
<stop stop-color="#FF6F66" stop-opacity="0"/>
<stop offset="0.384002" stop-color="#FF6F66"/>
<stop offset="0.579531" stop-color="#FF6F66"/>
<stop offset="1" stop-color="#FF6F66" stop-opacity="0"/>
</linearGradient>
<linearGradient id="paint12_linear_510_594" x1="3.85068" y1="8.5" x2="3.85068" y2="895.208" gradientUnits="userSpaceOnUse">
<stop stop-color="#FF6F66" stop-opacity="0"/>
<stop offset="0.384002" stop-color="#FF6F66"/>
<stop offset="0.579531" stop-color="#FF6F66"/>
<stop offset="1" stop-color="#FF6F66" stop-opacity="0"/>
</linearGradient>
<linearGradient id="paint13_linear_510_594" x1="3.85068" y1="8.5" x2="3.85068" y2="895.208" gradientUnits="userSpaceOnUse">
<stop stop-color="#FF6F66" stop-opacity="0"/>
<stop offset="0.384002" stop-color="#FF6F66"/>
<stop offset="0.579531" stop-color="#FF6F66"/>
<stop offset="1" stop-color="#FF6F66" stop-opacity="0"/>
</linearGradient>
<linearGradient id="paint14_linear_510_594" x1="3.85068" y1="8.5" x2="3.85068" y2="895.208" gradientUnits="userSpaceOnUse">
<stop stop-color="#FF6F66" stop-opacity="0"/>
<stop offset="0.384002" stop-color="#FF6F66"/>
<stop offset="0.579531" stop-color="#FF6F66"/>
<stop offset="1" stop-color="#FF6F66" stop-opacity="0"/>
</linearGradient>
<linearGradient id="paint15_linear_510_594" x1="3.85068" y1="8.5" x2="3.85068" y2="895.208" gradientUnits="userSpaceOnUse">
<stop stop-color="#FF6F66" stop-opacity="0"/>
<stop offset="0.384002" stop-color="#FF6F66"/>
<stop offset="0.579531" stop-color="#FF6F66"/>
<stop offset="1" stop-color="#FF6F66" stop-opacity="0"/>
</linearGradient>
<linearGradient id="paint16_linear_510_594" x1="3.85068" y1="8.5" x2="3.85068" y2="895.208" gradientUnits="userSpaceOnUse">
<stop stop-color="#FF6F66" stop-opacity="0"/>
<stop offset="0.384002" stop-color="#FF6F66"/>
<stop offset="0.579531" stop-color="#FF6F66"/>
<stop offset="1" stop-color="#FF6F66" stop-opacity="0"/>
</linearGradient>
<linearGradient id="paint17_linear_510_594" x1="3.85068" y1="8.5" x2="3.85068" y2="895.208" gradientUnits="userSpaceOnUse">
<stop stop-color="#FF6F66" stop-opacity="0"/>
<stop offset="0.384002" stop-color="#FF6F66"/>
<stop offset="0.579531" stop-color="#FF6F66"/>
<stop offset="1" stop-color="#FF6F66" stop-opacity="0"/>
</linearGradient>
<linearGradient id="paint18_linear_510_594" x1="3.85068" y1="8.5" x2="3.85068" y2="895.208" gradientUnits="userSpaceOnUse">
<stop stop-color="#FF6F66" stop-opacity="0"/>
<stop offset="0.384002" stop-color="#FF6F66"/>
<stop offset="0.579531" stop-color="#FF6F66"/>
<stop offset="1" stop-color="#FF6F66" stop-opacity="0"/>
</linearGradient>
<linearGradient id="paint19_linear_510_594" x1="3.85068" y1="8.5" x2="3.85068" y2="895.208" gradientUnits="userSpaceOnUse">
<stop stop-color="#FF6F66" stop-opacity="0"/>
<stop offset="0.384002" stop-color="#FF6F66"/>
<stop offset="0.579531" stop-color="#FF6F66"/>
<stop offset="1" stop-color="#FF6F66" stop-opacity="0"/>
</linearGradient>
<linearGradient id="paint20_linear_510_594" x1="3.85068" y1="8.5" x2="3.85068" y2="895.208" gradientUnits="userSpaceOnUse">
<stop stop-color="#FF6F66" stop-opacity="0"/>
<stop offset="0.384002" stop-color="#FF6F66"/>
<stop offset="0.579531" stop-color="#FF6F66"/>
<stop offset="1" stop-color="#FF6F66" stop-opacity="0"/>
</linearGradient>
<linearGradient id="paint21_linear_510_594" x1="3.85068" y1="8.5" x2="3.85068" y2="895.208" gradientUnits="userSpaceOnUse">
<stop stop-color="#FF6F66" stop-opacity="0"/>
<stop offset="0.384002" stop-color="#FF6F66"/>
<stop offset="0.579531" stop-color="#FF6F66"/>
<stop offset="1" stop-color="#FF6F66" stop-opacity="0"/>
</linearGradient>
<linearGradient id="paint22_linear_510_594" x1="3.85068" y1="8.5" x2="3.85068" y2="895.208" gradientUnits="userSpaceOnUse">
<stop stop-color="#FF6F66" stop-opacity="0"/>
<stop offset="0.384002" stop-color="#FF6F66"/>
<stop offset="0.579531" stop-color="#FF6F66"/>
<stop offset="1" stop-color="#FF6F66" stop-opacity="0"/>
</linearGradient>
<linearGradient id="paint23_linear_510_594" x1="3.85068" y1="8.5" x2="3.85068" y2="895.208" gradientUnits="userSpaceOnUse">
<stop stop-color="#FF6F66" stop-opacity="0"/>
<stop offset="0.384002" stop-color="#FF6F66"/>
<stop offset="0.579531" stop-color="#FF6F66"/>
<stop offset="1" stop-color="#FF6F66" stop-opacity="0"/>
</linearGradient>
<linearGradient id="paint24_linear_510_594" x1="3.85068" y1="8.5" x2="3.85068" y2="895.208" gradientUnits="userSpaceOnUse">
<stop stop-color="#FF6F66" stop-opacity="0"/>
<stop offset="0.384002" stop-color="#FF6F66"/>
<stop offset="0.579531" stop-color="#FF6F66"/>
<stop offset="1" stop-color="#FF6F66" stop-opacity="0"/>
</linearGradient>
<linearGradient id="paint25_linear_510_594" x1="3.85068" y1="8.5" x2="3.85068" y2="895.208" gradientUnits="userSpaceOnUse">
<stop stop-color="#FF6F66" stop-opacity="0"/>
<stop offset="0.384002" stop-color="#FF6F66"/>
<stop offset="0.579531" stop-color="#FF6F66"/>
<stop offset="1" stop-color="#FF6F66" stop-opacity="0"/>
</linearGradient>
<linearGradient id="paint26_linear_510_594" x1="3.85068" y1="8.5" x2="3.85068" y2="895.208" gradientUnits="userSpaceOnUse">
<stop stop-color="#FF6F66" stop-opacity="0"/>
<stop offset="0.384002" stop-color="#FF6F66"/>
<stop offset="0.579531" stop-color="#FF6F66"/>
<stop offset="1" stop-color="#FF6F66" stop-opacity="0"/>
</linearGradient>
<linearGradient id="paint27_linear_510_594" x1="3.85068" y1="8.5" x2="3.85068" y2="895.208" gradientUnits="userSpaceOnUse">
<stop stop-color="#FF6F66" stop-opacity="0"/>
<stop offset="0.384002" stop-color="#FF6F66"/>
<stop offset="0.579531" stop-color="#FF6F66"/>
<stop offset="1" stop-color="#FF6F66" stop-opacity="0"/>
</linearGradient>
<linearGradient id="paint28_linear_510_594" x1="3.85068" y1="8.5" x2="3.85068" y2="895.208" gradientUnits="userSpaceOnUse">
<stop stop-color="#FF6F66" stop-opacity="0"/>
<stop offset="0.384002" stop-color="#FF6F66"/>
<stop offset="0.579531" stop-color="#FF6F66"/>
<stop offset="1" stop-color="#FF6F66" stop-opacity="0"/>
</linearGradient>
<linearGradient id="paint29_linear_510_594" x1="3.85068" y1="8.5" x2="3.85068" y2="895.208" gradientUnits="userSpaceOnUse">
<stop stop-color="#FF6F66" stop-opacity="0"/>
<stop offset="0.384002" stop-color="#FF6F66"/>
<stop offset="0.579531" stop-color="#FF6F66"/>
<stop offset="1" stop-color="#FF6F66" stop-opacity="0"/>
</linearGradient>
<linearGradient id="paint30_linear_510_594" x1="3.85068" y1="8.5" x2="3.85068" y2="895.208" gradientUnits="userSpaceOnUse">
<stop stop-color="#FF6F66" stop-opacity="0"/>
<stop offset="0.384002" stop-color="#FF6F66"/>
<stop offset="0.579531" stop-color="#FF6F66"/>
<stop offset="1" stop-color="#FF6F66" stop-opacity="0"/>
</linearGradient>
<linearGradient id="paint31_linear_510_594" x1="3.85068" y1="8.5" x2="3.85068" y2="895.208" gradientUnits="userSpaceOnUse">
<stop stop-color="#FF6F66" stop-opacity="0"/>
<stop offset="0.384002" stop-color="#FF6F66"/>
<stop offset="0.579531" stop-color="#FF6F66"/>
<stop offset="1" stop-color="#FF6F66" stop-opacity="0"/>
</linearGradient>
</defs>
</svg>
