<svg width="18" height="852" viewBox="0 0 18 852" fill="none" xmlns="http://www.w3.org/2000/svg">
<path d="M7.89118 764.968C8.01978 764.736 8.1591 764.555 8.22341 764.354C8.43775 763.689 8.69496 763.034 8.60923 762.309C8.58779 762.128 8.64138 761.947 8.66281 761.766C8.70568 761.353 8.75927 760.94 8.80214 760.527C8.88788 759.731 8.99505 758.936 9.05936 758.14C9.12366 757.365 9.14509 756.579 9.18796 755.804C9.20939 755.321 9.22011 754.837 9.23083 754.344C9.23083 754.203 9.20939 754.052 9.18796 753.84C8.83429 753.87 8.49134 753.83 8.21269 753.931C7.46249 754.223 6.73372 754.575 6.00495 754.908C5.90849 754.948 5.77988 755.018 5.75844 755.099C5.61912 755.633 5.10469 755.915 4.84748 756.368C4.64385 756.73 4.55811 757.103 4.75102 757.516C4.82604 757.687 4.8582 757.919 4.78318 758.09C4.57955 758.583 4.64385 758.744 5.19042 758.896C5.25473 758.916 5.31903 758.916 5.45836 758.946C5.43692 759.097 5.45836 759.288 5.37263 759.349C5.27617 759.419 5.06183 759.409 4.93322 759.359C4.52597 759.167 4.27947 758.815 4.20444 758.422C4.08656 757.848 3.9901 757.264 4.00081 756.69C4.02225 756.026 4.32233 755.421 4.74031 754.867C5.00824 754.515 5.2333 754.132 5.49051 753.77C5.61912 753.589 5.7906 753.417 6.06925 753.629C6.05853 753.448 5.99423 753.266 6.05853 753.156C6.13355 753.025 6.32645 752.944 6.47649 752.874C6.93733 752.652 7.38746 752.42 7.85902 752.249C8.16982 752.138 8.52349 752.108 8.85573 752.098C9.68095 752.068 10.5062 752.138 11.3421 752.018C11.803 751.947 12.3067 752.108 12.7782 752.159C13.1641 752.199 13.5499 752.249 14 752.299C13.9893 752.491 13.9893 752.642 13.9786 752.803C13.9571 753.166 13.9143 753.518 13.9035 753.881C13.8928 754.223 13.7535 754.384 13.2391 754.515C12.8104 753.78 11.9959 753.76 11.2349 753.629C10.9241 753.578 10.5919 753.83 10.6455 754.122C10.8063 755.039 10.5383 755.915 10.474 756.801C10.4419 757.284 10.474 757.778 10.4097 758.251C10.2811 759.107 10.2704 759.993 9.78812 760.799C9.54163 761.222 9.55235 761.786 9.44517 762.289C9.29513 763.004 9.25226 763.749 8.6521 764.313C8.55564 764.404 8.53421 764.585 8.48062 764.726C8.38417 764.917 8.277 765.069 7.89118 764.968Z" fill="url(#paint0_linear_510_595)"/>
<path d="M9.90418 92.8455C9.62776 92.6244 9.38452 92.4586 9.19656 92.2652C9.0086 92.0809 8.8317 91.9796 8.53317 92.0625C8.40049 92.0993 8.23464 92.1086 8.10196 92.0809C7.96929 92.0533 7.78133 91.9704 7.74816 91.8783C7.68182 91.7217 7.80344 91.5743 8.02457 91.5558C8.56634 91.4914 9.10811 91.4269 9.66093 91.3716C9.6941 91.3716 9.73833 91.3716 9.7715 91.3716C10.0921 91.4269 10.4459 91.1413 10.7445 91.4545C11.1315 91.869 11.2752 92.3297 11.0651 92.8179C10.855 93.3153 10.5897 93.7944 10.3464 94.2826C10.2912 94.3931 10.2912 94.5221 10.2248 94.6234C10.1364 94.7616 10.0479 94.9643 9.90418 95.0103C9.46192 95.1393 9.20762 95.4433 8.90909 95.7012C8.6769 95.9131 8.46683 96.0697 8.05774 95.9684C7.71499 95.8855 7.32801 95.9592 6.98526 95.9039C6.67568 95.8486 6.37715 95.7012 6.08968 95.5907C5.94595 95.5354 5.81327 95.4341 5.65848 95.3972C4.98403 95.2591 4.66339 94.8722 4.49754 94.3563C4.45332 94.2089 4.36486 94.0707 4.29853 93.9325C3.98894 93.2601 4.02211 92.5876 4.27641 91.9151C4.60811 91.0584 4.91769 90.2017 5.69165 89.4371C5.43735 89.345 5.24939 89.2344 5.05037 89.216C4.53071 89.1884 4.27641 88.9396 4.12162 88.5619C4.09951 88.5067 4.05528 88.4606 4 88.3777C4.30958 88.1566 4.65233 88.129 5.0172 88.1566C5.13882 88.1658 5.28255 88.2395 5.39312 88.2119C6.33292 87.9908 7.25062 88.2395 8.17936 88.2764C9.53931 88.3224 10.8993 88.3501 12.2371 88.0829C12.4693 88.0368 12.7015 88.0276 13 88C12.3587 88.7738 11.4963 89.0225 10.4791 89.0594C10.258 89.0686 10.0258 89.1515 9.81572 89.2344C9.03071 89.5476 8.17936 89.5016 7.35012 89.5845C6.92998 89.6213 6.68673 89.7134 6.49877 90.0819C6.25553 90.5425 6.07862 91.0123 5.87961 91.4821C5.5258 92.3481 5.84644 93.1495 6.17813 93.9233C6.44349 94.5682 7.74816 95.0196 8.66585 94.8906C9.14128 94.8261 9.40663 94.6695 9.63882 94.2365C9.93735 93.7391 9.90418 93.2693 9.90418 92.8455Z" fill="url(#paint1_linear_510_595)"/>
<path d="M5.16315 551.45C5.28385 551.335 5.38261 551.231 5.49234 551.148C5.56915 551.085 5.71181 551.064 5.7557 550.992C5.95321 550.648 6.24948 550.534 6.65549 550.523C6.83106 550.523 6.99566 550.356 7.17123 550.263C7.87351 549.878 8.56481 549.472 9.27807 549.097C9.9584 548.722 10.6497 548.368 11.4617 547.941C11.0228 547.848 10.7156 547.754 10.3973 547.723C9.60727 547.639 8.81719 547.577 8.01616 547.525C7.47847 547.494 6.98469 547.639 6.50188 547.879C6.27144 547.993 5.99711 548.066 5.73376 548.108C5.33873 548.16 4.95466 548.202 4.60352 548.42C4.47184 548.503 4.21946 548.42 4 548.41C4 548.035 4.13167 547.858 4.39503 547.702C4.95466 547.379 5.48137 547.015 6.041 546.682C6.43603 546.442 6.84203 546.213 7.25901 546.015C7.36874 545.963 7.55528 546.057 7.69793 546.099C7.95032 546.182 8.19173 546.296 8.44411 546.359C9.73894 546.692 11.1216 546.661 12.3725 547.192C12.592 547.285 12.8663 547.285 13.1187 547.306C13.6124 547.337 13.6124 547.327 13.9965 547.598C14.0185 547.858 13.9416 547.993 13.6344 548.066C12.9102 548.222 12.2079 548.41 11.4946 548.608C11.0667 548.722 10.7485 548.993 10.4083 549.253C9.81575 549.711 9.13542 550.086 8.48801 550.481C8.21368 550.648 8.10394 550.867 8.01616 551.179C7.71988 552.199 7.91741 553.178 8.09298 554.188C8.23563 554.979 8.67455 555.624 9.02569 556.322C9.16834 556.603 9.44267 556.842 9.69505 557.061C10.0242 557.342 10.3863 557.488 10.8253 557.207C11.0228 557.082 11.2532 557.009 11.4617 556.905C12.175 556.551 12.5042 555.978 12.5481 555.229C12.559 555.114 12.5919 555 12.6358 554.823C12.7565 554.916 12.8772 554.958 12.8992 555.02C13.0748 555.832 12.8224 556.374 12.0872 556.811C11.8348 556.967 11.5934 557.144 11.341 557.311C10.9679 557.55 10.5948 557.8 10.1998 557.977C10.0681 558.039 9.78283 557.966 9.66212 557.862C9.16833 557.446 8.54287 557.3 7.95032 557.092C7.85156 557.061 7.68697 557.04 7.66502 556.977C7.45653 556.467 6.84203 556.134 6.92982 555.489C6.94079 555.416 6.96274 555.333 6.92982 555.291C6.39213 554.594 6.56771 553.719 6.29338 552.959C6.12879 552.501 5.90933 552.116 5.5143 551.814C5.39359 551.71 5.3058 551.595 5.16315 551.45Z" fill="url(#paint2_linear_510_595)"/>
<path d="M10.2617 679.437C10.6033 679.814 10.9118 680.157 11.2093 680.5C11.1873 680.533 11.1763 680.566 11.1542 680.599C11.044 680.577 10.9008 680.599 10.8347 680.533C10.2176 679.902 9.77679 679.172 9.74373 678.264C9.73271 677.876 9.75475 677.5 9.74373 677.113C9.74373 676.991 9.74373 676.847 9.68864 676.736C9.34703 676.094 9.58947 675.497 9.78781 674.888C9.98616 674.279 10.1074 673.659 10.3168 673.05C10.482 672.574 10.7024 672.12 10.9338 671.589C10.4159 670.991 11.2534 670.67 11.3526 670.139C10.5812 669.707 8.21204 669.486 7.40762 669.829C7.52884 670.139 7.63903 670.46 7.78229 670.77C7.96962 671.168 8.15694 671.534 8.02471 672.021C7.95859 672.253 8.06879 672.585 8.21205 672.796C8.63078 673.404 8.61976 674.113 8.74097 674.788C8.9283 675.818 8.84015 676.869 8.82913 677.899C8.81811 678.529 8.50956 679.172 8.30019 679.791C8.22306 680.024 8.04675 680.19 8.04675 680.489C8.05777 680.655 7.81535 680.843 7.66108 680.987C7.60598 681.031 7.4517 680.954 7.20927 680.898C7.46272 680.622 7.63903 680.433 7.87043 680.19C7.93655 679.836 8.06879 679.393 8.10185 678.939C8.15695 678.253 8.23408 677.533 8.12389 676.869C7.88146 675.386 7.58393 673.88 6.7134 672.607C6.25058 671.943 5.6886 671.346 5.12661 670.759C4.8952 670.526 4.54258 670.416 4.25608 670.228C4.14588 670.15 4.02466 670.039 4.00262 669.918C3.98058 669.84 4.1018 669.696 4.20098 669.63C4.31117 669.541 4.45442 669.475 4.59767 669.464C6.21753 669.265 7.82637 668.91 9.47928 669.021C10.4269 669.087 11.3746 669.087 12.3223 669.098C13.0826 669.109 13.843 669.087 14.6033 669.109C14.7355 669.109 14.8678 669.242 15 669.309C14.9229 669.419 14.8678 669.597 14.7686 669.63C13.7218 669.962 13.0716 670.737 12.4655 671.589C12.2011 671.954 11.9146 672.309 11.6281 672.674C11.573 672.751 11.4958 672.807 11.4628 672.895C11.2534 673.371 11.0771 673.869 10.8347 674.334C10.438 675.12 10.3829 675.984 10.3168 676.825C10.2617 677.566 10.3388 678.319 10.3388 679.061C10.3388 679.194 10.2947 679.315 10.2617 679.437Z" fill="url(#paint3_linear_510_595)"/>
<path d="M12.8578 320.125C12.7458 320.564 12.4882 320.553 12.2531 320.564C11.9171 320.576 11.6148 320.622 11.3684 320.934C11.234 321.107 10.9093 321.165 10.6629 321.223C10.2374 321.315 9.81187 321.373 9.37514 321.442C9.24076 323.233 9.12878 324.943 8.99441 326.653C8.98321 326.746 8.86003 326.815 8.69205 327C8.56887 326.63 8.44569 326.341 8.3785 326.041C8.19933 325.163 7.98656 324.285 7.89698 323.395C7.84098 322.817 7.98657 322.216 8.07615 321.639C8.18813 320.957 8.16573 320.888 7.50504 320.784C7.18029 320.737 6.85554 320.772 6.5196 320.772C6.31803 320.772 6.11647 320.749 5.9149 320.749C5.50056 320.761 5.07503 320.761 4.6607 320.807C4.30235 320.853 4.31355 320.888 4 320.472C4.15677 320.391 4.30236 320.275 4.45913 320.229C4.96305 320.113 5.47817 320.137 5.94849 319.825C6.11646 319.709 6.41881 319.813 6.65398 319.825C7.09071 319.825 7.52744 319.825 8.03136 319.825C8.09855 318.9 8.16573 318.068 8.23292 317.155C8.05375 317.144 7.88578 317.098 7.70661 317.109C7.1691 317.155 6.63158 317.19 6.10526 317.283C5.72452 317.34 5.41097 317.294 5.11982 317.04C4.98544 316.924 4.80627 316.855 4.6383 316.774C4.49272 316.693 4.33595 316.601 4.11198 316.462C4.6047 316.173 4.99664 315.954 5.45577 316.081C6.25084 316.312 7.04591 316.116 7.84098 316.15C8.63606 316.185 9.44233 316.139 10.2374 316.104C10.8085 316.081 11.3796 316 11.9507 316C12.6002 316 13.2497 316.058 14 316.092C13.9776 316.289 13.9888 316.474 13.9328 316.635C13.8656 316.843 13.7648 317.04 13.6529 317.236C13.3169 317.814 13.1713 317.826 12.5554 317.687C11.8164 317.525 11.0549 317.433 10.3046 317.329C10.1478 317.306 9.97985 317.352 9.86786 317.375C9.82307 318.138 9.78947 318.854 9.74468 319.524C10.7301 320.125 11.8276 319.905 12.8578 320.125Z" fill="url(#paint4_linear_510_595)"/>
<path d="M8.93231 255.83C8.29181 255.653 7.68503 255.886 7.12319 256.119C6.57259 256.363 6.08941 256.762 5.6287 257.062C5.48263 256.796 5.38149 256.529 5.21294 256.319C4.92079 255.986 4.90955 255.653 5.30284 255.486C5.89838 255.231 6.50517 255.02 7.19061 255.142C7.48277 255.198 7.80863 255.12 8.11202 255.109C8.53902 255.098 8.96602 255.087 9.38178 255.076C9.55033 255.076 9.70764 255.065 9.87619 255.054C9.98856 255.043 10.1234 254.976 10.2021 255.009C10.7077 255.242 11.2246 255.087 11.7415 255.087C12.191 255.087 12.5281 255.331 13 255.553C12.7753 255.719 12.618 255.853 12.4494 255.941C11.955 256.197 11.4381 256.407 10.9662 256.696C10.1234 257.206 9.25817 257.717 8.4716 258.316C8.01089 258.671 7.66255 259.17 7.22432 259.658C7.74121 259.892 8.33676 260.158 8.93231 260.435C9.04467 260.491 9.16828 260.568 9.24693 260.657C9.74135 261.234 10.1571 261.889 10.7302 262.366C11.3707 262.91 11.5392 263.52 11.5729 264.297C11.5954 264.74 11.8426 265.173 11.91 265.617C11.9887 266.039 12.0449 266.449 12.2809 266.838C12.3932 267.026 12.2584 267.37 12.2359 267.648C12.191 268.269 12.1685 268.89 12.1123 269.512C12.1011 269.678 12.0112 269.834 11.9662 270C11.9213 269.989 11.8651 269.978 11.8201 269.967C11.8651 269.667 11.8876 269.368 11.955 269.079C12.0786 268.569 12.0561 268.091 11.8314 267.592C11.5842 267.048 11.5392 266.427 11.3257 265.872C11.0336 265.129 10.7077 264.385 10.2919 263.697C9.94361 263.143 9.44919 262.665 8.99972 262.177C8.88736 262.055 8.69633 261.955 8.52778 261.933C8.10078 261.878 7.78615 261.656 7.43782 261.423C7.01082 261.123 6.5164 260.901 6.03322 260.668C5.92086 260.613 5.74107 260.702 5.59499 260.69C5.42644 260.679 5.17924 260.69 5.11182 260.591C5.03316 260.48 5.08934 260.258 5.10058 260.08C5.11181 260.014 5.15676 259.947 5.21294 259.892C5.9658 259.037 6.74114 258.205 7.60637 257.439C8.11202 256.984 8.56149 256.474 9.03343 255.986C8.99972 255.93 8.96602 255.875 8.93231 255.83Z" fill="url(#paint5_linear_510_595)"/>
<path d="M12.967 502.508C12.8461 502.53 12.6921 502.599 12.6151 502.553C12.2742 502.37 11.9223 502.233 11.6254 501.901C11.2295 501.465 10.6467 501.225 10.1518 500.893C10.0088 500.801 9.85486 500.698 9.74489 500.561C9.38199 500.08 9.05208 499.587 8.70018 499.095C8.20532 499.106 7.99638 499.542 7.68846 499.805C6.85269 500.526 6.02792 501.282 5.20315 502.015C4.97221 502.221 4.75226 502.45 4.51033 502.668C4.37837 502.782 4.22441 502.874 4.04846 503C3.89451 502.519 4.13643 502.233 4.36736 501.981C4.9612 501.317 5.61003 500.698 6.17087 500C6.47879 499.622 6.61075 499.106 6.99565 498.763C7.27057 498.522 7.49052 498.213 7.79843 497.87C6.74272 496.862 5.72 495.877 4.71928 494.926C4.76326 494.709 4.85124 494.468 4.84024 494.228C4.81825 493.69 4.75226 493.14 4.68628 492.602C4.65329 492.304 4.74127 492.167 5.01619 492.052C5.30211 491.938 5.48906 492.018 5.62102 492.235C5.82997 492.59 5.98392 492.968 6.18187 493.323C6.46779 493.839 6.74272 494.377 7.07263 494.869C7.51251 495.533 8.00737 496.163 8.48024 496.805C9.49196 495.911 10.3167 494.961 10.9546 493.85C11.1965 493.426 11.4824 493.071 12.0653 493.255C11.9553 493.839 11.8673 494.423 11.7464 495.007C11.4494 496.358 10.4707 497.194 9.55795 498.133C10.4707 499.748 11.3505 501.397 13 502.405C12.989 502.416 12.978 502.462 12.967 502.508Z" fill="url(#paint6_linear_510_595)"/>
<path d="M9.45283 698.725C9.56064 698.265 9.63612 697.872 9.75472 697.498C9.85175 697.163 10.0997 697.029 10.5633 697C10.6173 699.501 10.628 702.013 11.8464 704.399C11.4582 704.399 11.3073 704.169 11.1671 703.958C11.027 703.738 10.9299 703.498 10.8221 703.258C10.6065 702.741 10.4016 702.223 10.186 701.706C10.1213 701.552 10.0135 701.409 9.86253 701.159C9.48518 701.965 9.1725 702.655 9.03234 703.412C8.97843 703.728 8.93531 704.044 8.84905 704.341C8.79515 704.495 8.65498 704.629 8.53638 704.773C8.22371 705.137 7.90026 705.492 7.5229 705.923C7.79244 705.923 7.97574 705.952 8.13747 705.923C9.28032 705.702 10.4016 705.884 11.5229 706.038C11.9865 706.105 12.4717 706.095 13 706.191C12.8383 706.277 12.6765 706.354 12.5256 706.45C12.0404 706.795 11.4367 706.795 10.876 706.91C10.628 706.958 10.2938 706.833 10.035 706.718C9.18329 706.344 8.30997 706.344 7.41509 706.546C6.7574 706.689 6.11051 706.852 5.45282 706.996C5.35579 707.015 5.2372 706.958 5 706.919C5.28032 706.68 5.48517 706.507 5.67924 706.344C5.65767 706.335 5.64689 706.325 5.62533 706.325C5.78705 706.095 5.91644 705.846 6.09973 705.635C7.02695 704.591 7.80324 703.488 8.07278 702.147C8.15903 701.715 8.35309 701.294 8.48247 700.872C8.62264 700.402 8.79515 699.933 8.8814 699.454C8.95688 699.08 9.1725 698.869 9.45283 698.725Z" fill="url(#paint7_linear_510_595)"/>
<path d="M5.06445 181.408C5.59078 181.525 6.16008 181.274 6.67567 181.588C6.77234 181.651 6.90124 181.705 7.01939 181.714C7.81426 181.749 8.61987 181.803 9.41474 181.803C9.93033 181.803 10.4459 181.731 10.9615 181.705C11.2515 181.687 11.3375 181.543 11.3912 181.337C11.8316 179.515 11.8101 177.676 11.7886 175.827C11.7886 175.657 11.8853 175.486 11.9712 175.217C11.3052 175.262 10.7037 175.298 10.1022 175.334C9.23213 175.388 8.45875 175.711 7.66388 175.962C7.33089 176.07 7.05162 176.312 6.78308 176.527C6.39639 176.841 6.1386 176.868 5.71968 176.545C5.67671 175.711 6.60048 175.074 7.56721 175.11C8.27614 175.136 8.99582 175.065 9.70476 175.011C10.317 174.966 11.8853 175.065 12.4546 175.235C12.4438 175.316 12.3794 175.45 12.4116 175.468C12.7768 175.675 12.5727 175.989 12.6694 176.24C12.9594 176.94 12.895 177.676 12.9702 178.394C13.0346 179.013 12.9809 179.641 12.9379 180.26C12.895 180.798 12.7983 181.337 12.7124 181.875C12.6909 182.01 12.6479 182.135 12.5835 182.261C12.4868 182.458 12.2934 182.539 12.0679 182.449C11.649 182.288 11.273 182.395 10.8863 182.503C10.4352 182.629 9.99478 182.817 9.54364 182.907C9.00656 183.006 8.44801 183.05 7.88945 182.916C7.73907 182.88 7.57795 182.853 7.42757 182.844C7.09458 182.817 6.75086 182.727 6.43935 182.79C5.74116 182.916 5.50485 182.701 5.53707 182.135C5.54781 182.037 5.36521 181.92 5.26854 181.812C5.1826 181.714 5.09667 181.615 5 181.516C5.02148 181.48 5.04297 181.444 5.06445 181.408Z" fill="url(#paint8_linear_510_595)"/>
<path d="M6.41136 618.555C6.00241 618.949 6.29776 619.596 5.62754 620C5.61618 619.424 5.55938 618.939 5.80929 618.464C5.94561 618.211 5.9456 617.988 5.832 617.705C5.68433 617.321 5.57073 616.897 5.59345 616.492C5.63889 615.663 5.42306 614.865 5.30946 614.066C5.16178 613.035 5.34354 611.974 5.02547 610.953C4.94595 610.69 5.0709 610.357 5.15042 610.063C5.28674 609.588 5.42306 609.133 5.28675 608.628C5.24131 608.466 5.45714 608.173 5.6389 608.072C5.79793 607.981 6.21824 607.971 6.30912 608.072C6.74079 608.567 7.36558 608.567 7.95628 608.608C8.56971 608.648 9.20585 608.598 9.81928 608.588C10.7053 608.567 11.5914 608.547 12.4774 608.547C12.6251 608.547 12.7614 608.608 13 608.658C12.8296 608.861 12.7274 609.042 12.5683 609.154C12.1139 609.487 11.6595 609.841 11.1484 610.104C10.6031 610.377 10.2282 610.791 9.88743 611.196C9.43305 611.741 8.97865 612.318 8.93321 613.035C8.92185 613.217 8.94457 613.399 8.95593 613.581C8.96729 613.783 8.97865 613.996 9.00137 614.198C8.94457 614.208 8.89913 614.218 8.84233 614.238C8.67194 613.905 8.50155 613.571 8.34251 613.227C8.16076 612.843 8.22892 612.439 8.39931 612.075C8.58107 611.711 8.86506 611.388 9.10361 611.064C9.01273 610.872 8.94458 610.71 8.86506 610.539C8.9105 610.569 8.95593 610.599 9.00137 610.64C9.41032 610.205 9.83063 609.77 10.3077 609.275C9.85335 609.275 9.5012 609.336 9.17177 609.265C8.43338 609.103 7.75181 609.346 7.0475 609.437C6.74079 609.477 6.57039 609.609 6.55903 609.892C6.55903 610.195 6.55903 610.488 6.54767 610.791C6.52495 611.276 6.47952 611.752 6.46816 612.237C6.44544 613.086 6.47951 613.935 6.26368 614.784C6.12736 615.32 6.29776 615.916 6.29776 616.482C6.29776 616.806 6.30912 617.149 6.21824 617.463C6.116 617.847 6.05921 618.211 6.41136 618.555Z" fill="url(#paint9_linear_510_595)"/>
<path d="M9.51551 157.207C10.5719 157.318 11.5247 157.418 12.4775 157.54C12.6225 157.562 12.7986 157.662 12.9021 157.773C13.0575 157.951 13.0264 158.151 12.8193 158.284C12.5189 158.495 12.2186 158.728 11.8975 158.884C11.6904 158.984 11.3797 159.051 11.2036 158.951C10.6651 158.662 10.0955 158.706 9.54658 158.64C8.47984 158.517 7.42346 158.628 6.35672 158.717C6.03567 158.74 5.71461 158.784 5.40391 158.839C5.12428 158.884 5.04143 158.728 5 158.406C5.6214 158.217 6.23244 158.029 6.84349 157.851C7.45453 157.673 8.06557 157.507 8.66626 157.34C8.66626 156.496 8.6559 155.652 8.66626 154.807C8.69733 153.208 8.67662 151.597 8.84233 150.009C8.90447 149.398 8.94589 148.776 9.0391 148.165C9.1841 147.21 9.36016 146.255 9.51551 145.299C9.52587 145.21 9.52587 145.088 9.57765 145.044C10.023 144.644 10.0333 144.055 10.1369 143.511C10.1991 143.167 10.4165 143.089 10.7065 143C10.8619 143.433 10.5926 143.722 10.3648 143.944C10.1162 144.2 10.0333 144.477 10.0023 144.811C9.91942 145.877 9.78479 146.932 9.733 147.998C9.68122 148.876 9.77443 149.776 9.68122 150.642C9.60872 151.408 9.75371 152.119 9.89871 152.852C9.99192 153.308 10.0023 153.786 10.0644 154.252C10.0955 154.441 10.1576 154.63 10.2301 154.885C9.62943 155.463 9.77443 156.34 9.51551 157.207Z" fill="url(#paint10_linear_510_595)"/>
<path d="M6.024 807.087C5.91517 807.241 5.81722 807.394 5.70839 807.547C5.46897 807.875 5.33837 808.203 5.32749 808.64C5.3166 809.187 5.12071 809.723 5.01188 810.27C4.99011 810.379 4.92482 810.489 4.94658 810.587C5.06629 811.2 5.21866 811.812 5.34926 812.414C5.49074 813.092 5.69751 813.748 5.68663 814.47C5.67575 815.137 5.8281 815.837 6.04576 816.482C6.13283 816.744 6.5355 816.93 6.82935 817.094C7.87411 817.685 9.06036 817.882 10.214 817.925C11.0193 817.958 11.9335 818.046 12.6517 817.433C12.7279 817.368 12.8368 817.324 12.9347 817.269C12.9456 817.269 12.9565 817.28 13 817.302C12.9021 817.51 12.7932 817.718 12.6953 817.915C12.5538 818.199 12.347 818.319 11.9988 818.33C11.6832 818.341 11.3676 818.429 11.0737 818.56C10.6384 818.746 10.2031 818.844 9.72422 818.768C9.37596 818.713 9.00594 818.779 8.6468 818.768C8.38561 818.757 8.11354 818.757 7.87411 818.669C7.41702 818.516 6.99259 818.286 6.54639 818.122C6.27431 818.013 6.13283 818.188 6.0893 818.429C6.00223 818.943 5.91517 819.457 5.84988 819.971C5.78458 820.43 5.7628 820.911 5.66486 821.36C5.62132 821.578 5.47985 821.797 5.36014 821.994C5.14248 822.333 4.90305 822.672 4.67451 823C4.63097 822.978 4.58744 822.956 4.5548 822.945C4.62009 822.77 4.67451 822.595 4.76158 822.42C4.91394 822.092 5.1316 821.786 5.20778 821.436C5.28396 821.075 5.21866 820.681 5.21866 820.299C5.21866 820.091 5.22954 819.872 5.22954 819.664C5.22954 819.61 5.27307 819.555 5.26219 819.511C5.05541 818.8 5.30572 818.024 4.9357 817.335C4.91393 817.291 4.90305 817.226 4.89217 817.182C4.63097 816.044 4.30448 814.918 4.13036 813.77C3.85828 811.932 3.978 810.106 4.81599 808.4C5.08807 807.853 5.33837 807.273 5.93693 807C5.94781 807.022 5.98047 807.055 6.024 807.087Z" fill="url(#paint11_linear_510_595)"/>
<path d="M6.00852 343.566C6.57235 343.434 7.0798 343.236 7.6098 343.192C8.59086 343.104 9.5832 343.148 10.553 343.038C11.1732 342.961 11.7709 343.016 12.3798 343.071C12.6617 343.104 12.8872 343.17 13 343.489C12.5489 344.061 12.4474 344.755 12.4023 345.47C12.3685 346.031 12.2219 346.581 12.1317 347.143C12.1091 347.286 12.1092 347.429 12.1092 347.572C12.1092 347.66 12.1768 347.748 12.1768 347.836C12.1768 348.881 12.2106 349.927 12.1543 350.961C12.1204 351.589 11.9513 352.205 11.8385 352.821C11.737 353.393 11.6243 353.966 11.5115 354.538C11.4777 354.692 11.41 354.846 11.2521 355C11.2296 354.857 11.1957 354.703 11.1957 354.56C11.1957 353.063 11.2296 351.578 11.207 350.081C11.1958 349.685 10.9477 349.289 10.9364 348.881C10.9138 348.089 10.9702 347.286 11.0153 346.482C11.0379 346.141 11.1958 345.8 11.1845 345.459C11.1732 344.931 11.0717 344.414 11.0153 343.863C10.7334 343.786 10.4628 343.632 10.1921 343.896C9.88767 344.194 9.84256 344.557 9.98915 344.909C10.2823 345.591 10.1245 346.273 10.0906 346.956C10.0794 347.11 10.0117 347.297 9.91022 347.407C9.5381 347.847 9.4366 348.353 9.42533 348.903C9.42533 349.036 9.33512 349.168 9.17725 349.322C9.12086 349.091 9.03065 348.87 9.01937 348.639C8.92916 347.517 8.88405 346.383 8.76001 345.261C8.72618 344.931 8.76001 344.447 8.21874 344.359C7.73384 343.676 7.00086 344.072 6.38065 343.984C6.09874 343.951 5.96342 343.896 6.00852 343.566Z" fill="url(#paint12_linear_510_595)"/>
<path d="M13 405.281C12.6323 405.455 12.2312 405.588 11.9081 405.823C11.507 406.109 11.1838 406.477 10.8273 406.814C10.7716 406.865 10.7382 406.937 10.6825 406.968C9.7688 407.407 9.30083 408.235 8.61002 408.869C8.18663 409.257 7.6741 409.564 7.19499 409.901C7.07242 409.993 6.94986 410.095 6.81615 410.187C6.63788 410.3 6.45961 410.412 6.28134 410.514C6.16992 410.576 6.00278 410.606 5.95821 410.688C5.75766 411.056 5.41226 411.015 5 410.974C5.12256 410.862 5.22284 410.708 5.35655 410.657C5.95822 410.473 6.33705 410.044 6.80502 409.697C7.15042 409.441 7.39554 409.124 7.70752 408.869C8.16434 408.501 8.55432 408.112 8.73259 407.54C8.83287 407.223 9.24512 406.988 9.46797 406.681C9.70195 406.375 9.89136 406.037 10.0808 405.7C10.2145 405.465 10.0919 405.291 9.89136 405.128C9.05571 404.382 8.1532 403.728 7.05014 403.329C6.78273 403.237 6.55989 403.033 6.30362 402.9C5.91365 402.695 5.50139 402.511 5.05571 402.307C5.1337 402.102 5.28969 401.959 5.66852 402.01C6.4039 402.113 7.07243 402.337 7.75209 402.583C8.25348 402.767 8.81058 402.828 9.33426 402.971C9.80223 403.104 10.2702 403.165 10.6825 403.544C11.3621 404.167 12.1978 404.647 12.9666 405.199C13 405.199 12.9889 405.25 13 405.281Z" fill="url(#paint13_linear_510_595)"/>
<path d="M13 200.116C12.6444 200.307 12.277 200.476 11.9215 200.677C11.163 201.111 10.44 201.576 9.66963 201.978C8.84 202.401 8.27111 203.068 7.54815 203.586C7.16889 203.861 6.83704 204.168 6.58815 204.559C6.41037 204.834 6.13778 204.919 5.78222 204.75C5.52148 204.633 5.24889 204.538 5 204.443C5.17778 203.618 5.82963 203.184 6.49333 202.75C7.14519 202.327 7.76148 201.841 8.46074 201.502C8.95852 201.269 9.36148 200.815 10.0015 200.857C10.0844 200.857 10.1911 200.804 10.2741 200.762C11.0919 200.307 11.9807 200.032 12.9526 200C12.9763 200.042 12.9881 200.074 13 200.116Z" fill="url(#paint14_linear_510_595)"/>
<path d="M5.65185 207.193C5.74667 207.045 5.80593 206.886 5.92445 206.781C6.46963 206.283 7.08593 205.881 7.84444 205.628C8.47259 205.416 9.04148 205.056 9.64593 204.76C10.0726 204.549 10.4993 204.337 10.9378 204.157C11.3644 203.988 11.8148 203.85 12.2533 203.702C12.277 203.734 12.3007 203.766 12.3244 203.798C11.8385 204.136 11.3407 204.475 10.8548 204.824C10.6178 204.993 10.4163 205.204 10.1911 205.384C9.69334 205.776 9.20741 206.188 8.69778 206.558C8.40148 206.77 8.14074 206.971 8.01037 207.31C7.92741 207.511 7.73778 207.69 7.56 207.849C7.35852 208.029 7.10963 208.05 6.86074 207.902C6.48148 207.69 6.10222 207.468 5.65185 207.193Z" fill="url(#paint15_linear_510_595)"/>
<path d="M4 39.6095C4.54651 39.1911 5.07071 38.7727 5.62838 38.3659C6.01874 38.087 6.3868 37.7267 6.89985 37.7151C7.16753 37.7035 7.44636 37.7384 7.71404 37.7616C8.13786 37.7965 8.56169 37.8313 8.98551 37.8546C9.91123 37.9127 10.8258 37.9592 11.7515 38.0057C11.8965 38.0173 12.0415 37.9592 12.22 37.9243C12.3426 37.3781 12.4765 36.8435 12.588 36.3088C12.6215 36.1578 12.6326 35.9718 12.5769 35.8556C12.075 34.7399 12.0304 33.4963 11.4058 32.4155C10.4689 30.7884 9.15281 29.9167 7.37944 29.8238C6.97792 29.8005 6.56525 30.184 6.16373 30.3816C6.08566 30.4165 6.0522 30.5559 5.98528 30.5908C5.48339 30.7651 5.20455 31.1254 5.08187 31.6484C5.08187 31.6717 5.01495 31.6717 4.94803 31.7065C4.93687 31.2881 5.05956 30.9162 5.33839 30.6838C6.0522 30.1259 6.81062 29.6262 7.54674 29.1032C7.75865 28.9521 7.9371 28.987 8.16017 29.08C8.55053 29.2427 8.97436 29.324 9.37588 29.4635C10.257 29.7424 11.0043 30.2422 11.64 30.9046C11.8296 31.1138 12.075 31.2765 12.2757 31.4625C13.1791 32.276 13.603 33.3452 13.8037 34.5191C13.893 35.0072 13.9376 35.5069 13.9933 36.0067C14.0045 36.1578 14.0045 36.3088 13.971 36.4599C13.8483 37.1689 13.7033 37.8778 13.5918 38.5868C13.5695 38.7611 13.6476 38.9587 13.681 39.1446C13.7703 39.563 13.6587 39.7373 13.2572 39.749C13.0788 39.7606 12.8892 39.7025 12.7107 39.656C12.3984 39.5746 12.0861 39.47 11.7738 39.4003C11.2608 39.2841 10.7366 39.1446 10.2124 39.0749C9.83316 39.0284 9.4428 39.0981 9.06358 39.0981C8.32747 39.0865 7.59135 39.2144 6.84408 39.1679C6.19719 39.133 5.53915 39.2492 5.00379 39.7606C4.62458 40.1325 4.3346 40.0628 4 39.6095Z" fill="url(#paint16_linear_510_595)"/>
<path d="M8.68423 35.8788C8.61731 35.6231 8.55039 35.3675 8.47231 35.1118C8.40539 34.891 8.38309 34.6469 8.24925 34.4726C7.99272 34.1239 8.02618 33.8217 8.22694 33.4847C8.47231 33.0779 8.69538 32.6595 8.96306 32.276C9.04113 32.1598 9.23073 32.1249 9.40919 32.0319C9.54303 32.6014 9.66571 33.1128 9.7884 33.6125C9.79955 33.6823 9.79955 33.7752 9.77725 33.845C9.56533 34.2866 9.33111 34.7166 9.1192 35.1583C9.00767 35.4023 8.9296 35.658 8.84037 35.9137C8.79576 35.8904 8.73999 35.8904 8.68423 35.8788Z" fill="url(#paint17_linear_510_595)"/>
<path d="M10.6082 475.778C10.2548 476.059 9.84241 476.048 9.47717 475.886C8.85272 475.615 8.20471 475.334 7.65096 474.967C7.36819 474.783 7.19146 474.404 7.05008 474.08C6.6377 473.117 6.59057 472.133 6.74374 471.095C6.88512 470.165 7.46244 469.495 8.0162 468.792C8.4757 468.208 8.94698 467.646 9.43004 467.072C9.67746 466.78 9.96024 466.51 10.2312 466.218C8.51105 465.558 6.80265 465.321 5 465.699C6.11929 464.964 7.29749 464.607 8.66421 464.737C9.43004 464.801 10.2194 464.682 10.9971 464.682C11.4683 464.682 11.9632 464.596 12.3755 464.899C12.5758 465.039 12.7644 465.169 13 465.331C12.5287 465.818 12.1399 466.229 11.7393 466.618C10.9146 467.429 10.0781 468.229 9.25331 469.041C9.1944 469.095 9.15906 469.149 9.11193 469.214C8.58174 470.122 7.94551 470.987 7.73343 472.025C7.56848 472.836 7.59205 473.658 7.85125 474.448C7.92194 474.664 8.1458 474.88 8.35788 475.01C9.04123 475.399 9.71281 475.864 10.6082 475.778Z" fill="url(#paint18_linear_510_595)"/>
<path d="M9.67752 460C10.1017 460.13 10.2666 460.422 10.3137 460.811C10.3373 461.006 10.3727 461.2 10.4316 461.395C10.6319 462.098 10.2313 462.833 9.46544 463.125C8.61714 462.141 8.36971 461.741 9.67752 460Z" fill="url(#paint19_linear_510_595)"/>
<path d="M10.2583 647.633C10.1508 648.282 10.0218 648.91 9.93576 649.548C9.83899 650.303 10.0325 650.952 10.7207 651.388C10.9787 651.547 11.2045 651.76 11.4733 651.888C11.9034 652.111 12.1292 652.462 12.2368 652.941C11.6669 653.058 11.1293 652.983 10.5916 652.877C10.4949 652.856 10.4304 652.749 10.3444 652.685C10.1616 652.536 9.98953 652.398 9.79599 652.26C9.44116 651.994 9.09708 651.973 8.7315 652.26C8.4842 652.451 8.19389 652.6 7.91433 652.76C7.83906 652.802 7.75304 652.877 7.67777 652.877C7.15091 652.887 6.62404 652.887 6.07567 652.887C6.07567 652.526 6.32298 652.409 6.52728 652.302C7.26919 651.951 7.81755 651.356 8.43043 650.845C8.63473 650.675 8.73151 650.484 8.72075 650.197C8.69925 649.367 8.70999 648.537 8.70999 647.655C7.21542 647.335 6.41975 646.41 6.25847 644.932C6.04342 644.9 5.86063 644.857 5.66709 644.836C5.45204 644.815 5.237 644.815 5.02195 644.804C3.45211 644.772 3.19405 644.868 2.0328 645.942C1.86076 646.102 1.67798 646.24 1.47368 646.346C1.29089 646.442 1.11886 646.378 1.0866 646.134C1.05434 645.815 1.02208 645.495 1.00058 645.176C0.989826 644.9 1.12961 644.719 1.37691 644.591C1.5812 644.496 1.76399 644.357 2.02205 644.187C1.81775 644.017 1.68873 643.868 1.52744 643.783C1.14036 643.581 1.02208 643.294 1.05434 642.868C1.0866 642.432 1.06509 641.996 1.06509 641.496C1.5597 641.847 2.0113 642.134 2.39838 642.485C2.59192 642.656 2.67794 642.953 2.83922 643.177C3.03276 643.453 3.32308 643.517 3.64565 643.496C4.15101 643.464 4.64561 643.421 5.15097 643.4C5.53806 643.379 5.9359 643.4 6.31223 643.4C6.59179 642.879 6.84984 642.326 7.18316 641.837C7.54874 641.294 8.2369 641.294 8.82828 641.06C8.88204 640.433 8.93579 639.816 8.9788 639.21C9.0003 638.816 8.86052 638.476 8.60247 638.188C8.16162 637.721 7.72078 637.263 7.25843 636.816C7.04338 636.604 6.83909 636.423 7.03263 636.029C7.55949 636.061 8.17237 635.859 8.65623 636.21C9.09707 636.519 9.4304 636.976 9.87125 637.412C10.1293 637.178 10.4196 636.965 10.6347 636.699C10.9465 636.317 11.3121 636.168 11.8067 636.231C12.14 636.274 12.4841 636.274 12.8604 636.306C12.7529 636.731 12.4411 636.933 12.1615 637.167C11.6561 637.604 11.1293 638.04 10.6454 638.497C10.5056 638.625 10.4089 638.848 10.3981 639.039C10.3659 639.635 10.3766 640.241 10.3981 640.847C10.4089 640.986 10.5379 641.156 10.6562 641.252C10.9895 641.518 11.3873 641.709 11.6991 641.996C12.097 642.368 12.4518 642.794 12.7744 643.23C12.9249 643.443 13.0754 643.538 13.3335 643.549C13.7958 643.56 14.2689 643.613 14.7313 643.602C14.9463 643.602 15.2151 643.549 15.3764 643.421C15.9786 642.953 16.5592 642.464 17.1398 641.964C17.5269 641.635 17.5161 641.624 18 641.624C17.9785 642.06 17.9785 642.496 17.9247 642.932C17.914 643.049 17.7635 643.156 17.6559 643.241C17.2151 643.602 16.7742 643.953 16.2581 644.357C16.5807 644.698 16.8603 645.091 17.2258 645.346C17.9032 645.825 17.7635 646.453 17.7204 647.112C17.2043 647.102 16.9355 646.804 16.699 646.463C16.3979 646.017 16.0216 645.644 15.5592 645.346C15.441 645.272 15.3012 645.198 15.1721 645.198C14.5808 645.198 13.9894 645.219 13.398 645.24C13.1507 645.251 12.9572 645.304 12.8711 645.591C12.5056 646.825 11.6561 647.474 10.2583 647.633ZM9.47342 642.166C9.05407 642.166 8.67774 642.273 8.39818 642.56C7.52724 643.453 7.25843 644.347 7.74228 645.4C8.18313 646.357 9.15084 646.761 10.1401 646.378C10.3228 646.304 10.5056 646.229 10.6777 646.144C11.5701 645.708 11.9249 644.783 11.5701 643.868C11.5056 643.698 11.4196 643.549 11.3658 643.379C11.054 642.485 10.3444 642.198 9.47342 642.166Z" fill="url(#paint20_linear_510_595)"/>
<path d="M9.3349 838C9.53075 838.272 9.70485 838.457 9.82454 838.664C10.9671 840.646 12.0878 842.627 13.2303 844.609C13.5023 845.077 13.807 845.523 14.079 845.991C15.0583 847.646 16.0267 849.301 16.9952 850.956C17.006 850.978 16.9952 851.021 16.9952 851.119C16.6034 851.065 16.2008 851.032 15.82 850.956C15.7003 850.934 15.5915 850.793 15.5153 850.673C15.3086 850.357 15.1345 850.009 14.9386 849.693C14.3293 848.735 13.7091 847.766 13.0889 846.808C12.6645 846.155 12.2075 845.512 11.794 844.848C11.3805 844.184 11.0432 843.487 10.6189 842.834C10.2054 842.203 9.72661 841.615 9.25873 840.983C8.82348 841.277 8.57322 841.669 8.3556 842.094C8.23591 842.333 8.07269 842.551 7.92036 842.769C7.74626 843.019 7.5504 843.259 7.38719 843.52C6.44053 845.088 5.483 846.645 4.54723 848.223C4.13375 848.92 3.76379 849.639 3.36119 850.368C3.8182 850.629 4.22079 850.662 4.63427 850.64C4.86278 850.629 5.09128 850.662 5.31978 850.684C5.59181 850.706 5.85295 850.76 6.12498 850.76C7.92036 850.738 9.71573 850.695 11.5111 850.662C11.6743 850.662 11.8267 850.64 12.0008 850.64C11.9572 850.031 11.609 849.606 11.337 849.138C10.793 848.223 10.238 847.309 9.69397 846.394C9.5634 846.176 9.43282 845.959 9.25873 845.676C8.52969 846.568 7.92036 847.472 7.21309 848.452C7.75714 848.517 8.21415 848.572 8.59498 848.626C8.76908 848.256 8.91053 847.951 9.10639 847.537C9.59604 848.234 9.94423 848.877 10.2489 849.628C8.57322 849.595 6.98458 849.628 5.35243 849.323C5.41771 849.16 5.4286 849.029 5.49388 848.942C6.29908 847.82 7.11516 846.71 7.92036 845.599C8.29031 845.088 8.64939 844.554 9.01935 844.043C9.22609 843.749 9.42194 843.738 9.60692 844.043C11.0759 846.503 12.5339 848.964 13.992 851.424C14.0138 851.457 14.0138 851.49 14.0355 851.609C13.5567 851.664 13.0889 851.762 12.6101 851.773C11.4458 851.794 10.2924 851.784 9.12816 851.794C7.00635 851.816 4.88454 851.838 2.76273 851.881C2.45806 851.881 2.15339 851.969 1.84872 851.99C1.60934 852.012 1.36996 851.99 1 851.99C1.18498 851.664 1.30467 851.446 1.42436 851.239C1.69639 850.727 1.95753 850.216 2.22956 849.704C2.28397 849.606 2.32749 849.508 2.3819 849.421C3.26326 847.962 4.12287 846.492 5.02599 845.044C5.26538 844.663 5.58093 844.336 5.86384 843.988C5.89648 843.945 5.95089 843.912 5.97265 843.868C6.38613 843.15 6.79961 842.431 7.21309 841.713C7.25661 841.636 7.27837 841.549 7.3219 841.462C7.88771 840.471 8.44265 839.481 9.01935 838.49C9.09551 838.327 9.18256 838.218 9.3349 838Z" fill="url(#paint21_linear_510_595)"/>
<path d="M14.4502 788.373C14.5813 788.082 14.6687 787.846 14.7888 787.577C15.2039 787.609 15.6299 787.652 16.0886 787.695C16.0231 787.932 15.9794 788.104 15.9138 788.352C16.6238 788.352 17.301 788.352 18 788.352C18 788.814 18 789.191 18 789.643C17.2791 789.643 16.5692 789.643 15.8701 789.643C15.2694 789.643 15.2694 789.643 15.0947 790.235C15.0728 790.321 15.051 790.407 15.0182 790.493C14.8762 790.892 14.7124 791.01 14.2864 790.999C14.057 790.999 13.8168 790.956 13.5874 790.935C13.3799 790.483 13.642 790.106 13.7184 789.654C10.8131 789.611 7.95146 789.579 5.05704 789.536C5.03519 789.869 5.01335 790.149 5.00243 790.45C4.67476 790.472 4.37985 790.515 4.09587 790.504C3.99757 790.504 3.8665 790.418 3.80097 790.332C3.70267 790.203 3.62622 790.052 3.5716 789.901C3.46238 789.589 3.24393 789.525 2.93811 789.525C1.97694 789.535 1.01578 789.536 0 789.536C0.0218447 789.083 0.054613 788.653 0.0764576 788.19C1.00486 788.265 1.86772 788.33 2.83981 788.405C2.70874 787.953 2.61044 787.609 2.47937 787.189C2.90534 787.221 3.29855 787.232 3.68083 787.307C3.81189 787.329 3.95389 787.523 4.0085 787.663C4.39078 788.578 4.39078 788.588 5.37379 788.481C5.75607 788.438 6.12742 788.405 6.50971 788.362C6.54247 787.738 6.4551 787.081 6.66262 786.522C6.85922 785.962 7.35073 785.51 7.73301 784.972C6.6517 784.552 5.51578 784.1 4.36893 783.659C4.06311 783.992 4.06311 784.541 3.44053 784.573C3.22209 784.412 2.92719 784.208 2.61044 783.971C2.7852 783.745 2.98179 783.508 3.20024 783.228C2.66505 782.83 2.00971 782.873 1.43082 782.604C1.43082 782.13 1.43082 781.635 1.43082 781.065C2.35922 781.258 3.06917 781.797 3.94296 782.13C4.18325 781.764 4.41262 781.42 4.6966 781C4.99151 781.183 5.26456 781.355 5.58131 781.549C5.36286 781.904 5.17719 782.184 4.95874 782.539C6.21481 783.088 7.43811 783.637 8.73786 784.208C8.9017 783.163 8.73786 782.173 8.79248 781.14C9.1966 781.118 9.56796 781.108 9.96117 781.086C10.0158 782.162 10.0704 783.196 10.1359 784.315C11.4138 783.895 12.5607 783.346 13.784 782.841C13.6529 782.615 13.5437 782.442 13.4345 782.259C13.642 781.85 13.7075 781.797 14.5158 781.463C14.6905 781.743 14.8544 782.023 15.0401 782.313C15.9466 782.119 16.6347 781.441 17.6505 781.237C17.5194 781.775 17.432 782.227 17.29 782.658C17.2573 782.754 17.0607 782.808 16.9296 782.862C16.4927 783.024 16.0558 783.163 15.608 783.314C15.75 783.616 15.8592 783.852 15.9684 784.078C14.8544 784.713 15.0073 784.66 14.4393 783.852C13.3908 784.164 11.5667 784.972 10.9879 785.402C11.7743 786.177 11.9599 787.157 11.8616 788.276C12.7245 788.298 13.5765 788.33 14.4502 788.373ZM7.89684 788.352C8.58495 788.352 9.24029 788.373 9.89563 788.341C10.6165 788.308 10.9005 787.91 10.7476 787.221C10.7039 787.028 10.6493 786.834 10.5837 786.651C10.3544 786.016 9.41505 785.585 8.75971 785.801C7.75486 786.145 7.30704 787.426 7.89684 788.352Z" fill="url(#paint22_linear_510_595)"/>
<path d="M11.5182 579.503C10.9061 579.042 10.294 578.57 9.62074 578.052C9.62074 578.626 9.62074 579.155 9.62074 579.695C9.81661 579.728 9.97574 579.74 10.1226 579.796C10.4776 579.919 10.8694 580.021 11.1754 580.212C12.1302 580.831 12.6199 581.708 12.9015 582.765C13.232 584.003 12.6933 584.914 11.8487 585.701C11.2366 586.275 10.4409 586.646 9.48609 586.657C9.44937 587.208 9.41264 587.737 9.38815 588.266C9.42488 588.288 9.46161 588.311 9.49833 588.344C9.87781 588.074 10.2695 587.816 10.6245 587.546C11.004 587.253 11.0163 587.231 11.7018 587.197C11.6528 587.568 11.6406 587.928 11.5549 588.288C11.5304 588.401 11.3468 588.513 11.2244 588.592C10.7837 588.862 10.343 589.109 9.86557 589.39C10.3185 589.717 10.698 590.02 11.1264 590.279C11.3345 590.414 11.4325 590.538 11.4202 590.774C11.408 591.145 11.4202 591.516 11.4202 592C10.7592 591.539 10.1716 591.134 9.48609 590.673C9.48609 591.156 9.48609 591.539 9.48609 591.966C9.02092 591.966 8.61695 591.966 8.13953 591.966C8.11505 591.539 8.09056 591.145 8.05383 590.639C7.41728 591.033 6.82969 591.393 6.15641 591.809C6.15641 591.37 6.13194 591.033 6.16867 590.706C6.18091 590.572 6.3278 590.425 6.45021 590.335C6.79297 590.088 7.17245 589.863 7.62538 589.57C7.099 589.244 6.68281 588.963 6.22987 588.727C5.98504 588.592 5.87486 588.457 5.89935 588.187C5.94831 587.838 5.96056 587.49 5.99728 587.04C6.71953 587.456 7.35608 587.827 8.06609 588.254C8.06609 587.647 8.06609 587.174 8.06609 586.623C6.07073 586.173 4.9078 585.049 5.00573 583.046C5.04245 582.225 5.27503 581.449 5.89935 580.831C6.51142 580.234 7.33159 580.009 8.22522 579.796C8.2497 579.335 8.28643 578.873 8.31092 578.39C7.61315 578.48 7.41728 579.233 6.70728 579.233C6.65831 578.896 6.56038 578.581 6.58486 578.277C6.5971 578.097 6.79298 577.895 6.96436 577.76C7.24591 577.535 7.57642 577.344 7.98039 577.085C7.66211 576.826 7.44177 576.579 7.16022 576.421C6.65832 576.129 6.43797 575.746 6.52366 575.195C6.56038 575.004 6.52366 574.802 6.52366 574.543C7.17245 574.847 7.56419 575.42 8.32315 575.533C8.32315 575.105 8.32315 574.712 8.32315 574.34C8.56798 574.228 8.76384 574.104 8.97194 574.059C9.1678 574.014 9.44936 573.958 9.57177 574.048C9.70643 574.138 9.76764 574.408 9.7554 574.588C9.71867 574.959 9.59626 575.319 9.51057 575.69C9.48608 575.791 9.48608 575.904 9.4616 576.095C10.343 575.701 10.9061 575.083 11.6038 574.61C11.9589 575.578 11.7752 576.039 10.8571 576.5C10.7347 576.568 10.6001 576.624 10.4899 576.702C10.4164 576.759 10.3552 576.837 10.2206 576.972C10.5389 577.152 10.8082 577.332 11.1142 577.479C11.3713 577.602 11.5182 577.76 11.5304 578.041C11.5549 578.502 11.6161 578.963 11.6651 579.425C11.6283 579.458 11.5794 579.481 11.5182 579.503ZM8.1885 585.442C8.20074 585.15 8.23746 584.936 8.21298 584.722C8.12729 583.766 8.0416 582.822 8.21298 581.865C8.31091 581.326 8.02936 581.123 7.45402 581.269C7.1847 581.337 6.8909 581.505 6.70728 581.708C5.64227 582.866 6.09521 584.621 7.61315 585.274C7.77228 585.33 7.94367 585.375 8.1885 585.442ZM9.53506 585.386C10.1839 585.319 10.5511 585.161 10.8326 584.767C11.3958 583.958 11.6651 583.091 11.1632 582.18C10.9551 581.798 10.6123 581.449 10.2818 581.146C10.0002 580.887 9.57178 581.033 9.5473 581.359C9.52282 581.82 9.5473 582.27 9.5473 582.732C9.5473 582.878 9.53506 583.024 9.53506 583.181C9.53506 583.901 9.53506 584.644 9.53506 585.386Z" fill="url(#paint23_linear_510_595)"/>
<path d="M6.60207 60.7161C5.38157 60.4983 4.19466 60.6944 2.94057 60.7597C2.94057 60.2914 2.94057 59.8339 2.94057 59.3764C4.11628 59.4309 5.32558 59.4963 6.59087 59.5616C6.59087 59.1477 6.59087 58.8319 6.59087 58.4942C6.32213 58.2982 5.90784 58.5705 5.6391 58.2219C5.42636 57.9605 5.11284 57.7863 4.75453 57.5031C5.39277 57.5466 5.93023 57.5793 6.56847 57.6229C6.49009 57.0783 6.43411 56.6208 6.36692 56.1198C6.97157 56.0762 7.53144 56.0436 8.14729 56C8.14729 56.5337 8.14729 56.9912 8.14729 57.4922C8.96469 57.4922 9.77089 57.4922 10.6443 57.4922C9.88286 58.1675 9.04307 58.4942 8.01292 58.3417C7.99052 58.7665 7.96813 59.1041 7.94574 59.4963C10.286 59.4963 12.5814 59.4963 15 59.4963C14.3506 60.3022 13.8019 61.0429 13.1189 61.6964C11.82 62.9381 10.5435 64.2124 9.28941 65.5085C8.84152 65.966 8.472 66.4888 8.0801 67.0007C8.00172 67.1096 7.95694 67.2621 7.94574 67.3928C7.93454 67.6433 7.97933 67.8938 8.00172 68.1879C8.16968 68.2314 8.31524 68.2968 8.472 68.2968C9.00947 68.3186 9.54694 68.3186 10.0956 68.3186C10.4987 68.3186 10.8346 68.1988 11.137 67.8829C11.5289 67.469 12.0551 67.3383 12.6262 67.5235C13.2084 67.7195 13.6115 68.0899 13.7459 68.6998C13.8579 69.2553 13.6451 69.7454 13.1077 69.9523C12.3686 70.2464 11.6296 70.3009 10.9578 69.7345C10.8458 69.6365 10.6667 69.5602 10.5211 69.5494C9.75969 69.5276 8.99827 69.5385 8.13609 69.5385C8.21447 70.0177 8.27046 70.3989 8.33764 70.7801C8.41602 71.1831 8.43841 71.5643 8.23686 72C7.73299 72 7.21791 72 6.64685 72C6.90439 70.8782 6.96038 69.7563 6.8596 68.5146C6.66925 68.7216 6.54608 68.8414 6.43411 68.9721C5.78467 69.7454 5.13523 70.5187 4.49698 71.3029C4.29543 71.5534 4.06029 71.6515 3.72438 71.6297C3.17571 71.5861 2.61585 71.5861 2 71.5643C2.06718 71.4336 2.08958 71.3138 2.15676 71.292C2.90698 70.9544 3.43325 70.3445 3.97072 69.789C4.8665 68.8632 5.71749 67.9047 6.57967 66.9462C6.68045 66.8373 6.77003 66.663 6.77003 66.5106C6.73644 64.6372 6.69164 62.7747 6.64685 60.9122C6.65805 60.8686 6.63566 60.8142 6.60207 60.7161ZM7.94574 65.5412C9.47976 64.0272 10.7674 62.4479 12.1335 60.7924C10.6667 60.6181 9.323 60.6617 7.94574 60.7052C7.94574 62.3063 7.94574 63.853 7.94574 65.5412ZM13.1413 68.8741C13.1301 68.3948 12.7605 68.0136 12.3239 68.0136C11.8312 68.0245 11.3609 68.4602 11.3497 68.8959C11.3497 69.3424 11.7864 69.6801 12.3686 69.6801C12.8501 69.6692 13.1525 69.3533 13.1413 68.8741Z" fill="url(#paint24_linear_510_595)"/>
<path d="M11.5654 372.472C11.5654 372.527 11.587 372.714 11.5221 372.858C11.295 373.331 11.5437 373.629 11.8466 373.904C12.7011 374.697 13.5448 375.491 14.3993 376.284C14.6589 376.526 14.9184 376.636 15.2754 376.449C16.2597 375.942 17.2872 376.306 17.8064 377.33C18.1634 378.036 18.0228 379.027 17.417 379.49C17.1574 379.688 16.7897 379.732 16.4652 379.842C16.0217 379.986 15.5999 380.019 15.178 379.721C14.9293 379.545 14.6589 379.611 14.4317 379.82C13.3393 380.834 12.2468 381.847 11.1652 382.872C10.8839 383.136 10.765 383.39 10.9488 383.83C11.2625 384.569 10.7217 385.538 9.96455 385.802C9.48863 385.979 9.03434 386.078 8.51515 385.924C7.69311 385.67 7.13066 384.91 7.26045 384.029C7.28209 383.863 7.31453 383.698 7.39024 383.555C7.50922 383.313 7.43352 383.147 7.26045 382.971C6.73045 382.475 6.20045 381.98 5.68126 381.473C5.25942 381.076 4.83759 380.669 4.43738 380.25C4.19942 379.997 3.96146 379.897 3.62615 380.052C3.16105 380.272 2.6743 380.228 2.19838 380.063C1.0194 379.644 0.640824 378.256 1.37634 377.22C1.93879 376.427 2.67431 376.229 3.56126 376.46C3.81003 376.526 3.98308 376.471 4.14533 376.317C5.1188 375.336 6.08146 374.356 7.06575 373.375C7.27126 373.166 7.2929 372.957 7.228 372.681C7.02249 371.734 7.34698 370.919 8.12576 370.39C8.90454 369.861 9.85638 369.872 10.6135 370.412C11.3166 370.919 11.5654 371.414 11.5654 372.472ZM13.9774 377.727C14.3993 377.187 14.237 376.78 13.8476 376.416C13.0905 375.711 12.355 374.984 11.587 374.301C11.2625 374.014 10.8948 373.849 10.4729 374.18C10.3539 374.279 10.1809 374.323 10.0294 374.378C9.79148 374.466 9.69414 374.62 9.68332 374.874C9.62924 375.733 9.55352 376.592 9.49944 377.452C9.48862 377.551 9.52108 377.661 9.53189 377.738C11.0678 377.727 12.5497 377.727 13.9774 377.727ZM8.69904 377.804C8.69904 376.647 8.69904 375.579 8.69904 374.499C8.37455 374.301 8.03923 374.091 7.63903 373.838C7.43352 373.959 7.15229 374.058 6.94677 374.246C6.15718 374.984 5.3784 375.755 4.62125 376.526C4.48064 376.669 4.37248 376.879 4.35084 377.077C4.32921 377.253 4.90248 377.815 5.05391 377.815C6.23289 377.804 7.41189 377.804 8.69904 377.804ZM8.65577 378.652C7.64985 378.652 6.68719 378.663 5.72453 378.641C5.15126 378.63 4.70778 378.752 4.57798 379.402C4.56717 379.457 4.54555 379.501 4.53473 379.556C5.51902 380.724 6.54658 381.836 7.83373 382.585C8.48271 382.409 8.7423 382.013 8.65577 381.363C8.6125 381.054 8.66658 380.746 8.66658 380.426C8.65577 379.864 8.65577 379.28 8.65577 378.652ZM10.3107 382.486C10.3756 382.464 10.3972 382.453 10.408 382.442C11.1219 381.958 11.6303 381.197 12.4415 380.834C12.4956 380.812 12.528 380.724 12.5821 380.669C12.9066 380.327 13.2203 379.986 13.5556 379.666C13.8152 379.413 14.0748 379.17 14.1397 378.697C12.5713 378.697 11.0354 378.697 9.44536 378.697C9.44536 379.82 9.44536 380.933 9.44536 382.057C9.72658 382.2 10.0186 382.343 10.3107 382.486ZM9.19659 373.662C9.49945 373.607 9.8023 373.563 10.0943 373.486C10.4621 373.397 10.6784 373.122 10.7433 372.758C10.8515 372.186 10.7541 371.624 10.3972 371.205C10.1052 370.853 9.70495 370.599 9.16413 370.72C8.27719 370.919 7.90944 371.37 7.90944 372.351C7.89862 373.232 8.32046 373.662 9.19659 373.662ZM3.03125 379.567C3.7235 379.567 4.29676 379.071 4.29676 378.476C4.29676 377.661 3.76677 377.132 2.96635 377.143C2.18757 377.154 1.60348 377.683 1.59267 378.388C1.60348 379.049 2.22002 379.567 3.03125 379.567ZM16.0974 376.901C15.2862 376.912 14.767 377.43 14.7887 378.234C14.7995 378.851 15.3619 379.38 16.0217 379.336C16.9411 379.28 17.1791 378.972 17.2656 378.025C17.3197 377.363 16.8005 376.901 16.0974 376.901ZM10.3756 384.084C10.3431 383.687 10.1701 383.258 9.74822 383.015C9.25067 382.729 8.7423 382.938 8.24474 383.092C8.19066 383.114 8.13659 383.191 8.10414 383.246C7.83373 383.687 7.77964 384.139 8.05005 384.591C8.32046 385.042 8.70985 385.307 9.25067 385.274C9.83475 385.252 10.3756 384.701 10.3756 384.084Z" fill="url(#paint25_linear_510_595)"/>
<path d="M4.4476 522.26C3.7087 522.26 3.08525 522.26 2.41563 522.26C2.41563 521.898 2.41563 521.566 2.41563 521.174C3.08525 521.174 3.7087 521.174 4.38987 521.174C4.38987 520.685 4.42451 520.245 4.37833 519.814C4.3206 519.296 4.74777 519.032 5.20958 519.002C5.65985 518.983 5.80995 519.09 5.75222 519.482C5.69449 519.932 5.62523 520.382 5.5675 520.842C5.55595 520.94 5.5675 521.037 5.5675 521.165C7.43784 521.282 9.28508 521.39 11.2016 521.507C11.2016 520.871 11.2016 520.294 11.2016 519.687C11.6519 519.687 12.0213 519.687 12.4369 519.687C12.7487 520.235 12.7256 520.822 12.5986 521.419C13.3952 521.703 14.2034 521.517 15 521.634C15 521.986 15 522.319 15 522.691C14.1572 522.622 13.3721 522.564 12.5293 522.495C12.2984 524.041 12.2291 525.607 12.2869 527.26C13.1758 527.26 14.0302 527.26 14.8961 527.26C14.9307 527.671 14.9654 528.004 15 528.425C14.111 528.239 13.2567 528.121 12.3446 528.307C12.3446 528.836 12.3446 529.344 12.3446 529.932C11.9174 529.951 11.4902 529.961 11.0515 529.98C11.1208 529.364 11.19 528.826 11.2593 528.2C9.30817 528.131 7.4032 528.063 5.45205 527.994C5.45205 528.699 5.45205 529.325 5.45205 530C4.99023 530 4.5746 530 4.06661 530C4.05507 529.706 4.02042 529.403 4.03197 529.11C4.04351 528.806 4.10124 528.493 4.13588 528.17C3.43162 527.926 2.75044 528.425 2 528.209C2.03464 527.818 2.06927 527.436 2.10391 527.026C2.80817 527.123 3.4547 527.221 4.20515 527.319C4.28597 525.617 4.36678 523.973 4.4476 522.26ZM7.49556 522.182C6.83748 522.212 6.19093 522.241 5.49822 522.28C5.49822 522.838 5.49822 523.347 5.49822 523.865C6.56038 523.689 6.56039 523.689 6.95293 523.963C6.51421 524.002 6.20248 524.149 6.12167 524.54C6.04085 524.932 6.26021 525.176 6.68739 525.333C6.6643 525.362 6.64121 525.401 6.61812 525.431C6.22558 525.411 5.83303 525.392 5.38276 525.372C5.38276 525.998 5.38276 526.634 5.38276 527.319C5.97157 527.319 6.57193 527.397 7.17228 527.251C7.10301 526.879 7.18384 526.575 7.47247 526.262C7.54174 526.673 7.7842 526.889 8.22292 526.928C8.67318 526.967 8.8579 526.664 9.13498 526.36C9.23889 526.703 9.31971 526.957 9.41207 527.251C10.0009 527.251 10.6128 527.251 11.2131 527.251C11.2131 526.663 11.2131 526.125 11.2131 525.577C10.7513 525.646 10.3703 525.675 10.0009 525.45C10.7629 524.981 10.6936 524.374 9.98934 523.934C10.4627 523.934 10.8552 523.934 11.2824 523.934C11.2824 523.425 11.2824 522.926 11.2824 522.417C10.7282 522.27 10.1856 522.26 9.64298 522.339C9.57371 522.72 9.72379 523.131 9.19271 523.366C9.14653 522.936 8.93872 522.632 8.46537 522.554C8.0151 522.485 7.83038 522.759 7.70338 523.082C7.66874 523.073 7.6341 523.063 7.59947 523.053C7.54174 522.789 7.53019 522.544 7.49556 522.182Z" fill="url(#paint26_linear_510_595)"/>
<path d="M8.82758 440.517C8.80603 440.941 8.78448 441.273 8.7737 441.639C9.70043 441.822 10.5948 441.754 11.5431 441.662C11.5862 441.994 11.6185 442.303 11.6724 442.692C10.7672 442.692 9.92672 442.692 9.08621 442.692C8.90302 442.692 8.67673 442.692 8.67673 442.944C8.67673 443.15 8.75216 443.367 8.84914 443.551C8.89225 443.631 9.07543 443.631 9.19396 443.631C9.54957 443.642 9.90518 443.631 10.2931 443.631C10.2931 444.02 10.2931 444.34 10.2931 444.718C9.77587 444.627 9.30172 444.546 8.92457 444.489C8.48276 445.039 8.08405 445.519 7.69612 446C7.66379 445.989 7.63147 445.966 7.59914 445.954C7.59914 445.496 7.59914 445.039 7.59914 444.501C7.18966 444.466 6.8125 444.432 6.38146 444.398C6.38146 444.146 6.38146 443.894 6.38146 443.608C6.79095 443.562 7.18965 443.516 7.63146 443.47C7.63146 443.23 7.63146 443.013 7.63146 442.715C6.44612 442.715 5.28233 442.715 4.05388 442.715C4.03233 442.292 4.02155 441.948 4 441.605C5.25 441.605 6.46768 441.605 7.7069 441.605C7.7069 441.25 7.7069 440.907 7.7069 440.495C7.50216 440.483 7.3082 440.472 7.11423 440.472C6.57544 440.46 6.51078 440.392 6.46768 439.819C6.4569 439.693 6.46768 439.556 6.46768 439.384C6.88794 439.43 7.27587 439.476 7.7069 439.522C7.7069 438.938 7.7069 438.4 7.7069 437.782C6.61854 437.782 5.55173 437.782 4.43104 437.782C4.39871 437.439 4.36638 437.164 4.36638 436.878C4.37716 434.119 4.3987 431.349 4.40948 428.591C4.40948 428.225 4.38792 427.87 4.40948 427.504C4.42025 427.343 4.48491 427.195 4.53879 427C4.65733 427.069 4.73275 427.092 4.77586 427.137C6.01508 428.591 7.24353 430.056 8.49353 431.51C9.52802 432.723 10.6056 433.902 11.6293 435.115C12.3728 435.996 13.0733 436.912 13.7953 437.816C13.8491 437.885 13.8922 437.965 14 438.137C12.2974 437.999 10.7026 437.702 9.01078 437.816C8.94613 438.32 8.88147 438.823 8.80604 439.373C9.09698 439.373 9.32328 439.373 9.54957 439.373C9.76509 439.384 9.96984 439.396 10.1854 439.419C10.2177 439.556 10.25 439.648 10.2608 439.739C10.3793 440.666 10.25 440.781 9.37716 440.598C9.2263 440.563 9.06465 440.552 8.82758 440.517ZM11.1228 436.843C11.1444 436.809 11.1767 436.763 11.1983 436.729C9.47413 434.543 7.64224 432.46 5.61638 430.537C5.45474 432.505 5.37931 434.44 5.53017 436.431C7.41595 436.557 9.2694 436.695 11.1228 436.843Z" fill="url(#paint27_linear_510_595)"/>
<path d="M4.81861 232.795C3.70714 232.795 2.6727 232.795 1.62726 232.795C1.09904 232.795 1 232.73 1 232.212C1 231.122 1.04401 230.022 1.07703 228.888C3.32198 228.77 5.52291 228.64 7.77887 228.522C7.81188 226.935 7.94395 225.435 8.52719 224C8.90135 224.669 8.85732 225.414 9.00039 226.115C9.14345 226.827 9.13245 227.572 9.19847 228.381C9.37455 228.381 9.57263 228.381 9.77071 228.381C11.5645 228.392 13.3692 228.403 15.163 228.414C15.3281 228.414 15.4931 228.424 15.6582 228.457C15.8783 228.5 16.0104 228.619 15.9994 228.867C15.9553 230.086 15.9113 231.306 15.8673 232.525C15.8673 232.558 15.8453 232.59 15.8013 232.698C14.4367 232.773 13.0391 232.709 11.6085 232.676C11.6085 232.309 11.6085 231.996 11.6085 231.63C12.709 231.716 13.7654 231.975 14.8439 231.813C14.8439 231.241 14.8439 230.701 14.8439 230.205C13.8975 229.773 12.9731 229.59 12.0047 229.579C11.0693 229.579 10.1449 229.579 9.14345 229.579C9.07742 231.165 9.0114 232.709 8.95638 234.219C9.4846 234.554 10.0238 234.327 10.541 234.468C10.497 234.64 10.464 234.802 10.409 235.018C10.0788 235.018 9.77072 235.007 9.46259 235.018C9.27551 235.029 9.01139 234.964 9.00039 235.266C8.98938 235.536 9.2425 235.493 9.40757 235.525C9.69369 235.568 9.97981 235.59 10.332 235.622C10.321 235.784 10.3099 235.935 10.2989 236.13C10.0018 236.13 9.7377 236.119 9.48459 236.13C8.96737 236.151 8.95638 236.162 8.96738 236.777C9.37455 236.777 9.78173 236.777 10.2219 236.777C10.2219 236.993 10.2219 237.144 10.2219 237.338C9.80374 237.338 9.40756 237.338 8.97838 237.338C8.96738 237.511 8.95637 237.651 8.93436 237.835C9.34153 237.835 9.7267 237.835 10.1449 237.835C10.1559 238.007 10.1669 238.137 10.1779 238.288C9.77072 238.342 9.41857 238.385 9.04441 238.428C9.04441 238.622 9.04441 238.784 9.04441 239C8.62623 239 8.21906 239 7.74586 239C7.73486 238.698 7.71285 238.374 7.69084 237.996C7.30568 237.996 6.95353 237.996 6.60138 237.996C6.45832 237.489 6.45831 237.478 6.8875 237.457C7.1406 237.446 7.39371 237.457 7.65782 237.457C7.76787 237.144 7.71284 236.96 7.39371 236.939C7.1406 236.928 6.88749 236.939 6.57936 236.939C6.55735 236.712 6.53535 236.529 6.50233 236.27C6.87649 236.259 7.20664 236.237 7.58079 236.227C7.6028 236.076 7.61381 235.946 7.63582 235.773C7.26166 235.752 6.92051 235.741 6.54635 235.719C6.53535 235.514 6.52434 235.342 6.51333 235.094C6.8985 235.094 7.25065 235.094 7.69084 235.094C7.69084 233.237 7.69084 231.446 7.69084 229.612C6.57937 229.633 5.45688 229.439 4.3234 229.676C4.05929 229.73 3.78419 229.709 3.50907 229.709C3.09089 229.709 2.67271 229.709 2.22151 229.709C2.06745 230.335 2.03444 230.939 2.10047 231.543C2.13348 231.845 2.38658 231.91 2.61768 231.921C3.11289 231.953 3.6081 231.942 4.10331 231.953C4.3234 231.953 4.5435 231.953 4.79661 231.953C4.81862 232.255 4.81861 232.547 4.81861 232.795Z" fill="url(#paint28_linear_510_595)"/>
<path d="M7.85027 293.386C7.18717 292.389 6.87701 291.326 6.70588 290.23C6.41711 288.367 7.66845 285.989 10.1176 286C10.5561 286 11.0053 286.066 11.4332 286.153C11.8075 286.23 12.1176 286.449 12.3422 286.855C11.9358 287.195 11.5294 287.545 11.123 287.896C11.1444 287.929 11.1765 287.962 11.1979 287.995C11.123 287.94 11.0481 287.896 10.984 287.83C10.0963 286.964 9.02674 287.151 8.47059 288.279C8.12834 288.97 7.98931 289.693 8.19251 290.449C8.32086 290.921 8.4385 291.403 8.58823 291.863C8.6631 292.082 8.80214 292.269 8.94118 292.532C9.63636 292.027 10.2995 291.556 10.9412 291.074C11.2299 290.855 11.5294 290.712 11.893 290.614C12.5775 290.438 13.2513 290.197 14 290.066C13.6043 290.427 13.2299 290.811 12.8235 291.162C12.4171 291.512 12 291.863 11.5722 292.181C11.123 292.51 10.6524 292.784 10.2032 293.069C10.877 293.573 11.4973 294.055 12.139 294.504C12.6738 294.877 12.9091 295.469 13.1337 296.027C13.7968 297.682 13.0481 299.666 11.4973 300.477C10.1497 301.189 8.77005 301.145 7.42246 300.521C7.00535 300.323 6.6631 299.94 6.2246 299.578C6.81283 299.414 6.86631 298.942 7.03743 298.427C7.45455 299.096 8.10695 299.326 8.71658 299.6C9.62567 300.016 10.4278 299.721 11.1444 299.107C11.8182 298.537 11.8396 297.759 11.6791 296.948C11.6578 296.838 11.615 296.74 11.5508 296.652C10.8342 295.633 9.95722 294.789 8.83422 294.241C8.71658 294.186 8.49198 294.252 8.35294 294.329C7.58289 294.811 6.80214 295.304 6.05348 295.83C5.43316 296.268 4.72727 296.51 4 296.729C4.42781 296.038 4.71658 295.26 5.47594 294.822C6.28877 294.405 7.05882 293.879 7.85027 293.386Z" fill="url(#paint29_linear_510_595)"/>
<path d="M9.39812 112.168C9.26121 114.259 9.04444 116.318 9.18135 118.521C11.1323 117.137 13.0034 115.809 14.8745 114.47C14.9201 114.492 14.9658 114.514 15 114.536C14.9544 114.791 14.8859 115.045 14.8517 115.3C14.7376 116.185 14.3497 116.838 13.5168 117.325C12.6497 117.835 11.8853 118.532 11.0867 119.141C10.9041 119.273 10.733 119.417 10.4934 119.606C11.0753 120.104 11.5316 120.535 12.0336 120.923C12.6611 121.421 13.3 121.919 13.9732 122.373C14.3269 122.605 14.4638 122.849 14.3383 123.236C14.2812 123.391 14.2812 123.557 14.247 123.789C14.0644 123.712 13.9047 123.668 13.7678 123.59C12.9806 123.103 12.1934 122.627 11.4175 122.129C10.6988 121.664 9.99139 121.177 9.22698 120.657C9.18135 120.823 9.13571 120.912 9.13571 121.011C9.07866 122.196 9.05585 123.369 9.38671 124.52C9.42094 124.62 9.40953 124.741 9.42094 124.852C9.46657 125.405 9.48939 125.948 9.54644 126.49C9.59207 126.9 9.53503 127.01 9.11289 126.999C8.64512 126.988 8.18875 126.933 7.72098 126.9C7.69816 126.734 7.67534 126.656 7.68675 126.59C7.9948 124.73 7.9948 122.849 8.0062 120.967C8.0062 120.491 7.97198 120.458 7.49279 120.425C7.05925 120.391 6.61429 120.402 6.18075 120.38C5.78143 120.358 5.47339 120.513 5.30225 120.867C5.13111 121.233 4.81165 121.354 4.43515 121.399C3.89892 121.476 3.3741 121.476 2.89492 121.199C2.65533 121.067 2.40433 120.889 2.26742 120.668C1.52583 119.473 2.41574 117.801 3.84188 117.646C4.56065 117.569 5.10829 117.824 5.48479 118.41C5.59888 118.576 5.69016 118.764 5.77002 118.919C6.48879 118.919 7.18475 118.919 7.91493 118.919C7.97198 116.584 7.81225 114.337 7.54984 112.079C8.21157 111.957 8.77062 111.968 9.39812 112.168ZM5.07407 119.583C5.00561 119.329 4.97138 119.063 4.8687 118.831C4.69756 118.421 4.33247 118.255 3.88752 118.377C3.37411 118.521 2.97478 118.82 2.75801 119.307C2.56406 119.749 2.67815 120.159 3.07747 120.491C3.53384 120.867 4.18415 120.978 4.54924 120.712C4.68615 120.624 4.80025 120.469 4.85729 120.325C4.95997 120.093 5.00561 119.838 5.07407 119.583Z" fill="url(#paint30_linear_510_595)"/>
<path d="M7.09465 725.474C7.19098 724.582 7.26323 723.825 7.34752 723C7.68468 723.033 8.03388 723.078 8.43124 723.123C8.39512 723.858 8.34695 724.549 8.31083 725.329C9.37048 725.385 10.3699 725.44 11.4657 725.496C11.4175 725.897 11.3573 726.276 11.2971 726.711C10.3097 726.622 9.35843 726.533 8.37104 726.443C8.37104 726.878 8.37104 727.257 8.37104 727.669C9.34639 727.714 10.2856 727.758 11.2369 727.814C11.3212 728.193 11.4055 728.55 11.4898 728.962C10.4181 728.862 9.41864 728.773 8.37104 728.683C8.32287 729.207 8.26266 729.675 8.22654 730.154C8.19041 730.511 8.47941 730.667 8.78045 730.7C9.3464 730.767 9.9003 730.912 10.5024 730.845C11.0804 730.778 11.6945 730.879 12.2965 730.946C12.7421 731.001 13.0431 731.38 12.9949 731.748C12.8505 733.018 12.718 734.289 12.8023 735.57C12.8143 735.682 12.7782 735.793 12.7782 735.882C12.718 735.916 12.6939 735.938 12.6578 735.949C11.6222 736.116 11.3934 735.893 11.4898 734.946C11.5741 734.021 11.5861 733.096 11.6343 732.082C10.4181 732.027 9.28618 731.971 8.08204 731.915C8.05796 732.138 8.02183 732.372 8.02183 732.606C8.00979 733.33 7.99775 734.055 7.98571 734.779C7.98571 734.98 7.96163 735.191 7.91346 735.392C7.80509 735.938 7.64855 736.038 7.05852 735.938C6.67319 735.882 6.49257 735.726 6.57686 735.37C6.92606 733.854 6.68524 732.339 6.72136 730.823C6.7334 730.422 6.80565 730.01 6.82974 729.608C6.85382 729.319 6.82974 729.029 6.82974 728.672C5.90255 728.617 5.02352 728.561 4.08429 728.505C4.06021 728.238 4.03612 727.959 4 727.614C4.9874 727.658 5.91458 727.703 6.90198 727.736C6.97423 727.29 7.0224 726.911 7.09465 726.488C6.05909 726.488 5.07169 726.488 4.06021 726.488C4.06021 726.053 4.06021 725.663 4.06021 725.251C5.09577 725.329 6.05909 725.396 7.09465 725.474Z" fill="url(#paint31_linear_510_595)"/>
<path d="M7.39943 7.20368C8.13231 7.11411 8.79426 7.12531 9.39711 6.94617C10.3073 6.67744 11.0402 6.15119 11.312 5.21066C11.3357 5.14347 11.3593 5.06509 11.3948 5.00911C11.974 4.24772 11.8558 3.38557 11.6194 2.5794C11.4066 1.8628 10.7919 1.35894 10.0591 1.07902C9.25526 0.76551 8.416 0.664736 7.50582 1.1462C7.48218 0.743114 7.45854 0.429608 7.44672 0.116096C8.12049 0.0713091 8.71151 0.0377186 9.29072 0.00412814C10.0945 -0.0406592 10.7683 0.284049 11.3475 0.731922C12.8132 1.85161 13.2861 3.32959 12.8369 5.0427C12.6005 5.96084 11.9503 6.67743 11.1465 7.20368C10.4255 7.68515 9.63352 8.05465 8.78244 8.52492C8.82972 8.42414 8.8179 8.44654 8.8179 8.45774C8.56966 9.27511 8.81789 9.93572 9.50349 10.4844C9.72808 10.6635 9.84629 10.977 10.0236 11.2233C10.5201 11.9176 11.0165 12.6118 11.513 13.306C11.6312 13.4739 11.7258 13.6419 11.8912 13.8882C11.2529 13.8882 10.7328 13.9106 10.2127 13.877C10.0945 13.8658 9.95267 13.6867 9.86993 13.5523C9.50349 12.9589 9.16069 12.3654 8.73515 11.7944C8.73515 12.1303 8.72333 12.4774 8.73515 12.8133C8.74697 13.0372 8.77062 13.2612 8.78244 13.4851C8.80608 13.765 8.65241 13.8882 8.35689 13.8882C8.08502 13.8882 7.81315 13.8882 7.50582 13.8882C7.50582 12.9925 7.50582 12.1415 7.50582 11.1562C7.29305 11.3577 7.12756 11.4809 7.02117 11.6264C6.63109 12.1415 6.19374 12.6341 5.8864 13.194C5.4845 13.9442 4.86983 14.0897 4.04239 13.9554C3.91237 13.5859 4.1015 13.2836 4.33791 13.0148C4.77527 12.511 5.22445 12.0071 5.64999 11.5033C6.15827 10.9098 6.71384 10.3388 7.12756 9.68939C7.35215 9.34229 7.31669 8.83843 7.36397 8.40175C7.38761 8.20021 7.30487 7.99867 7.30487 7.78593C7.32851 7.57319 7.38761 7.33805 7.39943 7.20368Z" fill="url(#paint32_linear_510_595)"/>
<defs>
<linearGradient id="paint0_linear_510_595" x1="4.60699" y1="8.31266" x2="4.60699" y2="875.478" gradientUnits="userSpaceOnUse">
<stop stop-color="#FF6F66" stop-opacity="0"/>
<stop offset="0.384002" stop-color="#FF6F66"/>
<stop offset="0.579531" stop-color="#FF6F66"/>
<stop offset="1" stop-color="#FF6F66" stop-opacity="0"/>
</linearGradient>
<linearGradient id="paint1_linear_510_595" x1="4.60699" y1="8.31266" x2="4.60699" y2="875.478" gradientUnits="userSpaceOnUse">
<stop stop-color="#FF6F66" stop-opacity="0"/>
<stop offset="0.384002" stop-color="#FF6F66"/>
<stop offset="0.579531" stop-color="#FF6F66"/>
<stop offset="1" stop-color="#FF6F66" stop-opacity="0"/>
</linearGradient>
<linearGradient id="paint2_linear_510_595" x1="4.60699" y1="8.31266" x2="4.60699" y2="875.478" gradientUnits="userSpaceOnUse">
<stop stop-color="#FF6F66" stop-opacity="0"/>
<stop offset="0.384002" stop-color="#FF6F66"/>
<stop offset="0.579531" stop-color="#FF6F66"/>
<stop offset="1" stop-color="#FF6F66" stop-opacity="0"/>
</linearGradient>
<linearGradient id="paint3_linear_510_595" x1="4.60699" y1="8.31266" x2="4.60699" y2="875.478" gradientUnits="userSpaceOnUse">
<stop stop-color="#FF6F66" stop-opacity="0"/>
<stop offset="0.384002" stop-color="#FF6F66"/>
<stop offset="0.579531" stop-color="#FF6F66"/>
<stop offset="1" stop-color="#FF6F66" stop-opacity="0"/>
</linearGradient>
<linearGradient id="paint4_linear_510_595" x1="4.60699" y1="8.31266" x2="4.60699" y2="875.478" gradientUnits="userSpaceOnUse">
<stop stop-color="#FF6F66" stop-opacity="0"/>
<stop offset="0.384002" stop-color="#FF6F66"/>
<stop offset="0.579531" stop-color="#FF6F66"/>
<stop offset="1" stop-color="#FF6F66" stop-opacity="0"/>
</linearGradient>
<linearGradient id="paint5_linear_510_595" x1="4.60699" y1="8.31266" x2="4.60699" y2="875.478" gradientUnits="userSpaceOnUse">
<stop stop-color="#FF6F66" stop-opacity="0"/>
<stop offset="0.384002" stop-color="#FF6F66"/>
<stop offset="0.579531" stop-color="#FF6F66"/>
<stop offset="1" stop-color="#FF6F66" stop-opacity="0"/>
</linearGradient>
<linearGradient id="paint6_linear_510_595" x1="4.60699" y1="8.31266" x2="4.60699" y2="875.478" gradientUnits="userSpaceOnUse">
<stop stop-color="#FF6F66" stop-opacity="0"/>
<stop offset="0.384002" stop-color="#FF6F66"/>
<stop offset="0.579531" stop-color="#FF6F66"/>
<stop offset="1" stop-color="#FF6F66" stop-opacity="0"/>
</linearGradient>
<linearGradient id="paint7_linear_510_595" x1="4.60699" y1="8.31266" x2="4.60699" y2="875.478" gradientUnits="userSpaceOnUse">
<stop stop-color="#FF6F66" stop-opacity="0"/>
<stop offset="0.384002" stop-color="#FF6F66"/>
<stop offset="0.579531" stop-color="#FF6F66"/>
<stop offset="1" stop-color="#FF6F66" stop-opacity="0"/>
</linearGradient>
<linearGradient id="paint8_linear_510_595" x1="4.60699" y1="8.31266" x2="4.60699" y2="875.478" gradientUnits="userSpaceOnUse">
<stop stop-color="#FF6F66" stop-opacity="0"/>
<stop offset="0.384002" stop-color="#FF6F66"/>
<stop offset="0.579531" stop-color="#FF6F66"/>
<stop offset="1" stop-color="#FF6F66" stop-opacity="0"/>
</linearGradient>
<linearGradient id="paint9_linear_510_595" x1="4.60699" y1="8.31266" x2="4.60699" y2="875.478" gradientUnits="userSpaceOnUse">
<stop stop-color="#FF6F66" stop-opacity="0"/>
<stop offset="0.384002" stop-color="#FF6F66"/>
<stop offset="0.579531" stop-color="#FF6F66"/>
<stop offset="1" stop-color="#FF6F66" stop-opacity="0"/>
</linearGradient>
<linearGradient id="paint10_linear_510_595" x1="4.60699" y1="8.31266" x2="4.60699" y2="875.478" gradientUnits="userSpaceOnUse">
<stop stop-color="#FF6F66" stop-opacity="0"/>
<stop offset="0.384002" stop-color="#FF6F66"/>
<stop offset="0.579531" stop-color="#FF6F66"/>
<stop offset="1" stop-color="#FF6F66" stop-opacity="0"/>
</linearGradient>
<linearGradient id="paint11_linear_510_595" x1="4.60699" y1="8.31266" x2="4.60699" y2="875.478" gradientUnits="userSpaceOnUse">
<stop stop-color="#FF6F66" stop-opacity="0"/>
<stop offset="0.384002" stop-color="#FF6F66"/>
<stop offset="0.579531" stop-color="#FF6F66"/>
<stop offset="1" stop-color="#FF6F66" stop-opacity="0"/>
</linearGradient>
<linearGradient id="paint12_linear_510_595" x1="4.60699" y1="8.31266" x2="4.60699" y2="875.478" gradientUnits="userSpaceOnUse">
<stop stop-color="#FF6F66" stop-opacity="0"/>
<stop offset="0.384002" stop-color="#FF6F66"/>
<stop offset="0.579531" stop-color="#FF6F66"/>
<stop offset="1" stop-color="#FF6F66" stop-opacity="0"/>
</linearGradient>
<linearGradient id="paint13_linear_510_595" x1="4.60699" y1="8.31266" x2="4.60699" y2="875.478" gradientUnits="userSpaceOnUse">
<stop stop-color="#FF6F66" stop-opacity="0"/>
<stop offset="0.384002" stop-color="#FF6F66"/>
<stop offset="0.579531" stop-color="#FF6F66"/>
<stop offset="1" stop-color="#FF6F66" stop-opacity="0"/>
</linearGradient>
<linearGradient id="paint14_linear_510_595" x1="4.60699" y1="8.31266" x2="4.60699" y2="875.478" gradientUnits="userSpaceOnUse">
<stop stop-color="#FF6F66" stop-opacity="0"/>
<stop offset="0.384002" stop-color="#FF6F66"/>
<stop offset="0.579531" stop-color="#FF6F66"/>
<stop offset="1" stop-color="#FF6F66" stop-opacity="0"/>
</linearGradient>
<linearGradient id="paint15_linear_510_595" x1="4.60699" y1="8.31266" x2="4.60699" y2="875.478" gradientUnits="userSpaceOnUse">
<stop stop-color="#FF6F66" stop-opacity="0"/>
<stop offset="0.384002" stop-color="#FF6F66"/>
<stop offset="0.579531" stop-color="#FF6F66"/>
<stop offset="1" stop-color="#FF6F66" stop-opacity="0"/>
</linearGradient>
<linearGradient id="paint16_linear_510_595" x1="4.60699" y1="8.31266" x2="4.60699" y2="875.478" gradientUnits="userSpaceOnUse">
<stop stop-color="#FF6F66" stop-opacity="0"/>
<stop offset="0.384002" stop-color="#FF6F66"/>
<stop offset="0.579531" stop-color="#FF6F66"/>
<stop offset="1" stop-color="#FF6F66" stop-opacity="0"/>
</linearGradient>
<linearGradient id="paint17_linear_510_595" x1="4.60699" y1="8.31266" x2="4.60699" y2="875.478" gradientUnits="userSpaceOnUse">
<stop stop-color="#FF6F66" stop-opacity="0"/>
<stop offset="0.384002" stop-color="#FF6F66"/>
<stop offset="0.579531" stop-color="#FF6F66"/>
<stop offset="1" stop-color="#FF6F66" stop-opacity="0"/>
</linearGradient>
<linearGradient id="paint18_linear_510_595" x1="4.60699" y1="8.31266" x2="4.60699" y2="875.478" gradientUnits="userSpaceOnUse">
<stop stop-color="#FF6F66" stop-opacity="0"/>
<stop offset="0.384002" stop-color="#FF6F66"/>
<stop offset="0.579531" stop-color="#FF6F66"/>
<stop offset="1" stop-color="#FF6F66" stop-opacity="0"/>
</linearGradient>
<linearGradient id="paint19_linear_510_595" x1="4.60699" y1="8.31266" x2="4.60699" y2="875.478" gradientUnits="userSpaceOnUse">
<stop stop-color="#FF6F66" stop-opacity="0"/>
<stop offset="0.384002" stop-color="#FF6F66"/>
<stop offset="0.579531" stop-color="#FF6F66"/>
<stop offset="1" stop-color="#FF6F66" stop-opacity="0"/>
</linearGradient>
<linearGradient id="paint20_linear_510_595" x1="4.60699" y1="8.31266" x2="4.60699" y2="875.478" gradientUnits="userSpaceOnUse">
<stop stop-color="#FF6F66" stop-opacity="0"/>
<stop offset="0.384002" stop-color="#FF6F66"/>
<stop offset="0.579531" stop-color="#FF6F66"/>
<stop offset="1" stop-color="#FF6F66" stop-opacity="0"/>
</linearGradient>
<linearGradient id="paint21_linear_510_595" x1="4.60699" y1="8.31266" x2="4.60699" y2="875.478" gradientUnits="userSpaceOnUse">
<stop stop-color="#FF6F66" stop-opacity="0"/>
<stop offset="0.384002" stop-color="#FF6F66"/>
<stop offset="0.579531" stop-color="#FF6F66"/>
<stop offset="1" stop-color="#FF6F66" stop-opacity="0"/>
</linearGradient>
<linearGradient id="paint22_linear_510_595" x1="4.60699" y1="8.31266" x2="4.60699" y2="875.478" gradientUnits="userSpaceOnUse">
<stop stop-color="#FF6F66" stop-opacity="0"/>
<stop offset="0.384002" stop-color="#FF6F66"/>
<stop offset="0.579531" stop-color="#FF6F66"/>
<stop offset="1" stop-color="#FF6F66" stop-opacity="0"/>
</linearGradient>
<linearGradient id="paint23_linear_510_595" x1="4.60699" y1="8.31266" x2="4.60699" y2="875.478" gradientUnits="userSpaceOnUse">
<stop stop-color="#FF6F66" stop-opacity="0"/>
<stop offset="0.384002" stop-color="#FF6F66"/>
<stop offset="0.579531" stop-color="#FF6F66"/>
<stop offset="1" stop-color="#FF6F66" stop-opacity="0"/>
</linearGradient>
<linearGradient id="paint24_linear_510_595" x1="4.60699" y1="8.31266" x2="4.60699" y2="875.478" gradientUnits="userSpaceOnUse">
<stop stop-color="#FF6F66" stop-opacity="0"/>
<stop offset="0.384002" stop-color="#FF6F66"/>
<stop offset="0.579531" stop-color="#FF6F66"/>
<stop offset="1" stop-color="#FF6F66" stop-opacity="0"/>
</linearGradient>
<linearGradient id="paint25_linear_510_595" x1="4.60699" y1="8.31266" x2="4.60699" y2="875.478" gradientUnits="userSpaceOnUse">
<stop stop-color="#FF6F66" stop-opacity="0"/>
<stop offset="0.384002" stop-color="#FF6F66"/>
<stop offset="0.579531" stop-color="#FF6F66"/>
<stop offset="1" stop-color="#FF6F66" stop-opacity="0"/>
</linearGradient>
<linearGradient id="paint26_linear_510_595" x1="4.60699" y1="8.31266" x2="4.60699" y2="875.478" gradientUnits="userSpaceOnUse">
<stop stop-color="#FF6F66" stop-opacity="0"/>
<stop offset="0.384002" stop-color="#FF6F66"/>
<stop offset="0.579531" stop-color="#FF6F66"/>
<stop offset="1" stop-color="#FF6F66" stop-opacity="0"/>
</linearGradient>
<linearGradient id="paint27_linear_510_595" x1="4.60699" y1="8.31266" x2="4.60699" y2="875.478" gradientUnits="userSpaceOnUse">
<stop stop-color="#FF6F66" stop-opacity="0"/>
<stop offset="0.384002" stop-color="#FF6F66"/>
<stop offset="0.579531" stop-color="#FF6F66"/>
<stop offset="1" stop-color="#FF6F66" stop-opacity="0"/>
</linearGradient>
<linearGradient id="paint28_linear_510_595" x1="4.60699" y1="8.31266" x2="4.60699" y2="875.478" gradientUnits="userSpaceOnUse">
<stop stop-color="#FF6F66" stop-opacity="0"/>
<stop offset="0.384002" stop-color="#FF6F66"/>
<stop offset="0.579531" stop-color="#FF6F66"/>
<stop offset="1" stop-color="#FF6F66" stop-opacity="0"/>
</linearGradient>
<linearGradient id="paint29_linear_510_595" x1="4.60699" y1="8.31266" x2="4.60699" y2="875.478" gradientUnits="userSpaceOnUse">
<stop stop-color="#FF6F66" stop-opacity="0"/>
<stop offset="0.384002" stop-color="#FF6F66"/>
<stop offset="0.579531" stop-color="#FF6F66"/>
<stop offset="1" stop-color="#FF6F66" stop-opacity="0"/>
</linearGradient>
<linearGradient id="paint30_linear_510_595" x1="4.60699" y1="8.31266" x2="4.60699" y2="875.478" gradientUnits="userSpaceOnUse">
<stop stop-color="#FF6F66" stop-opacity="0"/>
<stop offset="0.384002" stop-color="#FF6F66"/>
<stop offset="0.579531" stop-color="#FF6F66"/>
<stop offset="1" stop-color="#FF6F66" stop-opacity="0"/>
</linearGradient>
<linearGradient id="paint31_linear_510_595" x1="4.60699" y1="8.31266" x2="4.60699" y2="875.478" gradientUnits="userSpaceOnUse">
<stop stop-color="#FF6F66" stop-opacity="0"/>
<stop offset="0.384002" stop-color="#FF6F66"/>
<stop offset="0.579531" stop-color="#FF6F66"/>
<stop offset="1" stop-color="#FF6F66" stop-opacity="0"/>
</linearGradient>
<linearGradient id="paint32_linear_510_595" x1="4.60699" y1="8.31266" x2="4.60699" y2="875.478" gradientUnits="userSpaceOnUse">
<stop stop-color="#FF6F66" stop-opacity="0"/>
<stop offset="0.384002" stop-color="#FF6F66"/>
<stop offset="0.579531" stop-color="#FF6F66"/>
<stop offset="1" stop-color="#FF6F66" stop-opacity="0"/>
</linearGradient>
</defs>
</svg>
