<svg width="474" height="138" viewBox="0 0 474 138" fill="none" xmlns="http://www.w3.org/2000/svg">
<g filter="url(#filter0_d_510_434)">
<path d="M363.144 49.8393C362.002 48.9846 361.553 48.9644 360.179 48.5534C358.883 48.1652 356.548 48.1626 355.237 48.566C354.529 48.7829 353.82 48.9921 353.041 49.2266C352.678 49.0174 352.227 48.8384 351.725 48.8232C351.554 49.1182 352.34 58.0638 352.668 58.3537C352.499 58.747 350.833 63.9031 350.921 64.5964C351.067 64.7881 351.234 65.0074 351.392 65.2116C351.576 66.0159 351.594 66.8177 351.493 67.6522C351.985 68.0708 353.092 72.6394 353.175 73.2319C353.339 74.3866 352.451 83.0347 352.774 84.0432C352.439 84.7643 353.339 90.6515 354.062 96.1958C352.933 95.7042 351.932 94.8394 351.876 94.7889C351.395 94.6503 350.855 93.203 350.364 93.0619C349.938 93.3342 349.728 93.8435 349.383 94.2267C349.03 94.6175 348.71 95.036 348.334 95.4924C348.251 95.863 345.863 102.635 345.785 103.059C345.477 104.738 344.325 107.864 344.058 108.752C343.629 110.174 342.404 113.994 342.343 113.994C342.094 113.716 341.635 108.754 341.741 107.771C341.917 106.142 343.342 95.9765 343.455 95.089C343.829 92.1693 343.647 83.9902 343.652 83.4935C343.667 82.1623 344.436 71.9586 344.071 70.6475C343.755 69.5205 343.319 66.5757 343.266 66.2983C342.853 65.8159 342.551 65.2553 342.361 64.6166C343.672 63.7417 345.225 63.2627 346.655 62.3121C345.553 62.2542 344.58 62.2012 343.556 62.1457C343.45 60.9607 343.43 52.6505 343.271 51.4933C343.072 51.3849 342.964 51.5286 342.858 51.6143C342.28 52.0807 340.036 53.6641 339.779 53.4901C339.57 53.3464 342.154 47.9937 343.112 46.2969C343.188 46.1633 343.249 46.0221 343.322 45.8733C343.261 45.3867 343.244 44.9127 343.097 44.4236C342.908 43.7882 343.294 42.2805 343.344 42.2099C343.834 41.514 343.879 40.6971 343.937 39.9029C344.071 38.1102 343.796 33.5366 343.755 33.0374C343.478 32.7298 343.211 32.4348 342.913 32.102C342.954 30.8918 343.062 27.8637 342.984 27.609C342.618 26.419 340.031 22.8161 339.981 22.4706C339.994 22.0521 341.632 20.6528 342.021 20.0905C342.974 18.7114 344.822 14.4756 345.261 13.9562C345.624 14.1151 348.826 17.1457 350.359 17.5213C350.568 17.5718 351.887 17.7861 352.111 17.8844C352.542 17.7357 356.42 16.2859 357.819 15.5573C358.202 15.3581 358.596 15.3606 358.994 15.4413C361.054 15.8598 364.158 16.0968 366.195 16.6338C366.919 16.8255 368.035 16.8255 368.92 16.7019C369.672 16.2178 373.068 15.1942 374.447 11.5181C374.578 11.8459 378.38 7.71603 378.469 8.0085C378.562 8.30853 378.569 8.61613 378.461 8.92373C378.224 9.60196 377.256 16.0287 376.696 16.6868C376.356 17.0877 375.942 17.4356 375.655 17.8693C375.37 18.3029 375.201 18.8122 374.969 19.3089C374.523 19.5838 372.276 22.5312 371.182 23.3279C370.584 23.7615 370.368 24.3742 370.39 25.1104C370.418 26.0685 369.785 29.7168 369.44 30.6018C368.129 31.8625 366.157 33.05 366.303 32.5483C366.45 32.044 366.392 25.892 365.481 25.6752C364.821 25.5164 361.374 25.123 360.885 24.8079C360.686 24.6793 354.612 23.1766 354.254 23.2674C354.032 23.6935 352.557 25.171 352.398 25.6752C351.909 27.2132 351.513 28.7688 351.617 30.4102C351.667 31.1817 351.781 36.31 351.781 36.7664C351.365 37.0059 349.713 38.1657 349.307 38.496C348.947 38.791 348.432 38.8893 348.14 39.3835C348.609 39.4995 348.904 39.1818 349.259 39.1288C349.655 39.0709 351.173 38.975 351.518 39.0078C351.879 40.3139 351.738 42.6965 351.559 43.9622C351.67 44.242 357.486 43.7554 357.607 43.7352C358.457 43.5814 365.06 41.9048 368.267 42.5805C369.067 42.7494 371.301 41.3451 371.709 41.103C371.82 41.2291 371.583 43.1427 371.159 43.9496C370.423 45.3514 368.388 50.1267 367.677 52.0076C367.382 52.7867 366.828 55.0735 366.772 55.3382C366.392 55.7744 365.219 57.2746 364.957 57.6553C364.405 57.6175 364.702 54.7911 364.869 54.0095C365.068 53.064 363.757 50.2982 363.142 49.8393H363.144Z" fill="url(#paint0_linear_510_434)" shape-rendering="crispEdges"/>
<path d="M214.495 61.9683C214.387 61.4439 214.465 60.9018 214.581 60.3497C214.77 59.442 214.886 58.5192 215.055 57.609C215.12 57.2611 215.082 56.9283 214.974 56.6055C214.399 54.9112 214.596 53.174 214.677 51.447C214.689 51.2074 214.808 50.973 214.878 50.7259C215.488 50.3073 215.839 49.6947 216.164 49.0593C216.262 48.8702 216.391 48.6962 216.507 48.5147C216.691 48.2298 216.885 47.9524 217.059 47.66C218.02 46.0413 219.016 44.4478 220.118 42.8897C220.244 42.8796 220.365 42.8519 220.481 42.867C220.564 42.8771 220.639 42.9452 220.697 42.9754C220.735 43.0586 220.781 43.1116 220.786 43.167C220.823 43.6562 220.854 44.1453 220.899 44.8487C220.859 44.995 220.753 45.3505 220.672 45.711C220.526 46.3565 220.511 46.9918 220.753 47.6297C220.929 48.0886 221.086 48.5525 221.295 49.0038C221.502 49.445 221.592 49.9443 221.701 50.4258C221.809 50.9074 221.882 51.389 222.051 51.863C222.235 52.3798 222.271 52.9496 222.372 53.4867C222.538 53.7212 222.697 53.9481 222.851 54.1624C222.914 54.9112 223.11 55.65 222.614 56.366C222.808 56.4744 222.954 56.5778 223.115 56.6408C223.486 56.782 223.728 57.0442 223.862 57.4073C224 57.7855 224.126 58.1662 224.257 58.5469C224.288 58.6352 224.278 58.7537 224.333 58.8117C224.86 59.3437 224.757 59.9941 224.694 60.6396C224.689 60.7001 224.701 60.7631 224.709 60.8489C224.893 61.1792 225.077 61.5321 225.281 61.8725C225.526 62.281 225.624 62.7323 225.674 63.1912C225.775 64.0812 225.899 64.9611 226.186 65.8158C226.254 66.0175 226.247 66.2419 226.28 66.5067C226.776 66.7134 226.63 67.4849 227.25 67.6261C227.586 68.6346 227.502 69.7213 227.999 70.6491C228.09 71.4887 228.178 72.3182 228.274 73.2209C228.377 73.3469 228.526 73.531 228.713 73.7554C228.834 73.7352 230.752 69.9936 231.015 69.2649C231.852 66.9353 232.689 64.6056 233.526 62.2784C233.609 62.0465 233.687 61.8095 233.801 61.5876C234.688 59.8353 235.306 57.9998 235.639 56.0609C235.876 54.6868 236.244 53.3455 236.743 52.0395C236.851 51.7546 236.932 51.4419 236.94 51.1368C236.977 49.7753 237.288 48.4315 237.194 47.0599C237.177 46.8204 237.25 46.5682 237.308 46.3287C237.461 45.6984 237.88 45.3152 238.493 45.1462C238.79 45.0656 239.098 44.9899 239.403 44.9748C240.066 44.9445 240.689 44.758 241.291 44.5235C242.186 44.1781 243.059 43.7772 243.941 43.4015C244.766 43.051 245.588 42.688 246.422 42.3627C247.171 42.0703 247.94 41.8307 248.691 41.5458C249.44 41.2609 251.377 40.497 251.545 40.7012C251.679 40.86 252.433 44.3193 252.529 44.5714C253.061 45.9984 253.691 47.3725 254.684 48.5525C255.801 49.8787 256.891 51.2301 258.015 52.5538C258.9 53.5951 259.861 54.5608 261.051 55.2642C261.333 55.4306 261.505 55.6802 261.552 56.008C261.598 56.3131 261.679 56.6181 261.676 56.9232C261.671 57.5182 261.772 58.0881 261.89 58.6679C262.047 59.4243 262.125 60.1959 262.233 60.9598C262.299 61.4187 262.344 61.8801 262.43 62.3339C262.556 63.0021 262.695 63.6702 262.853 64.3308C262.969 64.8073 263.058 65.304 263.411 65.7276H264.306C264.729 66.0755 265.024 66.5142 265.244 66.9731C265.551 67.6185 265.851 68.2438 266.502 68.6145C266.749 69.0103 267.162 69.2448 267.462 69.5826C267.745 69.8978 267.901 70.3239 268.153 70.6693C268.398 71.0021 268.458 71.3929 268.582 71.7636C268.657 71.9905 268.731 72.2174 268.806 72.4493H269.51C270.281 73.183 270.69 74.2243 271.565 74.8647C271.771 74.7513 271.738 74.5521 271.736 74.3781C271.718 73.0469 271.741 71.7131 271.655 70.3844C271.602 69.5473 271.655 68.7204 271.678 67.8883C271.698 67.2429 271.779 66.5873 271.421 65.9948C271.396 65.4376 271.35 64.8829 271.345 64.3257C271.335 62.934 271.343 61.5397 271.343 60.1076C270.954 59.6513 270.521 59.2201 269.951 58.9125C269.928 58.7991 269.906 58.6831 269.883 58.5621C270.135 58.1939 270.551 58.0981 270.904 57.8611C271.295 57.3569 271.36 56.8022 271.201 56.1416C271.015 55.3575 271.035 54.5431 271.297 53.7237C271.073 53.174 271.174 52.5336 270.869 51.9613C270.758 51.752 270.831 51.4091 270.899 51.1469C271.007 50.7284 269.676 47.897 269.663 47.2591C269.774 47.0649 271.007 45.2925 271.529 44.8033C273.508 42.9578 275.256 40.913 276.698 38.6136C276.829 38.4043 276.94 38.1673 277.114 38.0009C277.694 37.4412 277.951 36.71 278.226 35.9889C278.71 34.7156 280.059 31.327 280.152 31.2791C280.538 31.4581 280.318 38.9691 280.225 39.9398C279.234 41.6467 278.624 43.5654 277.921 45.4463C277.772 45.8446 277.737 46.2934 277.699 46.7221C277.626 47.5238 277.6 48.3306 277.53 49.1324C277.459 49.9342 277.409 50.741 277.258 51.5302C277.149 52.1 276.945 52.6698 276.688 53.1917C276.12 54.3414 275.747 55.5441 275.48 56.7896C275.427 57.0316 275.379 57.2737 275.316 57.5132C275.102 58.3276 275.046 59.1495 275.057 59.9941C275.084 62.4398 275.283 64.8829 275.2 67.3311C275.195 67.4547 275.19 67.5807 275.205 67.7017C275.432 69.5246 275.344 71.3475 275.23 73.173C275.203 73.5991 275.278 74.0327 275.329 74.4613C275.462 75.6337 275.417 76.8112 275.425 77.9886C275.425 78.3593 275.425 78.7299 275.425 79.1232C276.186 79.8821 276.776 80.7545 277.227 81.7101C277.822 82.9682 278.4 84.2364 278.705 85.6055C278.828 86.1601 278.954 88.0612 278.778 88.6184C278.405 89.7959 277.424 89.8866 277.089 91.0641C276.864 91.1271 277.101 88.9865 276.378 88.4394C275.81 88.0108 274.641 87.7208 274.199 87.151C273.952 86.8308 273.027 86.614 272.732 86.3518C271.791 85.5122 270.523 83.5153 269.613 82.653C269.434 82.4841 269.255 82.3026 269.046 82.179C266.998 80.9814 265.221 79.4359 263.471 77.86C262.299 76.8036 259.334 75.1522 259.286 74.2647C259.266 73.8814 258.572 72.6057 258.421 72.2628C258.166 71.6854 258.055 71.0778 258.131 70.4474C258.282 69.217 257.934 68.0497 257.665 66.8773C257.511 66.2041 257.019 65.6973 256.618 65.1578C256.528 65.0367 256.376 64.9535 256.303 64.8249C255.693 63.7584 254.921 62.8054 254.223 61.8019C253.626 60.9472 253 60.1101 252.408 59.2504C252.077 58.7713 251.654 58.3578 251.177 58.02C250.91 57.8309 250.681 57.614 250.62 57.314C250.451 56.4921 249.821 55.9475 249.45 55.2062C249.009 55.3625 248.835 55.6676 248.873 56.0685C248.928 56.6812 248.951 57.314 249.13 57.8939C249.359 58.6352 249.291 59.3588 249.249 60.095C249.226 60.4934 249.186 60.8943 249.193 61.2951C249.201 61.7263 249.271 62.1574 249.281 62.5911C249.327 64.419 249.375 66.2444 249.397 68.0724C249.435 71.4484 249.445 74.8269 249.493 78.2055C249.503 78.9417 249.506 79.6905 249.839 80.4318C249.73 81.4831 250.804 82.9152 251.079 83.9086C251.351 84.186 250.058 85.6332 249.879 85.6861C249.889 85.85 250.045 86.6316 250.058 86.8434C248.694 87.567 247.085 89.0571 245.968 90.0455C244.004 91.7826 242.779 92.3802 241.193 94.5712C241.105 94.5762 240.432 92.6096 240.706 91.6818C240.979 90.759 241.107 89.7959 241.052 88.8352C241.011 88.1091 241.264 87.509 241.614 86.9115C242.101 86.0845 242.57 85.2474 243.041 84.4104C243.132 84.249 243.2 84.075 243.276 83.9162C243.313 81.6319 243.702 79.4081 244.115 77.1843C244.224 76.6044 244.277 76.0296 244.224 75.4346C244.186 75.011 244.221 74.5622 244.312 74.1462C244.718 72.2729 245.162 70.4046 245.58 68.5338C245.653 68.206 245.709 67.8631 245.711 67.5278C245.726 66.1335 245.719 64.7392 245.716 63.3449C245.716 63.1912 245.731 63.0298 245.704 62.881C245.421 61.4086 245.527 59.9185 245.504 58.436C245.494 57.7855 245.504 57.135 245.504 56.4845C245.504 55.9601 245.52 55.4382 245.361 54.9213C245.28 54.6616 245.295 54.3691 245.285 54.0918C245.26 53.348 245.23 52.6068 245.232 51.863C245.232 51.4016 245.285 50.9377 245.318 50.446C245.146 50.1888 244.962 49.9165 244.728 49.5661C243.871 50.8419 242.935 51.9537 242.328 53.29C241.571 54.9541 240.724 56.5728 239.801 58.1511C239.521 58.6326 239.239 59.1167 238.914 59.5681C238.525 60.1026 238.22 60.6648 238.099 61.3204C238.077 61.4414 238.026 61.5574 237.976 61.6708C237.398 62.9718 236.821 64.2703 236.241 65.5713C235.913 66.305 235.555 67.026 235.26 67.7723C235.081 68.2262 234.993 68.7153 234.859 69.2145C234.716 69.3658 234.459 69.4389 234.413 69.7314C234.348 70.155 234.239 70.5735 234.151 70.9769C234 71.1156 233.864 71.2366 233.753 71.3375C233.715 71.4333 233.677 71.4887 233.672 71.5467C233.619 72.172 233.4 72.7368 233.13 73.3015C232.762 74.0781 232.457 74.8824 232.147 75.6842C231.985 76.1052 231.713 76.4708 231.632 76.9372C231.559 77.3533 231.332 77.7415 231.216 78.1525C231.1 78.5685 231.032 78.9997 230.954 79.4258C230.583 81.468 230.258 83.5153 230.117 85.5853C230.092 85.9559 230.061 86.3366 230.125 86.6972C230.225 87.2821 230.125 87.8015 229.819 88.2982C229.772 88.3764 229.739 88.4646 229.666 88.6134C229.764 89.1025 229.431 89.9623 230.609 91.5557C230.44 91.7927 228.342 90.8775 227.858 90.164C227.598 89.7807 227.316 89.4126 227.059 89.0269C226.822 88.6663 226.564 88.3108 226.385 87.92C225.78 86.5913 225.425 85.1869 225.153 83.7523C224.885 82.3454 224.394 81.0091 223.471 79.8746C223.393 79.7788 223.322 79.6779 223.269 79.6048C223.042 79.0753 223.067 78.5408 223.037 78.0164C223.014 77.6457 223.017 77.2675 222.944 76.907C222.878 76.5792 222.725 76.2666 222.596 75.906C222.611 75.669 222.631 75.3942 222.656 75.016C222.442 74.6983 222.203 74.3025 221.92 73.9394C221.663 73.6091 221.492 73.2612 221.497 72.8275C221.303 72.6258 221.113 72.4267 220.884 72.1871C220.934 71.935 220.987 71.6703 221.078 71.2114C221.055 70.8004 220.942 70.2029 220.619 69.6608C220.657 68.9977 220.254 68.4909 219.996 67.9362C219.737 67.3815 219.439 66.842 219.099 66.1789V65.3216L217.959 64.3459C217.483 65.0065 217.173 65.6948 217.105 66.484C217.087 66.6958 217.044 66.9378 216.923 67.1017C216.62 67.5177 216.492 67.9967 216.411 68.4783C216.265 69.3759 215.834 70.1701 215.551 71.0173C215.166 72.1871 214.651 73.3141 214.223 74.4689C214.001 75.0665 213.726 75.6463 213.592 76.2817C213.537 76.549 213.461 76.854 213.287 77.0457C212.866 77.5146 212.791 78.092 212.654 78.6568C212.533 79.1686 212.423 79.6829 212.276 80.1872C211.943 81.347 211.58 82.4967 211.255 83.659C211.147 84.0423 211.081 84.4457 211.058 84.844C211.003 85.7366 210.11 86.6442 210.214 87.5544C210.249 87.8671 210.179 90.7918 209.926 90.5976C209.735 90.4489 207.894 87.7309 207.385 87.1838C206.959 86.7249 206.687 86.1627 206.49 85.5702C206.268 84.8945 206.059 84.2162 205.839 83.5405C205.658 82.9758 205.527 82.4034 205.56 81.8084C205.625 80.6083 204.004 77.5877 203.966 77.5323C203.6 76.6977 204.564 77.0457 204.899 76.4834C204.74 76.2212 204.511 76.08 204.246 75.9766C204.017 75.8859 203.797 75.7674 203.575 75.659C203.104 75.427 202.791 75.0639 202.665 74.5471C202.403 73.4831 199.937 68.2337 199.99 67.9539C201.432 68.6573 201.672 67.4244 203.548 69.7768C203.719 69.5852 201.858 67.5 201.674 67.4244C200.688 67.0235 199.433 65.6192 198.825 64.7745C198.339 64.0963 198.069 63.3601 198.119 62.518C198.157 61.8977 198.149 61.28 197.95 60.6825C197.804 60.2463 197.648 59.8101 197.474 59.3033C196.969 58.8142 196.427 58.2645 195.855 57.7426C195.437 57.3619 195.119 56.9081 194.821 56.4366C194.708 56.2576 194.574 56.0231 194.605 55.8391C194.683 55.36 194.436 54.939 194.431 54.4372C194.698 53.933 195.21 53.5069 195.24 52.8135C195.179 52.7303 195.111 52.632 195.038 52.5336C194.38 52.4983 194.156 53.2169 193.523 53.3203L193.019 53.0656C192.837 52.3395 192.323 51.9033 191.783 51.4722C190.795 50.6805 189.832 49.8585 188.871 49.0593C188.939 48.8046 191.448 47.9323 192.315 47.602C192.545 47.5137 192.784 47.4154 193.024 47.3952C193.641 47.3423 194.125 47.0549 194.592 46.6691C195.116 46.2354 195.684 45.8573 196.233 45.4538C196.432 45.3076 196.647 45.1765 196.831 45.0126C197.713 44.2361 200.943 41.6265 201.145 41.6265C201.208 41.7299 201.954 43.4923 201.823 43.9436C201.624 44.6143 201.707 45.29 201.737 45.9707C201.81 47.6474 202.201 49.2786 202.41 50.9351C202.471 51.4041 202.627 51.8403 202.892 52.2286C203.492 53.111 203.863 54.0918 204.163 55.1054C204.216 55.2844 204.271 55.4609 204.317 55.6399C204.765 57.4476 205.514 59.152 206.175 60.8867C206.78 62.4776 207.377 64.0686 207.98 65.6595C208.068 65.8915 208.167 66.1159 208.245 66.31C210.398 68.3775 210.426 68.912 210.852 71.4711C210.96 71.3702 212.125 69.3078 212.435 68.2564C212.811 66.9832 213.292 65.7377 213.711 64.477C213.986 63.6551 214.233 62.8256 214.505 61.9633L214.495 61.9683Z" fill="url(#paint1_linear_510_434)" shape-rendering="crispEdges"/>
<path d="M128.148 14.6872C128.503 14.8688 128.758 14.9948 129.007 15.1234C131.652 16.4899 134.388 17.627 137.136 18.7389C139.037 19.5079 140.744 20.8745 142.733 21.3258C143.893 21.588 145.033 21.9536 146.188 22.241C147.282 22.5133 149.619 22.8638 149.732 22.9117C149.914 23.2722 150.476 25.9423 150.796 26.8272C151.041 27.5055 151.278 28.1837 151.512 28.8645C151.848 29.8452 153.018 32.0035 153.088 32.127C153.048 32.8481 150.93 38.0042 150.552 39.3783C150.406 39.9052 149.861 41.5844 149.364 41.6272C149.16 41.5037 147.327 37.2503 146.561 35.3291C146.309 34.6962 145.988 34.1415 145.408 33.7507C144.612 33.2137 142.753 31.3076 142.448 31.0882C141.753 30.589 141.039 30.115 140.328 29.636C139.413 29.0183 133.568 26.1894 132.121 25.6675C132.03 25.3498 131.904 25.022 131.851 24.6892C131.708 23.7992 131.743 24.0538 131.64 23.1562C131.587 22.6974 131.105 21.0182 131.092 21.1165C131.045 21.5401 131.004 21.9662 130.994 22.3948C130.969 23.6227 130.45 23.7815 130.442 25.0094C130.442 25.3548 130.402 25.6801 130.233 25.97C129.981 26.1969 129.66 26.1692 129.355 26.1818C128.768 26.207 126.108 26.1213 125.425 25.7456C124.867 25.438 124.29 25.1985 123.64 25.0901L123.158 25.2792C123.039 25.67 122.926 26.0431 122.813 26.4163C122.649 26.4919 122.523 26.5877 122.379 26.6104C121.007 26.8348 116.658 29.8301 115.523 30.3344C115.196 30.4806 114.883 30.6823 114.618 30.9168C113.403 31.9959 111.346 33.0952 110.143 34.1869C110.1 34.2272 110.07 34.2827 109.949 34.4441C109.193 37.4041 108.925 40.4952 108.146 43.5888C107.834 44.8268 107.561 46.0748 107.276 47.3203C107.173 47.7666 107.148 48.2204 107.173 48.6894C107.254 50.2929 106.391 59.0267 106.311 60.5269C106.265 61.3816 107.054 68.1261 107.085 68.9909C107.102 69.543 107.191 76.7716 107.392 77.7145C107.975 80.4375 109.306 82.4395 110.544 84.9658C110.794 85.4751 111.182 87.835 111.588 88.2611C111.885 88.5763 114.056 92.8045 115.251 93.4298C116.595 94.1332 128.78 99.3145 132.459 99.8944C133.745 99.0724 144.367 98.0891 145.572 97.2823C146.624 96.5763 151.722 94.3753 154.566 92.1389C154.024 93.4903 153.045 97.7185 152.261 98.6236C151.928 99.0069 151.936 101.594 151.621 102.07C150.206 102.9 148.031 103.089 146.551 103.911C144.463 105.071 141.889 106.097 139.647 106.972C138.374 107.468 132.971 110.443 132.567 111.16C132.003 110.723 123.473 106.664 121.161 105.731C120.082 105.295 118.96 104.985 117.851 104.637C114.888 103.707 112.117 102.37 109.538 100.583C108.434 99.8187 104.019 96.9218 102.778 95.8855C102.741 95.3031 101.049 90.263 101.127 89.7865C101.437 89.5545 103.474 88.6973 103.794 87.9359C103.502 87.9611 100.479 87.5602 99.8461 86.7332C99.7125 86.181 99.2561 84.1791 99.2082 83.5665C99.1124 82.2983 99.5108 80.1778 99.1754 78.9374C98.5249 76.5295 96.9441 66.2124 96.9794 64.8534C97.2265 64.6265 99.1225 66.4317 99.3645 66.2099C99.367 65.3778 98.4342 64.0063 98.0257 63.3003C97.8064 62.9221 97.8013 62.549 97.8593 62.1355C98.1442 60.0781 98.4342 52.8899 98.5249 51.8208C98.6107 50.8148 99.4124 43.0518 99.4629 42.3483C99.5587 41.0625 100.718 32.8279 100.797 31.885C101.979 31.1916 103.091 30.531 104.213 29.8856C105.789 28.9804 107.092 27.6315 107.937 25.9977C108.176 25.5338 113.03 22.0368 113.403 21.651C113.764 21.2779 127.411 14.9419 128.15 14.6797L128.148 14.6872Z" fill="url(#paint2_linear_510_434)" shape-rendering="crispEdges"/>
<path d="M392.175 64.279C392.505 63.8327 393.488 62.7007 393.617 62.5065C393.438 62.3502 392.548 61.3493 390.084 60.9912C390.178 60.7996 391.789 57.6455 391.885 56.9748C392.084 55.5679 392.371 54.1737 392.633 52.7189C392.802 52.5676 393.009 52.3835 393.191 52.2197C394.552 52.0835 395.838 51.8087 397.126 51.1884C396.97 51.0624 396.874 50.959 396.756 50.896C395.946 50.4674 395.089 50.2505 394.166 50.3236C393.861 50.3489 393.554 50.3287 393.226 50.3287C392.964 49.7664 393.077 47.5477 393.077 46.9073C392.888 46.577 392.275 43.6851 392.339 43.2237C392.429 42.5555 392.311 41.9277 392.076 41.3125C392.205 36.8902 389.532 35.1883 388.511 34.9765C389.605 34.1218 391.454 34.2882 391.693 34.2252C392.076 34.2479 392.384 34.4546 392.707 34.6437C393.587 35.1581 394.469 35.6724 395.369 36.154C396.168 36.5826 397.063 36.7591 397.938 36.9255C398.906 37.1095 403.16 36.8851 404.128 36.1842C404.403 35.985 408.664 34.0815 408.813 33.973C409.299 35.0622 410.827 36.6809 412.158 37.5129H412.857C412.95 37.5457 413.011 37.5583 413.066 37.5861C413.671 37.8861 414.107 38.3601 414.435 38.9375C417.405 43.3649 416.631 44.9407 420.355 47.9486C419.238 48.4629 418.225 51.4658 417.423 52.4491C416.949 53.029 416.611 53.6896 416.243 54.3275C415.923 54.8796 415.673 55.4595 415.212 55.931C414.965 56.1806 414.856 56.5689 414.728 56.8135C413.686 57.7993 412.753 58.7649 411.921 59.7684C411.843 60.3685 412.065 60.8601 412.184 61.3694C412.252 61.6569 412.433 61.8787 412.67 62.025C413.434 62.4939 414.211 62.9478 414.987 63.3966C415.146 63.4873 415.333 63.5302 415.504 63.5983C415.827 63.7277 416.128 64.0042 416.407 64.4278C416.888 64.5614 417.342 64.806 417.4 65.5119C417.39 65.5623 417.37 65.6834 417.34 65.8019C417.191 66.4272 417.254 67.0323 417.524 67.6147C417.912 68.4568 418.31 69.2964 418.686 70.1461C419.349 71.6462 420.017 73.1439 420.648 74.6592C420.932 75.3424 421.139 76.0585 421.371 76.7645C421.497 77.1502 421.674 77.5032 421.933 77.8209C422.42 78.4184 422.879 79.0387 423.36 79.6387C423.766 80.1455 424.841 81.3179 424.954 81.4087C425.004 81.3482 425.738 78.6806 426.275 77.4276C426.91 75.9425 427.296 74.3793 427.629 72.8035C427.687 72.5337 427.695 72.2488 427.695 71.9715C427.7 68.9963 427.695 66.0212 427.707 63.0461C427.707 62.5393 427.594 62.0704 427.407 61.551C427.241 61.5863 425.794 61.6644 424.22 62.2973C424.2 62.1712 426.416 59.2591 426.903 58.7826C427.387 58.3061 427.896 57.8573 428.36 57.4286C428.461 56.8664 428.481 56.3848 428.34 55.8932C428.275 55.6612 428.259 55.4066 428.254 55.162C428.242 54.5418 428.252 53.9215 428.252 53.2458C428.153 53.0769 428.032 52.8651 427.911 52.6533C427.783 51.7709 427.332 49.895 427.712 49.0706C428.481 48.8336 429.341 46.1837 429.008 46.1559C428.786 45.8736 427.029 47.7519 426.787 47.4418C426.88 47.3258 427.344 45.392 427.44 45.2533C427.44 44.5499 427.44 43.8363 427.44 43.1253C427.44 42.9715 427.44 42.8127 427.402 42.6639C427.241 42.0361 425.194 36.9557 423.247 34.921C425.94 34.5479 425.607 36.0355 428.151 36.0355C428.529 35.98 429.049 35.9018 429.601 35.8186C430.824 36.3758 432.107 36.2195 433.388 35.9296C434.729 35.627 435.972 35.0799 437.124 34.3311C437.51 34.0789 438.433 33.3982 438.808 33.1561C438.808 33.7638 438.819 34.6614 438.967 35.2513C439.156 35.2917 439.33 35.3497 439.509 35.3648C440.281 35.4228 441.055 35.4732 441.826 35.5186C441.95 35.5262 442.079 35.5236 442.195 35.4883C442.981 35.2539 443.791 35.332 444.592 35.2892C445.023 35.2665 445.452 35.1782 445.876 35.0975C446.816 34.916 447.767 34.7622 448.692 34.5176C450.013 34.1697 451.259 33.6175 452.446 32.9368C452.623 32.8359 452.814 32.7628 453.107 32.6267C452.973 33.2746 452.865 33.8066 452.754 34.3412C452.484 35.6321 452.534 36.9255 452.739 38.2189C452.756 38.3324 452.814 38.4408 452.857 38.5492C452.983 38.8618 453.114 39.172 453.25 39.5073C453.003 39.888 452.784 40.2612 452.532 40.6091C452.227 41.0276 452.103 41.489 452.098 42.0008C452.091 42.5581 452.058 43.1153 452.038 43.5867C451.665 44.3608 451.339 45.0592 450.991 45.7475C450.88 45.9643 450.729 46.1711 450.555 46.3425C450.464 46.4333 450.288 46.4408 450.079 46.5089C450.104 45.5735 449.637 44.8676 449.3 44.1339C449.393 43.9927 449.471 43.8767 449.584 43.7027C449.325 43.6624 449.148 43.6346 448.909 43.5993C448.092 42.6085 446.917 42.2933 445.661 42.1294C444.59 41.9882 443.516 41.8168 442.459 41.5899C441.61 41.4083 440.788 41.5319 439.973 41.6907C439.257 41.8294 438.564 41.8143 437.853 41.7386C437.424 41.6932 436.981 41.6403 436.565 41.7084C436.063 41.7916 435.586 41.7966 435.095 41.6479C434.933 41.7538 434.782 41.8521 434.633 41.9504C434.432 42.674 434.469 43.3926 434.674 44.0633C435.027 45.2205 434.918 46.3904 434.923 47.5603C434.923 47.7696 434.835 47.9814 434.769 48.1881C434.595 48.7226 434.537 49.2672 434.56 49.8295C434.583 50.3867 434.565 50.9439 434.565 51.5036C434.565 51.9045 434.52 52.3003 434.454 52.6987C434.323 53.5181 434.26 54.3552 434.467 55.2654C434.444 55.3183 434.389 56.0167 434.439 56.2184C434.548 56.2512 434.638 56.3041 434.721 56.2991C435.77 56.2109 436.817 56.1075 437.863 56.0167C439 55.9159 440.132 55.7116 441.254 55.7747C441.441 55.8957 441.592 55.9966 441.746 56.0949C441.844 56.0898 441.942 56.1024 442.028 56.0747C442.739 55.8604 443.435 55.5629 444.159 55.4419C444.885 55.3208 445.641 55.3889 446.38 55.341C446.904 55.3057 447.429 55.2376 447.943 55.1317C448.238 55.0712 448.566 54.9653 448.788 54.7762C449.393 54.2594 450.989 52.8777 451.624 52.5298C452.043 52.5575 450.495 54.7359 450.364 55.3637C450.414 55.4393 450.664 56.5487 450.737 56.6521C450.495 56.9219 450.255 57.1992 450.003 57.469C449.34 58.1775 448.836 58.9843 448.415 59.8567C447.676 61.3946 447.091 62.4486 446.493 64.042C446.332 64.4706 446.289 64.9421 446.186 65.4136C445.792 65.6859 445.361 63.6134 445.361 62.7284C444.892 62.3502 444.423 61.9468 443.929 61.5837C443.624 61.3568 443.352 61.1198 443.203 60.7114C442.598 60.6055 441.995 60.4845 441.385 60.3962C440.467 60.2651 439.545 60.1542 438.624 60.0357C438.471 60.0155 438.307 60.0231 438.166 59.9676C437.583 59.7356 437.008 59.834 436.431 59.9752C436.04 60.071 435.647 60.1592 435.266 60.2828C435.1 60.3357 434.961 60.4693 434.805 60.5702C434.805 60.8425 435.019 64.6749 435.286 66.2607C435.374 66.7852 435.46 67.3046 435.082 67.8214C434.429 68.1921 434.096 68.5123 433.284 68.7568C433.067 68.6963 432.833 68.6308 432.594 68.5652C432.215 68.6913 431.804 68.7266 431.507 68.9989C431.492 69.2434 433.524 69.3947 434.079 69.6695C434.404 69.4653 435.821 68.7568 435.985 68.8552C435.959 69.1098 435.98 69.3645 435.906 69.5863C435.619 70.436 433.332 74.2961 432.841 75.3147C433.095 75.4912 433.062 75.0878 433.125 75.0954C433.72 75.0601 434.202 75.2996 434.696 75.1054C435.009 74.9819 435.362 74.9542 435.667 74.8155C436.688 74.3465 437.752 74.2759 438.846 74.4096C439.492 74.4902 442.666 75.3223 443.649 75.403C444.943 75.5114 446.241 75.6173 447.545 75.4786C448.248 75.403 448.891 75.2466 449.264 74.5634C450.212 73.6733 451.138 72.7581 452.113 71.8984C452.953 71.1571 453.747 70.3831 454.42 69.5006C454.433 69.3922 454.463 69.2964 454.448 69.2081C454.314 68.4694 454.317 67.7307 454.428 66.9894C454.549 66.175 454.201 63.2377 453.911 61.4274C455.119 62.1485 455.976 63.4016 456.417 64.2235C456.798 64.932 457.171 65.643 457.648 66.2986C458.051 66.8507 458.038 67.5214 458.041 68.1744C458.041 68.6938 457.839 69.1375 457.481 69.5107C457.418 69.5788 457.36 69.6519 457.269 69.7553C457.221 70.5369 456.846 71.2605 456.601 72.0244C456.094 73.6154 455.585 75.2063 455.141 76.8149C454.92 77.6167 454.811 78.4537 454.705 79.2807C454.642 79.7673 454.67 80.2691 454.68 80.7632C454.688 81.1641 454.743 81.5675 454.529 82.0264C453.603 82.5811 452.529 82.9744 451.523 83.519C450.664 83.1711 450.106 82.3466 449.131 82.1903C448.359 82.3441 447.759 82.9265 447.073 83.2618C446.975 83.2694 446.912 83.287 446.851 83.277C444.476 82.8559 442.091 82.4676 439.86 81.4793C439.555 81.3456 435.165 80.0547 433.582 79.8177C432.891 80.0346 428.701 81.3179 427.437 81.8297C426.923 82.039 426.409 82.2508 426.041 82.7576C426.863 83.8644 427.639 84.994 428.053 86.2924C428.312 87.1093 428.433 89.2096 428.411 89.3533C427.969 88.3195 424.833 85.5386 424.024 84.641C423.824 84.4216 418.247 81.9407 418.071 81.865C417.504 81.2171 416.878 80.612 416.54 79.7875C416.437 79.5328 414.874 77.0166 414.776 77.0569C414.907 78.2747 415.663 79.8001 416.061 81.1339C415.139 80.675 413.845 79.7295 413.462 78.9277C413.333 78.2848 413.263 77.7629 413.122 77.2637C412.711 75.8215 412.607 74.3415 412.559 72.8539C412.552 72.6119 412.877 70.0503 412.262 69.0972C412.063 68.7896 411.939 68.4316 411.808 68.0862C411.505 67.2869 411.031 66.6314 410.366 66.0767C409.082 65.0051 407.837 63.8857 406.581 62.7814C406.259 62.4965 405.956 62.1838 405.578 61.8207C405.152 61.6745 400.427 61.8737 399.696 61.8737C399.625 62.1283 399.544 68.6257 399.63 71.321C399.426 72.506 399.721 73.6633 399.827 74.8281C399.87 75.287 401.456 79.8455 401.806 80.6195C401.698 80.8237 398.801 80.0396 397.84 80.0447C397.477 80.0447 395.114 80.733 394.852 80.9347C394.005 81.5877 388.08 84.3157 388.002 84.3334C387.846 84.1922 389.381 79.7446 390.158 77.6923C390.692 76.2778 391.267 74.8684 391.943 73.5196C392.432 72.5438 392.636 71.5454 392.661 70.4839C392.697 69.0594 392.719 67.6348 392.742 66.2103C392.76 65.169 392.755 65.169 392.182 64.2815L392.175 64.279ZM399.996 58.8154C400.593 58.8481 401.113 58.9061 401.617 58.6666C402.295 58.3464 403.021 58.2103 403.77 58.1598C404.01 58.1447 404.264 58.0842 404.479 57.9758C405.197 57.6152 405.906 57.2345 406.607 56.8437C407.098 56.5689 407.491 56.1806 407.857 55.7495C408.656 54.804 409.486 53.8862 410.29 52.9433C410.507 52.6886 410.709 52.4062 410.86 52.1087C411.253 51.3372 411.614 50.5506 411.984 49.769C412.025 49.6857 412.04 49.5925 412.05 49.5546V48.7251C412.179 48.3596 412.29 48.0419 412.348 47.8755C412.327 47.0838 411.642 46.9829 411.354 46.5039C411.942 46.2644 412.64 46.5039 413.122 45.9315C412.965 45.7803 412.819 45.6366 412.703 45.5231C412.335 45.508 412.025 45.4928 411.826 45.4853C411.339 45.2584 410.948 45.0793 410.52 44.8802C410.492 44.7995 410.436 44.6885 410.411 44.5726C410.265 43.8969 409.902 43.3951 409.284 43.0648C409.072 42.9514 408.891 42.7698 408.714 42.5984C408.382 42.2757 408.064 41.9378 407.739 41.6075C407.456 41.3201 407.164 41.01 406.763 40.9243C406.443 40.8537 406.095 40.9091 405.848 40.9091C405.568 40.8209 405.366 40.7125 405.159 40.7049C404.479 40.6772 403.8 40.6595 403.15 40.4099C403.011 40.357 402.842 40.3872 402.691 40.3721C401.844 40.2864 401.072 40.594 400.291 40.7805C400.202 41.7991 400.114 42.7799 400.031 43.7632C399.96 44.6255 399.9 45.4878 399.827 46.3501C399.814 46.5039 399.751 46.6501 399.733 46.8039C399.681 47.2325 399.615 47.6612 399.597 48.0898C399.575 48.647 399.592 49.2042 399.597 49.7614C399.597 49.8522 399.615 49.9454 399.622 50.0236C399.743 50.2556 399.857 50.4724 399.983 50.7119C399.764 51.5112 399.978 52.3735 399.628 53.1677C399.57 53.2988 399.595 53.4727 399.595 53.6265C399.595 55.1444 399.595 56.6597 399.6 58.1775C399.6 58.2682 399.635 58.359 399.658 58.4725C399.751 58.5708 399.857 58.6817 399.991 58.8204L399.996 58.8154Z" fill="url(#paint3_linear_510_434)" shape-rendering="crispEdges"/>
<path d="M126.223 68.5376C126.049 68.709 126.13 69.2788 126.13 69.3696C126.122 71.1043 126.095 72.8465 126.334 74.566C126.513 75.8544 126.445 77.1579 126.69 78.4387C126.929 79.6842 127.116 80.9398 127.358 82.1854C127.592 83.3981 127.867 84.6033 128.142 85.8891C128.071 86.4464 123.783 86.8069 123.104 87.0817C122.444 87.528 121.69 88.0146 120.964 88.539C120.134 89.1366 117.212 91.0048 117.215 90.3821C117.215 90.1728 117.258 89.9434 117.346 89.7543C117.81 88.7609 118.019 87.702 118.218 86.6354C118.377 85.7858 118.586 84.9436 118.798 84.1041C119.04 83.1359 119.126 82.1551 119.116 81.1592C119.106 80.1734 118.957 79.1775 119.307 78.2572C119.136 78.0731 119.015 77.942 118.874 77.7882C119.002 77.5285 119.123 77.284 119.254 77.0217C119.34 75.6098 119.058 74.2004 118.99 72.7784C118.959 72.1607 118.816 69.7604 118.899 69.6444C119.101 69.589 119.928 69.2259 119.96 69.1023C118.433 68.7544 117.898 68.8931 117.063 68.8427C117.53 67.7963 118.016 66.7626 118.455 65.7062C118.944 64.5338 119.35 63.3286 119.534 62.0654C119.658 61.2082 119.739 60.3434 119.809 59.4811C119.834 59.1785 119.799 58.8608 119.744 58.5608C119.575 57.6708 119.484 56.8035 119.789 55.9084C119.986 55.3285 120.034 54.6982 120.162 54.0275C119.827 53.2585 119.665 52.3887 119.549 51.4961C119.421 50.5179 119.222 49.5421 118.99 48.5815C118.785 47.7369 118.571 46.8998 118.664 45.9796C118.4 45.5837 118.158 45.1475 117.843 44.7719C117.535 44.4063 116.08 42.9137 116.299 42.1371C116.524 41.9253 120.149 43.6448 121.123 44.0432C121.582 44.2298 122.046 44.4012 122.489 44.6181C123.316 45.0189 124.173 45.2131 125.094 45.145C125.648 45.1047 126.208 45.1122 126.763 45.0769C127.005 45.0618 127.255 45.0215 127.484 44.9433C127.95 44.7819 128.424 44.6206 128.863 44.3987C130.663 43.486 132.602 42.9212 134.458 42.1548C135.27 41.8194 136.084 41.9026 136.83 42.2405C137.753 43.7886 138.915 45.0845 139.848 46.5468C140.106 46.9528 140.517 47.2629 140.864 47.6083C141.454 48.1983 142.062 48.7706 142.642 49.3707C142.939 49.6808 143.232 50.0111 143.454 50.3767C143.746 50.8608 144.097 51.2844 144.495 51.6777C145.143 52.3156 145.584 53.1022 146.061 53.8636C146.326 54.2847 146.343 54.7562 146.202 55.2125C145.446 57.638 144.51 59.9954 143.35 62.257C143.073 62.7991 142.667 63.2908 142.251 63.7421C141.631 64.4127 141.124 65.1868 140.423 65.7868C140.194 65.9835 139.987 66.2054 139.763 66.4222C139.488 67.2467 139.894 67.9274 140.315 68.5653C140.489 68.8301 140.61 69.0797 140.683 69.3797C140.741 69.6167 140.859 69.8411 140.96 70.0655C141.122 70.426 141.293 70.7815 141.48 71.1849C140.935 71.543 140.716 72.1632 140.148 72.4733C139.962 72.5742 139.823 72.8389 139.964 73.1692C140.34 73.1062 140.723 73.0457 141.107 72.9801C141.472 72.9196 141.835 72.854 142.223 72.786C142.491 73.3356 142.758 73.8878 143.005 74.3996C143.63 74.8408 144.122 75.3325 144.533 75.93C145.181 76.8679 145.867 77.7832 146.565 78.6858C146.865 79.0741 147.231 79.4145 147.576 79.7674C148.209 80.4129 148.691 81.1794 149.142 81.9458C149.558 82.6493 150.11 83.2191 150.614 83.8368C150.829 84.099 151.073 84.3385 151.232 84.5075C151.855 84.8504 152.412 85.1151 152.929 85.4479C154.386 86.3858 159.222 86.4589 159.038 86.7766C158.556 86.9582 152.707 88.9954 152.14 88.6777C151.648 88.4029 147.473 87.9137 146.147 87.2406C145.738 87.0313 145.274 86.933 144.843 86.764C144.296 86.5497 142.082 87.2053 142.004 87.117C142.004 86.9203 141.974 86.7035 142.012 86.4993C142.08 86.1362 142.191 85.7807 142.279 85.4202C142.4 84.9336 142.302 84.4999 141.969 84.1217C141.747 83.8671 141.477 83.6427 141.412 83.2569C141.404 82.8535 141.641 82.5913 141.999 82.4148C142.193 82.319 142.405 82.256 142.589 82.1425C142.786 82.019 142.957 81.8551 143.202 81.6584C142.541 81.3962 141.959 81.5122 141.384 81.5475C141.106 81.5651 140.832 81.6206 140.554 81.6483C140.274 81.6786 139.997 81.6761 139.737 81.4996C139.339 81.1062 139.523 80.5742 139.425 80.0347C138.958 79.0211 138.338 78.0252 137.685 77.047C137.461 76.7116 137.221 76.3864 137.035 76.0309C136.329 74.687 135.545 73.3886 134.695 72.1304C134.196 71.3942 133.933 70.5798 133.936 69.6848C133.936 69.3494 133.936 69.0116 133.936 68.6006C133.762 68.5603 133.53 68.5023 133.296 68.4493C131.659 68.0762 130.028 68.3485 128.397 68.4771C127.812 68.525 126.851 68.4771 126.213 68.5401L126.223 68.5376ZM127.093 57.3329C126.985 57.8876 126.891 58.3415 126.813 58.7978C126.733 59.2542 126.697 59.7206 126.589 60.1694C126.4 60.9535 126.276 61.7503 126.236 62.5495C126.188 63.5051 126.077 64.6951 126.223 65.6431C126.228 65.6709 127.416 65.7843 127.908 65.7818C129.486 65.7742 131.067 65.7515 132.645 65.7163C133.076 65.7062 133.505 65.623 133.891 65.5801C134.14 65.4187 134.347 65.2851 134.531 65.1666C135.005 64.1808 135.603 63.3185 136.334 62.5545C137.236 61.6091 138.091 60.6358 138.527 59.2189C138.537 59.0852 138.575 58.8079 138.58 58.5306C138.59 57.7893 138.915 57.2321 139.516 56.8136C139.871 56.5665 140.219 56.3093 140.562 56.0446C140.766 55.8857 140.922 55.6941 140.761 55.384C140.373 55.0663 139.942 55.4344 139.533 55.3462C139.11 55.2655 138.684 55.1873 138.212 55.0991C138.089 54.8142 137.922 54.5141 137.829 54.1914C137.587 53.3644 137.103 52.7038 136.538 52.0735C135.923 51.3827 135.217 50.7625 134.776 49.9254C134.576 49.5497 134.218 49.3505 133.83 49.2169C133.132 48.9774 132.438 48.7429 131.7 48.6017C130.439 48.3597 129.178 48.3143 127.91 48.3672C127.577 48.3798 127.247 48.4706 126.952 48.5185C126.75 48.9471 126.574 49.2976 126.571 49.7237C126.566 50.7145 126.533 51.7054 126.506 52.6963C126.498 53.0064 126.498 53.319 126.443 53.6216C126.307 54.3603 126.304 55.0991 126.337 55.7193C126.622 56.3295 126.856 56.8287 127.093 57.338V57.3329Z" fill="url(#paint4_linear_510_434)" shape-rendering="crispEdges"/>
<path d="M189.128 68.6432C189.297 68.9508 189.61 69.5483 190.24 69.9895C189.852 71.3611 188.987 74.0539 188.409 75.3574C187.845 76.6306 187.29 77.9064 186.715 79.1746C186.493 79.6638 186.004 81.0984 186.15 81.8119C185.906 81.8472 185.039 82.0363 184.794 82.0716C183.967 82.1951 183.16 82.3691 182.366 82.6616C181.325 83.0448 178.76 83.7962 178.602 83.9298C177.714 84.6912 174.822 85.9342 174.447 86.1435C173.854 86.4763 173.057 87.5831 172.651 87.4495C172.417 87.3739 170.077 86.8469 169.709 86.8116C169.023 86.7461 168.373 86.5645 167.735 86.325C166.25 85.7678 164.843 85.0694 163.585 84.0836C163.421 83.955 160.864 82.6515 160.279 82.3136C159.785 82.0262 159.336 81.6581 158.847 81.3102C158.749 81.0227 158.651 80.7328 158.547 80.4428C158.351 79.8856 158.068 79.3788 157.685 78.9275C157.486 78.693 157.304 78.4409 157.133 78.1812C156.815 77.6997 156.376 77.3744 155.852 77.15C155.512 77.0038 155.174 76.855 154.851 76.7138C154.538 76.2726 154.193 75.8793 154.082 75.3498C153.346 74.4573 153.21 73.2798 152.64 72.3041C152.491 72.0494 152.496 71.7065 152.4 71.4141C151.848 69.6769 150.61 65.8597 150.038 64.1275C150.492 63.6384 150.857 62.4105 151.109 61.8886C151.646 60.8196 152.083 59.6951 152.312 58.5101C152.494 57.5747 152.635 56.6317 152.801 55.6938C152.937 54.9223 153.25 54.2163 153.646 53.5457C154.369 52.3153 154.929 51.0042 155.426 49.6704C155.64 49.0956 155.897 47.5525 155.973 46.9424C157.15 46.8315 158.035 45.9944 158.124 46.1331C159.2 46.0297 160.252 45.7801 161.29 45.48C162.806 45.0413 164.313 44.585 165.821 44.1236C167.15 43.7177 168.474 43.289 169.805 42.8831C170.067 42.8024 170.354 42.7066 170.614 42.7419C171.053 42.8024 172.354 42.4999 172.682 42.2629C173.017 42.6688 174.462 43.3521 174.522 43.6723C174.827 43.7983 175.137 43.9269 175.45 44.053C176.307 44.4009 176.996 44.938 177.48 45.7448C178.034 46.6701 178.924 47.2601 179.746 47.9131C179.885 48.0215 180.082 48.0618 180.258 48.1148C180.465 48.1778 180.677 48.2257 180.886 48.2787C181.889 48.5358 181.957 48.5762 182.638 49.3578C182.966 49.4864 183.284 49.6074 183.647 49.7486C183.803 50.0083 184.005 50.2478 184.33 50.4041C184.683 50.5731 185.006 50.8454 185.286 51.1303C186.133 51.99 186.937 52.8901 187.787 53.7474C188.775 54.7433 189.34 55.9661 189.794 57.2621C190.202 58.4294 190.598 59.6018 191.024 60.7616C191.238 61.3415 191.488 61.9088 191.76 62.4635C191.922 62.7912 192.446 63.6258 192.655 63.9284C192.244 64.3771 191.165 67.2817 190.737 67.8061C190.384 68.2372 189.738 68.4969 189.123 68.6407L189.128 68.6432ZM157.914 62.6349C158.154 63.0131 158.272 63.4518 158.335 63.9183C158.467 64.8688 158.613 65.8168 158.792 66.7598C158.941 67.5464 159.021 68.3507 159.382 69.0894C159.47 69.271 159.475 69.5155 159.457 69.7248C159.399 70.3829 159.528 71.0208 159.631 71.6612C159.755 72.4402 160.146 73.0075 160.827 73.4412C161.739 74.0236 162.639 74.6363 163.464 75.3347C164.787 76.4541 166.036 77.6593 167.329 78.8166C167.881 79.3108 168.448 79.7949 169.031 80.2512C169.472 80.5992 169.974 80.8362 170.551 80.8916C170.859 80.9219 171.176 80.9572 171.461 81.0631C172.104 81.3001 172.732 81.2295 173.38 81.0958C173.955 80.9773 174.537 80.8891 175.122 80.8437C175.657 80.8009 176.156 80.6874 176.627 80.4252C176.95 80.2437 177.288 80.0873 177.618 79.9184C178.004 79.7192 178.43 79.5705 178.76 79.3032C179.101 79.0284 179.577 78.8973 179.761 78.4384C180.346 78.1258 180.619 77.5761 180.853 76.9962C181.153 76.2499 181.425 75.491 181.761 74.7624C182.81 72.4781 183.314 70.0728 183.448 67.5767C183.46 67.3321 183.473 67.0774 183.548 66.848C183.76 66.2026 183.99 65.5647 184.239 64.9343C184.514 64.2385 184.721 63.5325 184.718 62.7736C184.718 62.1534 184.744 61.5356 184.749 60.9154C184.751 60.575 184.751 60.2347 184.728 59.8943C184.721 59.7985 184.731 59.0875 184.675 58.9917C184.572 59.0597 184.396 59.7001 184.37 59.748C184.295 59.8817 184.212 60.0178 184.176 60.1641C184.058 60.6759 183.969 61.1953 183.851 61.7071C183.74 62.1962 183.339 63.9334 182.991 64.3771C182.694 63.7645 182.865 61.9617 182.832 61.3365C182.815 60.9734 182.739 60.5826 182.578 60.2599C182.356 59.8161 182.237 59.3497 182.081 58.8858C181.897 58.3361 181.62 57.8016 181.294 57.3175C181.007 56.8889 180.599 56.5435 180.301 56.2208C180.2 55.8274 180.125 55.5299 180.034 55.1769C179.613 54.7433 179.156 54.2794 178.708 53.8079C178.004 53.0666 177.26 52.3581 176.617 51.5664C175.949 50.7445 175.216 50.0007 174.431 49.2948C173.879 48.7955 173.244 48.5333 172.513 48.4728C172.266 48.4526 171.998 48.493 171.777 48.4073C171.303 48.2232 170.866 48.3064 170.42 48.4653C170.1 48.5787 169.785 48.7098 169.457 48.7981C168.234 49.1309 167.026 49.557 165.781 49.7461C164.455 49.9478 163.275 50.3587 162.213 51.1782C161.787 51.5059 161.447 51.8816 161.169 52.3254C160.562 53.3011 160.08 54.3373 159.667 55.4089C159.087 56.904 158.474 58.3865 157.859 59.9144C157.375 59.9422 156.911 59.9548 156.452 60.0027C156.15 60.0355 155.844 60.0985 155.554 60.1867C155.368 60.2422 154.304 60.5876 154.314 60.8246C155.34 60.7414 156.021 60.8196 156.283 60.8978C156.861 61.1726 157.332 61.3945 157.861 61.6466C157.877 61.9012 157.892 62.2063 157.914 62.6299V62.6349Z" fill="url(#paint5_linear_510_434)" shape-rendering="crispEdges"/>
<path d="M378.654 79.7614C378.467 79.7614 377.136 80.8657 376.495 80.8758C376.032 80.8833 374.622 82.2776 374.158 82.2776C372.744 83.4525 370.78 83.9392 368.604 86.0697C368.755 84.9805 369.673 83.3189 369.9 82.9735V81.5565C370.164 80.9817 370.472 80.311 370.772 79.6605C370.936 78.6923 371.529 75.8735 371.69 75.3289C372.081 75.2079 372.514 75.2281 372.928 75.5105C373.256 74.9936 373.379 73.4657 373.321 73.2968C373.243 73.0648 373.127 72.848 373.026 72.6261C373.099 72.3387 373.167 72.0739 373.228 71.8395C372.923 70.8738 371.866 70.5435 371.498 69.6711C371.554 69.5274 371.909 68.6248 371.897 68.2416C371.882 67.7777 371.929 67.3112 371.914 66.8498C371.879 65.7884 372.882 63.8117 372.951 63.7058C372.925 63.4259 372.895 63.1259 372.862 62.7754C373.24 62.7754 375.608 62.377 375.452 62.309C375.026 62.1249 373.672 61.2904 373.356 61.1719C373.16 61.0962 372.943 61.0735 372.698 61.0206C372.666 60.8189 372.746 55.6855 372.829 55.2166C372.668 54.7224 372.666 54.1501 372.769 53.5576C372.837 53.1693 372.608 48.6486 372.608 48.3612C372.361 47.7409 372.151 47.2921 372.005 46.8232C371.745 45.9861 371.579 43.5404 370.404 42.1941C372.751 39.9325 373.235 40.9259 374.08 40.3535C374.673 39.9526 376.155 38.6517 376.586 38.0768C377.169 37.2977 377.865 36.6573 378.704 36.1556C379.125 35.9034 382.481 33.3922 382.69 33.4124C382.736 35.5505 380.58 46.1046 380.3 46.9618C380.33 47.7056 379.753 50.1614 379.814 50.474C380.066 51.78 380.285 53.0911 380.547 54.3946C380.799 55.6578 380.744 56.926 380.615 58.1866C380.434 59.9389 380.199 61.6862 379.995 63.4385C379.97 63.6528 379.972 63.8747 380 64.0865C380.222 65.8363 381.044 71.2142 381.258 72.1471C381.528 73.327 382.131 77.8376 382.12 78.0166C382.07 78.8814 382.234 80.3614 382.148 81.1632C381.553 81.2439 379.178 80.1496 378.656 79.7614H378.654Z" fill="url(#paint6_linear_510_434)" shape-rendering="crispEdges"/>
<path d="M311.21 57.6805C311.429 58.4142 311.487 59.2715 311.3 60.1514C311.23 60.4817 311.247 60.8347 311.202 61.1725C311.099 61.9642 310.96 62.7408 310.652 63.4845C309.823 65.5016 309.019 67.5337 308.217 69.5634C308.045 69.9945 307.813 70.3652 307.481 70.6601C307.044 71.0484 306.613 71.4468 306.154 71.8023C304.601 73.005 302.988 74.1118 301.329 75.1329C300.658 75.5464 299.929 75.854 299.279 76.1843C298.717 76.0179 298.268 75.8187 297.847 75.5212C297.345 75.1682 296.823 74.848 296.296 74.5379C294.839 73.6781 293.374 72.8335 291.967 72.0141C291.793 71.7065 291.654 71.4871 291.536 71.2552C290.883 69.9819 290.106 68.8045 289.234 67.6976C288.959 67.3497 288.697 66.9891 288.42 66.6437C287.971 66.084 287.666 65.4713 287.59 64.7099C287.542 64.2308 287.338 63.7695 287.167 63.1694V58.0537L287.245 58.0688C287.376 57.6024 287.499 57.1309 287.643 56.6695C287.81 56.1325 287.983 55.5954 288.175 55.0685C288.442 54.3322 288.694 53.5859 289.151 52.9481C289.342 52.6808 289.539 52.4161 289.716 52.1362C290.111 51.5059 290.495 50.868 290.873 50.2477C291.864 49.3804 293.064 48.9997 294.188 48.4551C295.807 47.6735 297.385 46.8289 298.812 45.6792C299.034 45.5001 299.307 45.3968 299.564 45.2556C300.292 45.6968 301.011 46.1002 301.702 46.5541C303.031 47.4315 304.354 48.3164 305.844 48.7098C306.545 49.446 307.097 50.2326 307.602 51.0672C307.869 51.5109 308.192 51.9194 308.492 52.3404C308.512 52.3707 308.562 52.3908 308.565 52.4186C308.608 52.8926 308.983 53.1876 309.127 53.5759C309.641 54.9727 310.504 56.1451 311.215 57.6805H311.21ZM306.729 58.5655C306.565 58.2806 306.439 58.1066 306.356 57.9074C306.243 57.6326 306.19 57.3275 306.061 57.0628C305.393 55.6811 304.722 54.2969 304.021 52.9329C303.784 52.4715 303.459 52.058 303.154 51.6395C302.71 51.0268 302.11 50.636 301.455 50.341C301.195 50.2251 300.908 50.1746 300.648 50.0612C299.796 49.683 298.886 49.6931 298.041 49.8847C296.909 50.1419 295.789 50.5579 294.975 51.5613C294.65 51.9622 294.279 52.3228 293.964 52.7312C292.892 54.1179 292.204 55.7593 291.382 57.3124C291.281 57.5015 291.274 57.7486 291.233 57.9705C290.989 59.2639 291.12 60.5573 291.299 61.8331C291.536 63.535 291.902 65.2015 293.084 66.495C293.593 67.4833 294.372 68.2019 295.179 68.8902C296.803 70.2769 298.689 71.1442 300.547 72.0645C301.793 71.525 303.015 71.0283 304.057 70.2895C304.339 69.4676 304.584 68.7162 304.856 67.975C305.625 65.8848 306.22 63.7367 306.775 61.5734C306.974 60.7918 307.09 60.0253 306.792 59.2311C306.704 58.9966 306.742 58.7092 306.732 58.5605L306.729 58.5655Z" fill="url(#paint7_linear_510_434)" shape-rendering="crispEdges"/>
<path d="M331.171 55.4671C330.728 56.2033 331.023 57.9052 330.523 58.7347C330.047 58.9869 329.127 61.2737 328.274 61.5308C326.827 59.7407 325.95 59.5894 323.038 59.5163C322.622 59.7811 320.763 60.25 320.748 60.5248C320.723 61.019 320.705 61.5132 320.66 62.0074C320.632 62.3049 320.562 62.5999 320.504 62.8949C320.398 63.4218 320.353 63.9563 320.529 64.4707C320.721 65.0354 320.708 65.5901 320.549 66.1498C320.4 66.6793 320.436 67.1836 320.544 67.7231C320.67 68.3509 320.675 69.004 320.708 69.6469C320.726 69.9873 320.673 70.3352 320.7 70.6756C320.723 70.9731 320.814 71.263 320.874 71.558C320.708 71.9766 320.342 72.1934 320.005 72.4354C319.109 73.0758 318.192 73.691 317.317 74.3592C316.777 74.7702 316.235 75.2038 315.988 75.8846C315.812 75.9627 315.645 76.0384 315.413 76.1443C315.413 75.7761 315.37 75.4736 315.421 75.1862C315.618 74.0617 315.933 72.9523 316.036 71.8228C316.132 70.7739 316.452 69.836 316.911 68.9157C316.936 68.8628 316.893 68.7745 316.878 68.6888C316.714 68.772 316.558 68.8502 316.374 68.9434C316.349 68.8199 316.286 68.7014 316.311 68.6106C316.523 67.8643 316.475 67.1004 316.475 66.3389C316.475 64.5841 316.48 62.8318 316.475 61.077C316.475 60.7417 316.434 60.4089 316.414 60.134C315.797 59.6953 315.149 60.0458 314.569 59.8617C314.629 59.4155 314.947 59.1759 315.229 58.9364C316.17 58.1372 316.613 57.1438 316.47 55.9134C316.389 55.22 316.47 54.5695 316.684 53.8989C316.908 53.2055 316.873 52.4491 316.684 51.7482C316.437 50.8229 316.465 49.953 316.891 49.0933C316.939 48.995 316.931 48.8714 316.959 48.705C316.447 47.4671 315.736 46.3073 314.808 45.3744C314.669 44.9911 314.68 44.7037 314.97 44.444C315.048 44.4163 315.156 44.3407 315.259 44.3533C315.519 44.381 315.784 44.4213 316.031 44.5045C316.281 44.5877 316.515 44.7264 316.755 44.8449C318.293 45.6089 319.894 45.7677 321.52 45.2256C322.493 44.9004 323.484 44.9886 324.462 44.9836C325.264 44.9785 326.053 44.9584 326.845 44.8147C327.894 44.6256 328.95 44.4844 329.996 44.2827C330.927 44.1036 331.87 43.9524 332.702 43.3498C332.893 43.5086 333.052 43.6423 333.231 43.7885C332.868 44.4667 332.53 45.0996 332.215 45.6895C331.686 46.2417 331.154 46.7334 330.7 47.2906C330.344 47.7293 330.085 48.2461 329.785 48.7302C329.548 49.1109 328.481 51.8642 328.05 52.1239C327.944 52.0558 327.881 50.722 327.805 50.6439C327.122 49.9354 327.178 48.531 326.222 48.3167C325.372 48.1251 324.538 47.8679 323.696 47.6435C323.549 47.6057 323.388 47.5427 323.249 47.5679C322.402 47.7217 321.611 48.057 320.796 48.2083C320.564 49.2042 320.685 50.0791 320.673 50.9464C320.658 52.2399 320.658 53.5333 320.635 54.8267C320.63 55.0915 320.514 55.3562 320.534 55.6159C320.569 56.0647 320.67 56.5059 320.743 56.9572C320.867 56.995 320.973 57.0555 321.081 57.0555C323.139 57.0656 323.935 57.0732 325.993 57.0732C326.368 57.0732 326.779 57.1413 327.009 56.6748C327.563 56.9496 328.068 56.874 328.605 56.7706C329.643 56.5689 330.009 55.2932 331.166 55.4646L331.171 55.4671Z" fill="url(#paint8_linear_510_434)" shape-rendering="crispEdges"/>
<path d="M202.916 49.6015C202.777 49.4334 202.738 49.2763 202.8 49.13C203.055 49.2359 202.974 49.4225 202.916 49.6015Z" fill="url(#paint9_linear_510_434)" shape-rendering="crispEdges"/>
<path d="M171.289 76.522C171.062 76.4489 170.664 73.2393 170.613 72.8409C170.465 71.676 170.356 70.5036 170.182 69.3438C170.011 68.2143 169.819 67.0848 169.559 65.9754C169.269 64.7349 168.7 63.5953 168.16 62.4456C167.979 62.0598 167.825 61.6589 167.636 61.2101C168.7 60.9227 169.186 60.1588 169.486 59.2461C169.738 58.4821 170.016 57.7207 170.172 56.9365C170.318 56.2129 170.472 53.8631 170.83 53.4925C170.949 53.5076 171.377 55.865 171.402 56.697C171.418 57.1609 171.397 57.6249 171.402 58.0888C171.407 58.4594 171.425 58.8275 171.448 59.1982C171.458 59.3519 171.513 59.5032 171.513 59.657C171.526 61.2253 172.146 62.5969 172.877 63.9331C172.981 64.1197 173.137 64.276 173.266 64.45C173.503 64.7702 173.737 65.0955 174.004 65.461C173.324 65.8998 173.094 66.5553 172.945 67.2613C172.766 68.1084 172.519 68.943 172.403 69.7977C172.24 70.9902 172.149 72.1904 171.942 73.3804C171.834 74.0108 171.521 76.6001 171.281 76.5245L171.289 76.522Z" fill="url(#paint10_linear_510_434)" shape-rendering="crispEdges"/>
<path d="M33.7501 75.3916C33.8207 75.9993 34.1384 77.3381 34.6653 79.4232C32.9181 80.2981 31.6499 78.0919 30.2152 77.3154C29.9001 77.3154 27.3586 78.3743 27.3737 78.2987C28.5058 76.6674 29.0176 73.3091 29.005 72.298C29.2093 71.2189 29.0529 68.2236 29.116 67.795C29.1941 67.2428 29.2269 66.6831 28.9521 66.1788C29.184 65.4098 29.1866 64.6534 29.1008 63.9046C28.9092 62.2128 28.352 56.6559 28.352 56.5424C29.237 56.5601 30.4623 54.6893 30.4951 53.9329C30.0362 54.3918 28.9722 55.723 28.8512 55.5591C28.7781 55.1557 29.9757 51.5856 29.1916 50.7662C29.0529 50.8418 25.1853 50.7233 23.5868 50.6376C23.2489 50.804 21.726 51.5629 21.3428 51.7444C19.2527 52.7328 19.8905 52.3218 18.3475 53.8926C18.0525 54.1926 16.1464 56.9433 16.0405 56.9585C15.806 56.6156 16.6356 53.3076 17.3314 52.1327C17.5987 51.6789 17.871 51.2351 18.2265 50.8443C19.3081 49.6568 20.3872 48.4642 21.4638 47.2716C21.7916 46.9086 22.1068 46.5329 22.4547 46.1295C23.027 46.2379 28.1705 47.312 28.3974 47.3195C30.6943 47.4053 32.9912 47.375 35.2881 47.2943C36.5008 47.2515 43.2982 46.4371 45.9078 45.6454C46.6238 45.4286 47.3601 45.2723 48.4114 45.0075C49.0821 44.705 49.9898 44.0973 51.0916 43.8124L51.4975 44.1604C51.4672 44.294 51.4723 44.41 51.4193 44.478C51.0764 44.9142 50.7209 45.3428 50.3478 45.7967L50.4562 46.1245C50.0125 46.9111 49.5611 47.7053 49.1174 48.502C49.0241 48.671 48.9333 48.85 48.8804 49.034C48.8274 49.2181 48.8527 49.4273 48.7947 49.6089C48.7367 49.7929 48.6182 49.9568 48.54 50.1031C48.424 50.8544 48.4442 51.5578 48.6157 52.2764C48.8754 53.3757 48.7241 54.4876 48.5577 55.5894C48.4417 56.3659 48.2652 57.1349 48.298 57.9266C48.3055 58.0855 48.3358 58.2443 48.3534 58.388C49.2712 58.7738 59.0387 58.5822 59.1748 58.5166C59.2959 58.1006 58.1815 54.7977 58.1361 54.6742C58.5521 53.0908 58.9303 50.0249 58.9303 49.3719C58.9303 49.0794 58.542 46.4371 58.5949 46.2303C58.8723 46.2883 62.7047 44.2965 62.7929 44.1251C64.0031 42.751 63.7283 39.8263 63.8165 39.675C64.5805 40.8877 64.9436 42.0626 65.0671 43.1771C64.6082 45.1714 64.6561 46.4119 64.5553 47.2515C64.52 47.5439 63.6401 50.4913 63.6048 51.3284C63.5594 52.3722 63.4056 53.411 63.2921 54.5078C62.9795 55.6953 63.451 59.2427 63.4459 60.5942C62.9795 61.8119 62.8862 62.7751 61.9079 63.9853C62.6996 63.8315 63.7182 62.4045 64.0107 61.9733C63.983 62.4498 63.7258 65.3216 63.7712 66.4612C63.8165 67.5882 63.4762 70.0415 63.456 70.2179C63.5745 70.5835 65.352 79.5694 65.352 79.7938C65.2537 79.8619 63.6905 78.8509 63.3753 78.3743C62.9971 77.7995 62.571 77.2574 62.1348 76.6624C61.323 76.2489 60.4103 75.9942 59.5656 75.7118C59.1194 75.6892 58.7513 75.9514 58.2974 75.7723C58.31 75.5984 59.0614 69.87 59.0563 68.7178C59.0488 66.3881 58.9202 61.0959 58.8799 60.8261C58.5546 60.6194 55.4761 63.3676 54.5483 63.5642C50.3554 61.7414 50.02 61.4211 48.5804 61.4211C48.4467 61.5598 47.9752 65.9595 48.0887 67.3311C48.2475 69.222 48.3862 71.1206 48.8829 72.9611C48.9712 73.2889 48.9939 73.599 48.9787 73.9293C48.9359 74.8143 48.9081 75.6967 48.8728 76.5817C48.8527 77.0784 48.8905 77.5625 49.0821 78.0289C49.1325 78.1499 49.1703 78.2785 49.188 78.4046C49.2485 78.8862 49.2989 79.3702 49.3594 79.9073C48.951 79.7434 47.4206 77.8802 47.1357 77.6255C45.6531 76.317 43.3537 75.4143 43.4117 75.2278C43.5832 74.6655 44.0975 71.3172 44.1025 70.2028C44.1076 69.0834 43.7344 67.1546 43.4243 66.083C44.0647 64.5828 43.9008 62.1195 43.9008 61.991C43.6487 61.7968 41.3745 62.4347 41.2938 62.4347C41.0921 62.2179 43.2377 59.7168 43.8075 59.1722C43.9462 59.0385 44.0647 58.8822 44.2135 58.7133C44.0975 58.4334 43.9866 58.1662 43.863 57.8636C43.863 57.8006 43.8504 57.7022 43.863 57.6064C43.9059 57.314 43.9765 57.0265 43.9992 56.7315C44.0244 56.4063 44.0798 56.0609 44.0017 55.7533C43.7798 54.8834 43.7849 54.0035 43.7596 53.1185C43.7445 52.5991 43.6764 52.0798 43.6311 51.5452C44.2236 50.6426 44.8337 49.7123 45.4388 48.7794C45.4691 48.734 45.4413 48.6533 45.4413 48.5802C45.1842 48.439 44.9371 48.5197 44.7127 48.6634C44.5186 48.7844 44.3471 48.9382 44.1656 49.0794C43.3588 49.6946 42.5772 50.3426 41.7376 50.9073C41.3417 51.1721 40.8375 51.2755 40.366 51.457C39.7205 51.2906 39.0877 51.1317 38.4574 50.9653C36.7101 50.5039 33.6896 50.2947 33.624 50.3249C32.6811 53.9606 33.382 58.678 33.6392 59.1268C33.503 59.6714 33.4047 62.0817 33.3795 62.1775C33.4955 62.9238 33.6795 65.5283 33.6467 65.8359C33.5635 66.6125 32.9156 69.3607 32.9206 69.4439C33.1047 69.5851 33.8913 68.5766 34.1686 68.1555C34.3199 68.2059 34.3956 70.7802 34.4182 71.5265C34.4611 72.8628 33.9316 74.078 33.7501 75.3715V75.3916Z" fill="url(#paint11_linear_510_434)" shape-rendering="crispEdges"/>
<path d="M78.6015 78.2971C77.6888 78.0879 76.8063 78.0198 75.9642 77.7172C75.7524 77.6416 75.5104 77.6517 75.2809 77.6517C74.2321 77.6593 73.1807 77.634 72.1344 77.7097C71.3603 77.7652 70.5913 77.9542 69.8148 78.0828C69.6559 77.9694 69.787 77.8433 69.8249 77.7324C70.2636 76.4036 70.6569 75.0598 70.9746 73.6907C71.0729 73.2697 71.1082 72.8612 71.1082 72.4377C71.1082 70.1761 71.1082 67.9119 71.1107 65.6503C71.1107 65.2267 71.2796 62.9072 71.3124 62.1659C71.3401 61.5381 70.8409 54.8516 70.7905 54.7331C71.3023 52.9254 71.2015 49.9906 71.0805 49.7082C70.7325 48.8787 69.9181 47.4012 69.5324 46.549C69.6837 46.3095 72.1268 46.4683 72.6462 46.4154C74.2875 46.2464 78.8259 45.0287 78.9217 45.0135C79.4915 44.9228 83.0389 45.6943 84.7534 45.2505C84.8618 45.4422 86.473 48.6139 86.7175 49.9628C86.7654 50.2326 86.6999 53.0918 86.6066 53.4649C86.4982 53.4145 85.4064 51.4126 84.9955 50.868C84.0449 50.3864 81.0446 49.1106 80.9463 49.0224C79.8999 48.0946 75.9062 49.6174 75.7827 49.6578C75.5961 50.4999 75.0464 52.5951 75.0742 53.48C75.1145 54.7508 74.701 56.0921 75.4927 59.3547C75.5205 59.6572 78.0544 58.9286 78.5712 58.8302C79.31 58.689 83.3087 57.7738 83.4802 57.8671C83.6163 59.216 83.4045 59.3925 83.9239 60.5598C84.2769 61.354 85.8174 64.4578 85.7872 64.5763C85.3384 64.3846 80.6488 61.9818 79.731 61.9642C78.9217 61.9491 76.8139 62.3953 76.0726 62.7861C75.4927 66.031 74.8397 72.5587 77.6963 74.3967C78.1955 74.2177 80.1269 73.6302 80.5857 73.7613C81.4077 73.9933 82.2321 74.2126 83.1096 74.4496C83.987 73.9076 84.7433 73.1285 85.5224 72.3721C86.1427 71.7695 87.6025 68.6305 88.0235 67.6825C88.9539 69.6466 88.5303 73.5748 88.5303 73.8193C87.5874 74.9665 87.2798 76.9785 85.9864 77.871C84.1458 77.2937 78.8687 78.1988 78.6015 78.2997V78.2971Z" fill="url(#paint12_linear_510_434)" shape-rendering="crispEdges"/>
</g>
<defs>
<filter id="filter0_d_510_434" x="0.541667" y="0.264486" width="472.958" height="136.917" filterUnits="userSpaceOnUse" color-interpolation-filters="sRGB">
<feFlood flood-opacity="0" result="BackgroundImageFix"/>
<feColorMatrix in="SourceAlpha" type="matrix" values="0 0 0 0 0 0 0 0 0 0 0 0 0 0 0 0 0 0 127 0" result="hardAlpha"/>
<feOffset dy="7.72917"/>
<feGaussianBlur stdDeviation="7.72917"/>
<feComposite in2="hardAlpha" operator="out"/>
<feColorMatrix type="matrix" values="0 0 0 0 0 0 0 0 0 0 0 0 0 0 0 0 0 0 0.34 0"/>
<feBlend mode="normal" in2="BackgroundImageFix" result="effect1_dropShadow_510_434"/>
<feBlend mode="normal" in="SourceGraphic" in2="effect1_dropShadow_510_434" result="shape"/>
</filter>
<linearGradient id="paint0_linear_510_434" x1="43.6042" y1="70.3791" x2="399.698" y2="77.0041" gradientUnits="userSpaceOnUse">
<stop stop-color="#FF6F66"/>
<stop offset="0.317708" stop-color="#FF6F66" stop-opacity="0.34"/>
<stop offset="0.739289" stop-color="#FF6F66"/>
<stop offset="1" stop-color="#FF6F66" stop-opacity="0.44"/>
</linearGradient>
<linearGradient id="paint1_linear_510_434" x1="43.6042" y1="70.3791" x2="399.698" y2="77.0041" gradientUnits="userSpaceOnUse">
<stop stop-color="#FF6F66"/>
<stop offset="0.317708" stop-color="#FF6F66" stop-opacity="0.34"/>
<stop offset="0.739289" stop-color="#FF6F66"/>
<stop offset="1" stop-color="#FF6F66" stop-opacity="0.44"/>
</linearGradient>
<linearGradient id="paint2_linear_510_434" x1="43.6042" y1="70.3791" x2="399.698" y2="77.0041" gradientUnits="userSpaceOnUse">
<stop stop-color="#FF6F66"/>
<stop offset="0.317708" stop-color="#FF6F66" stop-opacity="0.34"/>
<stop offset="0.739289" stop-color="#FF6F66"/>
<stop offset="1" stop-color="#FF6F66" stop-opacity="0.44"/>
</linearGradient>
<linearGradient id="paint3_linear_510_434" x1="43.6042" y1="70.3791" x2="399.698" y2="77.0041" gradientUnits="userSpaceOnUse">
<stop stop-color="#FF6F66"/>
<stop offset="0.317708" stop-color="#FF6F66" stop-opacity="0.34"/>
<stop offset="0.739289" stop-color="#FF6F66"/>
<stop offset="1" stop-color="#FF6F66" stop-opacity="0.44"/>
</linearGradient>
<linearGradient id="paint4_linear_510_434" x1="43.6042" y1="70.3791" x2="399.698" y2="77.0041" gradientUnits="userSpaceOnUse">
<stop stop-color="#FF6F66"/>
<stop offset="0.317708" stop-color="#FF6F66" stop-opacity="0.34"/>
<stop offset="0.739289" stop-color="#FF6F66"/>
<stop offset="1" stop-color="#FF6F66" stop-opacity="0.44"/>
</linearGradient>
<linearGradient id="paint5_linear_510_434" x1="43.6042" y1="70.3791" x2="399.698" y2="77.0041" gradientUnits="userSpaceOnUse">
<stop stop-color="#FF6F66"/>
<stop offset="0.317708" stop-color="#FF6F66" stop-opacity="0.34"/>
<stop offset="0.739289" stop-color="#FF6F66"/>
<stop offset="1" stop-color="#FF6F66" stop-opacity="0.44"/>
</linearGradient>
<linearGradient id="paint6_linear_510_434" x1="43.6042" y1="70.3791" x2="399.698" y2="77.0041" gradientUnits="userSpaceOnUse">
<stop stop-color="#FF6F66"/>
<stop offset="0.317708" stop-color="#FF6F66" stop-opacity="0.34"/>
<stop offset="0.739289" stop-color="#FF6F66"/>
<stop offset="1" stop-color="#FF6F66" stop-opacity="0.44"/>
</linearGradient>
<linearGradient id="paint7_linear_510_434" x1="43.6042" y1="70.3791" x2="399.698" y2="77.0041" gradientUnits="userSpaceOnUse">
<stop stop-color="#FF6F66"/>
<stop offset="0.317708" stop-color="#FF6F66" stop-opacity="0.34"/>
<stop offset="0.739289" stop-color="#FF6F66"/>
<stop offset="1" stop-color="#FF6F66" stop-opacity="0.44"/>
</linearGradient>
<linearGradient id="paint8_linear_510_434" x1="43.6042" y1="70.3791" x2="399.698" y2="77.0041" gradientUnits="userSpaceOnUse">
<stop stop-color="#FF6F66"/>
<stop offset="0.317708" stop-color="#FF6F66" stop-opacity="0.34"/>
<stop offset="0.739289" stop-color="#FF6F66"/>
<stop offset="1" stop-color="#FF6F66" stop-opacity="0.44"/>
</linearGradient>
<linearGradient id="paint9_linear_510_434" x1="43.6042" y1="70.3791" x2="399.698" y2="77.0041" gradientUnits="userSpaceOnUse">
<stop stop-color="#FF6F66"/>
<stop offset="0.317708" stop-color="#FF6F66" stop-opacity="0.34"/>
<stop offset="0.739289" stop-color="#FF6F66"/>
<stop offset="1" stop-color="#FF6F66" stop-opacity="0.44"/>
</linearGradient>
<linearGradient id="paint10_linear_510_434" x1="43.6042" y1="70.3791" x2="399.698" y2="77.0041" gradientUnits="userSpaceOnUse">
<stop stop-color="#FF6F66"/>
<stop offset="0.317708" stop-color="#FF6F66" stop-opacity="0.34"/>
<stop offset="0.739289" stop-color="#FF6F66"/>
<stop offset="1" stop-color="#FF6F66" stop-opacity="0.44"/>
</linearGradient>
<linearGradient id="paint11_linear_510_434" x1="43.6042" y1="70.3791" x2="399.698" y2="77.0041" gradientUnits="userSpaceOnUse">
<stop stop-color="#FF6F66"/>
<stop offset="0.317708" stop-color="#FF6F66" stop-opacity="0.34"/>
<stop offset="0.739289" stop-color="#FF6F66"/>
<stop offset="1" stop-color="#FF6F66" stop-opacity="0.44"/>
</linearGradient>
<linearGradient id="paint12_linear_510_434" x1="43.6042" y1="70.3791" x2="399.698" y2="77.0041" gradientUnits="userSpaceOnUse">
<stop stop-color="#FF6F66"/>
<stop offset="0.317708" stop-color="#FF6F66" stop-opacity="0.34"/>
<stop offset="0.739289" stop-color="#FF6F66"/>
<stop offset="1" stop-color="#FF6F66" stop-opacity="0.44"/>
</linearGradient>
</defs>
</svg>
